# Blender v3.1.2 OBJ File: 'Rochers.blend'
# www.blender.org
mtllib Rock_1.mtl
o Rock_1_Cube.002
v 4.752415 1.177098 1.403396
v 5.479689 -0.041465 0.340270
v 5.750181 -1.272277 -1.582398
v 4.187054 -1.239196 -2.323030
v 5.761732 -0.363754 -1.834245
v 5.128164 0.267457 -2.279862
v 4.558168 -1.660075 -1.923005
v 4.187054 -1.423576 -2.323030
v 5.747381 -1.280318 -1.521394
v 5.284861 -1.660075 -1.593751
v 5.473448 -0.723609 0.737685
v 5.232950 -1.660075 -0.462083
v 4.118788 -1.660075 1.960570
v 4.797018 -0.721816 2.189300
v 4.646215 1.177106 1.635222
v 4.379911 0.786618 2.376311
v 4.227583 1.720448 -1.106858
v 4.550917 0.959321 -2.306352
v 5.078728 0.385449 1.537856
v 4.444889 0.434056 2.378844
v -4.938545 1.720448 1.265899
v -4.087229 1.043710 2.611465
v -4.190029 0.381261 2.606750
v -5.208027 1.720448 -1.539673
v -5.282572 1.720448 0.780120
v -5.598330 1.150239 0.455154
v -2.252192 -1.660075 -2.235398
v -2.455549 -1.418647 -2.627747
v -3.884722 0.959321 -2.693299
v -5.331636 1.482758 -1.924561
v -5.490774 1.206540 -1.889542
v -5.479952 -0.348624 -2.125473
v -4.326445 -0.599017 -2.713562
v -3.406876 -1.660075 1.615356
v -3.835516 -1.261096 2.184585
v -4.618305 -0.840350 2.261001
v -5.616041 -0.789043 0.841278
v -4.404034 -1.660075 0.036041
v -5.572645 -1.113433 -0.104767
v 4.228424 1.720448 1.686400
v 4.684593 1.720448 0.694503
v 5.713938 0.014787 -0.792253
v 5.679480 -1.280318 -0.041062
v 4.413633 -1.129424 2.598144
v 4.598347 -1.227027 2.286269
v 3.905714 0.381261 2.978118
v 3.774263 1.043710 2.972075
vt 0.252932 0.029515
vt 0.342071 0.082800
vt 0.349864 0.555126
vt 0.262019 0.580275
vt 0.831460 0.616763
vt 0.854085 0.588385
vt 0.865168 0.590095
vt 0.849123 0.697110
vt 0.845829 0.699200
vt 0.825432 0.666928
vt 0.999621 0.009507
vt 0.970285 0.108655
vt 0.875228 0.087532
vt 0.888512 0.009377
vt 0.982641 0.000379
vt 0.956231 0.650487
vt 0.910265 0.696169
vt 0.213313 0.906144
vt 0.157158 0.920658
vt 0.136550 0.857765
vt 0.213874 0.811046
vt 0.213874 0.902396
vt 0.627149 0.101331
vt 0.778463 0.218501
vt 0.771949 0.637107
vt 0.749776 0.681688
vt 0.680918 0.675400
vt 0.541915 0.604512
vt 0.540489 0.169468
vt 0.651884 0.708745
vt 0.742915 0.718660
vt 0.514517 0.637902
vt 0.999621 0.615435
vt 0.832546 0.202775
vt 0.023080 0.761387
vt 0.102895 0.948599
vt 0.047665 0.949845
vt 0.000379 0.873457
vt 0.057877 0.705099
vt 0.078001 0.656263
vt 0.109841 0.716928
vt 0.493761 0.626533
vt 0.498652 0.143065
vt 0.356156 0.902478
vt 0.350044 0.763716
vt 0.387507 0.742153
vt 0.392008 0.880859
vt 0.375707 0.904536
vt 0.389753 0.562368
vt 0.381727 0.075968
vt 0.085072 0.008406
vt 0.224391 0.008018
vt 0.201702 0.605898
vt 0.094425 0.575306
vt 0.804784 0.218529
vt 0.236469 0.735462
vt 0.261161 0.916765
vt 0.214632 0.793162
vt 0.008741 0.592810
vt 0.000379 0.085989
vt 0.058091 0.000379
vt 0.804026 0.070537
vt 0.804026 0.199602
vt 0.627791 0.023778
vt 0.759935 0.000379
vt 0.360303 0.606690
vt 0.392008 0.705758
vt 0.243306 0.631313
vt 0.319997 0.606656
vt 0.457168 0.048088
vt 0.484074 0.094378
vt 0.484074 0.590226
vt 0.566214 0.020045
vt 0.484832 0.089667
vt 0.058934 0.720440
vt 0.017400 0.694098
vt 0.137613 0.789583
vt 0.177184 0.764721
vt 0.170741 0.671145
vt 0.193117 0.635165
vt 0.201328 0.657377
vt 0.099599 0.655782
vt 0.054153 0.607614
vt 0.096254 0.606656
vn -0.0211 0.8878 0.4598
vn 0.4212 -0.4213 -0.8032
vn -0.4272 0.1327 -0.8944
vn 0.4054 -0.2362 -0.8831
vn 0.9989 -0.0000 0.0458
vn 0.0000 -1.0000 -0.0000
vn 0.6316 -0.7748 0.0290
vn 0.5180 -0.8185 0.2486
vn 0.0458 -0.0000 -0.9989
vn 0.7571 0.6244 -0.1921
vn 0.7926 0.3738 0.4818
vn -0.0138 -0.7947 0.6069
vn -0.8677 0.4964 -0.0279
vn -0.0458 0.0000 0.9989
vn 0.0000 1.0000 -0.0000
vn 0.0240 -0.8483 -0.5290
vn -0.9989 0.0000 -0.0458
vn 0.0244 0.8471 -0.5309
vn -0.3634 -0.8657 -0.3443
vn -0.8100 0.1216 0.5737
vn -0.0443 -0.2577 0.9652
vn -0.4344 -0.8580 0.2743
vn 0.7588 0.5501 0.3487
vn 0.9073 0.3688 0.2021
vn 0.9752 0.0958 0.1995
vn 0.8098 -0.2136 0.5465
vn 0.8747 -0.2575 0.4106
vn 0.7267 0.1463 0.6712
vn 0.7064 0.4912 0.5097
vn 0.7160 0.0829 0.6931
vn 0.9063 0.0179 0.4223
vn 0.9526 0.1466 0.2667
vn 0.8305 0.4069 0.3804
vn 0.7941 0.1452 0.5901
vn 0.7937 0.1505 0.5895
vn 0.9028 0.3993 0.1599
usemtl None
s off
f 21/1/1 22/2/1 47/3/1 40/4/1
f 7/5/2 8/6/2 4/7/2 3/8/2 9/9/2 10/10/2
f 30/11/3 29/12/3 33/13/3 32/14/3 31/15/3
f 6/16/4 5/17/4 3/8/4 4/7/4
f 3/18/5 5/19/5 42/20/5 43/21/5 9/22/5
f 38/23/6 27/24/6 7/25/6 10/26/6 12/27/6 13/28/6 34/29/6
f 43/30/7 12/27/7 10/26/7 9/31/7
f 43/30/8 45/32/8 13/28/8 12/27/8
f 33/13/9 29/12/9 18/33/9 6/16/9 4/7/9 8/6/9 28/34/9
f 41/35/10 42/20/10 5/19/10 6/36/10 18/37/10 17/38/10
f 15/39/11 16/40/11 19/41/11
f 34/29/12 13/28/12 45/32/12 44/42/12 35/43/12
f 31/44/13 26/45/13 25/46/13 24/47/13 30/48/13
f 46/49/14 47/3/14 22/2/14 23/50/14
f 24/51/15 25/52/15 21/1/15 40/4/15 41/53/15 17/54/15
f 7/5/16 27/55/16 28/34/16 8/6/16
f 37/56/17 26/45/17 31/44/17 32/57/17 39/58/17
f 24/51/18 17/54/18 18/59/18 29/60/18 30/61/18
f 33/62/19 28/63/19 27/24/19 38/23/19 39/64/19 32/65/19
f 22/66/20 21/67/20 25/46/20 26/45/20 37/56/20 36/68/20 23/69/20
f 23/50/21 36/70/21 35/71/21 44/72/21 46/49/21
f 37/73/22 39/64/22 38/23/22 34/29/22 35/43/22 36/74/22
f 15/39/23 1/75/23 41/35/23 40/76/23
f 1/75/24 2/77/24 42/20/24 41/35/24
f 2/77/25 11/78/25 43/21/25 42/20/25
f 14/79/26 44/80/26 45/81/26
f 11/78/27 14/79/27 45/81/27 43/21/27
f 20/82/28 16/40/28 47/83/28 46/84/28
f 16/40/29 15/39/29 40/76/29 47/83/29
f 14/79/30 20/82/30 46/84/30 44/80/30
f 14/79/31 11/78/31 19/41/31
f 11/78/32 2/77/32 19/41/32
f 1/75/33 15/39/33 19/41/33
f 20/82/34 14/79/34 19/41/34
f 16/40/35 20/82/35 19/41/35
f 2/77/36 1/75/36 19/41/36
