# Blender v3.1.2 OBJ File: 'Arbre.blend'
# www.blender.org
mtllib Racine_2.mtl
o Racine_2_Cylindre.002
v -1.080110 -0.235440 0.042417
v -1.079641 -0.225416 -0.031733
v -0.222492 -0.120542 -0.212476
v -0.058962 -0.069175 -0.167054
v 0.182828 0.005052 -0.120502
v 0.393068 0.012239 -0.111383
v 0.602771 -0.001776 -0.135007
v 0.821331 -0.074761 -0.047017
v 1.038359 -0.143831 -0.008579
v 0.815057 -0.100215 -0.038617
v 0.597829 -0.039291 -0.106169
v 0.395531 -0.022276 -0.122936
v 0.182612 -0.033882 -0.116914
v -0.020830 -0.075445 -0.137877
v -0.223095 -0.136751 -0.179648
v 0.807347 -0.122326 -0.019633
v 0.587490 -0.060429 -0.063273
v 0.393358 -0.043953 -0.086548
v 0.182711 -0.057191 -0.094807
v -0.020323 -0.112587 -0.116526
v 0.582391 -0.068856 -0.033151
v 0.391746 -0.065123 -0.057830
v 0.182626 -0.081654 -0.065927
v 0.778144 -0.125108 0.143278
v 0.569312 -0.061231 0.111653
v 0.381057 -0.059527 0.087533
v 0.177437 -0.080970 0.086787
v 0.779952 -0.097643 0.163865
v 0.569871 -0.044040 0.139152
v 0.380206 -0.045340 0.108837
v 0.178133 -0.058605 0.109782
v -0.028489 -0.111510 0.123767
v 0.781124 -0.079024 0.180685
v 0.571002 -0.025582 0.157126
v 0.384414 -0.024623 0.111723
v 0.182895 -0.033493 0.113836
v -0.030566 -0.073919 0.144647
v -0.235086 -0.135170 0.173191
v 1.017097 -0.122354 0.190844
v 0.787889 -0.052692 0.152479
v 0.591462 -0.001873 0.120034
v 0.383151 0.016321 0.086152
v 0.184224 0.019717 0.119399
v -0.030235 -0.032596 0.090315
v -0.235193 -0.083486 0.120610
v -0.477319 -0.181234 0.139037
v 1.009695 -0.085103 0.182769
v 0.780621 -0.030866 0.180228
v 0.593861 0.023788 0.140942
v 0.383164 0.040352 0.120063
v 0.162110 0.054642 0.096351
v -0.033581 0.009212 0.144172
v -0.252576 -0.036267 0.155636
v -0.448236 -0.081394 0.192476
v -0.646109 -0.177621 0.205170
v 1.037881 -0.067795 0.164735
v 0.797925 -0.011854 0.156386
v 0.598363 0.043254 0.134188
v 0.378759 0.067984 0.100668
v 0.157430 0.047914 0.071807
v -0.033992 0.046815 0.123252
v -0.233381 0.006361 0.153787
v -0.457319 -0.026940 0.158691
v -0.656942 -0.088534 0.178889
v -0.872525 -0.212693 0.169108
v 1.053080 -0.066802 0.143213
v 0.801886 0.006881 0.132560
v 0.597942 0.064598 0.112203
v 0.379339 0.091110 0.077090
v 0.170541 0.099286 0.074639
v -0.035124 0.076304 0.090398
v -0.216156 0.040093 0.141699
v -0.441909 0.019962 0.137725
v -0.640511 -0.023056 0.145453
v -0.861954 -0.152098 0.131243
v 1.055081 -0.064014 0.117703
v 0.814381 0.010053 0.111978
v 0.603303 0.076543 0.078148
v 0.376803 0.103699 0.052395
v 0.171572 0.114518 0.049456
v -0.044039 0.095886 0.048245
v -0.282705 0.130635 0.088536
v -0.441890 0.083889 0.061079
v -0.669126 0.024510 0.031612
v -0.862089 -0.062430 0.050823
v 1.062358 -0.065086 0.091991
v 0.820370 0.013786 0.066526
v 0.608398 0.080074 0.039975
v 0.379676 0.108277 0.014056
v 0.172739 0.119779 0.009281
v -0.045184 0.125241 -0.001540
v -0.253982 0.127252 -0.020146
v -0.458170 0.050511 -0.011879
v -0.673785 0.025336 -0.047010
v -0.898602 -0.068786 -0.069837
v 1.058753 -0.073185 0.078837
v 0.826961 -0.011669 0.027826
v 0.612698 0.046842 0.001939
v 0.383837 0.074409 -0.020898
v 0.175144 0.085251 -0.027041
v -0.052057 0.081749 -0.042429
v -0.264324 0.076968 -0.065851
v -0.455108 0.013186 -0.066598
v -0.662065 -0.042002 -0.073368
v -0.878699 -0.112383 -0.084235
v 1.062582 -0.093536 0.044214
v 0.833733 -0.018142 -0.001411
v 0.612761 0.063600 -0.032821
v 0.386128 0.089786 -0.058715
v 0.176104 0.098207 -0.066954
v -0.030476 0.070544 -0.082802
v -0.247797 0.068624 -0.198290
v -0.450783 0.014856 -0.146275
v -0.655380 -0.040293 -0.159132
v -0.870405 -0.167381 -0.166063
v 1.058461 -0.098550 0.006085
v 0.830370 -0.024441 -0.045788
v 0.615825 0.064354 -0.082052
v 0.389209 0.071089 -0.093083
v 0.177927 0.078450 -0.099588
v -0.027233 0.046790 -0.127779
v -0.236097 0.017839 -0.247715
v -0.439336 -0.037797 -0.208382
v -0.647675 -0.088105 -0.211721
v -0.859351 -0.214430 -0.218541
v 1.049477 -0.120569 -0.006004
v 0.827290 -0.048714 -0.053358
v 0.599360 0.022969 -0.129470
v 0.392486 0.041651 -0.134222
v 0.180905 0.042084 -0.145585
v -0.011296 -0.020211 -0.183344
v -0.216398 -0.065047 -0.239478
v -0.434900 -0.082918 -0.213503
v -0.639078 -0.191254 -0.245229
vt 0.041889 0.422292
vt 0.077345 0.517008
vt 0.047558 0.501582
vt 0.014845 0.426707
vt 0.117255 0.607843
vt 0.097391 0.613676
vt 0.136026 0.702691
vt 0.120026 0.706723
vt 0.147054 0.787848
vt 0.137839 0.792655
vt 0.168830 0.892428
vt 0.156932 0.896737
vt 0.191400 0.998998
vt 0.179763 0.999703
vt 0.064055 0.229127
vt 0.070706 0.327006
vt 0.050565 0.325402
vt 0.014525 0.225121
vt 0.075390 0.414610
vt 0.119375 0.507108
vt 0.144105 0.603948
vt 0.157787 0.697937
vt 0.171417 0.789939
vt 0.180045 0.888885
vt 0.203516 0.998356
vt 0.076960 0.120510
vt 0.095535 0.230408
vt 0.044596 0.118808
vt 0.109645 0.323173
vt 0.100476 0.410030
vt 0.144383 0.505615
vt 0.161332 0.601554
vt 0.174604 0.694343
vt 0.190705 0.788557
vt 0.200578 0.889822
vt 0.221021 0.999367
vt 0.122604 0.123822
vt 0.132452 0.224617
vt 0.144572 0.317300
vt 0.154769 0.402018
vt 0.163248 0.494968
vt 0.180197 0.598866
vt 0.192399 0.692427
vt 0.206278 0.789944
vt 0.213776 0.886279
vt 0.238649 0.994451
vt 0.144722 0.119490
vt 0.163466 0.224962
vt 0.173738 0.318453
vt 0.181212 0.407871
vt 0.191123 0.496084
vt 0.202928 0.594875
vt 0.213528 0.687558
vt 0.226234 0.785172
vt 0.233607 0.880215
vt 0.245834 0.994708
vt 0.194266 0.000297
vt 0.203418 0.132721
vt 0.158882 0.004806
vt 0.196334 0.227041
vt 0.208443 0.328489
vt 0.219814 0.394975
vt 0.217758 0.495255
vt 0.221101 0.593080
vt 0.230820 0.685529
vt 0.242165 0.783763
vt 0.253967 0.878362
vt 0.257485 0.991338
vt 0.257858 0.116061
vt 0.250766 0.231697
vt 0.253156 0.320487
vt 0.261191 0.417438
vt 0.239265 0.497963
vt 0.234204 0.591618
vt 0.243238 0.686542
vt 0.257329 0.782807
vt 0.263500 0.873540
vt 0.269122 0.990736
vt 0.287275 0.100510
vt 0.279734 0.214957
vt 0.274249 0.309007
vt 0.275451 0.408875
vt 0.259742 0.495901
vt 0.256234 0.583993
vt 0.258385 0.686323
vt 0.270115 0.784691
vt 0.276904 0.873940
vt 0.279075 0.984192
vt 0.321664 0.208778
vt 0.302993 0.306910
vt 0.293343 0.398622
vt 0.277872 0.493631
vt 0.267632 0.585616
vt 0.273372 0.689232
vt 0.279219 0.783808
vt 0.291290 0.868699
vt 0.292419 0.973580
vt 0.354299 0.294018
vt 0.319646 0.407273
vt 0.305734 0.498726
vt 0.286442 0.597098
vt 0.292007 0.689089
vt 0.293698 0.781993
vt 0.306882 0.871840
vt 0.307890 0.982055
vt 0.352109 0.403406
vt 0.335175 0.497401
vt 0.311332 0.594724
vt 0.314077 0.689525
vt 0.314470 0.775864
vt 0.324382 0.871366
vt 0.354299 0.501092
vt 0.323068 0.592611
vt 0.323494 0.686984
vt 0.325549 0.774454
vt 0.335482 0.870897
vt 0.337873 0.591569
vt 0.335310 0.686246
vt 0.339828 0.772574
vt 0.350853 0.870650
vt 0.064575 0.620739
vt 0.085765 0.715694
vt 0.069669 0.719048
vt 0.047411 0.624346
vt 0.098461 0.804847
vt 0.083940 0.806730
vt 0.043463 0.524373
vt 0.079268 0.616990
vt 0.023875 0.529462
vt 0.104379 0.711923
vt 0.119772 0.799577
vt 0.145288 0.901169
vt 0.132459 0.906509
vt 0.000297 0.434399
vn 0.2092 -0.0888 -0.9738
vn 0.2920 -0.0323 -0.9559
vn 0.3487 -0.6301 -0.6938
vn 0.3631 -0.6665 -0.6510
vn 0.1101 0.1873 -0.9761
vn 0.1597 -0.3808 -0.9108
vn 0.0324 0.2343 -0.9716
vn -0.0124 -0.2616 -0.9651
vn 0.1735 0.2796 -0.9443
vn 0.1168 -0.2521 -0.9606
vn 0.3074 0.1747 -0.9354
vn 0.2062 -0.2498 -0.9461
vn 0.2382 0.1136 -0.9646
vn 0.1507 -0.1271 -0.9804
vn -0.1951 0.5656 -0.8013
vn -0.1806 0.4261 -0.8865
vn -0.0734 0.1171 -0.9904
vn -0.0142 0.2509 -0.9679
vn 0.0154 0.4694 -0.8829
vn 0.1246 0.7197 -0.6830
vn -0.0077 0.8187 -0.5742
vn 0.0626 0.8704 -0.4883
vn 0.2541 0.8571 -0.4482
vn 0.3934 0.7515 -0.5297
vn 0.3657 0.7513 -0.5493
vn -0.3834 0.7628 -0.5208
vn -0.3020 0.8543 -0.4230
vn -0.3686 0.6563 -0.6584
vn -0.2793 0.8955 -0.3464
vn -0.0816 0.8958 -0.4368
vn 0.0140 0.9619 -0.2730
vn -0.0168 0.9858 -0.1669
vn 0.0626 0.9980 0.0031
vn 0.2049 0.9747 0.0896
vn 0.3360 0.9363 -0.1025
vn 0.3350 0.9102 -0.2435
vn -0.2459 0.6742 -0.6964
vn -0.2078 0.7794 -0.5911
vn -0.2288 0.8853 -0.4047
vn -0.1483 0.9015 -0.4066
vn 0.0241 0.9017 -0.4316
vn 0.0186 0.9523 -0.3047
vn 0.0940 0.9815 -0.1667
vn 0.2360 0.9547 -0.1812
vn 0.3214 0.8996 -0.2957
vn 0.3263 0.8477 -0.4182
vn -0.4549 0.8233 -0.3395
vn -0.1988 0.8328 -0.5166
vn -0.2012 0.8616 -0.4659
vn -0.0823 0.9238 -0.3740
vn 0.0495 0.9633 -0.2639
vn 0.0325 0.9657 -0.2577
vn 0.1018 0.9443 -0.3129
vn 0.2257 0.9382 -0.2623
vn 0.3148 0.9225 -0.2232
vn 0.3229 0.9206 -0.2197
vn -0.6257 0.7691 0.1302
vn -0.4644 0.8379 0.2868
vn -0.3068 0.9239 0.2285
vn -0.2529 0.9335 0.2542
vn -0.1162 0.9014 0.4171
vn 0.0384 0.8984 0.4375
vn -0.0057 0.9319 0.3626
vn 0.0633 0.9578 0.2805
vn 0.1714 0.9560 0.2382
vn 0.2739 0.9441 0.1835
vn 0.2866 0.9471 0.1448
vn -0.3579 0.6019 0.7139
vn -0.2324 0.6550 0.7190
vn -0.1305 0.5899 0.7968
vn 0.0306 0.5909 0.8061
vn 0.0745 0.6503 0.7560
vn -0.0068 0.6522 0.7581
vn -0.0003 0.7483 0.6633
vn 0.0977 0.8423 0.5301
vn 0.2124 0.8750 0.4351
vn 0.2512 0.9162 0.3120
vn -0.3426 0.5170 0.7844
vn -0.1909 0.4594 0.8675
vn -0.0362 0.3964 0.9174
vn 0.0130 0.3672 0.9301
vn 0.0729 0.5404 0.8383
vn 0.0262 0.6125 0.7900
vn -0.0596 0.6411 0.7651
vn 0.0310 0.6482 0.7609
vn 0.1394 0.7311 0.6679
vn 0.1907 0.8127 0.5506
vn -0.0730 0.3764 0.9236
vn 0.0921 0.0425 0.9948
vn 0.1608 -0.1512 0.9753
vn 0.1319 0.0014 0.9913
vn 0.0371 0.4564 0.8890
vn -0.0866 0.1317 0.9875
vn -0.1509 -0.0686 0.9862
vn -0.1138 0.0445 0.9925
vn -0.0111 0.2236 0.9746
vn 0.2700 -0.5120 0.8154
vn 0.1575 -0.1498 0.9761
vn 0.0453 0.0485 0.9978
vn 0.0322 0.0278 0.9991
vn -0.0450 -0.0083 0.9990
vn -0.1646 -0.0165 0.9862
vn -0.1523 -0.0767 0.9854
vn -0.1768 -0.3502 0.9198
vn -0.1117 0.7499 0.6521
vn -0.0110 0.3418 0.9397
vn 0.0346 0.0657 0.9972
vn -0.0608 0.0974 0.9934
vn -0.1460 0.1607 0.9761
vn -0.1143 0.0353 0.9928
vn 0.1794 -0.3701 0.9115
vn 0.1028 -0.4646 0.8795
vn -0.0392 -0.5802 0.8136
vn -0.2037 -0.6619 0.7214
vn -0.2673 -0.6765 0.6863
vn 0.0661 -0.7695 0.6352
vn -0.0040 -0.8066 0.5911
vn -0.1796 -0.7770 0.6033
vn -0.2838 -0.6956 0.6600
vn 0.1201 -0.7194 -0.6841
vn 0.0275 -0.8405 -0.5411
vn 0.0444 -0.8431 -0.5359
vn 0.0796 -0.7825 -0.6176
vn -0.0324 -0.8612 -0.5071
vn 0.0090 -0.8937 -0.4485
vn 0.2536 -0.5302 -0.8091
vn 0.1416 -0.4594 -0.8769
vn 0.2188 -0.5681 -0.7933
vn -0.0035 -0.4925 -0.8703
vn 0.0102 -0.6319 -0.7750
vn 0.0230 -0.6925 -0.7210
vn -0.0775 -0.8064 -0.5862
vn 0.3617 -0.7847 -0.5034
usemtl Bois
s 1
f 132/1/1 131/2/2 4/3/3 3/4/4
f 131/2/2 130/5/5 5/6/6 4/3/3
f 130/5/5 129/7/7 6/8/8 5/6/6
f 129/7/7 128/9/9 7/10/10 6/8/8
f 128/9/9 127/11/11 8/12/12 7/10/10
f 127/11/11 126/13/13 9/14/14 8/12/12
f 124/15/15 123/16/16 133/17/17 134/18/18
f 123/16/16 122/19/19 132/1/1 133/17/17
f 122/19/19 121/20/20 131/2/2 132/1/1
f 121/20/20 120/21/21 130/5/5 131/2/2
f 120/21/21 119/22/22 129/7/7 130/5/5
f 119/22/22 118/23/23 128/9/9 129/7/7
f 118/23/23 117/24/24 127/11/11 128/9/9
f 117/24/24 116/25/25 126/13/13 127/11/11
f 115/26/26 114/27/27 124/15/15 125/28/28
f 114/27/27 113/29/29 123/16/16 124/15/15
f 113/29/29 112/30/30 122/19/19 123/16/16
f 112/30/30 111/31/31 121/20/20 122/19/19
f 111/31/31 110/32/32 120/21/21 121/20/20
f 110/32/32 109/33/33 119/22/22 120/21/21
f 109/33/33 108/34/34 118/23/23 119/22/22
f 108/34/34 107/35/35 117/24/24 118/23/23
f 107/35/35 106/36/36 116/25/25 117/24/24
f 105/37/37 104/38/38 114/27/27 115/26/26
f 104/38/38 103/39/39 113/29/29 114/27/27
f 103/39/39 102/40/40 112/30/30 113/29/29
f 102/40/40 101/41/41 111/31/31 112/30/30
f 101/41/41 100/42/42 110/32/32 111/31/31
f 100/42/42 99/43/43 109/33/33 110/32/32
f 99/43/43 98/44/44 108/34/34 109/33/33
f 98/44/44 97/45/45 107/35/35 108/34/34
f 97/45/45 96/46/46 106/36/36 107/35/35
f 95/47/47 94/48/48 104/38/38 105/37/37
f 94/48/48 93/49/49 103/39/39 104/38/38
f 93/49/49 92/50/50 102/40/40 103/39/39
f 92/50/50 91/51/51 101/41/41 102/40/40
f 91/51/51 90/52/52 100/42/42 101/41/41
f 90/52/52 89/53/53 99/43/43 100/42/42
f 89/53/53 88/54/54 98/44/44 99/43/43
f 88/54/54 87/55/55 97/45/45 98/44/44
f 87/55/55 86/56/56 96/46/46 97/45/45
f 1/57/57 85/58/58 95/47/47 2/59/57
f 85/58/58 84/60/59 94/48/48 95/47/47
f 84/60/59 83/61/60 93/49/49 94/48/48
f 83/61/60 82/62/61 92/50/50 93/49/49
f 82/62/61 81/63/62 91/51/51 92/50/50
f 81/63/62 80/64/63 90/52/52 91/51/51
f 80/64/63 79/65/64 89/53/53 90/52/52
f 79/65/64 78/66/65 88/54/54 89/53/53
f 78/66/65 77/67/66 87/55/55 88/54/54
f 77/67/66 76/68/67 86/56/56 87/55/55
f 75/69/68 74/70/69 84/60/59 85/58/58
f 74/70/69 73/71/70 83/61/60 84/60/59
f 73/71/70 72/72/71 82/62/61 83/61/60
f 72/72/71 71/73/72 81/63/62 82/62/61
f 71/73/72 70/74/73 80/64/63 81/63/62
f 70/74/73 69/75/74 79/65/64 80/64/63
f 69/75/74 68/76/75 78/66/65 79/65/64
f 68/76/75 67/77/76 77/67/66 78/66/65
f 67/77/76 66/78/77 76/68/67 77/67/66
f 65/79/78 64/80/79 74/70/69 75/69/68
f 64/80/79 63/81/80 73/71/70 74/70/69
f 63/81/80 62/82/81 72/72/71 73/71/70
f 62/82/81 61/83/82 71/73/72 72/72/71
f 61/83/82 60/84/83 70/74/73 71/73/72
f 60/84/83 59/85/84 69/75/74 70/74/73
f 59/85/84 58/86/85 68/76/75 69/75/74
f 58/86/85 57/87/86 67/77/76 68/76/75
f 57/87/86 56/88/87 66/78/77 67/77/76
f 55/89/88 54/90/89 63/81/80 64/80/79
f 54/90/89 53/91/90 62/82/81 63/81/80
f 53/91/90 52/92/91 61/83/82 62/82/81
f 52/92/91 51/93/92 60/84/83 61/83/82
f 51/93/92 50/94/93 59/85/84 60/84/83
f 50/94/93 49/95/94 58/86/85 59/85/84
f 49/95/94 48/96/95 57/87/86 58/86/85
f 48/96/95 47/97/96 56/88/87 57/87/86
f 46/98/97 45/99/98 53/91/90 54/90/89
f 45/99/98 44/100/99 52/92/91 53/91/90
f 44/100/99 43/101/100 51/93/92 52/92/91
f 43/101/100 42/102/101 50/94/93 51/93/92
f 42/102/101 41/103/102 49/95/94 50/94/93
f 41/103/102 40/104/103 48/96/95 49/95/94
f 40/104/103 39/105/104 47/97/96 48/96/95
f 38/106/105 37/107/106 44/100/99 45/99/98
f 37/107/106 36/108/107 43/101/100 44/100/99
f 36/108/107 35/109/108 42/102/101 43/101/100
f 35/109/108 34/110/109 41/103/102 42/102/101
f 34/110/109 33/111/110 40/104/103 41/103/102
f 32/112/111 31/113/112 36/108/107 37/107/106
f 31/113/112 30/114/113 35/109/108 36/108/107
f 30/114/113 29/115/114 34/110/109 35/109/108
f 29/115/114 28/116/115 33/111/110 34/110/109
f 27/117/116 26/118/117 30/114/113 31/113/112
f 26/118/117 25/119/118 29/115/114 30/114/113
f 25/119/118 24/120/119 28/116/115 29/115/114
f 19/121/120 18/122/121 22/123/122 23/124/123
f 18/122/121 17/125/124 21/126/125 22/123/122
f 14/127/126 13/128/127 19/121/120 20/129/128
f 13/128/127 12/130/129 18/122/121 19/121/120
f 12/130/129 11/131/130 17/125/124 18/122/121
f 11/131/130 10/132/131 16/133/132 17/125/124
f 3/4/4 4/3/3 14/127/126 15/134/133
f 4/3/3 5/6/6 13/128/127 14/127/126
f 5/6/6 6/8/8 12/130/129 13/128/127
f 6/8/8 7/10/10 11/131/130 12/130/129
f 7/10/10 8/12/12 10/132/131 11/131/130
