# Blender v3.1.2 OBJ File: 'Arbre.blend'
# www.blender.org
mtllib Racine_4.mtl
o Racine_4_Cylindre.011
v -0.444294 -0.114099 -0.140100
v -0.296414 -0.089547 -0.137391
v -0.146291 -0.030475 -0.107034
v -0.005489 0.019499 -0.085203
v 0.146979 0.033791 -0.083874
v 0.299162 0.032697 -0.104291
v 0.463236 -0.012568 -0.051126
v 0.624689 -0.053814 -0.030749
v 0.617216 -0.072721 -0.025776
v 0.460322 -0.034778 -0.045495
v 0.298333 0.000802 -0.085183
v 0.150015 0.008372 -0.091687
v -0.003860 -0.008963 -0.082936
v -0.150194 -0.048050 -0.092368
v -0.295330 -0.101474 -0.115673
v 0.609904 -0.088986 -0.014792
v 0.456440 -0.054188 -0.032808
v 0.293045 -0.017530 -0.056589
v 0.150307 -0.007833 -0.067592
v -0.002223 -0.026029 -0.068359
v -0.147677 -0.075204 -0.078343
v -0.292050 -0.135621 -0.098195
v 0.603469 -0.101014 0.001128
v 0.451970 -0.068898 -0.014309
v 0.290552 -0.024908 -0.036541
v 0.150793 -0.023624 -0.048589
v -0.000501 -0.043958 -0.049294
v -0.145592 -0.096900 -0.056548
v 0.447351 -0.077467 0.008192
v 0.287347 -0.034683 -0.013629
v 0.150620 -0.033777 -0.025626
v 0.000605 -0.055470 -0.025271
v -0.144255 -0.110829 -0.029084
v 0.443034 -0.079058 0.032492
v 0.284792 -0.037952 0.011769
v 0.149692 -0.037359 -0.000171
v 0.000986 -0.059436 0.001359
v -0.143793 -0.115629 0.001359
v 0.594942 -0.102625 0.061451
v 0.439442 -0.073513 0.056213
v 0.283134 -0.034396 0.037167
v 0.148099 -0.034020 0.025284
v 0.000605 -0.055470 0.027990
v -0.144254 -0.110829 0.031803
v 0.596622 -0.091495 0.079164
v 0.439453 -0.058123 0.075787
v 0.284250 -0.019344 0.059724
v 0.146401 -0.020210 0.047986
v -0.000501 -0.043958 0.052013
v -0.145593 -0.096900 0.059267
v 0.600480 -0.075883 0.092615
v 0.439735 -0.034423 0.089468
v 0.284405 -0.004894 0.077983
v 0.145682 -0.009785 0.062164
v -0.000399 -0.027629 0.067300
v -0.147676 -0.075204 0.081062
v -0.292050 -0.135621 0.100914
v 0.606138 -0.057318 0.100488
v 0.439959 -0.018367 0.100642
v 0.284671 0.010669 0.089922
v 0.147886 0.005723 0.064042
v 0.002063 -0.009084 0.069954
v -0.150302 -0.047866 0.095056
v -0.295330 -0.101474 0.118392
v 0.613083 -0.037338 0.101931
v 0.442687 0.004671 0.102495
v 0.297312 0.031548 0.085571
v 0.144513 0.036020 0.067866
v 0.000848 0.029839 0.071462
v -0.153213 -0.017562 0.099878
v -0.298966 -0.069439 0.124415
v -0.443725 -0.111345 0.141299
v 0.605536 -0.006756 0.096858
v 0.436875 0.023141 0.100493
v 0.298178 0.053228 0.078831
v 0.144296 0.053744 0.069790
v -0.017294 0.054445 0.059098
v -0.156124 0.012742 0.095056
v -0.312767 -0.029935 0.107448
v -0.451861 -0.071395 0.136130
v -0.592810 -0.118790 0.148840
v 0.624632 0.008736 0.084325
v 0.447776 0.040259 0.084363
v 0.300220 0.069834 0.074311
v 0.139388 0.074044 0.057119
v -0.021006 0.049373 0.042920
v -0.158581 0.040235 0.081315
v -0.300742 0.002040 0.105917
v -0.461664 -0.031940 0.114111
v -0.603330 -0.085572 0.131806
v -0.756472 -0.154097 0.129939
v 0.635078 0.010210 0.069725
v 0.449004 0.056626 0.068542
v 0.298206 0.087868 0.059817
v 0.138194 0.091229 0.041552
v -0.013661 0.087465 0.044655
v -0.161504 0.061792 0.059659
v -0.290013 0.027449 0.097620
v -0.453047 0.003029 0.100011
v -0.595092 -0.036965 0.109476
v -0.752383 -0.109302 0.104791
v 0.635747 0.012659 0.052786
v 0.457385 0.059893 0.054632
v 0.300600 0.098233 0.037167
v 0.135179 0.100485 0.025284
v -0.014203 0.098684 0.027990
v -0.169874 0.075791 0.031988
v -0.343569 0.077166 0.057114
v -0.457723 0.049874 0.049414
v -0.620757 -0.003238 0.034830
v -0.756511 -0.075100 0.051647
v 0.640232 0.015470 0.035594
v 0.460391 0.063457 0.024392
v 0.303156 0.101502 0.011769
v 0.136107 0.104067 -0.000171
v -0.014584 0.102651 0.001360
v -0.173221 0.097280 -0.000888
v -0.325281 0.089793 -0.008508
v -0.469896 0.024920 0.001340
v -0.626128 -0.002693 -0.017158
v -0.785728 -0.081098 -0.027500
v 0.637930 0.005299 0.026923
v 0.465644 0.041859 -0.001475
v 0.307138 0.073742 -0.013629
v 0.139764 0.079243 -0.023526
v -0.012237 0.077594 -0.022864
v -0.177330 0.065281 -0.027955
v -0.331731 0.052693 -0.038709
v -0.467408 -0.002120 -0.035097
v -0.615345 -0.051339 -0.035086
v -0.769744 -0.112068 -0.037617
v 0.640925 -0.011324 0.003835
v 0.470196 0.036611 -0.021019
v 0.305406 0.087960 -0.036613
v 0.139803 0.090792 -0.048589
v -0.013097 0.087173 -0.049294
v -0.162185 0.058097 -0.055225
v -0.324451 0.045069 -0.130886
v -0.466323 -0.000569 -0.087983
v -0.612700 -0.049647 -0.092059
v -0.765239 -0.120293 -0.092059
v 0.637250 -0.015549 -0.021351
v 0.467002 0.031165 -0.050366
v 0.306362 0.088836 -0.069300
v 0.142016 0.077150 -0.071486
v -0.011724 0.072875 -0.071017
v -0.159915 0.040963 -0.085170
v -0.313192 0.011036 -0.160023
v -0.457266 -0.038434 -0.129549
v -0.606333 -0.084153 -0.127220
v -0.756472 -0.154097 -0.127220
v 0.631592 -0.034113 -0.029225
v 0.465941 0.010136 -0.055385
v 0.295478 0.053416 -0.100472
v 0.144681 0.055578 -0.098906
v -0.009122 0.046518 -0.101670
v -0.146812 -0.007203 -0.122546
v -0.293037 -0.047518 -0.155014
v -0.452208 -0.081053 -0.133176
v -0.598309 -0.127633 -0.149795
v 0.973417 -0.089386 0.045832
v 0.969254 -0.082976 0.033597
v 0.965135 -0.081025 0.020035
v 0.960743 -0.076244 0.006473
v 0.958638 -0.091258 -0.000966
v 0.956097 -0.094107 -0.015471
v 0.748072 -0.087384 -0.010928
v 0.746353 -0.105198 -0.008211
v 0.739007 -0.120747 0.089420
v 0.739929 -0.104620 0.097296
v 0.741318 -0.086776 0.100008
v 0.856353 -0.099731 0.092129
v 0.743037 -0.070071 0.097291
v 0.855034 -0.083937 0.084519
v 0.744919 -0.052921 0.089410
v 0.854138 -0.071390 0.072666
v 0.746779 -0.040224 0.077137
v 0.853751 -0.063315 0.057731
v 0.748434 -0.032114 0.061672
v 0.853911 -0.060505 0.041174
v 0.749724 -0.029384 0.044531
v 0.853748 -0.054324 0.024619
v 0.750521 -0.032301 0.027391
v 0.855922 -0.072900 0.017831
v 0.751430 -0.047673 0.018328
v 0.856414 -0.074813 -0.002170
v 0.750383 -0.053413 -0.000340
v 0.858125 -0.090569 -0.009780
v 0.749461 -0.069540 -0.008216
vt 0.254655 0.064242
vt 0.281298 0.000306
vt 0.288172 0.004564
vt 0.263763 0.067186
vt 0.295278 0.008270
vt 0.273068 0.069031
vt 0.302559 0.012494
vt 0.282708 0.071485
vt 0.312025 0.014396
vt 0.293965 0.070613
vt 0.320114 0.016639
vt 0.304996 0.071917
vt 0.263009 0.819774
vt 0.279078 0.733216
vt 0.302401 0.741548
vt 0.282163 0.823209
vt 0.273405 0.647464
vt 0.290061 0.648355
vt 0.263309 0.558268
vt 0.282050 0.558458
vt 0.270154 0.470196
vt 0.284956 0.470656
vt 0.281297 0.394035
vt 0.291589 0.392209
vt 0.292363 0.300358
vt 0.305556 0.299452
vt 0.299681 0.203173
vt 0.311358 0.204684
vt 0.226865 0.903317
vt 0.239394 0.812557
vt 0.255274 0.910455
vt 0.249932 0.734068
vt 0.235976 0.645662
vt 0.239881 0.555128
vt 0.250773 0.469006
vt 0.261237 0.386771
vt 0.280062 0.301034
vt 0.288278 0.201641
vt 0.185960 0.992216
vt 0.199372 0.896129
vt 0.214071 0.999694
vt 0.205228 0.808459
vt 0.227499 0.732801
vt 0.215276 0.641268
vt 0.225147 0.553060
vt 0.236040 0.467983
vt 0.246247 0.383628
vt 0.264075 0.295594
vt 0.274939 0.197185
vt 0.153977 0.988075
vt 0.167402 0.894038
vt 0.175495 0.807032
vt 0.183144 0.729410
vt 0.197699 0.646263
vt 0.209326 0.550960
vt 0.220971 0.465537
vt 0.234088 0.378637
vt 0.252915 0.295661
vt 0.259531 0.198320
vt 0.132971 0.987068
vt 0.139371 0.886997
vt 0.150956 0.800145
vt 0.162222 0.718811
vt 0.174246 0.638575
vt 0.189354 0.548980
vt 0.201597 0.464429
vt 0.215897 0.377891
vt 0.234372 0.296474
vt 0.252222 0.197456
vt 0.087107 0.963063
vt 0.112523 0.878627
vt 0.124141 0.784091
vt 0.128719 0.722368
vt 0.151817 0.632921
vt 0.174444 0.546319
vt 0.187001 0.462242
vt 0.203372 0.375403
vt 0.218149 0.293192
vt 0.242516 0.197179
vt 0.049178 0.962090
vt 0.067177 0.863482
vt 0.084060 0.782120
vt 0.097804 0.693923
vt 0.134579 0.625317
vt 0.163376 0.544485
vt 0.176892 0.458511
vt 0.191187 0.372585
vt 0.209520 0.294936
vt 0.233524 0.195148
vt 0.019708 0.969826
vt 0.037365 0.872210
vt 0.062840 0.787841
vt 0.083171 0.698595
vt 0.116336 0.621853
vt 0.142558 0.545739
vt 0.163670 0.455195
vt 0.180503 0.367587
vt 0.198012 0.290669
vt 0.224426 0.198429
vt 0.015129 0.867784
vt 0.036692 0.783246
vt 0.065098 0.704040
vt 0.098896 0.619096
vt 0.133939 0.541675
vt 0.150791 0.449006
vt 0.171654 0.365593
vt 0.184188 0.290990
vt 0.210367 0.202908
vt 0.013648 0.777893
vt 0.041275 0.695084
vt 0.081781 0.615610
vt 0.120110 0.528984
vt 0.140649 0.446587
vt 0.160154 0.361838
vt 0.176433 0.284061
vt 0.197656 0.190955
vt 0.023436 0.689995
vt 0.064677 0.611278
vt 0.097802 0.524579
vt 0.123171 0.440630
vt 0.146998 0.364464
vt 0.164423 0.280316
vt 0.186070 0.188855
vt 0.002769 0.683025
vt 0.048049 0.605973
vt 0.086743 0.524146
vt 0.113811 0.439949
vt 0.136427 0.362062
vt 0.154454 0.276575
vt 0.174584 0.186290
vt 0.031698 0.600038
vt 0.073915 0.520797
vt 0.103734 0.437223
vt 0.123781 0.359312
vt 0.140436 0.271021
vt 0.162975 0.183772
vt 0.015774 0.593050
vt 0.059397 0.514999
vt 0.088814 0.432675
vt 0.108552 0.356730
vt 0.127254 0.266765
vt 0.151529 0.180657
vt 0.000306 0.584763
vt 0.045327 0.508669
vt 0.074606 0.428015
vt 0.094360 0.353707
vt 0.113933 0.262829
vt 0.356262 0.652154
vt 0.344212 0.561760
vt 0.360040 0.560933
vt 0.374066 0.650123
vt 0.344845 0.472790
vt 0.359663 0.473643
vt 0.352997 0.393915
vt 0.367778 0.394824
vt 0.359840 0.298472
vt 0.374066 0.299814
vt 0.338526 0.652770
vt 0.328295 0.561880
vt 0.330371 0.472010
vt 0.338953 0.393013
vt 0.345834 0.297877
vt 0.320790 0.652220
vt 0.312529 0.561349
vt 0.316276 0.471277
vt 0.327196 0.392397
vt 0.332053 0.298030
vt 0.334901 0.207805
vt 0.346747 0.209182
vt 0.316315 0.739388
vt 0.303166 0.651405
vt 0.338057 0.739627
vt 0.298931 0.560675
vt 0.300064 0.470096
vt 0.309475 0.391098
vt 0.318655 0.298657
vt 0.323107 0.206153
vt 0.303139 0.132518
vt 0.313387 0.131161
vt 0.292796 0.132619
vt 0.314897 0.071060
vt 0.281495 0.130570
vt 0.271162 0.131685
vt 0.260982 0.130960
vt 0.250861 0.129263
vt 0.240985 0.126824
vt 0.231308 0.123620
vt 0.245846 0.060057
vt 0.221316 0.119415
vt 0.237254 0.055054
vt 0.212629 0.115188
vt 0.203503 0.110435
vt 0.194424 0.105698
vt 0.323584 0.129507
vn 0.2421 0.7978 0.5522
vn 0.2328 0.8738 0.4269
vn 0.2196 0.9301 0.2945
vn 0.2507 0.9172 0.3097
vn 0.2150 0.9545 0.2067
vn 0.2418 0.9550 0.1719
vn 0.1053 0.9079 -0.4057
vn 0.1704 0.8834 -0.4365
vn 0.0485 0.8052 -0.5911
vn 0.0919 0.7727 -0.6281
vn 0.1588 0.9767 -0.1442
vn 0.1586 0.8627 -0.4802
vn -0.0770 0.0445 -0.9960
vn 0.1242 -0.0818 -0.9889
vn 0.2183 -0.4534 -0.8642
vn -0.0346 -0.1431 -0.9891
vn 0.2382 -0.0020 -0.9712
vn 0.3029 -0.4911 -0.8168
vn 0.0571 0.1879 -0.9805
vn 0.1377 -0.3351 -0.9321
vn -0.0200 0.2224 -0.9748
vn -0.0269 -0.2299 -0.9728
vn 0.1086 0.2656 -0.9579
vn 0.0940 -0.1993 -0.9754
vn 0.2412 0.1635 -0.9566
vn 0.1511 -0.2066 -0.9667
vn 0.2050 0.1546 -0.9665
vn 0.1117 -0.1293 -0.9853
vn -0.1941 0.5551 -0.8088
vn -0.2177 0.3970 -0.8916
vn -0.0427 0.2849 -0.9576
vn -0.0360 0.4440 -0.8953
vn 0.0557 0.6944 -0.7174
vn -0.0746 0.7902 -0.6083
vn -0.0222 0.8459 -0.5328
vn 0.1697 0.8494 -0.4997
vn 0.3286 0.7418 -0.5846
vn 0.3186 0.7010 -0.6380
vn -0.3671 0.8280 -0.4238
vn -0.3271 0.8621 -0.3871
vn -0.3021 0.6505 -0.6969
vn -0.3418 0.8677 -0.3608
vn -0.1552 0.8703 -0.4674
vn -0.0524 0.9538 -0.2959
vn -0.0828 0.9810 -0.1754
vn -0.0175 0.9997 0.0151
vn 0.1337 0.9856 0.1036
vn 0.2881 0.9472 -0.1410
vn 0.3043 0.8669 -0.3948
vn -0.2865 0.7197 -0.6324
vn -0.2630 0.7951 -0.5465
vn -0.2920 0.8605 -0.4175
vn -0.2117 0.8772 -0.4310
vn -0.0440 0.8877 -0.4583
vn -0.0508 0.9469 -0.3175
vn 0.0094 0.9845 -0.1749
vn 0.1579 0.9639 -0.2143
vn 0.2599 0.8885 -0.3783
vn 0.2849 0.7951 -0.5353
vn -0.3118 0.6985 -0.6442
vn -0.2650 0.8096 -0.5237
vn -0.2585 0.8442 -0.4696
vn -0.1510 0.9324 -0.3284
vn -0.0287 0.9714 -0.2359
vn -0.0359 0.9628 -0.2679
vn 0.0126 0.9404 -0.3399
vn 0.1365 0.9430 -0.3036
vn 0.2543 0.9282 -0.2716
vn 0.3206 0.9278 -0.1909
vn -0.4175 0.8569 0.3023
vn -0.3416 0.9123 0.2258
vn -0.2680 0.9187 0.2902
vn -0.1519 0.8862 0.4377
vn -0.0288 0.8766 0.4803
vn -0.0501 0.9159 0.3984
vn -0.0083 0.9484 0.3170
vn 0.0941 0.9557 0.2789
vn 0.2260 0.9467 0.2297
vn 0.2963 0.9268 0.2308
vn -0.2945 0.6162 0.7305
vn -0.2162 0.6344 0.7421
vn -0.1240 0.5707 0.8118
vn 0.0091 0.5968 0.8024
vn 0.0360 0.6439 0.7643
vn -0.0209 0.6201 0.7842
vn -0.0413 0.7035 0.7095
vn 0.0379 0.7993 0.5997
vn 0.1658 0.8447 0.5090
vn 0.2953 0.8591 0.4181
vn -0.2290 0.4649 0.8552
vn -0.1342 0.4516 0.8821
vn -0.0282 0.3866 0.9218
vn 0.0214 0.3356 0.9418
vn 0.0650 0.5072 0.8594
vn 0.0141 0.5821 0.8130
vn -0.0787 0.5852 0.8071
vn -0.0031 0.5694 0.8221
vn 0.1039 0.6616 0.7426
vn 0.2050 0.6712 0.7124
vn -0.0681 0.4574 0.8866
vn 0.0120 0.3555 0.9346
vn 0.0445 0.2923 0.9553
vn 0.0551 0.4103 0.9103
vn -0.0013 0.6354 0.7722
vn -0.0735 0.4151 0.9068
vn -0.0565 0.3298 0.9424
vn 0.0037 0.3706 0.9288
vn 0.1037 0.3726 0.9222
vn 0.0696 0.2855 0.9558
vn 0.1095 0.1370 0.9845
vn 0.1314 0.1097 0.9852
vn 0.0639 0.1135 0.9915
vn -0.0530 0.0791 0.9955
vn -0.0953 0.1177 0.9885
vn -0.0241 0.0920 0.9955
vn 0.0268 0.0437 0.9987
vn 0.2594 -0.2987 0.9184
vn 0.2286 -0.2413 0.9431
vn 0.1213 -0.1450 0.9820
vn -0.0535 -0.1523 0.9869
vn -0.1389 -0.2081 0.9682
vn -0.0983 -0.2692 0.9580
vn -0.0664 -0.2566 0.9642
vn 0.2916 -0.4135 0.8625
vn 0.2685 -0.4823 0.8339
vn 0.1792 -0.4882 0.8541
vn 0.0082 -0.5368 0.8437
vn -0.1385 -0.6018 0.7866
vn -0.1605 -0.5556 0.8158
vn -0.1269 -0.4698 0.8736
vn 0.3099 -0.7678 0.5607
vn 0.2248 -0.7827 0.5804
vn 0.0461 -0.8151 0.5775
vn -0.1408 -0.7667 0.6264
vn -0.1986 -0.6950 0.6911
vn -0.1634 -0.6845 0.7105
vn 0.3480 -0.8926 0.2866
vn 0.2502 -0.9180 0.3078
vn 0.0595 -0.9429 0.3276
vn -0.1491 -0.9201 0.3621
vn -0.2372 -0.8669 0.4385
vn -0.1754 -0.7985 0.5759
vn 0.3611 -0.9325 -0.0000
vn 0.2566 -0.9665 0.0010
vn 0.0707 -0.9975 -0.0037
vn -0.1290 -0.9916 0.0039
vn -0.2515 -0.9678 0.0063
vn 0.3480 -0.8926 -0.2866
vn 0.2444 -0.9251 -0.2906
vn 0.0763 -0.9568 -0.2806
vn -0.0988 -0.9572 -0.2721
vn -0.2149 -0.9404 -0.2636
vn 0.3096 -0.7729 -0.5538
vn 0.2119 -0.8002 -0.5610
vn 0.0647 -0.8606 -0.5051
vn -0.0728 -0.8856 -0.4587
vn -0.1434 -0.8448 -0.5155
vn 0.2667 -0.5404 -0.7980
vn 0.1653 -0.6765 -0.7177
vn 0.0394 -0.8012 -0.5971
vn -0.0429 -0.8223 -0.5674
vn -0.0754 -0.7342 -0.6748
vn -0.0617 -0.6598 -0.7489
vn -0.0999 -0.7702 -0.6300
vn 0.3431 -0.5810 -0.7381
vn 0.2873 -0.5382 -0.7923
vn 0.2917 -0.4152 -0.8617
vn 0.1241 -0.4097 -0.9037
vn -0.0110 -0.4527 -0.8916
vn 0.0224 -0.5622 -0.8267
vn 0.0357 -0.5047 -0.8625
vn 0.0394 -0.3458 -0.9375
vn 0.1756 0.2857 -0.9421
vn 0.1314 -0.0948 -0.9868
vn 0.2579 0.7454 -0.6147
vn 0.0722 0.4372 -0.8964
vn 0.2364 0.7963 -0.5568
vn 0.2658 0.8195 -0.5077
vn 0.3176 0.9482 0.0072
vn 0.3174 0.9023 0.2916
vn 0.2996 0.7988 0.5216
vn 0.2255 0.5705 0.7897
vn 0.1847 0.5302 0.8275
vn 0.1351 0.3283 0.9349
vn 0.1539 0.4183 0.8952
vn 0.0212 0.0094 0.9997
vn -0.0741 -0.2765 0.9582
vn -0.1117 -0.3932 0.9127
vn 0.0850 -0.2246 -0.9707
usemtl Bois
s 1
f 176/1/1 161/2/2 162/3/3 178/4/4
f 178/4/4 162/3/3 163/5/5 180/6/6
f 180/6/6 163/5/5 164/7/7 182/8/8
f 182/8/8 164/7/7 165/9/9 184/10/10
f 184/10/10 165/9/9 166/11/11 186/12/12
f 159/13/13 158/14/14 2/15/15 1/16/16
f 158/14/14 157/17/17 3/18/18 2/15/15
f 157/17/17 156/19/19 4/20/20 3/18/18
f 156/19/19 155/21/21 5/22/22 4/20/20
f 155/21/21 154/23/23 6/24/24 5/22/22
f 154/23/23 153/25/25 7/26/26 6/24/24
f 153/25/25 152/27/27 8/28/28 7/26/26
f 150/29/29 149/30/30 159/13/13 160/31/31
f 149/30/30 148/32/32 158/14/14 159/13/13
f 148/32/32 147/33/33 157/17/17 158/14/14
f 147/33/33 146/34/34 156/19/19 157/17/17
f 146/34/34 145/35/35 155/21/21 156/19/19
f 145/35/35 144/36/36 154/23/23 155/21/21
f 144/36/36 143/37/37 153/25/25 154/23/23
f 143/37/37 142/38/38 152/27/27 153/25/25
f 141/39/39 140/40/40 150/29/29 151/41/41
f 140/40/40 139/42/42 149/30/30 150/29/29
f 139/42/42 138/43/43 148/32/32 149/30/30
f 138/43/43 137/44/44 147/33/33 148/32/32
f 137/44/44 136/45/45 146/34/34 147/33/33
f 136/45/45 135/46/46 145/35/35 146/34/34
f 135/46/46 134/47/47 144/36/36 145/35/35
f 134/47/47 133/48/48 143/37/37 144/36/36
f 133/48/48 132/49/49 142/38/38 143/37/37
f 131/50/50 130/51/51 140/40/40 141/39/39
f 130/51/51 129/52/52 139/42/42 140/40/40
f 129/52/52 128/53/53 138/43/43 139/42/42
f 128/53/53 127/54/54 137/44/44 138/43/43
f 127/54/54 126/55/55 136/45/45 137/44/44
f 126/55/55 125/56/56 135/46/46 136/45/45
f 125/56/56 124/57/57 134/47/47 135/46/46
f 124/57/57 123/58/58 133/48/48 134/47/47
f 123/58/58 122/59/59 132/49/49 133/48/48
f 121/60/60 120/61/61 130/51/51 131/50/50
f 120/61/61 119/62/62 129/52/52 130/51/51
f 119/62/62 118/63/63 128/53/53 129/52/52
f 118/63/63 117/64/64 127/54/54 128/53/53
f 117/64/64 116/65/65 126/55/55 127/54/54
f 116/65/65 115/66/66 125/56/56 126/55/55
f 115/66/66 114/67/67 124/57/57 125/56/56
f 114/67/67 113/68/68 123/58/58 124/57/57
f 113/68/68 112/69/69 122/59/59 123/58/58
f 111/70/70 110/71/71 120/61/61 121/60/60
f 110/71/71 109/72/72 119/62/62 120/61/61
f 109/72/72 108/73/73 118/63/63 119/62/62
f 108/73/73 107/74/74 117/64/64 118/63/63
f 107/74/74 106/75/75 116/65/65 117/64/64
f 106/75/75 105/76/76 115/66/66 116/65/65
f 105/76/76 104/77/77 114/67/67 115/66/66
f 104/77/77 103/78/78 113/68/68 114/67/67
f 103/78/78 102/79/79 112/69/69 113/68/68
f 101/80/80 100/81/81 110/71/71 111/70/70
f 100/81/81 99/82/82 109/72/72 110/71/71
f 99/82/82 98/83/83 108/73/73 109/72/72
f 98/83/83 97/84/84 107/74/74 108/73/73
f 97/84/84 96/85/85 106/75/75 107/74/74
f 96/85/85 95/86/86 105/76/76 106/75/75
f 95/86/86 94/87/87 104/77/77 105/76/76
f 94/87/87 93/88/88 103/78/78 104/77/77
f 93/88/88 92/89/89 102/79/79 103/78/78
f 91/90/90 90/91/91 100/81/81 101/80/80
f 90/91/91 89/92/92 99/82/82 100/81/81
f 89/92/92 88/93/93 98/83/83 99/82/82
f 88/93/93 87/94/94 97/84/84 98/83/83
f 87/94/94 86/95/95 96/85/85 97/84/84
f 86/95/95 85/96/96 95/86/86 96/85/85
f 85/96/96 84/97/97 94/87/87 95/86/86
f 84/97/97 83/98/98 93/88/88 94/87/87
f 83/98/98 82/99/99 92/89/89 93/88/88
f 81/100/100 80/101/101 89/92/92 90/91/91
f 80/101/101 79/102/102 88/93/93 89/92/92
f 79/102/102 78/103/103 87/94/94 88/93/93
f 78/103/103 77/104/104 86/95/95 87/94/94
f 77/104/104 76/105/105 85/96/96 86/95/95
f 76/105/105 75/106/106 84/97/97 85/96/96
f 75/106/106 74/107/107 83/98/98 84/97/97
f 74/107/107 73/108/108 82/99/99 83/98/98
f 72/109/109 71/110/110 79/102/102 80/101/101
f 71/110/110 70/111/111 78/103/103 79/102/102
f 70/111/111 69/112/112 77/104/104 78/103/103
f 69/112/112 68/113/113 76/105/105 77/104/104
f 68/113/113 67/114/114 75/106/106 76/105/105
f 67/114/114 66/115/115 74/107/107 75/106/106
f 66/115/115 65/116/116 73/108/108 74/107/107
f 64/117/117 63/118/118 70/111/111 71/110/110
f 63/118/118 62/119/119 69/112/112 70/111/111
f 62/119/119 61/120/120 68/113/113 69/112/112
f 61/120/120 60/121/121 67/114/114 68/113/113
f 60/121/121 59/122/122 66/115/115 67/114/114
f 59/122/122 58/123/123 65/116/116 66/115/115
f 57/124/124 56/125/125 63/118/118 64/117/117
f 56/125/125 55/126/126 62/119/119 63/118/118
f 55/126/126 54/127/127 61/120/120 62/119/119
f 54/127/127 53/128/128 60/121/121 61/120/120
f 53/128/128 52/129/129 59/122/122 60/121/121
f 52/129/129 51/130/130 58/123/123 59/122/122
f 50/131/131 49/132/132 55/126/126 56/125/125
f 49/132/132 48/133/133 54/127/127 55/126/126
f 48/133/133 47/134/134 53/128/128 54/127/127
f 47/134/134 46/135/135 52/129/129 53/128/128
f 46/135/135 45/136/136 51/130/130 52/129/129
f 44/137/137 43/138/138 49/132/132 50/131/131
f 43/138/138 42/139/139 48/133/133 49/132/132
f 42/139/139 41/140/140 47/134/134 48/133/133
f 41/140/140 40/141/141 46/135/135 47/134/134
f 40/141/141 39/142/142 45/136/136 46/135/135
f 38/143/143 37/144/144 43/138/138 44/137/137
f 37/144/144 36/145/145 42/139/139 43/138/138
f 36/145/145 35/146/146 41/140/140 42/139/139
f 35/146/146 34/147/147 40/141/141 41/140/140
f 33/148/148 32/149/149 37/150/144 38/151/143
f 32/149/149 31/152/150 36/153/145 37/150/144
f 31/152/150 30/154/151 35/155/146 36/153/145
f 30/154/151 29/156/152 34/157/147 35/155/146
f 28/158/153 27/159/154 32/149/149 33/148/148
f 27/159/154 26/160/155 31/152/150 32/149/149
f 26/160/155 25/161/156 30/154/151 31/152/150
f 25/161/156 24/162/157 29/156/152 30/154/151
f 21/163/158 20/164/159 27/159/154 28/158/153
f 20/164/159 19/165/160 26/160/155 27/159/154
f 19/165/160 18/166/161 25/161/156 26/160/155
f 18/166/161 17/167/162 24/162/157 25/161/156
f 17/167/162 16/168/163 23/169/164 24/162/157
f 15/170/165 14/171/166 21/163/158 22/172/167
f 14/171/166 13/173/168 20/164/159 21/163/158
f 13/173/168 12/174/169 19/165/160 20/164/159
f 12/174/169 11/175/170 18/166/161 19/165/160
f 11/175/170 10/176/171 17/167/162 18/166/161
f 10/176/171 9/177/172 16/168/163 17/167/162
f 2/15/15 3/18/18 14/171/166 15/170/165
f 3/18/18 4/20/20 13/173/168 14/171/166
f 4/20/20 5/22/22 12/174/169 13/173/168
f 5/22/22 6/24/24 11/175/170 12/174/169
f 6/24/24 7/26/26 10/176/171 11/175/170
f 7/26/26 8/28/28 9/177/172 10/176/171
f 152/27/27 189/178/173 167/179/174 8/28/28
f 142/38/38 187/180/175 189/178/173 152/27/27
f 187/180/175 186/12/12 188/181/176 189/178/173
f 132/49/49 185/182/177 187/180/175 142/38/38
f 185/182/177 184/10/10 186/12/12 187/180/175
f 122/59/59 183/183/178 185/182/177 132/49/49
f 183/183/178 182/8/8 184/10/10 185/182/177
f 112/69/69 181/184/179 183/183/178 122/59/59
f 181/184/179 180/6/6 182/8/8 183/183/178
f 102/79/79 179/185/180 181/184/179 112/69/69
f 179/185/180 178/4/4 180/6/6 181/184/179
f 92/89/89 177/186/181 179/185/180 102/79/79
f 177/186/181 176/1/1 178/4/4 179/185/180
f 82/99/99 175/187/182 177/186/181 92/89/89
f 175/187/182 174/188/183 176/1/1 177/186/181
f 73/108/108 173/189/184 175/187/182 82/99/99
f 173/189/184 172/190/185 174/188/183 175/187/182
f 65/116/116 171/191/186 173/189/184 73/108/108
f 58/123/123 170/192/187 171/191/186 65/116/116
f 51/130/130 169/193/188 170/192/187 58/123/123
f 8/28/28 167/179/174 168/194/189 9/177/172
