# Blender v3.1.2 OBJ File: 'Arbre.blend'
# www.blender.org
mtllib Racine_3.mtl
o Racine_3_Cylindre.004
v -0.458776 -0.106541 -0.166495
v -0.311043 -0.082346 -0.158245
v -0.161043 -0.034093 -0.122243
v -0.019317 -0.002841 -0.095084
v 0.132772 0.013829 -0.088051
v 0.286462 0.007928 -0.118038
v 0.446739 -0.020791 -0.043795
v 0.646593 -0.055363 0.024870
v 0.647454 -0.076032 0.028049
v 0.448252 -0.045149 -0.039916
v 0.292011 -0.029053 -0.083391
v 0.136420 -0.015701 -0.095733
v -0.017688 -0.032965 -0.092754
v -0.165534 -0.051658 -0.107736
v -0.310802 -0.094276 -0.136503
v 0.646102 -0.094856 0.037131
v 0.448095 -0.067239 -0.028829
v 0.290126 -0.051138 -0.054848
v 0.136013 -0.034497 -0.071636
v -0.016546 -0.051033 -0.078124
v -0.163610 -0.078818 -0.093628
v -0.308262 -0.128431 -0.118917
v 0.642670 -0.109991 0.051226
v 0.446284 -0.084897 -0.011619
v 0.288687 -0.068880 -0.034839
v 0.135984 -0.052816 -0.052621
v -0.015485 -0.070015 -0.059005
v -0.162396 -0.100518 -0.071772
v 0.287015 -0.071933 -0.011974
v 0.135079 -0.064586 -0.029676
v -0.015244 -0.082202 -0.034956
v 0.433391 -0.097127 0.057935
v 0.280888 -0.072328 0.038628
v 0.130651 -0.064822 0.021104
v -0.017240 -0.082202 0.018267
v 0.617106 -0.112121 0.125852
v 0.429870 -0.082325 0.078586
v 0.277530 -0.054752 0.061074
v 0.127929 -0.048779 0.043720
v -0.019280 -0.070015 0.042231
v -0.166735 -0.100518 0.043961
v 0.610916 -0.097787 0.139844
v 0.425055 -0.058272 0.093985
v 0.273531 -0.038036 0.079197
v 0.126548 -0.036678 0.057856
v -0.019800 -0.052741 0.057509
v -0.169582 -0.078818 0.065665
v -0.315721 -0.128431 0.080052
v 0.606091 -0.079478 0.148796
v 0.421785 -0.042112 0.106318
v 0.269610 -0.020015 0.090997
v 0.128489 -0.018735 0.059808
v -0.017493 -0.033141 0.060251
v -0.172664 -0.051474 0.079553
v -0.319571 -0.094276 0.097398
v 0.603030 -0.058708 0.151761
v 0.419763 -0.017465 0.109957
v 0.277227 0.006282 0.086929
v 0.124590 0.016457 0.063489
v -0.018444 0.008048 0.050029
v -0.175680 -0.021163 0.084265
v -0.323339 -0.073182 0.103284
v -0.468744 -0.103788 0.114728
v 0.579042 -0.026201 0.145011
v 0.412078 -0.004916 0.108715
v 0.273130 0.031471 0.080030
v 0.124080 0.037013 0.065394
v -0.036631 0.034225 0.048670
v -0.178335 0.009149 0.079340
v -0.336413 -0.022695 0.085815
v -0.476584 -0.063819 0.109262
v -0.618025 -0.110873 0.116677
v 0.596185 -0.010676 0.137194
v 0.417943 0.022309 0.094673
v 0.271327 0.051002 0.075439
v 0.119389 0.060639 0.052539
v -0.041799 0.051103 0.032287
v -0.180209 0.036648 0.065520
v -0.324261 0.009250 0.084739
v -0.485460 -0.024340 0.086894
v -0.627818 -0.077629 0.099264
v -0.780948 -0.145784 0.091655
v 0.607542 -0.003401 0.125255
v 0.416168 0.040961 0.080148
v 0.265555 0.071483 0.060719
v 0.118562 0.080587 0.036931
v -0.032557 0.069129 0.034369
v -0.182266 0.058211 0.043771
v -0.313168 0.034633 0.076852
v -0.476236 0.010608 0.073130
v -0.618632 -0.029042 0.077263
v -0.775812 -0.100998 0.066682
v 0.610376 0.000756 0.108882
v 0.424056 0.046879 0.066801
v 0.266277 0.083867 0.038080
v 0.116039 0.091373 0.020556
v -0.032507 0.081003 0.017694
v -0.189560 0.072231 0.015807
v -0.365280 0.083450 0.027280
v -0.478900 0.057465 0.022398
v -0.641401 0.004747 0.001711
v -0.777863 -0.066787 0.013424
v 0.616437 0.006912 0.093104
v 0.426932 0.053388 0.037014
v 0.268964 0.088084 0.012765
v 0.117877 0.095511 -0.004848
v -0.031903 0.085202 -0.008932
v -0.191621 0.093727 -0.017168
v -0.344285 0.090542 -0.025409
v -0.489323 0.032539 -0.026101
v -0.644819 0.005305 -0.050441
v -0.804108 -0.072713 -0.066763
v 0.620636 -0.002345 0.084124
v 0.433039 0.047346 0.010753
v 0.272403 0.084263 -0.012522
v 0.120467 0.091610 -0.030224
v -0.030578 0.081060 -0.035505
v -0.196722 0.082395 -0.044446
v -0.349688 0.059978 -0.060942
v -0.487194 0.028102 -0.074724
v -0.635229 -0.018936 -0.082609
v -0.788709 -0.090123 -0.086838
v 0.632902 -0.008396 0.058376
v 0.442990 0.030093 -0.009915
v 0.276245 0.072833 -0.035378
v 0.123555 0.080052 -0.053087
v -0.028472 0.068815 -0.059492
v -0.178652 0.054518 -0.071058
v -0.338215 0.049676 -0.153408
v -0.482468 0.007042 -0.115230
v -0.628708 -0.041682 -0.124791
v -0.781310 -0.111958 -0.130512
v 0.638778 -0.016561 0.036856
v 0.441566 0.025958 -0.039685
v 0.278203 0.074010 -0.068015
v 0.126799 0.064193 -0.075879
v -0.026242 0.053678 -0.081147
v -0.175303 0.037379 -0.100899
v -0.326718 0.018276 -0.181481
v -0.471951 -0.030845 -0.156431
v -0.621111 -0.076203 -0.159692
v -0.771314 -0.145784 -0.165323
v 0.643603 -0.034870 0.027905
v 0.444890 0.003951 -0.046275
v 0.277713 0.031221 -0.114545
v 0.130763 0.039133 -0.103170
v -0.022413 0.025772 -0.111678
v -0.160925 -0.010819 -0.137761
v -0.306907 -0.040326 -0.175726
v -0.466840 -0.063623 -0.159869
v -0.612353 -0.119702 -0.181954
v 0.902239 -0.112652 0.283000
v 0.905726 -0.105770 0.277761
v 0.910498 -0.101125 0.271174
v 0.916086 -0.099174 0.263884
v 0.921510 -0.095467 0.256587
v 0.927063 -0.099192 0.250030
v 0.931770 -0.105344 0.244837
v 0.935169 -0.113323 0.241517
v 0.797882 -0.078503 0.107359
v 0.869864 -0.093812 0.158342
v 0.797775 -0.096480 0.109680
v 0.728827 -0.102622 0.197453
v 0.798217 -0.109349 0.250663
v 0.725386 -0.084962 0.199649
v 0.798324 -0.091372 0.248342
v 0.725493 -0.066985 0.197328
v 0.801969 -0.074839 0.241731
v 0.729138 -0.050451 0.190717
v 0.808795 -0.061368 0.231478
v 0.735964 -0.036980 0.180464
v 0.818134 -0.052277 0.218586
v 0.745303 -0.027890 0.167571
v 0.829071 -0.048457 0.204316
v 0.756240 -0.024070 0.153302
v 0.839687 -0.041202 0.190035
v 0.767705 -0.025894 0.139052
v 0.850558 -0.048493 0.177200
v 0.778576 -0.033184 0.126217
v 0.859771 -0.060535 0.167035
v 0.787789 -0.045227 0.116053
v 0.866423 -0.076151 0.160538
v 0.794441 -0.060843 0.109555
vt 0.283744 0.922606
vt 0.289971 0.986426
vt 0.284765 0.986315
vt 0.273733 0.923117
vt 0.279566 0.986982
vt 0.264011 0.924851
vt 0.274540 0.988424
vt 0.254697 0.927814
vt 0.269258 0.989419
vt 0.244945 0.930290
vt 0.264902 0.992303
vt 0.236819 0.935274
vt 0.260986 0.995790
vt 0.229150 0.941160
vt 0.257586 0.999716
vt 0.221827 0.947916
vt 0.054930 0.202000
vt 0.057491 0.288336
vt 0.033130 0.286856
vt 0.030300 0.203199
vt 0.082034 0.366636
vt 0.066567 0.370679
vt 0.110966 0.447603
vt 0.092260 0.452567
vt 0.126184 0.533936
vt 0.110259 0.536813
vt 0.130451 0.606639
vt 0.120515 0.612953
vt 0.147326 0.695210
vt 0.134983 0.701496
vt 0.173752 0.811134
vt 0.163587 0.816708
vt 0.065508 0.113138
vt 0.073493 0.202529
vt 0.036808 0.112761
vt 0.084006 0.277948
vt 0.116374 0.356968
vt 0.135304 0.444244
vt 0.146146 0.530200
vt 0.156653 0.604540
vt 0.158877 0.690417
vt 0.184234 0.806123
vt 0.080803 0.018643
vt 0.093558 0.113270
vt 0.052350 0.018949
vt 0.106742 0.198490
vt 0.104451 0.273315
vt 0.136572 0.355268
vt 0.150722 0.442241
vt 0.160680 0.527408
vt 0.172050 0.604122
vt 0.174756 0.692769
vt 0.197240 0.803894
vt 0.109218 0.017093
vt 0.120269 0.112006
vt 0.131280 0.196489
vt 0.144942 0.266410
vt 0.157515 0.344994
vt 0.166492 0.440307
vt 0.174290 0.525068
vt 0.184378 0.601801
vt 0.188761 0.686580
vt 0.212766 0.798855
vt 0.126193 0.011554
vt 0.142817 0.109912
vt 0.157128 0.194601
vt 0.166498 0.270734
vt 0.173978 0.347306
vt 0.182387 0.438865
vt 0.187937 0.523282
vt 0.196907 0.600271
vt 0.203489 0.684181
vt 0.219800 0.795952
vt 0.174865 0.023537
vt 0.171245 0.110792
vt 0.185721 0.202428
vt 0.195766 0.259934
vt 0.195851 0.347905
vt 0.198227 0.437970
vt 0.201742 0.522032
vt 0.209641 0.599708
vt 0.220198 0.684998
vt 0.229870 0.794773
vt 0.211268 0.015014
vt 0.218745 0.113584
vt 0.223503 0.194559
vt 0.229735 0.279938
vt 0.213451 0.351019
vt 0.210149 0.437162
vt 0.212310 0.523237
vt 0.222505 0.600444
vt 0.228790 0.682021
vt 0.239578 0.795231
vt 0.237437 0.000283
vt 0.244964 0.097764
vt 0.242115 0.184128
vt 0.242519 0.272606
vt 0.230841 0.350521
vt 0.220148 0.431038
vt 0.226185 0.523338
vt 0.234986 0.604580
vt 0.241505 0.685421
vt 0.248771 0.790816
vt 0.267250 0.096380
vt 0.268002 0.182300
vt 0.258456 0.263783
vt 0.247686 0.350204
vt 0.233918 0.433174
vt 0.241022 0.525660
vt 0.245361 0.606284
vt 0.258982 0.685087
vt 0.260430 0.783315
vt 0.291235 0.182480
vt 0.288574 0.266694
vt 0.264500 0.350665
vt 0.249905 0.442760
vt 0.252591 0.525190
vt 0.258916 0.609542
vt 0.265586 0.690109
vt 0.277598 0.799105
vt 0.300726 0.268585
vt 0.281549 0.351935
vt 0.274484 0.441414
vt 0.272996 0.526096
vt 0.273406 0.606363
vt 0.279692 0.692177
vt 0.289325 0.801239
vt 0.321923 0.271281
vt 0.298574 0.354076
vt 0.285662 0.439539
vt 0.283197 0.524389
vt 0.285243 0.607754
vt 0.291290 0.693471
vt 0.300901 0.803735
vt 0.315712 0.356793
vt 0.298757 0.439854
vt 0.293785 0.524238
vt 0.299028 0.608775
vt 0.307500 0.695693
vt 0.312540 0.805877
vt 0.313871 0.440772
vt 0.309561 0.524468
vt 0.315059 0.609008
vt 0.321923 0.696393
vt 0.046741 0.461647
vt 0.062617 0.546618
vt 0.048129 0.548867
vt 0.031665 0.464388
vt 0.067619 0.634495
vt 0.054507 0.636101
vt 0.036910 0.376132
vt 0.061740 0.458219
vt 0.020147 0.380842
vt 0.077217 0.544099
vt 0.081985 0.629867
vt 0.110839 0.714592
vt 0.098486 0.721056
vt 0.142993 0.828002
vt 0.132270 0.832914
vt 0.020629 0.292630
vt 0.053501 0.371587
vt 0.000283 0.298787
vt 0.074961 0.455298
vt 0.093813 0.541589
vt 0.099985 0.623858
vt 0.122896 0.707914
vt 0.153529 0.822617
vt 0.202856 0.902354
vt 0.194577 0.908102
vt 0.213802 0.954011
vt 0.211102 0.896617
vt 0.219499 0.891105
vt 0.228273 0.885923
vt 0.237252 0.881269
vt 0.246765 0.877612
vt 0.256738 0.875019
vt 0.266995 0.873581
vt 0.277288 0.873292
vt 0.293703 0.922213
vt 0.287459 0.873877
vt 0.303750 0.922317
vt 0.297414 0.875840
vt 0.185789 0.913094
vn -0.2670 0.5685 0.7781
vn -0.0808 0.6293 0.7730
vn -0.0104 0.7106 0.7035
vn -0.0977 0.7428 0.6624
vn 0.1503 0.8420 0.5181
vn 0.0730 0.8774 0.4741
vn 0.1844 0.8648 0.4670
vn 0.1358 0.9129 0.3849
vn 0.3636 0.8891 0.2780
vn 0.2944 0.9469 0.1289
vn 0.6286 0.7674 -0.1261
vn 0.5241 0.8191 -0.2333
vn 0.7329 0.5903 -0.3383
vn 0.6334 0.6315 -0.4472
vn 0.7605 0.4976 -0.4172
vn 0.6651 0.4071 -0.6261
vn -0.0511 0.0586 -0.9970
vn 0.1566 -0.0717 -0.9851
vn 0.2207 -0.4496 -0.8655
vn -0.0049 -0.1270 -0.9919
vn 0.2662 0.0095 -0.9639
vn 0.2873 -0.4976 -0.8185
vn 0.1023 0.1609 -0.9816
vn 0.1442 -0.3188 -0.9368
vn -0.0251 0.2434 -0.9696
vn -0.0303 -0.2673 -0.9632
vn 0.1252 0.2950 -0.9472
vn 0.1449 -0.2229 -0.9640
vn 0.3903 0.2972 -0.8714
vn 0.3302 -0.1415 -0.9333
vn 0.4344 0.2841 -0.8547
vn 0.4046 0.0031 -0.9145
vn -0.1688 0.5636 -0.8086
vn -0.1866 0.4084 -0.8935
vn -0.0268 0.3148 -0.9488
vn 0.0118 0.4562 -0.8898
vn 0.1385 0.6964 -0.7041
vn -0.0246 0.7726 -0.6344
vn -0.0157 0.8314 -0.5554
vn 0.1643 0.8755 -0.4544
vn 0.3531 0.7929 -0.4967
vn 0.3983 0.7100 -0.5808
vn -0.3160 0.7305 -0.6054
vn -0.2694 0.7567 -0.5957
vn -0.2742 0.6512 -0.7076
vn -0.2687 0.8004 -0.5358
vn -0.0955 0.8439 -0.5280
vn 0.0477 0.8516 -0.5220
vn -0.0262 0.8362 -0.5478
vn 0.0067 0.8996 -0.4367
vn 0.1728 0.9364 -0.3055
vn 0.2895 0.9251 -0.2458
vn 0.2954 0.9166 -0.2694
vn -0.3193 0.7460 -0.5844
vn -0.2691 0.8206 -0.5041
vn -0.2423 0.9010 -0.3597
vn -0.1508 0.9192 -0.3637
vn 0.0071 0.8990 -0.4380
vn -0.0146 0.9222 -0.3865
vn 0.0119 0.9524 -0.3046
vn 0.1682 0.9390 -0.3001
vn 0.2917 0.9029 -0.3158
vn 0.2919 0.9206 -0.2595
vn -0.3881 0.8424 -0.3739
vn -0.3042 0.9064 -0.2930
vn -0.2378 0.9309 -0.2774
vn -0.1201 0.9757 -0.1832
vn 0.0119 0.9997 -0.0223
vn -0.0271 0.9991 0.0321
vn -0.0106 0.9999 0.0004
vn 0.1295 0.9914 0.0201
vn 0.2361 0.9717 0.0060
vn 0.2220 0.9750 0.0111
vn -0.4264 0.8579 0.2866
vn -0.3476 0.9131 0.2129
vn -0.2615 0.9303 0.2571
vn -0.1448 0.9159 0.3744
vn 0.0095 0.8858 0.4640
vn -0.0502 0.9093 0.4131
vn -0.0356 0.9356 0.3512
vn 0.0771 0.9372 0.3402
vn 0.1497 0.9313 0.3320
vn 0.0985 0.9307 0.3524
vn -0.3201 0.6169 0.7190
vn -0.2423 0.6350 0.7336
vn -0.1492 0.5814 0.7998
vn 0.0049 0.6199 0.7846
vn 0.0421 0.6845 0.7278
vn -0.0455 0.6430 0.7645
vn -0.0681 0.6905 0.7201
vn 0.0030 0.7518 0.6594
vn 0.0684 0.7942 0.6037
vn 0.0212 0.8442 0.5356
vn -0.2598 0.4655 0.8461
vn -0.1661 0.4520 0.8764
vn -0.0618 0.3867 0.9201
vn -0.0009 0.3369 0.9415
vn 0.0769 0.4554 0.8870
vn 0.0197 0.4865 0.8734
vn -0.0995 0.4820 0.8705
vn -0.0541 0.4899 0.8701
vn -0.0478 0.5627 0.8253
vn -0.0931 0.6297 0.7713
vn -0.1002 0.4576 0.8835
vn -0.0155 0.3459 0.9381
vn 0.0214 0.2761 0.9609
vn 0.0845 0.3059 0.9483
vn 0.0352 0.3670 0.9296
vn -0.1099 0.2448 0.9633
vn -0.1044 0.2569 0.9608
vn -0.1322 0.2827 0.9501
vn -0.1950 0.2806 0.9398
vn 0.0533 0.2570 0.9649
vn 0.0860 0.1070 0.9905
vn 0.1241 0.1043 0.9868
vn 0.0219 0.0553 0.9982
vn -0.1107 0.0372 0.9932
vn -0.1428 0.0806 0.9865
vn -0.1888 0.0025 0.9820
vn -0.3162 -0.0852 0.9448
vn 0.2067 -0.3074 0.9289
vn 0.1767 -0.2091 0.9618
vn 0.0627 -0.0651 0.9959
vn -0.1060 -0.1013 0.9892
vn -0.1674 -0.2190 0.9613
vn -0.2192 -0.3436 0.9132
vn -0.3292 -0.3260 0.8862
vn 0.2291 -0.4201 0.8781
vn 0.1759 -0.4804 0.8592
vn 0.1033 -0.4815 0.8704
vn -0.0422 -0.5013 0.8643
vn -0.1550 -0.6002 0.7847
vn -0.2355 -0.6074 0.7587
vn -0.2982 -0.6002 0.7422
vn 0.1522 -0.6733 0.7235
vn 0.1158 -0.7450 0.6569
vn -0.0044 -0.7821 0.6232
vn -0.1495 -0.7503 0.6440
vn -0.2332 -0.7014 0.6735
vn -0.2961 -0.6327 0.7155
vn 0.1030 -0.8459 0.5232
vn -0.0021 -0.8296 0.5583
vn -0.1578 -0.8018 0.5764
vn -0.2055 -0.7979 0.5666
vn 0.1460 -0.7697 -0.6215
vn 0.0485 -0.8308 -0.5544
vn 0.0407 -0.9236 -0.3812
vn 0.1195 -0.8852 -0.4496
vn -0.0013 -0.8225 -0.5687
vn -0.0370 -0.9502 -0.3095
vn 0.2272 -0.5465 -0.8061
vn 0.1428 -0.6633 -0.7346
vn 0.2035 -0.6891 -0.6955
vn 0.0434 -0.7416 -0.6694
vn 0.0287 -0.7291 -0.6838
vn 0.1282 -0.6299 -0.7660
vn 0.0908 -0.7100 -0.6983
vn 0.1803 -0.5881 -0.7884
vn 0.1374 -0.6954 -0.7054
vn 0.3314 -0.5954 -0.7319
vn 0.2649 -0.5382 -0.8001
vn 0.2941 -0.4219 -0.8576
vn 0.1212 -0.4010 -0.9080
vn -0.0048 -0.4769 -0.8789
vn 0.0753 -0.6011 -0.7956
vn 0.2208 -0.4388 -0.8711
vn 0.3396 -0.2409 -0.9092
vn 0.5412 0.3583 -0.7607
vn 0.5272 0.0925 -0.8447
vn 0.5945 0.2123 -0.7756
vn 0.4828 0.6599 -0.5756
vn 0.3584 0.8779 -0.3176
vn 0.2375 0.9667 -0.0955
vn 0.1430 0.9791 0.1446
vn 0.0252 0.9153 0.4021
vn -0.0899 0.8103 0.5790
vn -0.2292 0.6006 0.7660
vn -0.3832 0.2617 0.8858
vn -0.5031 0.2363 0.8313
vn -0.4434 -0.0276 0.8959
vn -0.5451 0.1105 0.8311
vn -0.3925 -0.1873 0.9005
vn 0.4617 -0.1161 -0.8794
usemtl Bois
s 1
f 168/1/1 152/2/2 153/3/3 170/4/4
f 170/4/4 153/3/3 154/5/5 172/6/6
f 172/6/6 154/5/5 155/7/7 174/8/8
f 174/8/8 155/7/7 156/9/9 176/10/10
f 176/10/10 156/9/9 157/11/11 178/12/12
f 178/12/12 157/11/11 158/13/13 180/14/14
f 180/14/14 158/13/13 159/15/15 182/16/16
f 150/17/17 149/18/18 2/19/19 1/20/20
f 149/18/18 148/21/21 3/22/22 2/19/19
f 148/21/21 147/23/23 4/24/24 3/22/22
f 147/23/23 146/25/25 5/26/26 4/24/24
f 146/25/25 145/27/27 6/28/28 5/26/26
f 145/27/27 144/29/29 7/30/30 6/28/28
f 144/29/29 143/31/31 8/32/32 7/30/30
f 141/33/33 140/34/34 150/17/17 151/35/35
f 140/34/34 139/36/36 149/18/18 150/17/17
f 139/36/36 138/37/37 148/21/21 149/18/18
f 138/37/37 137/38/38 147/23/23 148/21/21
f 137/38/38 136/39/39 146/25/25 147/23/23
f 136/39/39 135/40/40 145/27/27 146/25/25
f 135/40/40 134/41/41 144/29/29 145/27/27
f 134/41/41 133/42/42 143/31/31 144/29/29
f 132/43/43 131/44/44 141/33/33 142/45/45
f 131/44/44 130/46/46 140/34/34 141/33/33
f 130/46/46 129/47/47 139/36/36 140/34/34
f 129/47/47 128/48/48 138/37/37 139/36/36
f 128/48/48 127/49/49 137/38/38 138/37/37
f 127/49/49 126/50/50 136/39/39 137/38/38
f 126/50/50 125/51/51 135/40/40 136/39/39
f 125/51/51 124/52/52 134/41/41 135/40/40
f 124/52/52 123/53/53 133/42/42 134/41/41
f 122/54/54 121/55/55 131/44/44 132/43/43
f 121/55/55 120/56/56 130/46/46 131/44/44
f 120/56/56 119/57/57 129/47/47 130/46/46
f 119/57/57 118/58/58 128/48/48 129/47/47
f 118/58/58 117/59/59 127/49/49 128/48/48
f 117/59/59 116/60/60 126/50/50 127/49/49
f 116/60/60 115/61/61 125/51/51 126/50/50
f 115/61/61 114/62/62 124/52/52 125/51/51
f 114/62/62 113/63/63 123/53/53 124/52/52
f 112/64/64 111/65/65 121/55/55 122/54/54
f 111/65/65 110/66/66 120/56/56 121/55/55
f 110/66/66 109/67/67 119/57/57 120/56/56
f 109/67/67 108/68/68 118/58/58 119/57/57
f 108/68/68 107/69/69 117/59/59 118/58/58
f 107/69/69 106/70/70 116/60/60 117/59/59
f 106/70/70 105/71/71 115/61/61 116/60/60
f 105/71/71 104/72/72 114/62/62 115/61/61
f 104/72/72 103/73/73 113/63/63 114/62/62
f 102/74/74 101/75/75 111/65/65 112/64/64
f 101/75/75 100/76/76 110/66/66 111/65/65
f 100/76/76 99/77/77 109/67/67 110/66/66
f 99/77/77 98/78/78 108/68/68 109/67/67
f 98/78/78 97/79/79 107/69/69 108/68/68
f 97/79/79 96/80/80 106/70/70 107/69/69
f 96/80/80 95/81/81 105/71/71 106/70/70
f 95/81/81 94/82/82 104/72/72 105/71/71
f 94/82/82 93/83/83 103/73/73 104/72/72
f 92/84/84 91/85/85 101/75/75 102/74/74
f 91/85/85 90/86/86 100/76/76 101/75/75
f 90/86/86 89/87/87 99/77/77 100/76/76
f 89/87/87 88/88/88 98/78/78 99/77/77
f 88/88/88 87/89/89 97/79/79 98/78/78
f 87/89/89 86/90/90 96/80/80 97/79/79
f 86/90/90 85/91/91 95/81/81 96/80/80
f 85/91/91 84/92/92 94/82/82 95/81/81
f 84/92/92 83/93/93 93/83/83 94/82/82
f 82/94/94 81/95/95 91/85/85 92/84/84
f 81/95/95 80/96/96 90/86/86 91/85/85
f 80/96/96 79/97/97 89/87/87 90/86/86
f 79/97/97 78/98/98 88/88/88 89/87/87
f 78/98/98 77/99/99 87/89/89 88/88/88
f 77/99/99 76/100/100 86/90/90 87/89/89
f 76/100/100 75/101/101 85/91/91 86/90/90
f 75/101/101 74/102/102 84/92/92 85/91/91
f 74/102/102 73/103/103 83/93/93 84/92/92
f 72/104/104 71/105/105 80/96/96 81/95/95
f 71/105/105 70/106/106 79/97/97 80/96/96
f 70/106/106 69/107/107 78/98/98 79/97/97
f 69/107/107 68/108/108 77/99/99 78/98/98
f 68/108/108 67/109/109 76/100/100 77/99/99
f 67/109/109 66/110/110 75/101/101 76/100/100
f 66/110/110 65/111/111 74/102/102 75/101/101
f 65/111/111 64/112/112 73/103/103 74/102/102
f 63/113/113 62/114/114 70/106/106 71/105/105
f 62/114/114 61/115/115 69/107/107 70/106/106
f 61/115/115 60/116/116 68/108/108 69/107/107
f 60/116/116 59/117/117 67/109/109 68/108/108
f 59/117/117 58/118/118 66/110/110 67/109/109
f 58/118/118 57/119/119 65/111/111 66/110/110
f 57/119/119 56/120/120 64/112/112 65/111/111
f 55/121/121 54/122/122 61/115/115 62/114/114
f 54/122/122 53/123/123 60/116/116 61/115/115
f 53/123/123 52/124/124 59/117/117 60/116/116
f 52/124/124 51/125/125 58/118/118 59/117/117
f 51/125/125 50/126/126 57/119/119 58/118/118
f 50/126/126 49/127/127 56/120/120 57/119/119
f 48/128/128 47/129/129 54/122/122 55/121/121
f 47/129/129 46/130/130 53/123/123 54/122/122
f 46/130/130 45/131/131 52/124/124 53/123/123
f 45/131/131 44/132/132 51/125/125 52/124/124
f 44/132/132 43/133/133 50/126/126 51/125/125
f 43/133/133 42/134/134 49/127/127 50/126/126
f 41/135/135 40/136/136 46/130/130 47/129/129
f 40/136/136 39/137/137 45/131/131 46/130/130
f 39/137/137 38/138/138 44/132/132 45/131/131
f 38/138/138 37/139/139 43/133/133 44/132/132
f 37/139/139 36/140/140 42/134/134 43/133/133
f 35/141/141 34/142/142 39/137/137 40/136/136
f 34/142/142 33/143/143 38/138/138 39/137/137
f 33/143/143 32/144/144 37/139/139 38/138/138
f 27/145/145 26/146/146 30/147/147 31/148/148
f 26/146/146 25/149/149 29/150/150 30/147/147
f 21/151/151 20/152/152 27/145/145 28/153/153
f 20/152/152 19/154/154 26/146/146 27/145/145
f 19/154/154 18/155/155 25/149/149 26/146/146
f 18/155/155 17/156/156 24/157/157 25/149/149
f 17/156/156 16/158/158 23/159/159 24/157/157
f 15/160/160 14/161/161 21/151/151 22/162/162
f 14/161/161 13/163/163 20/152/152 21/151/151
f 13/163/163 12/164/164 19/154/154 20/152/152
f 12/164/164 11/165/165 18/155/155 19/154/154
f 11/165/165 10/166/166 17/156/156 18/155/155
f 10/166/166 9/167/167 16/158/158 17/156/156
f 2/19/19 3/22/22 14/161/161 15/160/160
f 3/22/22 4/24/24 13/163/163 14/161/161
f 4/24/24 5/26/26 12/164/164 13/163/163
f 5/26/26 6/28/28 11/165/165 12/164/164
f 6/28/28 7/30/30 10/166/166 11/165/165
f 7/30/30 8/32/32 9/167/167 10/166/166
f 143/31/31 183/168/168 160/169/169 8/32/32
f 183/168/168 182/16/16 161/170/170 160/169/169
f 133/42/42 181/171/171 183/168/168 143/31/31
f 181/171/171 180/14/14 182/16/16 183/168/168
f 123/53/53 179/172/172 181/171/171 133/42/42
f 179/172/172 178/12/12 180/14/14 181/171/171
f 113/63/63 177/173/173 179/172/172 123/53/53
f 177/173/173 176/10/10 178/12/12 179/172/172
f 103/73/73 175/174/174 177/173/173 113/63/63
f 175/174/174 174/8/8 176/10/10 177/173/173
f 93/83/83 173/175/175 175/174/174 103/73/73
f 173/175/175 172/6/6 174/8/8 175/174/174
f 83/93/93 171/176/176 173/175/175 93/83/83
f 171/176/176 170/4/4 172/6/6 173/175/175
f 73/103/103 169/177/177 171/176/176 83/93/93
f 169/177/177 168/1/1 170/4/4 171/176/176
f 64/112/112 167/178/178 169/177/177 73/103/103
f 167/178/178 166/179/179 168/1/1 169/177/177
f 56/120/120 165/180/180 167/178/178 64/112/112
f 165/180/180 164/181/181 166/179/179 167/178/178
f 49/127/127 163/182/182 165/180/180 56/120/120
f 8/32/32 160/169/169 162/183/183 9/167/167
