# Blender v3.0.0 OBJ File: 'Outpost.blend'
# www.blender.org
o LD_Chaise_LOD_0_Cube.003
v 0.205201 -0.409220 0.212500
v 0.200469 -0.417720 0.212500
v 0.192507 -0.407720 0.202500
v 0.200469 -0.417720 0.217500
v 0.205201 -0.409220 0.217500
v 0.192507 -0.407720 0.227500
v 0.190469 -0.417720 0.212500
v 0.175198 -0.409222 0.212500
v 0.186034 -0.407720 0.202500
v 0.190469 -0.417720 0.217500
v 0.186034 -0.407720 0.227500
v 0.175198 -0.409222 0.217500
v -0.030487 -0.028945 0.212500
v -0.041470 -0.030206 0.202500
v -0.041470 -0.030206 0.227500
v -0.030487 -0.028945 0.217500
v -0.058677 -0.032182 0.217500
v -0.047692 -0.030921 0.227500
v -0.047692 -0.030921 0.202500
v -0.058677 -0.032182 0.212500
v -0.236965 -0.075921 0.190000
v -0.236965 -0.065921 0.200000
v -0.246965 -0.065921 0.190000
v -0.236965 -0.035921 0.200000
v -0.236965 -0.025921 0.190000
v -0.246965 -0.035921 0.190000
v -0.236965 -0.075921 -0.190000
v -0.246965 -0.065921 -0.190000
v -0.236965 -0.065921 -0.200000
v -0.236965 -0.025921 -0.190000
v -0.236965 -0.035921 -0.200000
v -0.246965 -0.035921 -0.190000
v 0.113035 -0.075921 0.190000
v 0.123035 -0.065921 0.190000
v 0.113035 -0.065921 0.200000
v 0.113035 -0.025921 0.190000
v 0.113035 -0.035921 0.200000
v 0.123035 -0.035921 0.190000
v 0.113035 -0.075921 -0.190000
v 0.113035 -0.065921 -0.200000
v 0.123035 -0.065921 -0.190000
v 0.113035 -0.025921 -0.190000
v 0.123035 -0.035921 -0.190000
v 0.113035 -0.035921 -0.200000
v -0.279530 -0.417720 0.220000
v -0.271945 -0.407720 0.230000
v -0.284418 -0.409126 0.220000
v 0.186156 0.362280 0.230000
v 0.190469 0.372280 0.220000
v 0.175356 0.363686 0.220000
v -0.284418 -0.409126 0.210000
v -0.271945 -0.407720 0.200000
v -0.279530 -0.417720 0.210000
v 0.175356 0.363686 0.210000
v 0.190469 0.372280 0.210000
v 0.191706 0.372842 0.190016
v 0.176494 0.364197 0.190026
v -0.254418 -0.409126 0.220000
v -0.265217 -0.407720 0.230000
v -0.269530 -0.417720 0.220000
v 0.205357 0.363686 0.220000
v 0.200470 0.372280 0.220000
v 0.192884 0.362280 0.230000
v -0.265217 -0.407720 0.200000
v -0.254418 -0.409126 0.210000
v -0.269530 -0.417720 0.210000
v 0.201570 0.372842 0.190016
v 0.200470 0.372280 0.210000
v 0.205357 0.363686 0.210000
v 0.206494 0.364197 0.190026
v -0.279530 -0.417720 -0.210000
v -0.271945 -0.407720 -0.200000
v -0.284418 -0.409126 -0.210000
v 0.176494 0.364197 -0.190026
v 0.191706 0.372842 -0.190016
v 0.190469 0.372280 -0.210000
v 0.175356 0.363686 -0.210000
v -0.284418 -0.409126 -0.220000
v -0.271945 -0.407720 -0.230000
v -0.279530 -0.417720 -0.220000
v 0.175356 0.363686 -0.220000
v 0.190469 0.372280 -0.220000
v 0.186156 0.362280 -0.230000
v -0.254418 -0.409126 -0.210000
v -0.265217 -0.407720 -0.200000
v -0.269530 -0.417720 -0.210000
v 0.205357 0.363686 -0.210000
v 0.200470 0.372280 -0.210000
v 0.201570 0.372842 -0.190016
v 0.206494 0.364197 -0.190026
v -0.265217 -0.407720 -0.230000
v -0.254418 -0.409126 -0.220000
v -0.269530 -0.417720 -0.220000
v 0.192884 0.362280 -0.230000
v 0.200470 0.372280 -0.220000
v 0.205357 0.363686 -0.220000
v 0.121906 0.223417 0.220000
v 0.132132 0.240606 0.220000
v 0.121332 0.242011 0.230000
v 0.109433 0.222011 0.230000
v 0.102131 0.240606 0.220000
v 0.091906 0.223417 0.220000
v 0.102705 0.222011 0.230000
v 0.114604 0.242011 0.230000
v 0.103329 0.241217 -0.190026
v 0.102131 0.240606 -0.210000
v 0.091906 0.223417 -0.210000
v 0.102705 0.222011 -0.200000
v 0.108255 0.232573 -0.190016
v 0.103329 0.241217 0.190026
v 0.108255 0.232573 0.190016
v 0.102705 0.222011 0.200000
v 0.091906 0.223417 0.210000
v 0.102131 0.240606 0.210000
v 0.121906 0.223417 -0.220000
v 0.109433 0.222011 -0.230000
v 0.121332 0.242011 -0.230000
v 0.132132 0.240606 -0.220000
v 0.091906 0.223417 -0.220000
v 0.102131 0.240606 -0.220000
v 0.114604 0.242011 -0.230000
v 0.102705 0.222011 -0.230000
v 0.109433 0.222011 0.200000
v 0.118119 0.232573 0.190016
v 0.133329 0.241217 0.190026
v 0.132132 0.240606 0.210000
v 0.121906 0.223417 0.210000
v 0.121906 0.223417 -0.210000
v 0.132132 0.240606 -0.210000
v 0.133329 0.241217 -0.190026
v 0.118119 0.232573 -0.190016
v 0.109433 0.222011 -0.200000
v 0.219765 0.370577 -0.076641
v 0.214839 0.379220 -0.076651
v 0.216075 0.379782 -0.056667
v 0.220963 0.371188 -0.056667
v 0.219765 0.370577 0.076641
v 0.220963 0.371188 0.056667
v 0.216075 0.379782 0.056667
v 0.214839 0.379220 0.076651
v 0.146600 0.247597 0.076641
v 0.131388 0.238952 0.076651
v 0.132625 0.239514 0.056667
v 0.147738 0.248108 0.056667
v 0.146600 0.247597 -0.076641
v 0.147738 0.248108 -0.056667
v 0.132625 0.239514 -0.056667
v 0.131388 0.238952 -0.076651
v 0.204975 0.379220 -0.076651
v 0.189765 0.370577 -0.076641
v 0.190962 0.371188 -0.056667
v 0.206075 0.379782 -0.056667
v 0.204975 0.379220 0.076651
v 0.206075 0.379782 0.056667
v 0.190962 0.371188 0.056667
v 0.189765 0.370577 0.076641
v 0.116600 0.247597 -0.076641
v 0.121524 0.238952 -0.076651
v 0.122624 0.239514 -0.056667
v 0.117737 0.248108 -0.056667
v 0.116600 0.247597 0.076641
v 0.117737 0.248108 0.056667
v 0.122624 0.239514 0.056667
v 0.121524 0.238952 0.076651
v 0.205201 -0.409220 -0.217500
v 0.200470 -0.417720 -0.217500
v 0.192507 -0.407720 -0.227500
v 0.200470 -0.417720 -0.212500
v 0.205201 -0.409220 -0.212500
v 0.192507 -0.407720 -0.202500
v 0.190470 -0.417720 -0.217500
v 0.175198 -0.409222 -0.217500
v 0.186034 -0.407720 -0.227500
v 0.190470 -0.417720 -0.212500
v 0.186034 -0.407720 -0.202500
v 0.175198 -0.409222 -0.212500
v -0.030487 -0.028945 -0.217500
v -0.041470 -0.030206 -0.227500
v -0.041470 -0.030206 -0.202500
v -0.030487 -0.028945 -0.212500
v -0.058677 -0.032182 -0.212500
v -0.047692 -0.030921 -0.202500
v -0.047692 -0.030921 -0.227500
v -0.058677 -0.032182 -0.217500
vt 0.625007 0.835116
vt 0.625012 0.453222
vt 0.631638 0.455551
vt 0.631633 0.838084
vt 0.662720 0.838050
vt 0.662727 0.455517
vt 0.669347 0.452394
vt 0.669345 0.833944
vt 0.002281 0.780145
vt 0.002281 0.460435
vt 0.349394 0.460435
vt 0.349394 0.780145
vt 0.681515 0.830127
vt 0.681515 0.448334
vt 0.688178 0.448300
vt 0.688178 0.830093
vt 0.408775 0.469955
vt 0.404170 0.474995
vt 0.401331 0.472214
vt 0.406329 0.467573
vt 0.055521 0.442956
vt 0.055521 0.415552
vt 0.375230 0.415552
vt 0.375230 0.442956
vt 0.015199 0.055521
vt 0.042603 0.055521
vt 0.042602 0.402634
vt 0.015199 0.402634
vt 0.986035 0.623268
vt 0.975419 0.623227
vt 0.975418 0.015026
vt 0.986033 0.015067
vt 0.055521 0.055521
vt 0.375230 0.055521
vt 0.375230 0.402634
vt 0.055521 0.402634
vt 0.415552 0.402634
vt 0.388148 0.402634
vt 0.388148 0.055521
vt 0.415552 0.055521
vt 0.375230 0.015199
vt 0.375230 0.042603
vt 0.055521 0.042603
vt 0.055521 0.015199
vt 0.776773 0.026587
vt 0.645270 0.032556
vt 0.646409 0.023835
vt 0.775870 0.017458
vt 0.763438 0.152711
vt 0.634723 0.154203
vt 0.643539 0.050782
vt 0.776760 0.045374
vt 0.602298 0.425579
vt 0.601424 0.434653
vt 0.478105 0.428174
vt 0.477497 0.419882
vt 0.593314 0.447226
vt 0.589800 0.452262
vt 0.468835 0.443872
vt 0.473610 0.439301
vt 0.775077 0.428252
vt 0.647449 0.420770
vt 0.646611 0.412442
vt 0.776021 0.418357
vt 0.776358 0.399554
vt 0.644791 0.394175
vt 0.635443 0.291027
vt 0.763541 0.292035
vt 0.474228 0.055809
vt 0.600538 0.050005
vt 0.593486 0.156550
vt 0.459464 0.158392
vt 0.448926 0.054024
vt 0.458178 0.054677
vt 0.443396 0.158410
vt 0.434290 0.158296
vt 0.815134 0.011926
vt 0.825652 0.014841
vt 0.825648 0.620338
vt 0.815130 0.617426
vt 0.440734 0.476495
vt 0.445582 0.471076
vt 0.451053 0.476558
vt 0.445641 0.481272
vt 0.963735 0.616960
vt 0.953217 0.614045
vt 0.953215 0.008550
vt 0.963733 0.011462
vt 0.361657 0.478492
vt 0.366505 0.473073
vt 0.371976 0.478555
vt 0.366564 0.483269
vt 0.919227 0.614081
vt 0.908709 0.620338
vt 0.908705 0.014844
vt 0.919223 0.008586
vt 0.452639 0.423972
vt 0.462147 0.422067
vt 0.464182 0.430956
vt 0.455043 0.434154
vt 0.847955 0.018370
vt 0.847952 0.626571
vt 0.837336 0.626607
vt 0.837340 0.018406
vt 0.881844 0.002281
vt 0.892459 0.002322
vt 0.892459 0.610521
vt 0.881844 0.610480
vt 0.454473 0.024635
vt 0.463181 0.027888
vt 0.461393 0.036450
vt 0.451819 0.034549
vt 0.588756 0.004436
vt 0.592412 0.009452
vt 0.472498 0.019439
vt 0.467711 0.014982
vt 0.459760 0.300048
vt 0.593275 0.301407
vt 0.600754 0.407235
vt 0.475089 0.402596
vt 0.930913 0.610516
vt 0.930911 0.002317
vt 0.941527 0.002281
vt 0.941529 0.610480
vt 0.762595 0.273865
vt 0.634571 0.273236
vt 0.633976 0.172085
vt 0.762520 0.170918
vt 0.434585 0.300260
vt 0.443693 0.300106
vt 0.458946 0.403800
vt 0.449689 0.404486
vt 0.788431 0.152762
vt 0.779567 0.152674
vt 0.793688 0.044827
vt 0.802993 0.046138
vt 0.458376 0.176833
vt 0.592785 0.175422
vt 0.592558 0.282633
vt 0.458608 0.281635
vt 0.600833 0.022056
vt 0.601959 0.031432
vt 0.476438 0.038562
vt 0.477149 0.030295
vt 0.730429 0.448300
vt 0.730430 0.833488
vt 0.723707 0.833523
vt 0.723706 0.448335
vt 0.859642 0.014805
vt 0.870160 0.008548
vt 0.870158 0.614044
vt 0.859640 0.620301
vt 0.787501 0.273897
vt 0.778429 0.273917
vt 0.778331 0.170838
vt 0.787393 0.170849
vt 0.802882 0.398960
vt 0.793490 0.400267
vt 0.779667 0.292089
vt 0.788545 0.292010
vt 0.433032 0.176827
vt 0.442284 0.176852
vt 0.442503 0.281671
vt 0.433245 0.281734
vt 0.749229 0.458122
vt 0.749230 0.839875
vt 0.742608 0.837547
vt 0.742606 0.455156
vt 0.711531 0.455190
vt 0.711530 0.837582
vt 0.704913 0.840704
vt 0.704908 0.459295
vt 0.768071 0.461907
vt 0.768072 0.843903
vt 0.761405 0.843937
vt 0.761404 0.461941
vt 0.487852 0.467958
vt 0.483247 0.472998
vt 0.480408 0.470217
vt 0.485406 0.465576
vt 0.411177 0.460435
vt 0.393852 0.461366
vt 0.415586 0.464177
vt 0.415586 0.482033
vt 0.389790 0.483503
vt 0.388874 0.466486
vt 0.410628 0.487288
vt 0.393634 0.487078
vt 0.426740 0.409093
vt 0.415552 0.415552
vt 0.388148 0.415552
vt 0.376961 0.409093
vt 0.426739 0.049062
vt 0.415552 0.042603
vt 0.376961 0.049062
vt 0.388148 0.042603
vt 0.004011 0.409093
vt 0.015199 0.415552
vt 0.053790 0.409093
vt 0.042602 0.415552
vt 0.004012 0.049062
vt 0.015199 0.042603
vt 0.053791 0.049062
vt 0.042603 0.042603
vt 0.379122 0.489664
vt 0.362446 0.490953
vt 0.353955 0.483937
vt 0.354697 0.466176
vt 0.384312 0.467759
vt 0.384312 0.484522
vt 0.638033 0.021379
vt 0.649127 0.010430
vt 0.359825 0.460754
vt 0.376385 0.460435
vt 0.634365 0.049889
vt 0.636219 0.031039
vt 0.458199 0.487668
vt 0.441523 0.488957
vt 0.433032 0.481940
vt 0.433773 0.464179
vt 0.463389 0.465762
vt 0.463389 0.482525
vt 0.637388 0.413964
vt 0.635608 0.395076
vt 0.438902 0.458757
vt 0.455462 0.458438
vt 0.650402 0.433819
vt 0.639610 0.423588
vt 0.793691 0.015385
vt 0.778655 0.004313
vt 0.799129 0.002281
vt 0.619296 0.436881
vt 0.614261 0.448938
vt 0.620446 0.028485
vt 0.619004 0.041292
vt 0.609441 0.050831
vt 0.609564 0.406379
vt 0.619017 0.415781
vt 0.620446 0.428380
vt 0.793315 0.430311
vt 0.798743 0.443739
vt 0.777863 0.441472
vt 0.619183 0.019496
vt 0.613725 0.007235
vt 0.804797 0.033443
vt 0.794699 0.024131
vt 0.794471 0.421291
vt 0.804721 0.411823
vt 0.626542 0.291684
vt 0.625678 0.273547
vt 0.625007 0.171856
vt 0.625778 0.153594
vt 0.602742 0.157028
vt 0.602098 0.175636
vt 0.601802 0.282436
vt 0.602467 0.300908
vt 0.490254 0.458438
vt 0.472928 0.459369
vt 0.494662 0.462180
vt 0.494662 0.480037
vt 0.468867 0.481506
vt 0.467951 0.464489
vt 0.489705 0.485291
vt 0.472711 0.485081
vt 0.650539 0.844908
vt 0.650545 0.459577
vt 0.700346 0.452360
vt 0.700346 0.833909
vt 0.643820 0.459612
vt 0.643814 0.844942
vt 0.428470 0.055521
vt 0.428470 0.402634
vt 0.055521 0.002281
vt 0.375230 0.002281
vt 0.002281 0.402634
vt 0.002281 0.055521
vt 0.375230 0.455874
vt 0.055521 0.455874
vt 0.904144 0.008589
vt 0.904144 0.614084
vt 0.610770 0.453877
vt 0.610043 0.002281
vt 0.810568 0.034746
vt 0.810568 0.410497
vt 0.997719 0.011502
vt 0.997719 0.617001
vt 0.780247 0.458088
vt 0.780247 0.839841
vn 0.0000 0.0000 -1.0000
vn 0.0000 0.0000 1.0000
vn 0.0000 -1.0000 0.0000
vn -0.8498 -0.5271 -0.0000
vn 1.0000 0.0000 0.0000
vn -0.8594 0.5113 0.0000
vn 0.0000 1.0000 0.0000
vn -1.0000 0.0000 -0.0000
vn 0.8594 -0.5113 0.0000
vn 0.8572 -0.5100 0.0716
vn 0.8572 -0.5100 -0.0716
vn -0.8572 0.5100 0.0716
vn 0.0000 0.9984 -0.0562
vn -0.8572 0.5100 -0.0716
vn -0.0000 0.9984 0.0562
vn 0.0000 -0.9984 -0.0562
vn 0.8500 0.5268 0.0000
vn -0.0000 -0.9984 0.0562
vn 0.5643 -0.3141 -0.7635
vn 0.5643 -0.3141 0.7635
vn -0.4062 -0.7299 -0.5498
vn -0.4062 -0.7299 0.5498
vn -0.5773 -0.5774 0.5774
vn -0.5773 0.5774 0.5773
vn -0.5773 -0.5774 -0.5774
vn -0.5773 0.5774 -0.5773
vn 0.5774 -0.5774 0.5774
vn 0.5774 0.5774 0.5773
vn 0.5774 -0.5774 -0.5774
vn 0.5774 0.5774 -0.5773
vn -0.5694 -0.3238 0.7556
vn -0.4133 0.7268 0.5485
vn -0.5694 -0.3238 -0.7556
vn -0.4942 0.8693 -0.0060
vn 0.4133 -0.7268 0.5485
vn 0.5694 0.3238 0.7556
vn 0.4133 -0.7268 -0.5485
vn 0.8674 0.4937 0.0618
vn -0.4942 0.8693 0.0060
vn -0.4133 0.7268 -0.5485
vn 0.8674 0.4937 -0.0618
vn 0.5694 0.3238 -0.7556
vn 0.6077 -0.3615 0.7071
vn -0.6077 0.3615 0.7071
vn -0.8893 0.0750 0.4512
vn -0.8893 0.0750 -0.4512
vn 0.6077 -0.3615 -0.7071
vn -0.6077 0.3615 -0.7071
vn 0.6362 -0.7200 -0.2773
vn 0.6362 -0.7200 0.2773
vn 0.8671 0.4936 -0.0673
vn 0.8671 0.4936 0.0673
vn 0.4942 -0.8693 0.0060
vn 0.4942 -0.8693 -0.0060
vn -0.4942 0.8693 0.0029
vn -0.4942 0.8693 -0.0029
vn -0.8674 -0.4937 0.0618
vn -0.8674 -0.4937 -0.0618
vn 0.8737 -0.4864 0.0000
vn 0.6010 0.3725 0.7071
vn 0.0000 -0.7071 0.7071
vn -0.6009 -0.3727 0.7071
vn -0.4863 -0.8738 0.0000
vn -0.6009 -0.3727 -0.7071
vn 0.0000 -0.7071 -0.7071
vn 0.6010 0.3725 -0.7071
vn -0.7071 -0.7071 -0.0000
vn -0.7071 0.0000 0.7071
vn -0.7071 0.7071 -0.0000
vn -0.7071 0.0000 -0.7071
vn 0.0000 0.7071 -0.7071
vn 0.7071 0.0000 -0.7071
vn 0.7071 -0.7071 0.0000
vn 0.7071 0.7071 0.0000
vn 0.7071 0.0000 0.7071
vn -0.0000 0.7071 0.7071
vn -0.8693 -0.4943 0.0000
vn -0.4943 0.8693 0.0000
vn 0.0000 0.9996 0.0281
vn 0.4943 -0.8693 0.0000
vn 0.8693 0.4943 0.0000
vn -0.8589 0.5110 0.0358
vn 0.0000 0.9996 -0.0281
vn -0.8589 0.5110 -0.0358
vn 0.8589 -0.5110 0.0358
vn 0.8589 -0.5110 -0.0358
vn 0.0000 -0.6870 -0.7267
vn 0.0000 -0.6870 0.7267
vn 0.8616 0.4910 0.1285
vn 0.4941 -0.8694 -0.0089
vn -0.4941 0.8694 -0.0089
vn -0.8616 -0.4910 -0.1285
vn 0.8616 0.4910 -0.1285
vn 0.4941 -0.8694 0.0089
vn -0.4941 0.8694 0.0089
vn -0.8616 -0.4910 0.1285
vn -0.0000 -0.9996 0.0281
vn 0.0000 -0.9996 -0.0281
s off
f 9/1/1 19/2/1 14/3/1 3/4/1
f 6/5/2 15/6/2 18/7/2 11/8/2
f 27/9/3 39/10/3 33/11/3 21/12/3
f 12/13/4 17/14/4 20/15/4 8/16/4
f 4/17/3 10/18/3 7/19/3 2/20/3
f 35/21/2 37/22/2 24/23/2 22/24/2
f 41/25/5 43/26/5 38/27/5 34/28/5
f 51/29/6 47/30/6 102/31/6 113/32/6
f 42/33/7 30/34/7 25/35/7 36/36/7
f 23/37/8 26/38/8 32/39/8 28/40/8
f 29/41/1 31/42/1 44/43/1 40/44/1
f 126/45/9 69/46/9 61/47/9 98/48/9
f 141/49/10 137/50/10 70/51/10 125/52/10
f 114/53/6 101/54/6 50/55/6 54/56/6
f 104/57/2 99/58/2 63/59/2 48/60/2
f 118/61/9 96/62/9 87/63/9 129/64/9
f 130/65/11 90/66/11 133/67/11 145/68/11
f 74/69/12 105/70/12 157/71/12 150/72/12
f 89/73/13 75/74/13 149/75/13 134/76/13
f 72/77/2 85/78/2 132/79/2 108/80/2
f 80/81/3 93/82/3 86/83/3 71/84/3
f 46/85/2 59/86/2 100/87/2 103/88/2
f 53/89/3 66/90/3 60/91/3 45/92/3
f 64/93/1 52/94/1 112/95/1 123/96/1
f 68/97/7 55/98/7 49/99/7 62/100/7
f 92/101/9 115/102/9 128/103/9 84/104/9
f 78/105/6 73/106/6 107/107/6 119/108/6
f 95/109/7 82/110/7 76/111/7 88/112/7
f 117/113/1 121/114/1 83/115/1 94/116/1
f 156/117/14 161/118/14 110/119/14 57/120/14
f 65/121/9 127/122/9 97/123/9 58/124/9
f 146/125/9 136/126/9 138/127/9 144/128/9
f 140/129/15 153/130/15 56/131/15 67/132/15
f 164/133/16 142/134/16 124/135/16 111/136/16
f 151/137/6 160/138/6 162/139/6 155/140/6
f 120/141/6 106/142/6 77/143/6 81/144/6
f 165/145/17 177/146/17 180/147/17 169/148/17
f 91/149/1 79/150/1 122/151/1 116/152/1
f 159/153/3 147/154/3 143/155/3 163/156/3
f 109/157/18 131/158/18 148/159/18 158/160/18
f 135/161/7 152/162/7 154/163/7 139/164/7
f 173/165/1 183/166/1 178/167/1 167/168/1
f 170/169/2 179/170/2 182/171/2 175/172/2
f 176/173/4 181/174/4 184/175/4 172/176/4
f 168/177/3 174/178/3 171/179/3 166/180/3
f 1/181/19 2/20/19 3/182/19
f 4/17/20 5/183/20 6/184/20
f 7/19/21 8/185/21 9/186/21
f 10/18/22 11/187/22 12/188/22
f 21/189/23 22/190/23 23/37/23
f 24/191/24 25/192/24 26/38/24
f 27/193/25 28/40/25 29/194/25
f 30/195/26 31/196/26 32/39/26
f 33/197/27 34/28/27 35/198/27
f 36/199/28 37/200/28 38/27/28
f 39/201/29 40/202/29 41/25/29
f 42/203/30 43/26/30 44/204/30
f 45/92/31 46/205/31 47/206/31
f 48/60/32 49/99/32 50/55/32
f 51/207/33 52/208/33 53/89/33
f 54/56/34 55/98/34 56/131/34 57/120/34
f 58/209/35 59/210/35 60/91/35
f 61/47/36 62/211/36 63/212/36
f 64/213/37 65/214/37 66/90/37
f 67/215/38 68/216/38 69/46/38 70/51/38
f 71/84/31 72/217/31 73/218/31
f 74/69/39 75/74/39 76/111/39 77/143/39
f 78/219/33 79/220/33 80/81/33
f 81/144/40 82/110/40 83/115/40
f 84/221/35 85/222/35 86/83/35
f 87/63/41 88/223/41 89/224/41 90/66/41
f 91/225/37 92/226/37 93/82/37
f 94/227/42 95/228/42 96/62/42
f 97/229/43 98/48/43 99/230/43 100/231/43
f 101/54/44 102/232/44 103/233/44 104/57/44
f 105/70/45 106/142/45 107/234/45 108/235/45 109/236/45
f 110/119/46 111/237/46 112/238/46 113/239/46 114/53/46
f 115/240/47 116/241/47 117/242/47 118/61/47
f 119/243/48 120/141/48 121/114/48 122/244/48
f 123/245/49 124/135/49 125/52/49 126/45/49 127/246/49
f 128/247/50 129/64/50 130/65/50 131/158/50 132/248/50
f 133/67/51 134/249/51 135/250/51 136/126/51
f 137/50/52 138/127/52 139/251/52 140/252/52
f 141/49/53 142/134/53 143/155/53 144/128/53
f 145/68/54 146/125/54 147/154/54 148/159/54
f 149/75/55 150/72/55 151/137/55 152/162/55
f 153/130/56 154/163/56 155/140/56 156/117/56
f 157/71/57 158/253/57 159/254/57 160/138/57
f 161/118/58 162/139/58 163/255/58 164/256/58
f 165/257/19 166/180/19 167/258/19
f 168/177/20 169/259/20 170/260/20
f 171/179/21 172/261/21 173/262/21
f 174/178/22 175/263/22 176/264/22
f 4/17/59 2/20/59 1/181/59 5/183/59
f 15/6/60 6/5/60 5/265/60 16/266/60
f 10/18/61 4/17/61 6/184/61 11/187/61
f 17/14/62 12/13/62 11/8/62 18/7/62
f 7/19/63 10/18/63 12/188/63 8/185/63
f 19/267/64 9/268/64 8/16/64 20/15/64
f 2/20/65 7/19/65 9/186/65 3/182/65
f 3/4/66 14/3/66 13/269/66 1/270/66
f 27/271/67 21/272/67 23/37/67 28/40/67
f 22/190/68 24/191/68 26/38/68 23/37/68
f 25/35/69 30/34/69 32/39/69 26/38/69
f 31/196/70 29/194/70 28/40/70 32/39/70
f 39/273/65 27/274/65 29/41/65 40/44/65
f 30/34/71 42/33/71 44/43/71 31/42/71
f 43/26/72 41/25/72 40/202/72 44/204/72
f 33/275/73 39/276/73 41/25/73 34/28/73
f 42/33/74 36/36/74 38/27/74 43/26/74
f 37/200/75 35/198/75 34/28/75 38/27/75
f 21/277/61 33/278/61 35/21/61 22/24/61
f 36/36/76 25/35/76 24/23/76 37/22/76
f 53/89/77 45/92/77 47/206/77 51/207/77
f 104/57/44 48/60/44 50/55/44 101/54/44
f 49/99/78 55/98/78 54/56/78 50/55/78
f 66/90/65 53/89/65 52/208/65 64/213/65
f 55/98/79 68/97/79 67/132/79 56/131/79
f 60/91/80 66/90/80 65/214/80 58/209/80
f 68/216/81 62/211/81 61/47/81 69/46/81
f 46/85/44 103/88/44 102/31/44 47/30/44
f 45/92/61 60/91/61 59/210/61 46/205/61
f 62/100/76 49/99/76 48/60/76 63/59/76
f 80/81/77 71/84/77 73/218/77 78/219/77
f 105/70/82 74/69/82 77/143/82 106/142/82
f 76/111/78 82/110/78 81/144/78 77/143/78
f 93/82/65 80/81/65 79/220/65 91/225/65
f 82/110/71 95/109/71 94/116/71 83/115/71
f 78/105/48 119/108/48 122/151/48 79/150/48
f 86/83/80 93/82/80 92/226/80 84/221/80
f 95/228/81 88/223/81 87/63/81 96/62/81
f 72/279/44 108/280/44 107/107/44 73/106/44
f 71/84/61 86/83/61 85/222/61 72/217/61
f 88/112/83 76/111/83 75/74/83 89/73/83
f 115/102/47 92/101/47 91/149/47 116/152/47
f 132/79/43 85/78/43 84/104/43 128/103/43
f 127/122/47 65/121/47 64/93/47 123/96/47
f 100/87/43 59/86/43 58/124/43 97/123/43
f 63/212/43 99/230/43 98/48/43 61/47/43
f 99/58/2 104/57/2 103/233/2 100/281/2
f 57/120/84 110/119/84 114/53/84 54/56/84
f 96/62/47 118/61/47 117/242/47 94/227/47
f 126/45/9 98/48/9 97/229/9 127/246/9
f 69/46/85 126/45/85 125/52/85 70/51/85
f 90/66/86 130/65/86 129/64/86 87/63/86
f 101/54/6 114/53/6 113/239/6 102/232/6
f 121/114/1 117/113/1 116/282/1 122/244/1
f 111/136/87 124/135/87 123/245/87 112/283/87
f 108/284/88 132/248/88 131/158/88 109/157/88
f 118/61/9 129/64/9 128/247/9 115/240/9
f 83/115/48 121/114/48 120/141/48 81/144/48
f 119/243/6 107/234/6 106/142/6 120/141/6
f 140/252/89 67/215/89 70/51/89 137/50/89
f 148/159/90 131/158/90 130/65/90 145/68/90
f 156/117/91 57/120/91 56/131/91 153/130/91
f 164/256/92 111/237/92 110/119/92 161/118/92
f 51/29/48 113/32/48 112/285/48 52/286/48
f 89/224/93 134/249/93 133/67/93 90/66/93
f 135/250/81 139/251/81 138/127/81 136/126/81
f 124/135/94 142/134/94 141/49/94 125/52/94
f 143/155/80 147/154/80 146/125/80 144/128/80
f 74/69/95 150/72/95 149/75/95 75/74/95
f 151/137/78 155/140/78 154/163/78 152/162/78
f 109/236/96 158/253/96 157/71/96 105/70/96
f 159/254/77 163/255/77 162/139/77 160/138/77
f 147/154/97 159/153/97 158/160/97 148/159/97
f 142/134/98 164/133/98 163/156/98 143/155/98
f 160/138/82 151/137/82 150/72/82 157/71/82
f 161/118/84 156/117/84 155/140/84 162/139/84
f 152/162/83 135/161/83 134/76/83 149/75/83
f 153/130/79 140/129/79 139/164/79 154/163/79
f 136/126/86 146/125/86 145/68/86 133/67/86
f 137/50/85 141/49/85 144/128/85 138/127/85
f 168/177/59 166/180/59 165/257/59 169/259/59
f 179/170/60 170/169/60 169/148/60 180/147/60
f 174/178/61 168/177/61 170/260/61 175/263/61
f 181/174/62 176/173/62 175/287/62 182/288/62
f 171/179/63 174/178/63 176/264/63 172/261/63
f 183/166/64 173/165/64 172/176/64 184/175/64
f 166/180/65 171/179/65 173/262/65 167/258/65
f 167/168/66 178/167/66 177/146/66 165/145/66
f 1/270/17 13/269/17 16/266/17 5/265/17
