# Blender v3.0.0 OBJ File: 'Outpost.blend'
# www.blender.org
o LD_Table_LOD_0_Cylindre
v -0.349656 0.040765 0.749455
v 0.349655 0.040765 0.749455
v -0.349656 0.018776 0.758563
v 0.349655 0.018776 0.758563
v -0.349656 0.009667 0.780552
v 0.349655 0.009668 0.780552
v -0.349656 0.018776 0.802541
v 0.349655 0.018776 0.802541
v -0.349656 0.040765 0.811649
v 0.349655 0.040765 0.811649
v -0.349656 0.062754 0.802541
v 0.349655 0.062754 0.802541
v -0.349656 0.071862 0.780552
v 0.349655 0.071862 0.780552
v -0.349656 0.062754 0.758563
v 0.349655 0.062754 0.758563
v -0.349656 0.040765 -0.812014
v 0.349655 0.040765 -0.812014
v -0.349656 0.018776 -0.802906
v 0.349655 0.018776 -0.802906
v -0.349656 0.009667 -0.780917
v 0.349655 0.009668 -0.780917
v -0.349656 0.018776 -0.758928
v 0.349655 0.018776 -0.758928
v -0.349656 0.040765 -0.749820
v 0.349655 0.040765 -0.749820
v -0.349656 0.062754 -0.758928
v 0.349655 0.062754 -0.758928
v -0.349656 0.071862 -0.780917
v 0.349655 0.071862 -0.780917
v -0.349656 0.062754 -0.802906
v 0.349655 0.062754 -0.802906
v -0.345000 -0.569741 0.811649
v -0.345000 0.040765 0.811649
v -0.345000 -0.569741 0.749455
v -0.345000 0.040765 0.749455
v -0.270000 -0.569741 0.811649
v -0.270000 0.040765 0.811649
v -0.270000 -0.569741 0.749455
v -0.270000 0.040765 0.749455
v -0.345000 -0.000270 0.865955
v -0.345000 -0.000270 -0.864045
v 0.345000 -0.000270 0.865955
v 0.345000 -0.000270 -0.864045
v -0.345000 0.081799 -0.864045
v -0.345000 0.081799 0.865955
v 0.345000 0.081799 -0.864045
v 0.345000 0.081799 0.865955
v 0.270000 -0.569741 0.811649
v 0.270000 0.040765 0.811649
v 0.270000 -0.569741 0.749455
v 0.270000 0.040765 0.749455
v 0.345000 -0.569741 0.811649
v 0.345000 0.040765 0.811649
v 0.345000 -0.569741 0.749455
v 0.345000 0.040765 0.749455
v -0.345000 -0.569741 -0.749820
v -0.345000 0.040765 -0.749820
v -0.345000 -0.569741 -0.812014
v -0.345000 0.040765 -0.812014
v -0.270000 -0.569741 -0.749820
v -0.270000 0.040765 -0.749820
v -0.270000 -0.569741 -0.812014
v -0.270000 0.040765 -0.812014
v 0.270000 -0.569741 -0.749820
v 0.270000 0.040765 -0.749820
v 0.270000 -0.569741 -0.812014
v 0.270000 0.040765 -0.812014
v 0.345000 -0.569741 -0.749820
v 0.345000 0.040765 -0.749820
v 0.345000 -0.569741 -0.812014
v 0.345000 0.040765 -0.812014
v -0.349656 0.041678 -0.030142
v 0.349655 0.041678 -0.030142
v -0.349656 0.019689 -0.021034
v 0.349655 0.019689 -0.021034
v -0.349656 0.010580 0.000955
v 0.349655 0.010580 0.000955
v -0.349656 0.019689 0.022944
v 0.349655 0.019689 0.022944
v -0.349656 0.041678 0.032052
v 0.349655 0.041678 0.032052
v -0.349656 0.063667 0.022944
v 0.349655 0.063667 0.022944
v -0.349656 0.072775 0.000955
v 0.349655 0.072775 0.000955
v -0.349656 0.063667 -0.021034
v 0.349655 0.063667 -0.021034
v 0.270000 -0.146218 -0.452471
v 0.270000 -0.116820 -0.463565
v 0.270000 0.026979 0.006502
v 0.270000 0.056377 -0.004592
v 0.264620 -0.146218 -0.452471
v 0.264620 -0.116820 -0.463565
v 0.264620 0.026979 0.006502
v 0.264620 0.056377 -0.004592
v 0.269340 -0.358119 -0.780131
v 0.269340 -0.337651 -0.793571
v 0.269340 -0.140187 -0.448222
v 0.269340 -0.119719 -0.461662
v 0.265279 -0.358119 -0.780131
v 0.265279 -0.337651 -0.793571
v 0.265279 -0.140187 -0.448222
v 0.265279 -0.119719 -0.461662
v -0.264620 -0.146218 -0.452471
v -0.264620 -0.116820 -0.463565
v -0.264620 0.026979 0.006502
v -0.264620 0.056377 -0.004592
v -0.270000 -0.146218 -0.452471
v -0.270000 -0.116820 -0.463565
v -0.270000 0.026979 0.006502
v -0.270000 0.056377 -0.004592
v -0.265279 -0.358119 -0.780131
v -0.265279 -0.337651 -0.793571
v -0.265279 -0.140187 -0.448222
v -0.265279 -0.119719 -0.461661
v -0.269340 -0.358119 -0.780131
v -0.269340 -0.337651 -0.793571
v -0.269340 -0.140187 -0.448222
v -0.269340 -0.119719 -0.461661
v -0.270000 -0.146218 0.454381
v -0.270000 -0.116820 0.465475
v -0.270000 0.026979 -0.004592
v -0.270000 0.056377 0.006502
v -0.264620 -0.146218 0.454381
v -0.264620 -0.116820 0.465475
v -0.264620 0.026979 -0.004592
v -0.264620 0.056377 0.006502
v -0.269340 -0.358119 0.782041
v -0.269340 -0.337651 0.795481
v -0.269340 -0.140187 0.450132
v -0.269340 -0.119719 0.463572
v -0.265279 -0.358119 0.782041
v -0.265279 -0.337651 0.795481
v -0.265279 -0.140187 0.450132
v -0.265279 -0.119719 0.463572
v 0.264620 -0.146218 0.454381
v 0.264620 -0.116820 0.465475
v 0.264620 0.026979 -0.004592
v 0.264620 0.056377 0.006502
v 0.270000 -0.146218 0.454381
v 0.270000 -0.116820 0.465475
v 0.270000 0.026979 -0.004592
v 0.270000 0.056377 0.006502
v 0.265280 -0.358119 0.782041
v 0.265280 -0.337651 0.795481
v 0.265280 -0.140187 0.450132
v 0.265280 -0.119719 0.463572
v 0.269340 -0.358119 0.782041
v 0.269340 -0.337651 0.795481
v 0.269340 -0.140187 0.450132
v 0.269340 -0.119719 0.463572
v -0.395000 0.099730 0.865955
v -0.345000 0.099730 0.915955
v -0.380355 0.099730 0.901310
v -0.345000 0.099730 -0.914045
v -0.395000 0.099730 -0.864045
v -0.380355 0.099730 -0.899400
v 0.345000 0.099730 0.915955
v 0.395000 0.099730 0.865955
v 0.380355 0.099730 0.901310
v 0.395000 0.099730 -0.864045
v 0.345000 0.099730 -0.914045
v 0.380355 0.099730 -0.899400
v -0.395000 -0.000270 -0.864045
v -0.345000 -0.000270 -0.914045
v -0.380355 -0.000270 -0.899400
v -0.345000 -0.000270 0.915955
v -0.395000 -0.000270 0.865955
v -0.380355 -0.000270 0.901310
v 0.345000 -0.000270 -0.914045
v 0.395000 -0.000270 -0.864045
v 0.380355 -0.000270 -0.899400
v 0.395000 -0.000270 0.865955
v 0.345000 -0.000270 0.915955
v 0.380355 -0.000270 0.901310
vt 0.000306 0.874475
vt 0.265216 0.874476
vt 0.265216 0.883492
vt 0.000306 0.883492
vt 0.265216 0.892508
vt 0.000306 0.892508
vt 0.265216 0.901524
vt 0.000306 0.901524
vt 0.265216 0.910541
vt 0.000306 0.910541
vt 0.265216 0.919557
vt 0.000306 0.919557
vt 0.265216 0.928573
vt 0.000306 0.928573
vt 0.265216 0.937589
vt 0.000306 0.937590
vt 0.265216 0.946605
vt 0.000306 0.946606
vt 0.375948 0.927563
vt 0.640858 0.927564
vt 0.640858 0.936580
vt 0.375948 0.936580
vt 0.640858 0.945596
vt 0.375948 0.945596
vt 0.640858 0.954612
vt 0.375948 0.954612
vt 0.640858 0.963629
vt 0.375948 0.963629
vt 0.640858 0.972645
vt 0.375948 0.972645
vt 0.640858 0.981661
vt 0.375948 0.981661
vt 0.640858 0.990677
vt 0.375948 0.990678
vt 0.640858 0.999693
vt 0.375948 0.999694
vt 0.607218 0.770423
vt 0.375948 0.770423
vt 0.375948 0.746863
vt 0.607218 0.746863
vt 0.375948 0.718451
vt 0.607218 0.718451
vt 0.607218 0.822395
vt 0.375948 0.822395
vt 0.375948 0.798835
vt 0.607218 0.798835
vt 0.331906 0.725878
vt 0.318513 0.731426
vt 0.057130 0.731426
vt 0.043735 0.725878
vt 0.375336 0.712485
vt 0.337454 0.712485
vt 0.337454 0.057129
vt 0.375336 0.057130
vt 0.980449 0.674601
vt 0.980449 0.019247
vt 0.999390 0.019247
vt 0.999390 0.674601
vt 0.000306 0.057129
vt 0.038188 0.057129
vt 0.038188 0.712485
vt 0.000306 0.712485
vt 0.375948 0.686750
vt 0.375948 0.031396
vt 0.407037 0.031395
vt 0.407038 0.686750
vt 0.057130 0.769307
vt 0.318513 0.769307
vt 0.719064 0.674601
vt 0.980449 0.693542
vt 0.719064 0.693542
vt 0.719064 0.019247
vt 0.719064 0.000306
vt 0.980449 0.000306
vt 0.700123 0.674601
vt 0.700123 0.019247
vt 0.668422 0.686750
vt 0.668421 0.031395
vt 0.699511 0.031395
vt 0.699511 0.686750
vt 0.407037 0.000306
vt 0.668421 0.000306
vt 0.668422 0.717839
vt 0.407038 0.717839
vt 0.839101 0.770423
vt 0.607830 0.770423
vt 0.607830 0.746863
vt 0.839101 0.746863
vt 0.607830 0.718451
vt 0.839101 0.718451
vt 0.839101 0.822395
vt 0.607830 0.822395
vt 0.607830 0.798835
vt 0.839101 0.798835
vt 0.607219 0.874979
vt 0.375948 0.874979
vt 0.375948 0.851419
vt 0.607219 0.851419
vt 0.375948 0.823008
vt 0.607219 0.823008
vt 0.607219 0.926951
vt 0.375948 0.926951
vt 0.375948 0.903391
vt 0.607219 0.903391
vt 0.000306 0.821891
vt 0.231577 0.821891
vt 0.231577 0.845452
vt 0.000306 0.845452
vt 0.231577 0.873863
vt 0.000306 0.873863
vt 0.000306 0.769920
vt 0.231577 0.769920
vt 0.231577 0.793480
vt 0.000306 0.793480
vt 0.641470 0.927563
vt 0.906380 0.927564
vt 0.906380 0.936580
vt 0.641470 0.936580
vt 0.906380 0.945596
vt 0.641470 0.945596
vt 0.906380 0.954612
vt 0.641470 0.954612
vt 0.906380 0.963629
vt 0.641470 0.963629
vt 0.906380 0.972645
vt 0.641470 0.972645
vt 0.906380 0.981661
vt 0.641470 0.981661
vt 0.906380 0.990677
vt 0.641470 0.990678
vt 0.906380 0.999693
vt 0.641470 0.999694
vt 0.916705 0.718492
vt 0.928124 0.718492
vt 0.928124 0.896779
vt 0.916705 0.896779
vt 0.913593 0.896759
vt 0.902174 0.896759
vt 0.902174 0.718471
vt 0.913593 0.718471
vt 0.242177 0.769920
vt 0.242177 0.781823
vt 0.240139 0.781823
vt 0.240139 0.769920
vt 0.899062 0.896738
vt 0.899062 0.718451
vt 0.700159 0.702996
vt 0.700159 0.694154
vt 0.843541 0.694154
vt 0.843541 0.702996
vt 0.843523 0.705499
vt 0.843523 0.714340
vt 0.700141 0.714340
vt 0.700141 0.705498
vt 0.261952 0.771458
vt 0.252676 0.771458
vt 0.252676 0.769920
vt 0.261952 0.769920
vt 0.843504 0.716843
vt 0.700123 0.716843
vt 0.887030 0.718492
vt 0.898450 0.718492
vt 0.898450 0.896778
vt 0.887030 0.896778
vt 0.883919 0.896758
vt 0.872499 0.896758
vt 0.872499 0.718471
vt 0.883919 0.718471
vt 0.237489 0.781823
vt 0.237489 0.769920
vt 0.239527 0.769920
vt 0.239527 0.781823
vt 0.869388 0.896738
vt 0.869388 0.718451
vt 0.331815 0.913302
vt 0.322973 0.913302
vt 0.322973 0.769920
vt 0.331815 0.769920
vt 0.334317 0.769938
vt 0.343159 0.769938
vt 0.343159 0.913320
vt 0.334317 0.913320
vt 0.272071 0.779195
vt 0.272071 0.769920
vt 0.273609 0.769920
vt 0.273609 0.779195
vt 0.345662 0.769956
vt 0.345662 0.913338
vt 0.363916 0.769960
vt 0.375336 0.769960
vt 0.375336 0.948247
vt 0.363916 0.948247
vt 0.360805 0.948227
vt 0.349385 0.948227
vt 0.349385 0.769940
vt 0.360805 0.769940
vt 0.234227 0.769920
vt 0.234227 0.781823
vt 0.232189 0.781823
vt 0.232189 0.769920
vt 0.346274 0.948207
vt 0.346274 0.769920
vt 0.290218 0.769956
vt 0.299060 0.769956
vt 0.299060 0.913337
vt 0.290218 0.913337
vt 0.287716 0.913319
vt 0.278874 0.913319
vt 0.278874 0.769938
vt 0.287716 0.769938
vt 0.274221 0.779195
vt 0.274221 0.769920
vt 0.275760 0.769920
vt 0.275760 0.779195
vt 0.276372 0.913301
vt 0.276372 0.769920
vt 0.851133 0.896738
vt 0.839713 0.896738
vt 0.839713 0.718451
vt 0.851133 0.718451
vt 0.854244 0.718471
vt 0.865664 0.718471
vt 0.865664 0.896759
vt 0.854244 0.896759
vt 0.236877 0.769920
vt 0.236877 0.781823
vt 0.234839 0.781823
vt 0.234839 0.769920
vt 0.868775 0.718492
vt 0.868775 0.896779
vt 0.308514 0.913302
vt 0.299672 0.913302
vt 0.299672 0.769920
vt 0.308514 0.769920
vt 0.311017 0.769938
vt 0.319858 0.769938
vt 0.319858 0.913320
vt 0.311016 0.913320
vt 0.252064 0.771458
vt 0.242789 0.771458
vt 0.242789 0.769920
vt 0.252064 0.769920
vt 0.322361 0.769956
vt 0.322361 0.913338
vt 0.993843 0.687994
vt 0.993843 0.005854
vt 0.705671 0.687994
vt 0.705671 0.005854
vt 0.042632 0.003186
vt 0.057130 0.038188
vt 0.043736 0.043736
vt 0.029238 0.008734
vt 0.008736 0.029239
vt 0.003189 0.042632
vt 0.042631 0.766427
vt 0.029237 0.760879
vt 0.008738 0.740374
vt 0.003190 0.726981
vt 0.372452 0.726982
vt 0.366905 0.740375
vt 0.346403 0.760877
vt 0.333010 0.766424
vt 0.318513 0.038188
vt 0.333010 0.003190
vt 0.346403 0.008738
vt 0.331907 0.043736
vt 0.366905 0.029239
vt 0.372453 0.042633
vt 0.318513 0.000307
vt 0.057130 0.000306
vn 0.0000 -0.3827 -0.9239
vn 0.0000 -0.9239 -0.3827
vn 0.0000 -0.9239 0.3827
vn 0.0000 -0.3827 0.9239
vn -0.0000 0.3827 0.9239
vn -0.0000 0.9239 0.3827
vn -0.0000 0.9239 -0.3827
vn -0.0000 0.3827 -0.9239
vn -1.0000 0.0000 0.0000
vn 0.0000 0.0000 -1.0000
vn 1.0000 -0.0000 0.0000
vn 0.0000 0.0000 1.0000
vn 0.0000 1.0000 -0.0000
vn -0.0000 -1.0000 0.0000
vn 0.0000 -0.3531 -0.9356
vn 0.0000 -0.9356 0.3531
vn 0.0000 0.9356 -0.3531
vn 0.0000 -0.5489 -0.8359
vn 0.0000 -0.8359 0.5489
vn 0.0000 0.8359 -0.5489
vn 0.0000 -0.3531 0.9356
vn 0.0000 -0.9356 -0.3531
vn 0.0000 0.9356 0.3531
vn 0.0000 -0.5489 0.8359
vn 0.0000 -0.8359 -0.5489
vn 0.0000 0.8359 0.5489
vn -0.3827 0.0000 0.9239
vn -0.9239 0.0000 0.3827
vn -0.3827 0.0000 -0.9239
vn -0.9239 0.0000 -0.3827
vn 0.9239 0.0000 -0.3827
vn 0.3827 0.0000 -0.9239
vn 0.3827 0.0000 0.9239
vn 0.9239 0.0000 0.3827
s off
f 1/1/1 2/2/1 4/3/1 3/4/1
f 3/4/2 4/3/2 6/5/2 5/6/2
f 5/6/3 6/5/3 8/7/3 7/8/3
f 7/8/4 8/7/4 10/9/4 9/10/4
f 9/10/5 10/9/5 12/11/5 11/12/5
f 11/12/6 12/11/6 14/13/6 13/14/6
f 13/14/7 14/13/7 16/15/7 15/16/7
f 15/16/8 16/15/8 2/17/8 1/18/8
f 17/19/1 18/20/1 20/21/1 19/22/1
f 19/22/2 20/21/2 22/23/2 21/24/2
f 21/24/3 22/23/3 24/25/3 23/26/3
f 23/26/4 24/25/4 26/27/4 25/28/4
f 25/28/5 26/27/5 28/29/5 27/30/5
f 27/30/6 28/29/6 30/31/6 29/32/6
f 29/32/7 30/31/7 32/33/7 31/34/7
f 31/34/8 32/33/8 18/35/8 17/36/8
f 33/37/9 34/38/9 36/39/9 35/40/9
f 35/40/10 36/39/10 40/41/10 39/42/10
f 39/43/11 40/44/11 38/45/11 37/46/11
f 37/46/12 38/45/12 34/38/12 33/37/12
f 164/47/13 163/48/13 156/49/13 158/50/13
f 172/51/11 162/52/11 160/53/11 174/54/11
f 42/55/14 41/56/14 169/57/14 165/58/14
f 169/59/9 153/60/9 157/61/9 165/62/9
f 44/63/9 43/64/9 48/65/9 47/66/9
f 166/67/10 156/49/10 163/48/10 171/68/10
f 44/69/14 42/55/14 166/70/14 171/71/14
f 41/56/14 43/72/14 175/73/14 168/74/14
f 160/53/13 162/52/13 157/61/13 153/60/13
f 43/72/14 44/69/14 172/75/14 174/76/14
f 45/77/14 47/66/14 48/65/14 46/78/14
f 41/79/11 42/80/11 45/77/11 46/78/11
f 43/81/10 41/82/10 46/78/10 48/65/10
f 42/83/12 44/84/12 47/66/12 45/77/12
f 49/85/9 50/86/9 52/87/9 51/88/9
f 51/88/10 52/87/10 56/89/10 55/90/10
f 55/91/11 56/92/11 54/93/11 53/94/11
f 53/94/12 54/93/12 50/86/12 49/85/12
f 57/95/9 58/96/9 60/97/9 59/98/9
f 59/98/10 60/97/10 64/99/10 63/100/10
f 63/101/11 64/102/11 62/103/11 61/104/11
f 61/104/12 62/103/12 58/96/12 57/95/12
f 65/105/9 66/106/9 68/107/9 67/108/9
f 67/108/10 68/107/10 72/109/10 71/110/10
f 71/111/11 72/112/11 70/113/11 69/114/11
f 69/114/12 70/113/12 66/106/12 65/105/12
f 73/115/1 74/116/1 76/117/1 75/118/1
f 75/118/2 76/117/2 78/119/2 77/120/2
f 77/120/3 78/119/3 80/121/3 79/122/3
f 79/122/4 80/121/4 82/123/4 81/124/4
f 81/124/5 82/123/5 84/125/5 83/126/5
f 83/126/6 84/125/6 86/127/6 85/128/6
f 85/128/7 86/127/7 88/129/7 87/130/7
f 87/130/8 88/129/8 74/131/8 73/132/8
f 89/133/11 90/134/11 92/135/11 91/136/11
f 95/137/9 96/138/9 94/139/9 93/140/9
f 93/141/15 94/142/15 90/143/15 89/144/15
f 91/136/16 95/137/16 93/140/16 89/133/16
f 96/138/17 92/145/17 90/146/17 94/139/17
f 97/147/11 98/148/11 100/149/11 99/150/11
f 103/151/9 104/152/9 102/153/9 101/154/9
f 101/155/18 102/156/18 98/157/18 97/158/18
f 99/150/19 103/151/19 101/154/19 97/147/19
f 104/152/20 100/159/20 98/160/20 102/153/20
f 105/161/11 106/162/11 108/163/11 107/164/11
f 111/165/9 112/166/9 110/167/9 109/168/9
f 109/169/15 110/170/15 106/171/15 105/172/15
f 107/164/16 111/165/16 109/168/16 105/161/16
f 112/166/17 108/173/17 106/174/17 110/167/17
f 113/175/11 114/176/11 116/177/11 115/178/11
f 119/179/9 120/180/9 118/181/9 117/182/9
f 117/183/18 118/184/18 114/185/18 113/186/18
f 115/178/19 119/179/19 117/182/19 113/175/19
f 120/180/20 116/187/20 114/188/20 118/181/20
f 121/189/9 122/190/9 124/191/9 123/192/9
f 127/193/11 128/194/11 126/195/11 125/196/11
f 125/197/21 126/198/21 122/199/21 121/200/21
f 123/192/22 127/193/22 125/196/22 121/189/22
f 128/194/23 124/201/23 122/202/23 126/195/23
f 129/203/9 130/204/9 132/205/9 131/206/9
f 135/207/11 136/208/11 134/209/11 133/210/11
f 133/211/24 134/212/24 130/213/24 129/214/24
f 131/206/25 135/207/25 133/210/25 129/203/25
f 136/208/26 132/215/26 130/216/26 134/209/26
f 137/217/9 138/218/9 140/219/9 139/220/9
f 143/221/11 144/222/11 142/223/11 141/224/11
f 141/225/21 142/226/21 138/227/21 137/228/21
f 139/220/22 143/221/22 141/224/22 137/217/22
f 144/222/23 140/229/23 138/230/23 142/223/23
f 145/231/9 146/232/9 148/233/9 147/234/9
f 151/235/11 152/236/11 150/237/11 149/238/11
f 149/239/24 150/240/24 146/241/24 145/242/24
f 147/234/25 151/235/25 149/238/25 145/231/25
f 152/236/26 148/243/26 146/244/26 150/237/26
f 165/58/14 167/245/14 42/55/14
f 167/245/14 166/70/14 42/55/14
f 168/74/14 170/246/14 41/56/14
f 170/246/14 169/57/14 41/56/14
f 171/71/14 173/247/14 44/69/14
f 173/247/14 172/75/14 44/69/14
f 174/76/14 176/248/14 43/72/14
f 176/248/14 175/73/14 43/72/14
f 168/249/27 154/250/27 155/251/27 170/252/27
f 170/253/28 155/251/28 153/60/28 169/254/28
f 156/49/29 166/255/29 167/256/29 158/50/29
f 158/50/30 167/257/30 165/258/30 157/61/30
f 162/52/31 172/259/31 173/260/31 164/47/31
f 164/47/32 173/261/32 171/262/32 163/48/32
f 159/263/33 175/264/33 176/265/33 161/266/33
f 161/266/34 176/267/34 174/268/34 160/53/34
f 175/269/12 159/263/12 154/250/12 168/270/12
f 162/52/13 164/47/13 158/50/13 157/61/13
f 161/266/13 160/53/13 153/60/13 155/251/13
f 159/263/13 161/266/13 155/251/13 154/250/13
