# Blender v3.1.2 OBJ File: 'Rochers.blend'
# www.blender.org
mtllib Rock_2.mtl
o Rock_2_Cube.004
v -1.269078 -1.388985 2.366551
v -6.565881 -1.786240 -1.853939
v -6.666546 0.144540 -1.851392
v -1.646406 2.510049 0.543118
v -1.301584 2.511465 0.534711
v -1.253812 1.483926 1.737151
v -0.311887 -1.289141 2.381803
v 0.596245 -1.495346 2.320884
v -3.574130 -1.028368 2.423333
v -6.626733 -0.618978 -1.852404
v -6.624748 -0.732432 -0.722744
v -3.830601 -0.765047 2.430002
v -6.644438 -0.279484 -1.851953
v -6.640840 -0.444239 -0.413398
v -3.369242 -0.950766 2.137184
v 4.467294 -0.264500 -1.540095
v -5.975050 -0.641573 -1.617381
v -5.970081 -0.758624 -0.531542
v 4.283901 2.534387 0.398506
v 3.652877 0.963858 2.250142
v -6.745162 1.505673 0.358990
v -5.493917 2.494435 0.529204
v -5.420788 2.494558 0.635166
v -1.409652 1.965470 0.536503
v -1.469034 2.513806 -1.298004
v -2.894020 -1.726667 2.405658
v -3.137092 -2.159032 1.636486
v -0.378270 -1.459806 2.309281
v -0.457884 -1.391487 2.158233
v 1.238711 0.953951 2.309016
v -0.203700 0.915730 2.254009
v -1.561929 0.942457 2.377312
v -0.049253 1.019399 2.191806
v 0.003033 0.801012 2.294091
v 3.171527 -1.613766 2.257886
v 3.351287 -0.965881 2.254507
v 3.416105 -0.732283 2.253284
v 4.324906 -0.755254 1.842151
v 3.848877 0.827497 2.245149
v 4.851593 -2.126247 1.441684
v 3.147083 -1.701872 2.258345
v -6.707962 0.757511 0.876592
v -6.730485 1.187277 0.910411
v -4.569347 -0.006540 2.449194
v -5.733176 1.563791 1.731316
v -4.706908 0.929549 2.454000
v 6.131588 1.182243 0.881966
v 4.746147 2.537659 0.209778
v 5.426609 -2.121825 1.313566
v 5.822101 -0.806720 1.396157
v 6.141855 -0.822118 0.965746
v 6.141573 -0.584432 0.994271
v 5.821879 -0.621745 1.418355
v 5.825394 0.569269 1.578250
v 6.139865 0.863138 1.167975
v 6.142519 -1.387012 0.897961
v 5.820078 -1.722898 1.273305
v 6.089303 -0.609615 -1.153390
v 5.392723 -0.545630 -1.833883
v 5.413170 -0.427719 -1.712600
v 5.391557 -0.261810 -1.833409
v 6.088201 -0.338601 -1.152940
v 5.402570 -0.262351 -1.710509
v 6.082006 1.185395 -1.150425
v 5.382924 1.862930 -1.828599
v 5.398889 -2.065291 -1.836252
v 6.092452 -1.383827 -1.154669
v -3.670060 2.505119 -1.455175
v -3.855038 2.135859 -1.828478
v 5.066943 2.176123 -1.827966
v 4.705441 2.542325 -1.458324
v -6.513622 -1.838461 -1.853662
v -5.898577 -2.165043 -1.522887
v 5.357771 -2.115559 -1.507737
v 5.398889 -2.065291 -1.836252
vt 0.249857 0.028257
vt 0.250772 0.369849
vt 0.170501 0.444105
vt 0.166193 0.441152
vt 0.169142 0.287889
vt 0.244092 0.280317
vt 0.169414 0.273855
vt 0.174124 0.045655
vt 0.181778 0.026771
vt 0.000426 0.649012
vt 0.042357 0.555789
vt 0.051691 0.558540
vt 0.109599 0.621645
vt 0.106865 0.645719
vt 0.095275 0.658783
vt 0.011976 0.665760
vt 0.333543 0.553028
vt 0.368323 0.520491
vt 0.368323 0.583532
vt 0.493922 0.540020
vt 0.504799 0.572802
vt 0.497792 0.570778
vt 0.989920 0.498375
vt 0.999574 0.525270
vt 0.952636 0.525479
vt 0.944473 0.498341
vt 0.831937 0.390437
vt 0.819631 0.399014
vt 0.403411 0.419096
vt 0.400691 0.172975
vt 0.436711 0.163370
vt 0.440284 0.489062
vt 0.445132 0.591013
vt 0.487420 0.540020
vt 0.469379 0.590770
vt 0.166291 0.734118
vt 0.104585 0.741097
vt 0.166271 0.646027
vt 0.487420 0.604614
vt 0.445303 0.664663
vt 0.818780 0.006157
vt 0.801360 0.034294
vt 0.759272 0.032243
vt 0.756095 0.000426
vt 0.444280 0.547864
vt 0.444280 0.664404
vt 0.440250 0.678680
vt 0.439663 0.679377
vt 0.402219 0.646994
vt 0.403081 0.567635
vt 0.420732 0.550975
vt 0.636544 0.114281
vt 0.650667 0.133399
vt 0.830020 0.115400
vt 0.849502 0.077135
vt 0.215236 0.663124
vt 0.242188 0.615383
vt 0.259346 0.619258
vt 0.265252 0.731660
vt 0.228918 0.718771
vt 0.663902 0.445645
vt 0.646544 0.408368
vt 0.488272 0.577106
vt 0.818780 0.491862
vt 0.813639 0.492273
vt 0.806742 0.453329
vt 0.588144 0.025621
vt 0.635693 0.023433
vt 0.635693 0.512912
vt 0.573814 0.513865
vt 0.573807 0.512785
vt 0.586005 0.027736
vt 0.399809 0.420153
vt 0.393406 0.314175
vt 0.391206 0.275055
vt 0.387685 0.239617
vt 0.504799 0.616231
vt 0.637896 0.637574
vt 0.636544 0.585190
vt 0.641842 0.579190
vt 0.646300 0.523424
vt 0.646300 0.587902
vt 0.294730 0.726109
vt 0.321751 0.583568
vt 0.332692 0.746623
vt 0.789937 0.521015
vt 0.697693 0.522573
vt 0.680104 0.508614
vt 0.376302 0.434287
vt 0.400165 0.420917
vt 0.445385 0.512576
vt 0.432962 0.531789
vt 0.396096 0.539169
vt 0.384040 0.277744
vt 0.373250 0.428004
vt 0.371381 0.145297
vt 0.371381 0.649865
vt 0.380048 0.563184
vt 0.982834 0.074144
vt 0.992152 0.036619
vt 0.999574 0.036222
vt 0.107896 0.453847
vt 0.068895 0.412254
vt 0.071197 0.284895
vt 0.077427 0.222114
vt 0.073277 0.169130
vt 0.074890 0.071530
vt 0.105052 0.272023
vt 0.005812 0.080701
vt 0.069395 0.063515
vt 0.067354 0.219888
vt 0.030815 0.406044
vt 0.000426 0.375380
vt 0.171102 0.591640
vt 0.236434 0.590077
vt 0.198247 0.648168
vt 0.168423 0.596150
vt 0.316159 0.520491
vt 0.332692 0.525591
vt 0.050894 0.776024
vt 0.028140 0.763829
vt 0.020558 0.696262
vt 0.068871 0.773680
vt 0.389920 0.127675
vt 0.515619 0.000426
vt 0.575601 0.019701
vt 0.576255 0.022638
vt 0.566805 0.052577
vt 0.399547 0.166192
vt 0.116861 0.623648
vt 0.165822 0.624338
vt 0.382706 0.540020
vt 0.188310 0.506689
vt 0.269970 0.381748
vt 0.292876 0.519640
vt 0.971857 0.005876
vt 0.167572 0.773901
vt 0.081538 0.783595
vt 0.374831 0.692042
vt 0.863301 0.015092
vt 0.880482 0.000426
vt 0.167572 0.520491
vt 0.104245 0.538936
vt 0.271081 0.013518
vt 0.272186 0.377397
vt 0.370530 0.491307
vt 0.353235 0.492183
vt 0.283873 0.000650
vt 0.370530 0.000426
vt 0.560297 0.510928
vn -0.0043 1.0000 0.0024
vn 0.3159 0.6516 0.6897
vn -0.9986 -0.0521 -0.0035
vn 0.0972 0.9251 0.3672
vn 0.0034 0.9946 0.1035
vn -0.0452 0.9909 0.1271
vn 0.0154 -0.8737 0.4862
vn 0.9165 0.3980 0.0406
vn 0.9997 0.0041 -0.0244
vn -0.9770 0.1937 0.0895
vn -0.4416 -0.8918 -0.0981
vn 0.7104 -0.7035 -0.0187
vn -0.3219 -0.9183 0.2306
vn -0.0045 0.9270 0.3750
vn -0.6113 -0.0939 0.7858
vn 0.0248 -0.9443 0.3282
vn 0.0908 -0.9266 0.3649
vn 0.9138 0.3962 0.0888
vn 0.0167 -0.8314 -0.5554
vn -0.9608 0.1908 0.2012
vn 0.0015 0.0014 -1.0000
vn 0.0260 0.0271 0.9993
vn 0.0287 0.9163 0.3994
vn -0.1606 -0.8536 0.4956
vn -0.0464 0.5639 0.8246
vn 0.0905 0.4098 0.9077
vn 0.0890 0.4677 0.8794
vn -0.0437 0.2585 0.9650
vn -0.6020 -0.5996 0.5273
vn 0.0118 -0.9920 -0.1259
vn 0.3309 -0.1714 0.9280
vn 0.0250 0.0092 0.9996
vn -0.0158 0.8917 -0.4524
vn 0.0128 0.7587 0.6514
vn 0.0244 0.0031 0.9997
vn -0.5987 0.6866 0.4124
vn 0.7034 0.7106 -0.0157
vn 0.8079 -0.0745 0.5845
vn 0.7945 -0.0782 0.6021
vn -0.5094 0.7245 -0.4643
vn 0.6272 0.5030 -0.5947
vn -0.1153 -0.9933 0.0060
vn 0.6987 0.0043 -0.7154
vn 0.6990 0.0040 -0.7152
vn 0.1341 0.9838 0.1192
vn 0.3194 -0.1026 0.9421
vn 0.2712 0.4312 0.8605
vn 0.2264 -0.8069 0.5456
vn -0.0033 0.7103 -0.7039
vn 0.0010 0.0054 -1.0000
vn -0.0060 -0.8704 -0.4923
vn 0.0043 -1.0000 -0.0023
usemtl None
s off
f 71/1/1 68/2/1 22/3/1 23/4/1 4/5/1 25/6/1 5/7/1 19/8/1 48/9/1
f 19/10/2 20/11/2 39/12/2 54/13/2 55/14/2 47/15/2 48/16/2
f 10/17/3 2/18/3 11/19/3
f 1/20/4 28/21/4 29/22/4
f 17/23/5 10/24/5 11/25/5 18/26/5
f 15/27/6 18/26/6 11/25/6 9/28/6
f 41/29/7 26/30/7 27/31/7 40/32/7
f 4/33/8 6/34/8 24/35/8
f 62/36/9 64/37/9 47/15/9 55/14/9 52/38/9
f 5/39/10 25/40/10 24/35/10
f 13/41/11 17/42/11 18/43/11 14/44/11
f 49/45/12 74/46/12 75/47/12 66/48/12 67/49/12 56/50/12 57/51/12
f 12/52/13 14/44/13 18/43/13 15/53/13
f 36/54/14 38/55/14 15/27/14 9/28/14
f 45/56/15 43/57/15 42/58/15 44/59/15 46/60/15
f 38/61/16 37/62/16 12/52/16 15/53/16
f 7/63/17 1/20/17 29/22/17
f 24/35/18 25/40/18 4/33/18
f 17/42/19 13/41/19 61/64/19 63/65/19 16/66/19
f 24/35/20 6/34/20 5/39/20
f 2/67/21 10/68/21 59/69/21 66/70/21 75/71/21 72/72/21
f 35/73/22 8/74/22 28/75/22 1/76/22 26/30/22 41/29/22
f 29/22/23 28/21/23 8/77/23
f 29/22/24 8/77/24 7/63/24
f 30/78/25 33/79/25 31/80/25
f 31/80/26 33/79/26 32/81/26
f 32/81/27 34/82/27 31/80/27
f 31/80/28 34/82/28 30/78/28
f 44/83/29 42/58/29 14/84/29 12/85/29
f 16/66/30 63/65/30 62/86/30 52/87/30 53/88/30 38/61/30
f 36/89/31 35/90/31 41/29/31 40/32/31 49/91/31 57/92/31 50/93/31
f 26/30/32 1/76/32 7/94/32 8/74/32 35/73/32 36/95/32 9/96/32
f 67/49/9 58/97/9 51/98/9 56/50/9
f 10/24/33 17/23/33 16/99/33 60/100/33 59/101/33
f 23/4/34 45/102/34 46/103/34 32/104/34 33/105/34 30/106/34 20/107/34 19/8/34 5/7/34 6/108/34 4/5/34
f 37/109/35 39/110/35 20/107/35 30/106/35 34/111/35 32/104/35 46/103/35 44/112/35 12/113/35
f 22/114/36 21/115/36 43/57/36 45/116/36 23/117/36
f 3/118/3 13/119/3 14/84/3 42/58/3 43/57/3 21/115/3
f 70/120/37 71/121/37 48/122/37 47/15/37 64/37/37 65/123/37
f 9/124/29 11/125/29 2/126/29 72/127/29 73/128/29 27/31/29 26/129/29
f 54/130/38 53/131/38 52/38/38 55/14/38
f 50/132/39 57/51/39 56/50/39 51/98/39
f 21/133/40 22/3/40 68/2/40 69/134/40 3/135/40
f 58/136/41 59/101/41 60/100/41
f 61/64/42 62/86/42 63/65/42
f 64/37/43 62/36/43 61/137/43 65/138/43
f 66/48/44 59/139/44 58/97/44 67/49/44
f 58/136/45 60/100/45 16/99/45 38/55/45 50/140/45 51/141/45
f 37/142/46 53/131/46 54/130/46 39/143/46
f 38/55/47 36/54/47 50/140/47
f 37/62/48 38/61/48 53/88/48
f 70/144/49 69/145/49 68/2/49 71/1/49
f 13/146/50 3/147/50 69/145/50 70/144/50 65/148/50 61/149/50
f 72/72/51 75/71/51 74/150/51 73/128/51
f 73/128/52 74/150/52 49/91/52 40/32/52 27/31/52
