# Blender v3.1.2 OBJ File: 'Rochers.blend'
# www.blender.org
mtllib Rock_4.mtl
o Rock_4_Cube.014
v -0.319203 -0.490184 1.812344
v 5.320891 -0.597915 -1.963128
v -1.901403 -0.506093 -2.042027
v -4.762181 -1.519642 -0.977297
v -3.800349 0.652631 0.749524
v -0.516626 0.477603 -0.890121
v -0.226714 0.469322 -0.892174
v -0.227498 0.522583 0.167347
v 0.487375 -0.453959 1.780443
v 1.246193 -0.585900 1.854427
v -3.349266 -0.137863 1.721898
v -3.543118 -0.120734 1.578956
v -4.890464 -1.200380 -0.010688
v -3.646986 -0.351923 1.544279
v 4.469103 0.335179 -0.925385
v 3.876158 0.433341 0.695228
v 4.876218 -0.786472 1.929716
v 5.277814 -0.579167 1.271959
v 4.935219 -0.354859 1.477698
v 4.981248 -0.018286 1.125215
v -4.823486 -0.048986 -0.508723
v -3.749900 0.524191 -0.919222
v -4.129667 0.651494 0.542006
v -4.832494 -0.038193 0.053497
v -3.689805 0.568250 -0.867678
v -0.330987 0.228282 -0.637111
v -0.343563 -0.307734 -1.777326
v -3.417201 -0.788101 2.030129
v 4.874972 -0.786622 1.929919
v 0.428339 -0.559932 1.824710
v 0.365080 -0.592576 1.719434
v 1.846508 0.491321 0.709587
v 0.634216 0.473144 0.689815
v -0.508032 0.558582 0.726240
v 0.767361 0.490489 0.612621
v 0.804591 0.435868 0.764302
vt 0.757387 0.000351
vt 0.724562 0.289733
vt 0.720162 0.366134
vt 0.735285 0.439364
vt 0.752763 0.793056
vt 0.695594 0.798445
vt 0.691742 0.006472
vt 0.292873 0.984978
vt 0.268490 0.864540
vt 0.420015 0.692574
vt 0.439931 0.999649
vt 0.655564 0.351425
vt 0.673316 0.415991
vt 0.662335 0.411519
vt 0.582786 0.433993
vt 0.647931 0.351425
vt 0.620999 0.430626
vt 0.647931 0.453117
vt 0.587401 0.545375
vt 0.052306 0.022999
vt 0.100795 0.022804
vt 0.149073 0.133396
vt 0.138642 0.321711
vt 0.124783 0.420691
vt 0.125326 0.548155
vt 0.106687 0.861226
vt 0.000351 0.828426
vt 0.262196 0.858579
vt 0.124912 0.893768
vt 0.140216 0.425287
vt 0.303667 0.078243
vt 0.280612 0.528357
vt 0.179526 0.523768
vt 0.279153 0.555963
vt 0.550047 0.417299
vt 0.493903 0.420455
vt 0.526855 0.384990
vt 0.648632 0.423433
vt 0.617641 0.319649
vt 0.584485 0.136422
vt 0.688415 0.101724
vt 0.439931 0.000351
vt 0.392725 0.542639
vt 0.445107 0.096127
vt 0.565157 0.086736
vt 0.522837 0.215024
vt 0.440633 0.103348
vt 0.731110 0.360461
vt 0.757387 0.770494
vt 0.673316 0.501176
vt 0.676684 0.576165
vt 0.674018 0.473439
vt 0.682289 0.461170
vt 0.689264 0.351425
vt 0.689264 0.477890
vt 0.582084 0.351425
vt 0.582084 0.713695
vt 0.440633 0.617887
vt 0.691041 0.000351
vt 0.639314 0.307238
vt 0.691041 0.350723
vt 0.620952 0.342525
vt 0.522624 0.253734
vt 0.771992 0.809650
vt 0.758088 0.791280
vt 0.771992 0.000351
vt 0.758745 0.830149
vn 0.0299 0.5937 0.8042
vn -0.4227 0.2342 -0.8755
vn 0.0928 0.9339 -0.3454
vn 0.8818 0.3949 -0.2579
vn -0.9515 0.2823 -0.1222
vn 0.0271 0.7313 0.6815
vn 0.0282 0.9985 -0.0477
vn 0.3530 0.9328 0.0726
vn 0.6622 0.4969 0.5609
vn 0.0553 -0.4427 0.8950
vn -0.7637 0.0024 0.6456
vn 0.8749 0.4344 -0.2139
vn 0.0168 0.7503 -0.6609
vn -0.5616 0.8106 -0.1657
vn -0.9251 0.3793 -0.0198
vn 0.0107 0.5239 0.8517
vn 0.0416 0.9470 -0.3187
vn -0.1428 -0.2905 0.9462
vn -0.0178 0.9817 0.1898
vn 0.0810 0.9335 0.3494
vn 0.0806 0.9529 0.2925
vn -0.0210 0.8740 0.4855
vn 0.7837 0.6204 -0.0303
vn -0.9955 0.0176 -0.0932
vn -0.8183 0.2935 0.4942
vn -0.8142 0.1843 0.5505
vn -0.6593 0.3772 0.6504
vn -0.6745 0.3561 0.6467
vn 0.0285 0.9963 0.0808
vn -0.5796 0.1400 0.8028
vn 0.4734 -0.8808 0.0114
usemtl None
s off
f 28/1/1 1/2/1 9/3/1 10/4/1 17/5/1 19/6/1 11/7/1
f 21/8/2 22/9/2 3/10/2 4/11/2
f 1/12/3 30/13/3 31/14/3
f 6/15/4 8/16/4 26/17/4
f 7/18/5 27/19/5 26/17/5
f 19/20/6 20/21/6 16/22/6 32/23/6 36/24/6 34/25/6 5/26/6 12/27/6
f 25/28/7 23/29/7 5/26/7 34/25/7 35/30/7 32/23/7 16/22/7 15/31/7 7/32/7 8/33/7 6/34/7
f 15/31/8 16/22/8 20/21/8
f 18/35/9 20/36/9 19/37/9
f 9/38/10 1/12/10 31/14/10
f 12/39/11 24/40/11 13/41/11
f 26/17/12 27/19/12 6/15/12
f 2/42/13 3/10/13 22/9/13 25/28/13 6/34/13 27/43/13 7/32/13 15/31/13
f 22/44/14 21/45/14 24/40/14 23/46/14 25/47/14
f 26/17/15 8/16/15 7/18/15
f 17/5/16 10/4/16 30/48/16 1/2/16 28/1/16 29/49/16
f 31/14/17 30/13/17 10/50/17
f 31/14/18 10/50/18 9/38/18
f 32/51/19 35/52/19 33/53/19
f 33/53/20 35/52/20 34/54/20
f 34/54/21 36/55/21 33/53/21
f 33/53/22 36/55/22 32/51/22
f 17/56/9 18/35/9 19/37/9
f 2/57/23 15/58/23 20/36/23 18/35/23
f 4/59/24 13/41/24 24/40/24 21/45/24
f 12/39/25 13/41/25 14/60/25
f 14/60/26 13/41/26 28/61/26
f 11/62/27 14/60/27 28/61/27
f 5/63/28 23/46/28 24/40/28 12/39/28
f 12/64/29 11/65/29 19/66/29
f 14/67/30 11/65/30 12/64/30
f 18/35/31 17/56/31 2/57/31
