# Blender v3.1.2 OBJ File: 'Rochers.blend'
# www.blender.org
mtllib Rock_3.mtl
o Rock_3_Cube.005
v 0.795289 2.289074 -1.118004
v 6.375794 -1.985607 -0.000078
v 1.032933 1.681923 1.792117
v -0.162738 2.308185 -0.932659
v -1.098419 2.246629 -1.059952
v 3.296883 2.348809 -0.836624
v -5.736446 -1.876183 0.496393
v 6.291996 -1.992723 -0.597080
v -5.854599 1.767099 0.074609
v -5.445716 2.158590 -0.009492
v -5.406768 2.168496 0.871188
v 1.230874 0.469316 2.277914
v 2.406887 2.320725 -1.603216
v 2.612839 1.535515 -2.052990
v -0.110912 2.232623 -1.110111
v -0.024704 2.080003 -1.046489
v -1.530738 2.262728 1.470974
v -0.077190 2.202674 1.305395
v 1.297375 2.324337 1.210923
v -0.224136 2.141140 1.424451
v -0.296096 2.242637 1.207366
v 3.388493 -1.927011 2.534161
v 1.376965 1.194189 2.525934
v 1.391301 0.475986 2.573302
v 3.807793 1.159146 2.047114
v 4.731431 -0.833325 2.146523
v 1.883382 -1.910698 2.802972
v -5.885978 -1.896285 -1.134530
v -5.465137 -1.901639 -1.270002
v -5.098114 2.157440 -0.893285
v -5.479442 2.150015 -0.772026
v -5.923217 1.725132 -0.681588
v -3.527969 1.401740 -1.488324
v -5.010387 2.159147 -0.921186
v 2.990132 1.100289 -2.082226
v 3.214722 -1.985806 -2.064773
v 6.181847 -2.002072 -1.381836
v 6.187165 -1.380691 -1.373717
v -5.663486 -1.866370 1.292144
v -5.777145 1.814460 0.928163
v -5.600387 1.981857 0.951712
v 1.320504 -1.108815 2.761948
v 1.381947 -1.905836 2.848892
v 1.197102 0.471737 2.589213
v 1.122510 1.200320 2.539125
v 1.465836 -1.600572 2.904536
v 1.355443 -0.589380 2.721831
v -1.945297 2.253699 1.509089
v -5.175888 2.175099 1.003453
v -1.892524 2.026428 1.771790
v -5.148830 2.154656 1.291017
v -5.830242 1.781992 0.342987
v -5.837142 1.228858 0.136921
v -5.424156 2.164077 0.477977
v -5.876106 -1.894959 -1.026860
v 6.195046 -2.000951 -1.287789
v 6.291649 -1.957842 -0.601232
v -5.803051 1.798621 0.642676
v -5.817096 0.610726 0.208487
v -5.410728 2.167492 0.781631
v -5.846679 -1.891004 -0.705934
v 6.289612 -1.992926 -0.614058
v 4.844887 -0.597446 -0.476732
v -5.689044 1.571144 0.414778
v -5.694141 0.843466 0.141033
v -5.342815 1.896264 0.534617
v -5.711380 -1.618629 -0.785202
v 4.788521 -1.734492 -0.904149
v 4.848511 -0.604651 -0.479467
v 6.399121 -1.727280 0.153802
v 6.284489 -1.235990 -0.686904
v 5.706124 -0.107944 -0.767804
v 4.269368 2.379491 0.001032
v 5.800858 -0.924639 1.192077
v 4.223408 2.071827 1.218488
v 6.234875 -1.023368 -1.050748
v 5.946820 -0.577443 -0.734010
v 4.240021 2.308301 0.392542
v 6.056527 -0.762825 -0.806724
v 6.249028 -1.084021 -0.946961
v 4.203087 2.381891 0.382582
v 6.323788 -1.404425 -0.398676
v 5.997750 -0.676784 -0.726848
v 4.234776 2.295574 0.462529
v 5.998524 -0.678093 -0.727363
v -4.571720 -1.873945 1.422103
vt 0.347184 0.421518
vt 0.356605 0.449913
vt 0.350535 0.448159
vt 0.195535 0.816817
vt 0.186570 0.559295
vt 0.217694 0.550248
vt 0.224631 0.763227
vt 0.070262 0.271823
vt 0.043191 0.254790
vt 0.088278 0.258244
vt 0.091253 0.269085
vt 0.091185 0.247824
vt 0.148103 0.257492
vt 0.342289 0.453640
vt 0.904499 0.010534
vt 0.910387 0.111559
vt 0.861024 0.005331
vt 0.128867 0.480608
vt 0.128867 0.522636
vt 0.042167 0.513464
vt 0.341148 0.421647
vt 0.341148 0.528489
vt 0.232893 0.536885
vt 0.319342 0.421518
vt 0.505699 0.444695
vt 0.500378 0.586487
vt 0.499301 0.620340
vt 0.499604 0.650867
vt 0.483567 0.706378
vt 0.503072 0.453005
vt 0.356605 0.487530
vt 0.131178 0.579480
vt 0.130008 0.534107
vt 0.134596 0.528910
vt 0.138457 0.480608
vt 0.138457 0.536456
vt 0.327633 0.000570
vt 0.359289 0.002946
vt 0.328330 0.015774
vt 0.177151 0.255439
vt 0.180196 0.275106
vt 0.166895 0.260807
vt 0.022585 0.041057
vt 0.030343 0.144776
vt 0.017792 0.142150
vt 0.013994 0.037623
vt 0.174624 0.476269
vt 0.141602 0.433682
vt 0.140492 0.380267
vt 0.185430 0.333078
vt 0.185430 0.479468
vt 0.195450 0.820050
vt 0.338536 0.832698
vt 0.337886 0.848254
vt 0.209379 0.850566
vt 0.195082 0.834099
vt 0.597778 0.452510
vt 0.601543 0.432949
vt 0.628022 0.435136
vt 0.623965 0.456367
vt 0.505668 0.618564
vt 0.509784 0.431551
vt 0.536017 0.432546
vt 0.510265 0.736916
vt 0.482426 0.408549
vt 0.481604 0.408660
vt 0.442036 0.004577
vt 0.482426 0.000570
vt 0.129008 0.262256
vt 0.071944 0.349862
vt 0.069938 0.244719
vt 0.016602 0.007896
vt 0.024363 0.014633
vt 0.019999 0.022228
vt 0.012260 0.028413
vt 0.009719 0.026507
vt 0.593869 0.470969
vt 0.588485 0.451141
vt 0.457818 0.410618
vt 0.371374 0.303719
vt 0.363383 0.252300
vt 0.362028 0.234884
vt 0.411291 0.043056
vt 0.415685 0.006923
vt 0.154755 0.037286
vt 0.583476 0.767489
vt 0.580355 0.767456
vt 0.575484 0.759575
vt 0.554118 0.647752
vt 0.554959 0.633283
vt 0.562778 0.590036
vt 0.560561 0.534544
vt 0.583476 0.431551
vt 0.904648 0.183740
vt 0.908013 0.183328
vt 0.909781 0.616469
vt 0.905912 0.616755
vt 0.901317 0.601573
vt 0.878268 0.289736
vt 0.413120 0.462986
vt 0.452318 0.421253
vt 0.475238 0.432606
vt 0.451068 0.603004
vt 0.420306 0.597225
vt 0.628022 0.583339
vt 0.624278 0.582951
vt 0.584616 0.431551
vt 0.540780 0.008275
vt 0.513221 0.007723
vt 0.506604 0.001000
vt 0.527916 0.000570
vt 0.916606 0.005265
vt 0.916606 0.149617
vt 0.912526 0.148339
vt 0.348176 0.067412
vt 0.360888 0.003200
vt 0.360887 0.414604
vt 0.350803 0.407043
vt 0.251732 0.420377
vt 0.243666 0.412458
vt 0.212605 0.411484
vt 0.200934 0.417681
vt 0.186570 0.401991
vt 0.199297 0.399022
vt 0.128867 0.550451
vt 0.000570 0.539048
vt 0.000999 0.529065
vt 0.481935 0.410155
vt 0.196795 0.092917
vt 0.312868 0.029548
vt 0.312101 0.029856
vt 0.647794 0.426884
vt 0.631944 0.369699
vt 0.634853 0.011672
vt 0.647794 0.004776
vt 0.501047 0.019190
vt 0.491746 0.015606
vt 0.584128 0.412750
vt 0.585059 0.367433
vt 0.585919 0.367907
vt 0.593111 0.419591
vt 0.305812 0.068809
vt 0.201143 0.094825
vt 0.188986 0.851707
vt 0.554438 0.854615
vt 0.554420 0.946165
vt 0.554438 0.973224
vt 0.542475 0.985369
vt 0.208925 0.999430
vt 0.187293 0.893993
vt 0.186570 0.893696
vt 0.306648 0.068394
vt 0.488989 0.340282
vt 0.606241 0.430410
vt 0.483567 0.338958
vt 0.665619 0.846541
vt 0.651813 0.833008
vt 0.648934 0.497520
vt 0.776081 0.423879
vt 0.796063 0.424768
vt 0.802181 0.425127
vt 0.802181 0.847025
vt 0.709586 0.846689
vt 0.811071 0.001912
vt 0.811071 0.422180
vt 0.695034 0.422654
vt 0.674488 0.422738
vt 0.660164 0.408826
vt 0.648934 0.073822
vt 0.776997 0.000570
vt 0.902549 0.161769
vt 0.030254 0.373893
vt 0.000570 0.379215
vt 0.009047 0.263582
vt 0.015857 0.208936
vt 0.015577 0.157697
vt 0.552977 0.433132
vt 0.552977 0.768027
vt 0.539731 0.770461
vt 0.818803 0.049480
vt 0.812211 0.030935
vt 0.821211 0.000570
vt 0.148771 0.000570
vn -0.0154 0.3773 0.9260
vn -0.0908 0.4769 -0.8742
vn -0.8928 0.0260 0.4498
vn 0.9903 0.0890 0.1067
vn -0.1707 0.3552 -0.9191
vn 0.5483 0.5193 -0.6555
vn -0.9956 -0.0217 0.0915
vn 0.2243 0.0108 -0.9744
vn -0.0219 0.9996 0.0167
vn 0.0521 0.4092 0.9110
vn 0.0863 0.4861 -0.8697
vn 0.0968 0.8304 0.5487
vn -0.0528 0.9122 0.4063
vn -0.0464 0.8845 0.4642
vn 0.0677 0.9676 0.2433
vn 0.9903 -0.0067 -0.1389
vn 0.0874 -0.2018 0.9755
vn -0.0564 0.9073 0.4166
vn 0.5699 -0.4579 0.6823
vn -0.3031 0.1152 -0.9460
vn -0.6890 0.7244 0.0223
vn -0.0225 0.9997 -0.0038
vn -0.0913 -0.0123 -0.9957
vn -0.0085 -0.9999 0.0131
vn 0.1824 0.1258 0.9751
vn 0.9897 0.1423 0.0123
vn -0.8757 0.0955 0.4734
vn -0.9956 -0.0217 0.0916
vn -0.2068 0.0566 0.9768
vn -0.4256 0.8573 0.2897
vn -0.0177 0.9982 -0.0568
vn 0.8755 0.4596 0.1492
vn -0.6963 -0.2461 0.6742
vn -0.0066 -0.5825 -0.8128
vn -0.7760 0.2257 -0.5889
vn -0.3012 0.5977 -0.7430
vn 0.9903 -0.0067 -0.1390
vn 0.0037 -0.7515 0.6597
vn -0.6571 -0.2583 0.7081
vn -0.7608 0.2317 -0.6063
vn -0.3794 0.0711 0.9225
vn 0.2249 -0.2378 0.9449
vn -0.1266 0.2820 -0.9510
vn -0.0137 0.3273 -0.9448
vn -0.1870 0.2645 -0.9461
vn -0.0069 0.2932 -0.9560
vn -0.0172 0.3492 -0.9369
vn 0.1878 -0.3454 0.9195
vn 0.0058 0.1934 0.9811
vn 0.2250 -0.2360 0.9454
vn 0.0755 0.7805 0.6206
vn 0.6436 0.3327 0.6893
vn -0.0369 0.7703 -0.6366
vn -0.0227 0.9997 -0.0102
vn 0.0306 0.1153 -0.9929
vn -0.2868 0.0430 0.9570
usemtl None
s off
f 1/1/1 15/2/1 16/3/1
f 34/4/2 13/5/2 14/6/2 33/7/2
f 23/8/3 3/9/3 12/10/3 24/11/3
f 44/12/4 42/13/4 12/10/4
f 4/14/5 1/1/5 16/3/5
f 73/15/6 72/16/6 6/17/6
f 61/18/7 7/19/7 59/20/7
f 37/21/8 36/22/8 35/23/8 38/24/8
f 30/25/9 5/26/9 15/27/9 1/28/9 13/29/9 34/30/9
f 16/3/10 15/2/10 5/31/10
f 16/3/11 5/31/11 4/14/11
f 17/32/12 20/33/12 18/34/12
f 18/34/13 20/33/13 19/35/13
f 19/35/14 21/36/14 18/34/14
f 18/34/15 21/36/15 17/32/15
f 82/37/16 57/38/16 71/39/16
f 43/40/17 27/41/17 46/42/17
f 51/43/18 50/44/18 48/45/18 49/46/18
f 70/47/19 74/48/19 26/49/19 22/50/19 2/51/19
f 30/52/20 34/4/20 33/7/20 29/53/20 28/54/20 32/55/20 31/56/20
f 9/57/21 10/58/21 31/59/21 32/60/21
f 13/29/22 1/28/22 4/61/22 5/26/22 30/25/22 31/62/22 10/63/22 6/64/22
f 36/22/23 29/53/23 33/7/23 14/6/23 35/23/23
f 62/65/24 8/66/24 7/67/24 61/68/24
f 23/8/25 24/11/25 47/69/25 46/42/25 27/41/25 22/50/25 26/49/25 25/70/25
f 12/10/26 3/9/26 45/71/26 44/12/26
f 12/10/27 42/13/27 47/69/27 24/11/27
f 58/72/21 40/73/21 41/74/21 11/75/21 60/76/21
f 53/77/28 52/78/28 9/57/28
f 8/66/24 2/79/24 22/80/24 27/81/24 43/82/24 86/83/24 39/84/24 7/67/24
f 42/13/29 44/12/29 45/71/29 50/44/29 51/43/29 86/85/29 43/40/29 46/42/29 47/69/29
f 41/74/30 51/43/30 49/46/30 11/75/30
f 60/86/31 11/87/31 49/88/31 48/89/31 17/90/31 21/91/31 19/92/31 84/93/31
f 37/94/24 56/95/24 55/96/24 28/97/24 29/98/24 36/99/24
f 74/100/32 70/101/32 82/102/32 84/103/32 75/104/32
f 28/105/7 55/106/7 53/77/7 9/57/7 32/60/7
f 9/57/21 52/78/21 54/107/21 10/58/21
f 65/108/33 64/109/33 52/110/33 53/111/33
f 72/16/32 73/15/32 81/112/32 80/113/32 76/114/32
f 68/115/34 62/116/34 61/117/34 67/118/34
f 67/118/35 61/117/35 59/119/35 65/120/35
f 64/121/36 58/122/36 60/123/36 66/124/36
f 7/19/7 39/125/7 40/126/7 58/127/7 59/20/7
f 8/66/37 62/65/37 57/128/37
f 84/129/32 82/37/32 71/39/32 85/130/32 83/131/32
f 56/132/38 68/133/38 67/134/38 55/135/38
f 55/135/39 67/134/39 65/108/39 53/111/39
f 59/119/40 58/122/40 64/121/40 65/120/40
f 52/110/41 64/109/41 66/136/41 54/137/41
f 77/138/42 63/139/42 69/140/42 79/141/42
f 84/129/43 83/131/43 63/142/43 78/143/43
f 68/144/44 67/145/44 65/146/44 64/147/44 66/148/44 78/149/44 63/150/44 69/151/44
f 63/142/45 83/131/45 85/130/45 69/152/45
f 78/153/32 77/138/32 79/141/32 80/154/32 81/155/32
f 58/156/46 60/157/46 84/158/46 82/159/46 57/160/46 62/161/46 61/162/46 59/163/46
f 56/164/47 55/165/47 53/166/47 52/167/47 54/168/47 81/169/47 80/170/47
f 68/133/48 56/132/48 80/154/48 79/141/48 69/140/48
f 54/137/49 66/136/49 78/153/49 81/155/49
f 78/153/50 63/139/50 77/138/50
f 56/95/16 37/94/16 38/171/16 76/114/16 80/113/16
f 25/70/51 75/172/51 84/173/51 19/174/51 20/175/51 17/176/51 48/45/51 50/44/51 45/71/51 3/9/51 23/8/51
f 26/49/52 74/48/52 75/172/52 25/70/52
f 66/124/53 60/123/53 84/129/53 78/143/53
f 10/63/54 54/177/54 81/178/54 73/179/54 6/64/54
f 6/17/6 72/16/6 76/114/6 38/171/6 35/180/6 14/181/6 13/182/6
f 62/116/55 68/115/55 69/152/55 85/130/55 71/39/55 57/38/55
f 2/79/16 8/66/16 57/128/16 82/102/16 70/101/16
f 86/85/56 51/43/56 41/74/56 40/73/56 39/183/56
