# Blender v3.1.2 OBJ File: 'Pipe.blend'
# www.blender.org
mtllib LD_Pipe_Region_6-7.mtl
o LD_region_6-7_Pipe_region_6-7
v -8.678223 0.876842 2.157715
v -8.728119 0.620792 2.773811
v -8.718216 0.497161 2.650612
v -8.678223 0.702001 2.157715
v -8.748810 0.002641 3.029015
v -8.734711 0.002641 2.854813
v -8.728119 -0.615519 2.773811
v -8.718216 -0.491888 2.650612
v -8.678223 -0.871569 2.157715
v -8.678223 -0.696728 2.157715
v -8.628311 -0.615519 1.541611
v -8.638214 -0.491888 1.664810
v -8.607620 0.002641 1.286415
v -8.621719 0.002641 1.460609
v -8.628311 0.620792 1.541611
v -8.638321 0.497162 1.664810
v 7.887283 0.497183 -1.739685
v 8.115189 0.702011 -2.178490
v 8.115189 0.876862 -2.178489
v 7.830276 0.620812 -1.629890
v 7.792877 0.002663 -1.557884
v 7.712280 0.002663 -1.402687
v 7.887283 -0.491869 -1.739586
v 7.830276 -0.615497 -1.629891
v 8.115189 -0.696708 -2.178490
v 8.115189 -0.871547 -2.178490
v 8.343185 -0.491878 -2.617386
v 8.400177 -0.615509 -2.727089
v 8.437576 0.002652 -2.799088
v 8.518188 0.002652 -2.954285
v 8.343185 0.497172 -2.617386
v 8.400085 0.620812 -2.727089
v -2.396713 0.620811 3.271416
v -2.485413 0.876861 2.659714
v -2.414413 0.497182 3.149117
v -2.385010 0.002662 3.351814
v -2.485413 0.702022 2.659714
v -2.574112 0.620811 2.047913
v -2.556412 0.497182 2.170311
v -2.610916 0.002651 1.794510
v -2.585815 0.002651 1.967514
v -2.574112 -0.615498 2.047913
v -2.556412 -0.491869 2.170311
v -2.485413 -0.871548 2.659714
v -2.485413 -0.696709 2.659714
v -2.396713 -0.615498 3.271416
v -2.414413 -0.491869 3.149117
v -2.360016 0.002662 3.524811
v -0.135010 0.620832 1.825913
v -0.508316 0.876871 1.333214
v -0.209717 0.497192 1.727417
v -0.085922 0.002672 1.890717
v -0.508316 0.702032 1.333214
v -0.881622 0.620821 0.840515
v -0.807022 0.497192 0.939110
v -1.036316 0.002663 0.636513
v -0.930710 0.002663 0.775810
v -0.881622 -0.615488 0.840614
v -0.807022 -0.491858 0.939110
v -0.508316 -0.871529 1.333313
v -0.508316 -0.696688 1.333313
v -0.135010 -0.615479 1.825912
v -0.209610 -0.491858 1.727417
v 0.019577 0.002672 2.030014
v 4.238281 0.620812 -2.840584
v 3.904877 0.876853 -3.361183
v 4.171585 0.497172 -2.944687
v 4.287384 0.015383 -2.512787
v 3.904877 0.702012 -3.361183
v 3.571579 0.620803 -3.881683
v 3.638184 0.497172 -3.777588
v 3.663879 -0.017288 -3.957184
v 3.733185 -0.013658 -3.796684
v 3.760086 -0.629888 -3.705887
v 3.810089 -0.503738 -3.595688
v 4.002777 -0.873008 -3.131790
v 4.004288 -0.698228 -3.136383
v 4.249878 -0.604229 -2.571083
v 4.201981 -0.483207 -2.687790
v 4.356689 0.019001 -2.352287
v 5.925186 0.567112 -2.830086
v 6.003281 0.831612 -3.439689
v 5.941788 0.445193 -2.954285
v 5.918076 -0.052097 -2.757690
v 6.004288 0.656792 -3.441986
v 6.084290 0.584073 -4.055984
v 6.068985 0.458762 -3.934990
v 6.120590 -0.030507 -4.317986
v 6.098083 -0.032907 -4.144585
v 6.091080 -0.652107 -4.072189
v 6.074387 -0.530187 -3.947990
v 6.012878 -0.916618 -3.462586
v 6.011978 -0.741788 -3.460289
v 5.931976 -0.669078 -2.846291
v 5.947189 -0.543758 -2.967285
v 5.895584 -0.054487 -2.584290
vt 0.142207 0.990833
vt 0.109445 0.990833
vt 0.109445 0.674767
vt 0.142207 0.674767
vt 0.468489 0.674767
vt 0.494430 0.674767
vt 0.494430 0.990833
vt 0.468489 0.990833
vt 0.336535 0.990833
vt 0.310750 0.990833
vt 0.310750 0.674767
vt 0.336535 0.674767
vt 0.275668 0.990833
vt 0.243637 0.990833
vt 0.243637 0.674767
vt 0.275668 0.674767
vt 0.047041 0.990833
vt 0.013878 0.990833
vt 0.013878 0.674767
vt 0.047041 0.674767
vt 0.211047 0.990833
vt 0.211047 0.674767
vt 0.593288 0.172979
vt 0.612463 0.153803
vt 0.620645 0.157194
vt 0.596677 0.181162
vt 0.546998 0.033190
vt 0.546996 0.060305
vt 0.538812 0.063695
vt 0.538813 0.029796
vt 0.612465 0.126684
vt 0.620645 0.123296
vt 0.566174 0.014014
vt 0.562784 0.005829
vt 0.593288 0.107509
vt 0.596676 0.099326
vt 0.593291 0.014012
vt 0.596682 0.005829
vt 0.566170 0.107509
vt 0.562780 0.099325
vt 0.612467 0.033189
vt 0.620651 0.029800
vt 0.546994 0.126684
vt 0.538812 0.123294
vt 0.612467 0.060310
vt 0.620651 0.063700
vt 0.546992 0.153803
vt 0.538812 0.157192
vt 0.593289 0.079482
vt 0.596679 0.087668
vt 0.566170 0.172978
vt 0.562781 0.181162
vt 0.566172 0.079484
vt 0.562781 0.087666
vt 0.079416 0.990833
vt 0.079416 0.674767
vt 0.418729 0.674767
vt 0.418729 0.990833
vt 0.391844 0.990833
vt 0.391844 0.674767
vt 0.175369 0.990833
vt 0.175369 0.674767
vt 0.362977 0.674767
vt 0.362977 0.990833
vt 0.520588 0.990833
vt 0.520588 0.674767
vt 0.444301 0.674767
vt 0.444301 0.990833
vt 0.243637 0.554316
vt 0.275668 0.554316
vt 0.336535 0.554316
vt 0.362977 0.554316
vt 0.310750 0.554316
vt 0.013878 0.554316
vt 0.047041 0.554316
vt 0.494430 0.554316
vt 0.520588 0.554316
vt 0.079416 0.554316
vt 0.468489 0.554316
vt 0.109445 0.554316
vt 0.444301 0.554316
vt 0.142207 0.554316
vt 0.418729 0.554316
vt 0.175369 0.554316
vt 0.391844 0.554316
vt 0.211047 0.554316
vt 0.243637 0.227394
vt 0.275668 0.227394
vt 0.336535 0.227394
vt 0.362977 0.227394
vt 0.310750 0.227394
vt 0.013878 0.227394
vt 0.047041 0.227394
vt 0.494430 0.227394
vt 0.520588 0.227394
vt 0.079416 0.227394
vt 0.468489 0.227394
vt 0.109445 0.227394
vt 0.444301 0.227394
vt 0.142207 0.227394
vt 0.418729 0.227394
vt 0.175369 0.227394
vt 0.391844 0.227394
vt 0.211047 0.227394
vt 0.243637 0.126512
vt 0.275668 0.126512
vt 0.336535 0.126512
vt 0.362977 0.126512
vt 0.310750 0.126512
vt 0.013878 0.126512
vt 0.047041 0.126512
vt 0.494430 0.126512
vt 0.520588 0.126512
vt 0.079416 0.126512
vt 0.468489 0.126512
vt 0.109445 0.126512
vt 0.444301 0.126512
vt 0.142207 0.126512
vt 0.418729 0.126512
vt 0.175369 0.126512
vt 0.391844 0.126512
vt 0.211047 0.126512
vt 0.243637 0.007337
vt 0.275668 0.007337
vt 0.336535 0.007337
vt 0.362977 0.007337
vt 0.310750 0.007337
vt 0.013878 0.007337
vt 0.047041 0.007337
vt 0.494430 0.007337
vt 0.520588 0.007337
vt 0.079416 0.007337
vt 0.468489 0.007337
vt 0.109445 0.007337
vt 0.444301 0.007337
vt 0.142207 0.007337
vt 0.418729 0.007337
vt 0.175369 0.007337
vt 0.391844 0.007337
vt 0.211047 0.007337
vn 0.0002 -1.0000 -0.0000
vn 0.0571 -0.7071 -0.7048
vn -0.1800 -0.7541 -0.6316
vn 0.0194 -0.9970 0.0752
vn 0.2681 0.0005 0.9634
vn 0.1731 -0.7534 0.6343
vn -0.0571 -0.7071 0.7048
vn -0.0808 -0.0000 0.9967
vn -0.0001 -1.0000 -0.0000
vn -0.0267 -0.9972 -0.0698
vn -0.1806 -0.6796 -0.7110
vn 0.0002 1.0000 -0.0000
vn -0.0572 0.7071 0.7048
vn 0.1795 0.6811 0.7098
vn 0.0205 0.9970 0.0753
vn 0.0571 0.7071 -0.7048
vn -0.1784 0.7610 -0.6238
vn 0.2283 -0.0000 0.9736
vn -0.9967 -0.0001 -0.0809
vn -0.9967 0.0002 -0.0806
vn -0.9967 0.0002 -0.0807
vn 0.8875 -0.0000 0.4609
vn 0.8875 0.0001 0.4609
vn -0.9967 -0.0000 -0.0808
vn -0.9968 0.0000 -0.0805
vn 0.8874 -0.0000 0.4609
vn -0.9967 0.0001 -0.0810
vn -0.9967 -0.0002 -0.0806
vn 0.8874 -0.0001 0.4609
vn -0.9967 0.0000 -0.0807
vn 0.8874 -0.0000 0.4610
vn -0.9967 -0.0001 -0.0810
vn -0.9967 0.0000 -0.0806
vn 0.8875 0.0002 0.4608
vn 0.0808 0.0000 -0.9967
vn -0.2852 -0.0000 -0.9585
vn -0.0283 0.9963 -0.0808
vn 0.0001 1.0000 -0.0000
vn -0.1815 0.6731 -0.7170
vn -0.0572 -0.7071 0.7048
vn 0.1734 -0.6775 0.7148
vn -0.2323 0.0007 -0.9727
vn 0.0807 -0.0000 -0.9967
vn 0.1716 0.7616 0.6248
vn -0.0571 0.7071 0.7048
vn 0.4432 0.7139 0.5421
vn 0.0121 0.9996 0.0247
vn -0.4255 -0.7414 -0.5189
vn -0.6344 -0.0411 -0.7719
vn -0.0218 -0.9996 -0.0185
vn -0.5296 0.6738 -0.5153
vn 0.4848 -0.6669 0.5659
vn -0.6549 -0.0471 -0.7542
vn 0.6414 0.1261 0.7568
vn -0.4589 -0.7083 -0.5364
vn 0.4469 0.7119 0.5417
vn 0.0072 -0.9995 0.0293
vn -0.0203 0.9995 -0.0256
vn 0.4512 -0.6819 0.5758
vn -0.4634 0.6757 -0.5733
vn 0.5950 0.0331 0.8031
vn 0.2242 0.8258 0.5175
vn -0.0281 0.9966 -0.0779
vn -0.2451 -0.8343 -0.4938
vn -0.4878 -0.0965 -0.8676
vn 0.0197 -0.9957 0.0908
vn -0.4045 0.6188 -0.6734
vn 0.3912 -0.5499 0.7380
vn -0.4823 -0.0746 -0.8728
vn 0.4086 0.1342 0.9028
vn -0.3289 -0.6747 -0.6607
vn 0.3330 0.6808 0.6523
vn -0.0425 -0.9971 -0.0636
vn 0.0396 0.9981 0.0472
vn 0.2841 -0.7460 0.6023
vn -0.2980 0.7373 -0.6063
vn 0.4098 0.0969 0.9070
vn -0.1617 0.7962 0.5830
vn 0.0129 0.9980 -0.0622
vn 0.1607 -0.7771 -0.6086
vn 0.2183 0.0125 -0.9758
vn -0.0291 -0.9967 0.0753
vn 0.1560 0.6561 -0.7383
vn -0.1611 -0.6088 0.7768
vn 0.1385 -0.0359 -0.9897
vn -0.1908 0.0416 0.9807
vn 0.1246 -0.6782 -0.7242
vn -0.1390 0.6830 0.7171
vn 0.0107 -0.9969 -0.0778
vn -0.0194 0.9975 0.0675
vn -0.1382 -0.7667 0.6269
vn 0.1270 0.7601 -0.6373
vn -0.2511 0.0286 0.9675
vn -0.3916 0.6788 0.6212
vn -0.0186 0.9998 0.0052
vn 0.4038 -0.6868 -0.6043
vn 0.5410 -0.0061 -0.8410
vn 0.0309 -0.9994 -0.0124
vn 0.3398 0.7094 -0.6175
vn -0.3461 -0.7102 0.6131
vn 0.4942 0.0091 -0.8693
vn -0.4931 -0.0116 0.8699
vn 0.3749 -0.7013 -0.6063
vn -0.3645 0.6936 0.6213
vn 0.0099 -0.9996 0.0281
vn -0.0080 0.9998 -0.0168
vn -0.3819 -0.6864 0.6189
vn 0.3723 0.6873 -0.6237
vn -0.5417 0.0041 0.8406
usemtl ProBuilder_Default_URP
s 1
f 9/1/1 11/2/2 42/3/3 44/4/4
f 41/5/5 39/6/6 16/7/7 14/8/8
f 3/9/2 4/10/9 37/11/10 35/12/11
f 1/13/12 2/14/13 33/15/14 34/16/15
f 15/17/16 1/18/12 34/19/15 38/20/17
f 2/14/13 5/21/8 48/22/18 33/15/14
f 4/23/19 3/24/20 2/25/20 1/26/21
f 17/27/22 18/28/23 19/29/23 20/30/22
f 3/24/20 6/31/24 5/32/25 2/25/20
f 21/33/26 17/27/22 20/30/22 22/34/26
f 6/31/24 8/35/27 7/36/28 5/32/25
f 23/37/29 21/33/26 22/34/26 24/38/29
f 8/35/27 10/39/30 9/40/30 7/36/28
f 25/41/31 23/37/29 24/38/29 26/42/31
f 10/39/30 12/43/20 11/44/32 9/40/30
f 27/45/31 25/41/31 26/42/31 28/46/31
f 12/43/20 14/47/33 13/48/33 11/44/32
f 29/49/23 27/45/31 28/46/31 30/50/23
f 14/47/33 16/51/24 15/52/24 13/48/33
f 31/53/34 29/49/23 30/50/23 32/54/34
f 16/51/24 4/23/19 1/26/21 15/52/24
f 18/28/23 31/53/34 32/54/34 19/29/23
f 13/55/35 15/17/16 38/20/17 40/56/36
f 45/57/37 10/58/38 8/59/16 47/60/39
f 7/61/40 9/1/1 44/4/4 46/62/41
f 36/63/42 6/64/43 3/9/2 35/12/11
f 4/65/9 16/7/7 39/6/6 37/66/10
f 45/57/37 43/67/44 12/68/45 10/58/38
f 11/2/2 13/55/35 40/56/36 42/3/3
f 41/5/5 14/8/8 12/68/45 43/67/44
f 36/63/42 47/60/39 8/59/16 6/64/43
f 5/21/8 7/61/40 46/62/41 48/22/18
f 49/69/46 50/70/47 34/16/15 33/15/14
f 51/71/48 52/72/49 36/63/42 35/12/11
f 53/73/50 51/71/48 35/12/11 37/11/10
f 50/74/47 54/75/51 38/20/17 34/19/15
f 55/76/52 53/77/50 37/66/10 39/6/6
f 54/75/51 56/78/53 40/56/36 38/20/17
f 57/79/54 55/76/52 39/6/6 41/5/5
f 56/78/53 58/80/55 42/3/3 40/56/36
f 59/81/56 57/79/54 41/5/5 43/67/44
f 58/80/55 60/82/57 44/4/4 42/3/3
f 61/83/58 59/81/56 43/67/44 45/57/37
f 60/82/57 62/84/59 46/62/41 44/4/4
f 63/85/60 61/83/58 45/57/37 47/60/39
f 62/84/59 64/86/61 48/22/18 46/62/41
f 52/72/49 63/85/60 47/60/39 36/63/42
f 64/86/61 49/69/46 33/15/14 48/22/18
f 65/87/62 66/88/63 50/70/47 49/69/46
f 67/89/64 68/90/65 52/72/49 51/71/48
f 69/91/66 67/89/64 51/71/48 53/73/50
f 66/92/63 70/93/67 54/75/51 50/74/47
f 71/94/68 69/95/66 53/77/50 55/76/52
f 70/93/67 72/96/69 56/78/53 54/75/51
f 73/97/70 71/94/68 55/76/52 57/79/54
f 72/96/69 74/98/71 58/80/55 56/78/53
f 75/99/72 73/97/70 57/79/54 59/81/56
f 74/98/71 76/100/73 60/82/57 58/80/55
f 77/101/74 75/99/72 59/81/56 61/83/58
f 76/100/73 78/102/75 62/84/59 60/82/57
f 79/103/76 77/101/74 61/83/58 63/85/60
f 78/102/75 80/104/77 64/86/61 62/84/59
f 68/90/65 79/103/76 63/85/60 52/72/49
f 80/104/77 65/87/62 49/69/46 64/86/61
f 81/105/78 82/106/79 66/88/63 65/87/62
f 83/107/80 84/108/81 68/90/65 67/89/64
f 85/109/82 83/107/80 67/89/64 69/91/66
f 82/110/79 86/111/83 70/93/67 66/92/63
f 87/112/84 85/113/82 69/95/66 71/94/68
f 86/111/83 88/114/85 72/96/69 70/93/67
f 89/115/86 87/112/84 71/94/68 73/97/70
f 88/114/85 90/116/87 74/98/71 72/96/69
f 91/117/88 89/115/86 73/97/70 75/99/72
f 90/116/87 92/118/89 76/100/73 74/98/71
f 93/119/90 91/117/88 75/99/72 77/101/74
f 92/118/89 94/120/91 78/102/75 76/100/73
f 95/121/92 93/119/90 77/101/74 79/103/76
f 94/120/91 96/122/93 80/104/77 78/102/75
f 84/108/81 95/121/92 79/103/76 68/90/65
f 96/122/93 81/105/78 65/87/62 80/104/77
f 20/123/94 19/124/95 82/106/79 81/105/78
f 17/125/96 21/126/97 84/108/81 83/107/80
f 18/127/98 17/125/96 83/107/80 85/109/82
f 19/128/95 32/129/99 86/111/83 82/110/79
f 31/130/100 18/131/98 85/113/82 87/112/84
f 32/129/99 30/132/101 88/114/85 86/111/83
f 29/133/102 31/130/100 87/112/84 89/115/86
f 30/132/101 28/134/103 90/116/87 88/114/85
f 27/135/104 29/133/102 89/115/86 91/117/88
f 28/134/103 26/136/105 92/118/89 90/116/87
f 25/137/106 27/135/104 91/117/88 93/119/90
f 26/136/105 24/138/107 94/120/91 92/118/89
f 23/139/108 25/137/106 93/119/90 95/121/92
f 24/138/107 22/140/109 96/122/93 94/120/91
f 21/126/97 23/139/108 95/121/92 84/108/81
f 22/140/109 20/123/94 81/105/78 96/122/93
