# Blender v3.1.2 OBJ File: 'Glissière_sécurité.blend'
# www.blender.org
mtllib LD_Glissière_sécurité_1m.mtl
o Pied_-_D.001_Cube.005
v -0.032500 0.084319 -0.475000
v -0.032500 -0.215681 -0.475000
v -0.032500 0.084319 -0.425000
v -0.032500 -0.215681 -0.425000
v -0.057367 0.084319 -0.475000
v -0.057367 -0.215681 -0.475000
v -0.057367 0.084319 -0.425000
v -0.057367 -0.215681 -0.425000
v -0.002500 0.013006 -0.475000
v -0.002500 -0.012444 -0.475000
v -0.002500 0.013006 -0.425000
v -0.002500 -0.012444 -0.425000
v -0.032500 0.020281 -0.475000
v -0.032500 -0.019719 -0.475000
v -0.032500 0.020281 -0.425000
v -0.032500 -0.019719 -0.425000
vt 0.571711 0.211301
vt 0.571711 0.164262
vt 0.853947 0.164262
vt 0.853947 0.211301
vt 0.571711 0.140867
vt 0.853947 0.140868
vt 0.571711 0.281735
vt 0.571711 0.234695
vt 0.853947 0.234695
vt 0.853947 0.281734
vt 0.548316 0.281735
vt 0.548316 0.234695
vt 0.638923 0.628780
vt 0.615519 0.645975
vt 0.601013 0.611252
vt 0.629694 0.606687
vt 0.596630 0.527286
vt 0.624216 0.536366
vt 0.622301 0.560233
vt 0.593620 0.564797
vt 0.638923 0.491685
vt 0.611338 0.482605
vn 1.0000 0.0000 0.0000
vn 0.0000 0.0000 1.0000
vn -1.0000 0.0000 0.0000
vn 0.0000 0.0000 -1.0000
vn 0.0000 1.0000 0.0000
vn 0.2357 0.9718 0.0000
vn 0.2357 -0.9718 0.0000
usemtl None
s off
f 1/1/1 3/2/1 4/3/1 2/4/1
f 3/2/2 7/5/2 8/6/2 4/3/2
f 7/7/3 5/8/3 6/9/3 8/10/3
f 5/8/4 1/1/4 2/4/4 6/9/4
f 3/11/5 1/12/5 5/8/5 7/7/5
f 11/13/2 15/14/2 16/15/2 12/16/2
f 13/17/4 9/18/4 10/19/4 14/20/4
f 11/21/6 9/18/6 13/17/6 15/22/6
f 16/15/7 14/20/7 10/19/7 12/16/7
o Cube.001_Cube.006
v 0.002500 0.100000 -0.500000
v 0.002500 -0.100000 -0.500000
v 0.002500 0.100000 0.500000
v 0.002500 -0.100000 0.500000
v -0.002500 0.100000 -0.500000
v -0.002500 -0.100000 -0.500000
v -0.002500 0.100000 0.500000
v -0.002500 -0.100000 0.500000
v 0.016453 0.091559 -0.500000
v 0.035764 0.065399 -0.500000
v 0.035764 0.039240 -0.500000
v 0.002500 0.013080 -0.500000
v 0.002500 -0.013080 -0.500000
v 0.035764 -0.039240 -0.500000
v 0.035764 -0.065399 -0.500000
v 0.016453 -0.091559 -0.500000
v 0.011453 -0.091559 0.500000
v 0.030764 -0.065399 0.500000
v 0.030764 -0.039240 0.500000
v -0.002500 -0.013080 0.500000
v -0.002500 0.013080 0.500000
v 0.030764 0.039240 0.500000
v 0.030764 0.065399 0.500000
v 0.011453 0.091559 0.500000
v 0.016453 0.091559 0.500000
v 0.035764 0.065399 0.500000
v 0.035764 0.039240 0.500000
v 0.002500 0.013080 0.500000
v 0.002500 -0.013080 0.500000
v 0.035764 -0.039240 0.500000
v 0.035764 -0.065399 0.500000
v 0.016453 -0.091559 0.500000
v 0.011453 0.091559 -0.500000
v 0.030764 0.065399 -0.500000
v 0.030764 0.039240 -0.500000
v -0.002500 0.013080 -0.500000
v -0.002500 -0.013080 -0.500000
v 0.030764 -0.039240 -0.500000
v 0.030764 -0.065399 -0.500000
v 0.011453 -0.091559 -0.500000
vt 0.016707 0.999713
vt 0.000000 0.999505
vt 0.000000 0.000000
vt 0.016707 0.000208
vt 0.567713 0.290212
vt 0.581726 0.281735
vt 0.586748 0.281735
vt 0.572734 0.290212
vt 0.530862 0.000020
vt 0.548316 0.000040
vt 0.548316 1.000000
vt 0.530862 0.999980
vt 0.285270 0.999960
vt 0.268563 0.999752
vt 0.268563 0.000246
vt 0.285270 0.000454
vt 0.033418 0.999732
vt 0.033419 0.000227
vt 0.611165 0.474127
vt 0.625178 0.482605
vt 0.620157 0.482605
vt 0.606143 0.474127
vt 0.625178 0.281735
vt 0.611165 0.290212
vt 0.606143 0.290212
vt 0.620157 0.281735
vt 0.591769 0.316486
vt 0.586748 0.316486
vt 0.591769 0.342760
vt 0.586748 0.342760
vt 0.625178 0.369033
vt 0.620156 0.369033
vt 0.625178 0.395307
vt 0.620156 0.395307
vt 0.591770 0.421581
vt 0.586748 0.421581
vt 0.591770 0.447854
vt 0.586748 0.447854
vt 0.251851 0.999733
vt 0.251851 0.000227
vt 0.220720 0.999733
vt 0.220722 0.000227
vt 0.195674 0.999732
vt 0.195675 0.000227
vt 0.155158 0.999732
vt 0.155158 0.000227
vt 0.130112 0.999732
vt 0.130112 0.000227
vt 0.089595 0.999732
vt 0.089595 0.000227
vt 0.064550 0.999732
vt 0.064548 0.000227
vt 0.285270 0.000000
vt 0.302724 0.000020
vt 0.302724 0.999980
vt 0.335238 0.000020
vt 0.335237 0.999980
vt 0.361397 0.000020
vt 0.361396 0.999980
vt 0.403714 0.000020
vt 0.403713 0.999980
vt 0.429873 0.000020
vt 0.429873 0.999980
vt 0.472189 0.000020
vt 0.472190 0.999980
vt 0.498348 0.000020
vt 0.498350 0.999980
vt 0.581726 0.482605
vt 0.567712 0.474127
vt 0.572734 0.474127
vt 0.586748 0.482605
vt 0.548316 0.447853
vt 0.553338 0.447853
vt 0.548316 0.421579
vt 0.553338 0.421579
vt 0.581725 0.395306
vt 0.586747 0.395306
vt 0.581725 0.369032
vt 0.586747 0.369032
vt 0.548317 0.342759
vt 0.553339 0.342759
vt 0.548317 0.316486
vt 0.553339 0.316486
vn 0.0000 1.0000 0.0000
vn 0.0000 0.0000 1.0000
vn -0.5176 -0.8556 0.0000
vn 0.0000 -1.0000 0.0000
vn 0.5176 0.8556 0.0000
vn 0.0000 0.0000 -1.0000
vn 0.5176 -0.8556 0.0000
vn 0.8045 -0.5939 0.0000
vn 1.0000 0.0000 0.0000
vn 0.6182 0.7860 0.0000
vn 0.6182 -0.7860 0.0000
vn 0.8045 0.5939 0.0000
vn -0.5176 0.8556 0.0000
vn -0.8045 0.5939 0.0000
vn -1.0000 0.0000 0.0000
vn -0.6182 -0.7860 0.0000
vn -0.6182 0.7860 0.0000
vn -0.8045 -0.5939 0.0000
usemtl None
s off
f 17/23/8 21/24/8 23/25/8 19/26/8
f 41/27/9 19/28/9 23/29/9 40/30/9
f 40/31/10 23/32/10 21/33/10 49/34/10
f 22/35/11 18/36/11 20/37/11 24/38/11
f 25/39/12 17/23/12 19/26/12 41/40/12
f 49/41/13 21/42/13 17/43/13 25/44/13
f 22/45/13 56/46/13 32/47/13 18/48/13
f 56/46/13 55/49/13 31/50/13 32/47/13
f 55/49/13 54/51/13 30/52/13 31/50/13
f 54/51/13 53/53/13 29/54/13 30/52/13
f 53/53/13 52/55/13 28/56/13 29/54/13
f 52/55/13 51/57/13 27/58/13 28/56/13
f 51/57/13 50/59/13 26/60/13 27/58/13
f 50/59/13 49/41/13 25/44/13 26/60/13
f 18/36/14 32/61/14 48/62/14 20/37/14
f 32/61/15 31/63/15 47/64/15 48/62/15
f 31/63/16 30/65/16 46/66/16 47/64/16
f 30/65/17 29/67/17 45/68/17 46/66/17
f 29/67/16 28/69/16 44/70/16 45/68/16
f 28/69/18 27/71/18 43/72/18 44/70/18
f 27/71/16 26/73/16 42/74/16 43/72/16
f 26/73/19 25/39/19 41/40/19 42/74/19
f 24/75/20 33/76/20 56/77/20 22/35/20
f 33/76/21 34/78/21 55/79/21 56/77/21
f 34/78/22 35/80/22 54/81/22 55/79/22
f 35/80/23 36/82/23 53/83/23 54/81/23
f 36/82/22 37/84/22 52/85/22 53/83/22
f 37/84/24 38/86/24 51/87/24 52/85/24
f 38/86/22 39/88/22 50/89/22 51/87/22
f 39/88/25 40/31/25 49/34/25 50/89/25
f 20/90/9 48/91/9 33/92/9 24/93/9
f 48/91/9 47/94/9 34/95/9 33/92/9
f 47/94/9 46/96/9 35/97/9 34/95/9
f 46/96/9 45/98/9 36/99/9 35/97/9
f 45/98/9 44/100/9 37/101/9 36/99/9
f 44/100/9 43/102/9 38/103/9 37/101/9
f 43/102/9 42/104/9 39/105/9 38/103/9
f 42/104/9 41/27/9 40/30/9 39/105/9
o Pied_-_G.002_Cube.011
v -0.032500 0.084319 0.425000
v -0.032500 -0.215681 0.425000
v -0.032500 0.084319 0.475000
v -0.032500 -0.215681 0.475000
v -0.057367 0.084319 0.425000
v -0.057367 -0.215681 0.425000
v -0.057367 0.084319 0.475000
v -0.057367 -0.215681 0.475000
v -0.002500 0.013006 0.425000
v -0.002500 -0.012444 0.425000
v -0.002500 0.013006 0.475000
v -0.002500 -0.012444 0.475000
v -0.032500 0.020281 0.425000
v -0.032500 -0.019719 0.425000
v -0.032500 0.020281 0.475000
v -0.032500 -0.019719 0.475000
vt 0.571711 0.070434
vt 0.571711 0.023394
vt 0.853947 0.023394
vt 0.853947 0.070434
vt 0.571711 0.000000
vt 0.853947 0.000000
vt 0.571711 0.140867
vt 0.571711 0.093828
vt 0.853947 0.093828
vt 0.853947 0.140867
vt 0.548316 0.140867
vt 0.548316 0.093828
vt 0.593620 0.628780
vt 0.570216 0.645975
vt 0.555709 0.611252
vt 0.584390 0.606687
vt 0.551327 0.527286
vt 0.578912 0.536366
vt 0.576997 0.560233
vt 0.548316 0.564797
vt 0.593620 0.491685
vt 0.566034 0.482605
vn 1.0000 0.0000 0.0000
vn 0.0000 0.0000 1.0000
vn -1.0000 0.0000 0.0000
vn 0.0000 0.0000 -1.0000
vn 0.0000 1.0000 0.0000
vn 0.2357 0.9718 0.0000
vn 0.2357 -0.9718 0.0000
usemtl None
s off
f 57/106/26 59/107/26 60/108/26 58/109/26
f 59/107/27 63/110/27 64/111/27 60/108/27
f 63/112/28 61/113/28 62/114/28 64/115/28
f 61/113/29 57/106/29 58/109/29 62/114/29
f 59/116/30 57/117/30 61/113/30 63/112/30
f 67/118/27 71/119/27 72/120/27 68/121/27
f 69/122/29 65/123/29 66/124/29 70/125/29
f 67/126/31 65/123/31 69/122/31 71/127/31
f 72/120/32 70/125/32 66/124/32 68/121/32
