# Blender v3.1.2 OBJ File: 'Barrage$.blend'
# www.blender.org
mtllib LD_Barrage_AV.mtl
o Avant_LD_Cube.035
v -2.500000 -9.653551 42.520393
v -2.500000 9.653551 42.520393
v -2.500000 -9.653551 -42.520393
v -2.500000 9.653551 -42.520393
v 6.505759 -9.653551 42.520393
v 6.505759 9.653551 42.520393
v 6.505759 -9.653551 -42.520393
v 6.505759 9.653551 -42.520393
v -2.500002 -9.653551 -11.381344
v -2.500002 -9.653551 11.381342
v -2.500002 9.653551 11.381342
v -2.500002 9.653551 -11.381344
v 6.505760 9.653551 -11.381344
v 6.505761 9.653551 11.381342
v 0.221051 -9.653551 -8.234693
v 0.221051 -9.653551 8.234691
v 0.221051 9.653551 8.234691
v 0.221051 9.653551 -8.234693
v 5.000000 9.653551 -8.234693
v 5.000000 9.653551 8.234691
v 0.221051 -2.563662 7.734693
v 0.221051 -4.691387 7.734693
v 0.221051 -2.563662 -7.734693
v 0.221051 -4.691387 -7.734693
v 0.221051 -4.691387 2.234693
v 0.221051 -4.691387 -3.255102
v 0.221051 -2.563662 2.234693
v 0.221051 -2.563662 -3.255102
v 0.221051 -2.063662 -8.234694
v 0.221051 -5.191387 -8.234694
v 0.221051 -4.691387 -2.255102
v 0.221051 -2.563662 -2.255102
v 0.221051 -4.691387 3.234693
v 0.221051 -5.191387 -2.755102
v 0.221051 -2.563662 3.234693
v 0.221051 -2.063662 -2.755102
v 0.221051 -2.063662 8.234692
v 0.221051 -5.191387 8.234692
v 0.221051 -5.191387 2.734693
v 0.221051 -2.063662 2.734693
v 5.000000 2.359479 -7.734693
v 5.000000 -2.507171 -7.734693
v 5.000000 -2.507171 -3.255102
v 5.000000 2.359479 -3.255102
v 5.000000 -2.507171 2.234693
v 5.000000 -2.507171 -2.255102
v 5.000000 2.359479 2.234693
v 5.000000 2.359479 -2.255102
v 5.000000 2.359479 7.734693
v 5.000000 -2.507171 7.734693
v 5.000000 -2.507171 3.234693
v 5.000000 2.359479 3.234693
v -0.364572 -5.921863 2.244897
v -1.778949 -2.563660 2.244897
v -0.364572 -5.921863 -2.244898
v -1.778949 -2.563660 -2.244898
v 0.221051 -5.921863 2.244897
v 0.221051 -2.563660 2.244897
v 0.221051 -5.921863 -2.244898
v 0.221051 -2.563660 -2.244898
v -0.364572 -1.462797 7.734693
v -1.778949 1.895406 7.734693
v -0.364572 -1.462797 3.244898
v -1.778949 1.895406 3.244898
v 0.221051 -1.462797 7.734693
v 0.221051 1.895406 7.734693
v 0.221051 -1.462797 3.244898
v 0.221051 1.895406 3.244898
v -0.364572 -1.462797 -3.244898
v -1.778949 1.895406 -3.244898
v -0.364572 -1.462797 -7.734693
v -1.778949 1.895406 -7.734693
v 0.221051 -1.462797 -3.244898
v 0.221051 1.895406 -3.244898
v 0.221051 -1.462797 -7.734693
v 0.221051 1.895406 -7.734693
v -0.364572 -5.921863 -8.914390
v -2.500002 -9.653550 -11.381344
v -0.364572 -5.921865 8.922533
v -2.500002 -9.653552 11.381342
v 0.221051 -5.921863 -8.234693
v 0.221051 -5.921865 8.159606
v -0.364573 -5.921863 -2.244898
v -1.778949 9.653551 -2.244898
v -0.364573 -5.921863 -3.244898
v -1.778949 9.653551 -3.244898
v 0.221051 -5.921863 -2.244898
v 0.221051 9.653551 -2.244898
v 0.221051 -5.921863 -3.244898
v 0.221051 9.653551 -3.244898
v -0.364573 -5.921863 -7.734693
v -1.778949 9.653551 -7.734693
v -0.364573 -5.921863 -11.381345
v -1.778949 9.653551 -10.563660
v 0.221051 -5.921863 -7.734693
v 0.221051 9.653551 -7.734693
v -0.364573 -5.921863 3.244898
v -1.778949 9.653551 3.244898
v -0.364573 -5.921863 2.244898
v -1.778949 9.653551 2.244898
v 0.221051 -5.921863 3.244898
v 0.221051 9.653551 3.244898
v 0.221051 -5.921863 2.244898
v 0.221051 9.653551 2.244898
v -0.364573 -5.921863 11.381342
v -1.778949 9.653551 10.563656
v -0.364573 -5.921863 7.734693
v -1.778949 9.653551 7.734693
v 0.221051 -5.921863 7.734693
v 0.221051 9.653551 7.734693
v -1.778949 9.653551 -7.734693
v -1.778949 14.912374 -7.734693
v -1.778949 9.653551 -9.734694
v -1.778949 14.912374 -9.734694
v 2.500002 9.653551 -7.734693
v 2.500002 14.912374 -7.734693
v 2.500002 9.653551 -9.734694
v 2.500002 14.912374 -9.734694
v -1.778949 9.653551 9.734692
v -1.778949 14.912374 9.734692
v -1.778949 9.653551 7.734693
v -1.778949 14.912374 7.734693
v 2.500002 9.653551 9.734692
v 2.500002 14.912374 9.734692
v 2.500002 9.653551 7.734693
v 2.500002 14.912374 7.734693
v -1.778949 14.912374 9.734692
v -1.778949 16.912374 9.734692
v -1.778949 14.912374 -9.734694
v -1.778949 16.912374 -9.734694
v 2.500002 14.912374 9.734692
v 2.500002 16.912374 9.734692
v 2.500002 14.912374 -9.734694
v 2.500002 16.912374 -9.734694
v -1.660499 1.895406 -3.596851
v -1.660499 3.042205 -3.596851
v -1.660499 1.895406 -7.362330
v -1.660499 3.042205 -7.362330
v 0.102602 1.895406 -3.596851
v 0.102602 3.042205 -3.596851
v 0.102602 1.895406 -7.362330
v 0.102602 3.042205 -7.362330
v -1.278949 2.542205 -4.038221
v -1.278949 14.912374 -4.038221
v -1.278949 2.542205 -5.038221
v -1.278949 14.912374 -5.038221
v -0.278949 2.542205 -4.038221
v -0.278949 14.912374 -4.038221
v -0.278949 2.542205 -5.038221
v -0.278949 14.912374 -5.038221
v -1.278949 2.542205 -5.920961
v -1.278949 14.912374 -5.920961
v -1.278949 2.542205 -6.920961
v -1.278949 14.912374 -6.920961
v -0.278949 2.542205 -5.920961
v -0.278949 14.912374 -5.920961
v -0.278949 2.542205 -6.920961
v -0.278949 14.912374 -6.920961
v -1.660499 1.895405 7.382740
v -1.660499 3.042205 7.382740
v -1.660499 1.895405 3.617260
v -1.660499 3.042205 3.617260
v 0.102602 1.895405 7.382740
v 0.102602 3.042205 7.382740
v 0.102602 1.895405 3.617260
v 0.102602 3.042205 3.617260
v -1.278949 2.542205 5.058630
v -1.278949 14.912373 5.058630
v -1.278949 2.542205 4.058630
v -1.278949 14.912373 4.058630
v -0.278949 2.542205 5.058630
v -0.278949 14.912373 5.058630
v -0.278949 2.542205 4.058630
v -0.278949 14.912373 4.058630
v -1.278949 2.542205 6.941370
v -1.278949 14.912373 6.941370
v -1.278949 2.542205 5.941370
v -1.278949 14.912373 5.941370
v -0.278949 2.542205 6.941370
v -0.278949 14.912373 6.941370
v -0.278949 2.542205 5.941370
v -0.278949 14.912373 5.941370
v -1.660499 -2.563659 1.892944
v -1.660499 -1.416860 1.892944
v -1.660499 -2.563659 -1.872535
v -1.660499 -1.416860 -1.872535
v 0.102602 -2.563659 1.892944
v 0.102602 -1.416860 1.892944
v 0.102602 -2.563659 -1.872535
v 0.102602 -1.416860 -1.872535
v -1.278949 -1.916860 1.451575
v -1.278949 10.453308 1.451575
v -1.278949 -1.916860 0.451575
v -1.278949 10.453308 0.451575
v -0.278949 -1.916860 1.451575
v -0.278949 10.453308 1.451575
v -0.278949 -1.916860 0.451575
v -0.278949 10.453308 0.451575
v -1.278949 -1.916860 -0.431165
v -1.278949 10.453308 -0.431165
v -1.278949 -1.916860 -1.431165
v -1.278949 10.453308 -1.431165
v -0.278949 -1.916860 -0.431165
v -0.278949 10.453308 -0.431165
v -0.278949 -1.916860 -1.431165
v -0.278949 10.453308 -1.431165
v -1.499845 9.653551 5.279526
v -1.499845 14.912374 5.279526
v -1.499845 9.653551 3.837733
v -1.499845 14.912374 3.837733
v 2.500002 9.653551 5.279526
v 2.500002 14.912374 5.279526
v 2.500002 9.653551 3.837733
v 2.500002 14.912374 3.837733
v -1.499845 9.653551 7.162266
v -1.499845 14.912374 7.162266
v -1.499845 9.653551 5.720473
v -1.499845 14.912374 5.720473
v 2.500002 9.653551 7.162266
v 2.500002 14.912374 7.162266
v 2.500002 9.653551 5.720473
v 2.500002 14.912374 5.720473
v -1.499845 9.653551 -5.700064
v -1.499845 14.912374 -5.700064
v -1.499845 9.653551 -7.141857
v -1.499845 14.912374 -7.141857
v 2.500002 9.653551 -5.700064
v 2.500002 14.912374 -5.700064
v 2.500002 9.653551 -7.141857
v 2.500002 14.912374 -7.141857
v -1.499845 9.653551 -3.817324
v -1.499845 14.912374 -3.817324
v -1.499845 9.653551 -5.259117
v -1.499845 14.912374 -5.259117
v 2.500002 9.653551 -3.817324
v 2.500002 14.912374 -3.817324
v 2.500002 9.653551 -5.259117
v 2.500002 14.912374 -5.259117
v -1.499845 9.653551 -0.210269
v -1.499845 14.912374 -0.210269
v -1.499845 9.653551 -1.652062
v -1.499845 14.912374 -1.652062
v 2.500002 9.653551 -0.210269
v 2.500002 14.912374 -0.210269
v 2.500002 9.653551 -1.652062
v 2.500002 14.912374 -1.652062
v -1.499845 9.653551 1.672471
v -1.499845 14.912374 1.672471
v -1.499845 9.653551 0.230678
v -1.499845 14.912374 0.230678
v 2.500002 9.653551 1.672471
v 2.500002 14.912374 1.672471
v 2.500002 9.653551 0.230678
v 2.500002 14.912374 0.230678
v 6.505759 -9.653551 42.520393
v 7.179783 9.653551 41.846367
v 7.179783 9.653551 38.700928
v 10.999249 -9.653551 42.520393
v 10.325226 9.653551 41.846367
v 10.325226 9.653551 38.700928
v 6.505759 9.653551 42.520393
v 6.505759 9.653551 38.026901
v 10.999249 9.653551 38.026901
v 10.999249 9.653551 42.520393
v 7.179783 14.363207 41.846367
v 7.179783 14.363207 38.700928
v 10.325226 14.363207 38.700928
v 10.325226 14.363207 41.846367
v 7.179783 16.912374 41.846367
v 7.179783 16.912374 38.700928
v 10.325226 16.912374 38.700928
v 10.325226 16.912374 41.846367
v 6.544307 14.363207 42.481846
v 6.544307 14.363207 38.065449
v 10.960701 14.363207 38.065449
v 10.960701 14.363207 42.481846
v 6.544307 14.912374 42.481846
v 6.544307 14.912374 38.065449
v 10.960701 14.912374 38.065449
v 10.960701 14.912374 42.481846
v 7.179783 9.653551 -38.700928
v 6.505759 -9.653551 -42.520393
v 7.179783 9.653551 -41.846367
v 10.325226 9.653551 -38.700928
v 10.999249 -9.653551 -42.520393
v 10.325226 9.653551 -41.846367
v 6.505759 9.653551 -38.026901
v 6.505759 9.653551 -42.520393
v 10.999249 9.653551 -42.520393
v 10.999249 9.653551 -38.026901
v 7.179783 14.363207 -38.700928
v 7.179783 14.363207 -41.846367
v 10.325226 14.363207 -41.846367
v 10.325226 14.363207 -38.700928
v 7.179783 16.912374 -38.700928
v 7.179783 16.912374 -41.846367
v 10.325226 16.912374 -41.846367
v 10.325226 16.912374 -38.700928
v 6.544307 14.363207 -38.065449
v 6.544307 14.363207 -42.481846
v 10.960701 14.363207 -42.481846
v 10.960701 14.363207 -38.065449
v 6.544307 14.912374 -38.065449
v 6.544307 14.912374 -42.481846
v 10.960701 14.912374 -42.481846
v 10.960701 14.912374 -38.065449
vt 0.001800 0.617531
vt 0.184877 0.617531
vt 0.184877 0.912804
vt 0.001800 0.912804
vt 0.184877 0.998200
vt 0.001800 0.998200
vt 0.001800 0.001800
vt 0.184877 0.001800
vt 0.184877 0.087196
vt 0.001800 0.087196
vt 0.273873 0.297072
vt 0.188477 0.297072
vt 0.188477 0.001800
vt 0.273873 0.001800
vt 0.273873 0.808190
vt 0.188477 0.808190
vt 0.188477 0.512917
vt 0.273873 0.512917
vt 0.259595 0.326910
vt 0.214279 0.326910
vt 0.184877 0.382469
vt 0.001800 0.382469
vt 0.073770 0.578085
vt 0.184877 0.578085
vt 0.184877 0.421915
vt 0.073770 0.421915
vt 0.073770 0.526125
vt 0.214279 0.483079
vt 0.259595 0.483079
vt 0.519562 0.344224
vt 0.561874 0.292264
vt 0.561874 0.344224
vt 0.427635 0.305551
vt 0.430604 0.347924
vt 0.380901 0.351407
vt 0.377932 0.309033
vt 0.044112 0.421915
vt 0.044112 0.578085
vt 0.352263 0.247245
vt 0.339605 0.287995
vt 0.277473 0.268696
vt 0.290131 0.227946
vt 0.402740 0.061768
vt 0.412393 0.079485
vt 0.362691 0.082978
vt 0.340612 0.042455
vt 0.519562 0.188055
vt 0.561874 0.188055
vt 0.561874 0.240208
vt 0.073770 0.474069
vt 0.566615 0.297006
vt 0.566615 0.339483
vt 0.069029 0.573343
vt 0.069029 0.530866
vt 0.566615 0.244949
vt 0.566615 0.287523
vt 0.069029 0.521384
vt 0.069029 0.478810
vt 0.566615 0.192796
vt 0.566615 0.235467
vt 0.069029 0.469327
vt 0.069029 0.426657
vt 0.415378 0.121954
vt 0.365676 0.125447
vt 0.349262 0.305710
vt 0.299560 0.309214
vt 0.430604 0.247272
vt 0.417986 0.287832
vt 0.355862 0.268505
vt 0.368480 0.227946
vt 0.415378 0.021113
vt 0.353250 0.001800
vt 0.352263 0.348275
vt 0.345187 0.367170
vt 0.286378 0.394996
vt 0.302561 0.351779
vt 0.423520 0.366816
vt 0.364699 0.394616
vt 0.408298 0.140847
vt 0.349483 0.168660
vt 0.617227 0.123252
vt 0.640882 0.131761
vt 0.645677 0.153647
vt 0.619241 0.161277
vt 0.664631 0.179173
vt 0.612189 0.167713
vt 0.610956 0.117148
vt 0.664631 0.105514
vt 0.376872 0.646053
vt 0.400526 0.654562
vt 0.405321 0.676448
vt 0.378886 0.684078
vt 0.424275 0.701975
vt 0.371834 0.690514
vt 0.370600 0.639949
vt 0.424275 0.628315
vt 0.434146 0.646053
vt 0.457800 0.654562
vt 0.462596 0.676448
vt 0.436160 0.684078
vt 0.481549 0.701975
vt 0.429108 0.690514
vt 0.427875 0.639949
vt 0.481549 0.628315
vt 0.424530 0.025192
vt 0.465300 0.001800
vt 0.465300 0.217645
vt 0.424530 0.194329
vt 0.418977 0.187095
vt 0.418977 0.031638
vt 0.510409 0.003658
vt 0.496997 0.151350
vt 0.487554 0.150492
vt 0.500966 0.002800
vt 0.468899 0.147076
vt 0.495503 0.001800
vt 0.515962 0.003658
vt 0.515962 0.151350
vt 0.485839 0.169380
vt 0.495282 0.170237
vt 0.573143 0.592902
vt 0.580886 0.444804
vt 0.607675 0.446205
vt 0.607675 0.594707
vt 0.567594 0.593115
vt 0.561935 0.445531
vt 0.510409 0.175695
vt 0.496997 0.323387
vt 0.487554 0.322529
vt 0.500966 0.174837
vt 0.468899 0.319113
vt 0.495503 0.173837
vt 0.515962 0.175695
vt 0.515962 0.323387
vt 0.485839 0.341416
vt 0.495282 0.342274
vt 0.615954 0.188055
vt 0.615954 0.336557
vt 0.589166 0.337958
vt 0.581423 0.189860
vt 0.570215 0.337231
vt 0.575873 0.189647
vt 0.610956 0.042374
vt 0.660822 0.042374
vt 0.660822 0.061339
vt 0.610956 0.061339
vt 0.660822 0.101914
vt 0.610956 0.101914
vt 0.610956 0.001800
vt 0.660822 0.001800
vt 0.602510 0.648173
vt 0.602510 0.598307
vt 0.621475 0.598307
vt 0.621475 0.648173
vt 0.662050 0.598307
vt 0.662050 0.648173
vt 0.561935 0.648173
vt 0.561935 0.598307
vt 0.296438 0.205381
vt 0.277473 0.205381
vt 0.277473 0.020765
vt 0.296438 0.020765
vt 0.337012 0.205381
vt 0.337012 0.224346
vt 0.296438 0.224346
vt 0.337012 0.020765
vt 0.370600 0.624715
vt 0.370600 0.584140
vt 0.555217 0.584140
vt 0.555217 0.624715
vt 0.296438 0.001800
vt 0.337012 0.001800
vt 0.659533 0.461523
vt 0.676251 0.461523
vt 0.676251 0.497228
vt 0.659533 0.497228
vt 0.692015 0.018518
vt 0.681140 0.018518
vt 0.681140 0.001800
vt 0.692015 0.001800
vt 0.692015 0.070942
vt 0.681140 0.070942
vt 0.681140 0.054224
vt 0.692015 0.054224
vt 0.487900 0.724539
vt 0.370600 0.724539
vt 0.370600 0.715057
vt 0.487899 0.715057
vt 0.370600 0.705574
vt 0.487900 0.705574
vt 0.487900 0.734021
vt 0.370600 0.734021
vt 0.611275 0.547365
vt 0.728574 0.547365
vt 0.728574 0.556848
vt 0.611275 0.556848
vt 0.728574 0.566330
vt 0.611275 0.566330
vt 0.611275 0.537883
vt 0.728574 0.537883
vt 0.667812 0.204773
vt 0.684531 0.204773
vt 0.684531 0.240479
vt 0.667812 0.240479
vt 0.687126 0.461523
vt 0.676251 0.444804
vt 0.687126 0.444804
vt 0.687126 0.513947
vt 0.676251 0.513947
vt 0.687126 0.497228
vt 0.561935 0.661255
vt 0.679234 0.661255
vt 0.679234 0.670738
vt 0.561935 0.670738
vt 0.679234 0.680220
vt 0.561935 0.680220
vt 0.561935 0.651773
vt 0.679234 0.651773
vt 0.679234 0.702785
vt 0.561935 0.702785
vt 0.561935 0.693302
vt 0.679234 0.693302
vt 0.561935 0.683820
vt 0.679234 0.683820
vt 0.679234 0.712267
vt 0.561935 0.712267
vt 0.695405 0.204773
vt 0.684531 0.188055
vt 0.695405 0.188055
vt 0.695405 0.257197
vt 0.684531 0.257197
vt 0.695405 0.240479
vt 0.443686 0.345245
vt 0.443686 0.227946
vt 0.453168 0.227946
vt 0.453168 0.345245
vt 0.462651 0.227946
vt 0.462651 0.345245
vt 0.434204 0.345245
vt 0.434203 0.227946
vt 0.736853 0.300098
vt 0.619554 0.300098
vt 0.619554 0.290616
vt 0.736853 0.290616
vt 0.619554 0.281133
vt 0.736853 0.281133
vt 0.664422 0.018518
vt 0.664422 0.054224
vt 0.736853 0.309580
vt 0.619554 0.309581
vt 0.569428 0.053400
vt 0.519562 0.053400
vt 0.519562 0.039728
vt 0.569428 0.039728
vt 0.519562 0.001800
vt 0.569428 0.001800
vt 0.569428 0.091328
vt 0.519562 0.091328
vt 0.607356 0.039728
vt 0.607356 0.053400
vt 0.408529 0.528941
vt 0.458395 0.528941
vt 0.458395 0.542613
vt 0.408529 0.542613
vt 0.458395 0.580541
vt 0.408529 0.580541
vt 0.408529 0.491013
vt 0.458395 0.491013
vt 0.370600 0.542613
vt 0.370600 0.528941
vt 0.520408 0.496404
vt 0.470541 0.496404
vt 0.470541 0.482732
vt 0.520408 0.482732
vt 0.470541 0.444804
vt 0.520408 0.444804
vt 0.520408 0.534332
vt 0.470541 0.534332
vt 0.558336 0.482732
vt 0.558336 0.496404
vt 0.556625 0.403277
vt 0.506759 0.403276
vt 0.506759 0.389605
vt 0.556625 0.389605
vt 0.506759 0.351677
vt 0.556625 0.351677
vt 0.556625 0.441205
vt 0.506759 0.441205
vt 0.594554 0.389605
vt 0.594554 0.403277
vt 0.569428 0.146527
vt 0.519562 0.146527
vt 0.519562 0.132855
vt 0.569428 0.132855
vt 0.519562 0.094927
vt 0.569428 0.094927
vt 0.569428 0.184455
vt 0.519562 0.184455
vt 0.607356 0.132855
vt 0.607356 0.146527
vt 0.329073 0.528941
vt 0.329073 0.578807
vt 0.315401 0.578807
vt 0.315401 0.528941
vt 0.277473 0.578807
vt 0.277473 0.528941
vt 0.367001 0.528941
vt 0.367001 0.578807
vt 0.315401 0.491013
vt 0.329073 0.491013
vt 0.503160 0.441205
vt 0.320082 0.441205
vt 0.320082 0.398595
vt 0.503160 0.398596
vt 0.313691 0.404987
vt 0.283864 0.404987
vt 0.277473 0.398595
vt 0.283864 0.434813
vt 0.277473 0.441205
vt 0.313691 0.434813
vt 0.629286 0.410072
vt 0.659112 0.410072
vt 0.665138 0.429971
vt 0.623260 0.429971
vt 0.655933 0.474631
vt 0.655933 0.504457
vt 0.611275 0.504457
vt 0.611275 0.474631
vt 0.655933 0.534283
vt 0.611275 0.534283
vt 0.655933 0.444804
vt 0.611275 0.444804
vt 0.629286 0.380246
vt 0.659112 0.380246
vt 0.598153 0.410072
vt 0.598153 0.380246
vt 0.604179 0.374220
vt 0.604179 0.416098
vt 0.623260 0.360347
vt 0.665138 0.360347
vt 0.623260 0.355139
vt 0.665138 0.355139
vt 0.665138 0.435179
vt 0.623260 0.435179
vt 0.609386 0.374220
vt 0.609386 0.416098
vt 0.629286 0.349114
vt 0.659112 0.349114
vt 0.659112 0.441205
vt 0.629285 0.441205
vt 0.277473 0.444804
vt 0.460550 0.444804
vt 0.460550 0.487413
vt 0.277473 0.487413
vt 0.664213 0.188055
vt 0.664213 0.217881
vt 0.619554 0.217881
vt 0.619554 0.188055
vt 0.356994 0.178651
vt 0.356994 0.208478
vt 0.350603 0.214869
vt 0.350603 0.172260
vt 0.466942 0.451196
vt 0.466942 0.481022
vt 0.340612 0.208478
vt 0.340612 0.178651
vt 0.347003 0.172260
vt 0.347003 0.214869
vt 0.308605 0.643366
vt 0.338432 0.643366
vt 0.344457 0.663265
vt 0.302579 0.663265
vt 0.664213 0.247707
vt 0.619554 0.247707
vt 0.664213 0.277534
vt 0.619554 0.277534
vt 0.308605 0.613539
vt 0.338432 0.613539
vt 0.277473 0.643366
vt 0.277473 0.613539
vt 0.283499 0.607513
vt 0.283499 0.649391
vt 0.302579 0.593640
vt 0.344457 0.593640
vt 0.302579 0.588433
vt 0.344457 0.588433
vt 0.344457 0.668472
vt 0.302579 0.668472
vt 0.288706 0.607513
vt 0.288706 0.649391
vt 0.308605 0.582407
vt 0.338432 0.582407
vt 0.338432 0.674498
vt 0.308605 0.674498
vn -1.0000 0.0000 -0.0000
vn 0.0000 0.0000 -1.0000
vn 0.0000 0.0000 1.0000
vn 0.0000 1.0000 0.0000
vn -0.7564 -0.0000 0.6541
vn -0.7564 -0.0000 -0.6541
vn -0.4157 0.9095 0.0000
vn 0.7175 -0.6965 0.0000
vn -0.9216 -0.3881 0.0000
vn 0.0000 -1.0000 0.0000
vn -0.8679 0.4967 0.0000
vn -0.9959 -0.0904 0.0000
vn 0.0000 0.3028 -0.9530
vn 0.0000 0.3028 0.9530
vn -0.9530 0.3028 0.0000
usemtl None
s off
f 9/1/1 12/2/1 4/3/1 3/4/1
f 3/4/2 4/3/2 8/5/2 7/6/2
f 5/7/3 6/8/3 2/9/3 1/10/3
f 14/11/4 11/12/4 2/13/4 6/14/4
f 8/15/4 4/16/4 12/17/4 13/18/4
f 20/19/4 17/20/4 11/12/4 14/11/4
f 1/10/1 2/9/1 11/21/1 10/22/1
f 29/23/5 18/24/5 12/2/5 9/1/5
f 10/22/6 11/21/6 17/25/6 37/26/6
f 36/27/1 18/24/1 29/23/1
f 13/18/4 12/17/4 18/28/4 19/29/4
f 15/30/1 34/31/1 30/32/1
f 24/33/7 26/34/7 43/35/7 42/36/7
f 10/22/6 37/26/6 38/37/6
f 30/38/5 29/23/5 9/1/5
f 21/39/8 35/40/8 52/41/8 49/42/8
f 32/43/3 31/44/3 46/45/3 48/46/3
f 16/47/1 38/48/1 39/49/1
f 16/47/1 39/49/1 34/31/1 15/30/1
f 19/29/4 18/28/4 17/20/4 20/19/4
f 37/26/1 17/25/1 40/50/1
f 40/50/1 17/25/1 18/24/1 36/27/1
f 26/51/1 24/52/1 30/32/1 34/31/1
f 23/53/1 28/54/1 36/27/1 29/23/1
f 25/55/1 31/56/1 34/31/1 39/49/1
f 32/57/1 27/58/1 40/50/1 36/27/1
f 22/59/1 33/60/1 39/49/1 38/48/1
f 35/61/1 21/62/1 37/26/1 40/50/1
f 31/44/7 25/63/7 45/64/7 46/45/7
f 35/40/3 33/65/3 51/66/3 52/41/3
f 28/67/8 23/68/8 41/69/8 44/70/8
f 27/71/8 32/43/8 48/46/8 47/72/8
f 22/73/2 21/74/2 49/75/2 50/76/2
f 26/34/2 28/77/2 44/78/2 43/35/2
f 25/63/2 27/79/2 47/80/2 45/64/2
f 33/65/7 22/73/7 50/76/7 51/66/7
f 23/68/3 24/33/3 42/36/3 41/69/3
f 53/81/9 54/82/9 56/83/9 55/84/9
f 55/84/2 56/83/2 60/85/2 59/86/2
f 57/87/3 58/88/3 54/82/3 53/81/3
f 55/84/10 59/86/10 57/87/10 53/81/10
f 60/85/4 56/83/4 54/82/4 58/88/4
f 61/89/9 62/90/9 64/91/9 63/92/9
f 63/92/2 64/91/2 68/93/2 67/94/2
f 65/95/3 66/96/3 62/90/3 61/89/3
f 63/92/10 67/94/10 65/95/10 61/89/10
f 68/93/4 64/91/4 62/90/4 66/96/4
f 69/97/9 70/98/9 72/99/9 71/100/9
f 71/100/2 72/99/2 76/101/2 75/102/2
f 73/103/3 74/104/3 70/98/3 69/97/3
f 71/100/10 75/102/10 73/103/10 69/97/10
f 76/101/4 72/99/4 70/98/4 74/104/4
f 77/105/11 78/106/11 80/107/11 79/108/11
f 79/108/4 82/109/4 81/110/4 77/105/4
f 83/111/12 84/112/12 86/113/12 85/114/12
f 85/114/2 86/113/2 90/115/2 89/116/2
f 87/117/3 88/118/3 84/112/3 83/111/3
f 90/119/4 86/113/4 84/112/4 88/120/4
f 91/121/12 92/122/12 94/123/12 93/124/12
f 95/125/3 96/126/3 92/122/3 91/121/3
f 97/127/12 98/128/12 100/129/12 99/130/12
f 99/130/2 100/129/2 104/131/2 103/132/2
f 101/133/3 102/134/3 98/128/3 97/127/3
f 104/135/4 100/129/4 98/128/4 102/136/4
f 105/137/12 106/138/12 108/139/12 107/140/12
f 107/140/2 108/139/2 110/141/2 109/142/2
f 111/143/1 112/144/1 114/145/1 113/146/1
f 113/146/2 114/145/2 118/147/2 117/148/2
f 115/149/3 116/150/3 112/144/3 111/143/3
f 119/151/1 120/152/1 122/153/1 121/154/1
f 121/154/2 122/153/2 126/155/2 125/156/2
f 123/157/3 124/158/3 120/152/3 119/151/3
f 127/159/1 128/160/1 130/161/1 129/162/1
f 131/163/3 132/164/3 128/165/3 127/159/3
f 129/162/10 133/166/10 131/163/10 127/159/10
f 134/167/4 130/168/4 128/169/4 132/170/4
f 129/162/2 130/171/2 134/172/2 133/166/2
f 166/173/4 162/174/4 160/175/4 164/176/4
f 137/177/2 138/178/2 142/179/2 141/180/2
f 139/181/3 140/182/3 136/183/3 135/184/3
f 135/184/1 136/183/1 138/178/1 137/177/1
f 143/185/1 144/186/1 146/187/1 145/188/1
f 145/188/2 146/187/2 150/189/2 149/190/2
f 147/191/3 148/192/3 144/186/3 143/185/3
f 151/193/1 152/194/1 154/195/1 153/196/1
f 153/196/2 154/195/2 158/197/2 157/198/2
f 155/199/3 156/200/3 152/194/3 151/193/3
f 190/201/4 186/202/4 184/203/4 188/204/4
f 161/205/2 162/174/2 166/206/2 165/207/2
f 163/208/3 164/209/3 160/175/3 159/210/3
f 159/210/1 160/175/1 162/174/1 161/205/1
f 167/211/1 168/212/1 170/213/1 169/214/1
f 169/214/2 170/213/2 174/215/2 173/216/2
f 171/217/3 172/218/3 168/212/3 167/211/3
f 175/219/1 176/220/1 178/221/1 177/222/1
f 177/222/2 178/221/2 182/223/2 181/224/2
f 179/225/3 180/226/3 176/220/3 175/219/3
f 185/227/2 186/202/2 190/228/2 189/229/2
f 187/230/3 188/231/3 184/203/3 183/232/3
f 183/232/1 184/203/1 186/202/1 185/227/1
f 191/233/1 192/234/1 194/235/1 193/236/1
f 193/236/2 194/235/2 198/237/2 197/238/2
f 195/239/3 196/240/3 192/234/3 191/233/3
f 199/241/1 200/242/1 202/243/1 201/244/1
f 201/244/2 202/243/2 206/245/2 205/246/2
f 142/247/4 138/178/4 136/183/4 140/248/4
f 203/249/3 204/250/3 200/242/3 199/241/3
f 207/251/1 208/252/1 210/253/1 209/254/1
f 209/254/2 210/253/2 214/255/2 213/256/2
f 211/257/3 212/258/3 208/252/3 207/251/3
f 209/254/10 213/259/10 211/260/10 207/251/10
f 215/261/1 216/262/1 218/263/1 217/264/1
f 217/264/2 218/263/2 222/265/2 221/266/2
f 219/267/3 220/268/3 216/262/3 215/261/3
f 217/264/10 221/269/10 219/270/10 215/261/10
f 223/271/1 224/272/1 226/273/1 225/274/1
f 225/274/2 226/273/2 230/275/2 229/276/2
f 227/277/3 228/278/3 224/272/3 223/271/3
f 225/274/10 229/279/10 227/280/10 223/271/10
f 231/281/1 232/282/1 234/283/1 233/284/1
f 233/284/2 234/283/2 238/285/2 237/286/2
f 235/287/3 236/288/3 232/282/3 231/281/3
f 233/284/10 237/289/10 235/290/10 231/281/10
f 239/291/1 240/292/1 242/293/1 241/294/1
f 241/294/2 242/293/2 246/295/2 245/296/2
f 243/297/3 244/298/3 240/292/3 239/291/3
f 241/294/10 245/299/10 243/300/10 239/291/10
f 247/301/1 248/302/1 250/303/1 249/304/1
f 249/304/2 250/303/2 254/305/2 253/306/2
f 251/307/3 252/308/3 248/302/3 247/301/3
f 249/304/10 253/309/10 251/310/10 247/301/10
f 258/311/3 264/312/3 261/313/3 255/314/3
f 256/315/4 257/316/4 262/317/4 261/313/4
f 257/316/4 260/318/4 263/319/4 262/317/4
f 259/320/4 256/315/4 261/313/4 264/312/4
f 270/321/13 271/322/13 279/323/13 278/324/13
f 257/325/1 256/326/1 265/327/1 266/328/1
f 256/326/3 259/329/3 268/330/3 265/327/3
f 260/331/2 257/325/2 266/328/2 267/332/2
f 271/322/4 270/321/4 269/333/4 272/334/4
f 266/335/10 265/336/10 273/337/10 274/338/10
f 272/334/14 269/333/14 277/339/14 280/340/14
f 273/341/3 276/342/3 280/340/3 277/339/3
f 275/343/2 274/344/2 278/324/2 279/323/2
f 274/338/1 273/337/1 277/345/1 278/346/1
f 265/347/10 268/348/10 276/342/10 273/341/10
f 267/349/10 266/350/10 274/344/10 275/343/10
f 269/333/15 270/321/15 278/346/15 277/345/15
f 282/351/2 288/352/2 289/353/2 285/354/2
f 286/355/2 283/356/2 292/357/2 293/358/2
f 281/359/4 283/360/4 288/361/4 287/362/4
f 283/363/4 286/364/4 289/353/4 288/352/4
f 284/365/4 281/366/4 287/367/4 290/368/4
f 296/369/13 297/370/13 305/371/13 304/372/13
f 283/356/1 281/373/1 291/374/1 292/357/1
f 281/373/3 284/375/3 294/376/3 291/374/3
f 297/370/4 296/369/4 295/377/4 298/378/4
f 292/379/10 291/380/10 299/381/10 300/382/10
f 298/378/14 295/377/14 303/383/14 306/384/14
f 299/385/3 302/386/3 306/384/3 303/383/3
f 301/387/2 300/388/2 304/372/2 305/371/2
f 300/382/1 299/381/1 303/389/1 304/390/1
f 291/391/10 294/392/10 302/386/10 299/385/10
f 293/393/10 292/394/10 300/388/10 301/387/10
f 295/377/15 296/369/15 304/390/15 303/389/15
