# Blender v3.1.2 OBJ File: 'Tête de pont.blend'
# www.blender.org
mtllib LD_Tete_de_pont.mtl
o Tête_de_pont_LD_Cylindre.001
v 0.102664 2.134555 -1.870995
v 0.102664 2.168956 -1.870995
v 0.102664 2.134555 1.870649
v 0.102664 2.168956 1.870649
v 0.137064 2.134555 -1.870995
v 0.137064 2.168956 -1.870995
v 0.137064 2.134555 1.870649
v 0.137064 2.168956 1.870649
v 0.084729 2.429291 -1.604043
v 0.392022 2.429291 -1.604040
v 0.393364 2.429291 1.603639
v 0.085981 2.429291 1.603652
v 0.085855 0.070709 1.341778
v 0.846378 0.070709 1.341766
v 0.845271 0.070709 -1.342162
v 0.084748 0.070709 -1.342150
v 0.085099 1.424179 -0.489790
v 0.084610 2.317230 -1.790240
v 0.084607 2.356331 -1.758137
v 0.084557 2.151760 -1.831480
v 0.085017 0.952749 -0.673090
v 0.085159 0.471020 -0.476652
v 0.085513 1.437849 0.474664
v 0.085503 0.474859 0.484494
v 0.085660 0.952820 0.680930
v 0.086054 2.151751 1.831196
v 0.086096 2.356331 1.757853
v 0.086101 2.317221 1.789857
v 0.391826 2.205830 -1.941342
v 0.845094 -0.000000 -1.422643
v -0.846282 -0.000000 -1.422264
v -0.846503 2.205830 -1.940943
v -0.844873 2.205820 1.941349
v -0.845094 0.000000 1.422639
v 0.846282 0.000000 1.422268
v 0.393363 2.205820 1.940950
v 0.393280 2.500000 1.699766
v 0.391900 2.500000 -1.700249
v -0.846420 2.500000 -1.699752
v -0.844956 2.500000 1.700157
v -0.844992 2.422661 1.863602
v -0.844931 2.381220 1.897607
v 0.393306 2.381220 1.897216
v 0.393336 2.422661 1.863196
v 0.391837 2.422670 -1.863587
v 0.391776 2.381220 -1.897592
v -0.846445 2.381220 -1.897202
v -0.846491 2.422670 -1.863181
v 0.391994 2.317230 -1.790253
v 0.392006 2.356331 -1.758150
v 0.391932 2.151760 -1.831591
v 0.393438 2.151751 1.831183
v 0.393380 2.356331 1.757749
v 0.393394 2.317221 1.789852
v 0.085357 1.630911 -0.001397
v 0.085357 0.267149 -0.001397
v 0.124352 0.952450 -0.618900
v 0.124241 0.952749 -0.673070
v 0.124314 1.424179 -0.489877
v 0.124427 1.386169 -0.450350
v 0.124779 1.398741 0.437050
v 0.124737 1.437849 0.474676
v 0.124784 0.952820 0.680851
v 0.124895 0.952520 0.626769
v 0.124613 1.576361 -0.000982
v 0.124481 1.630911 -0.001477
v 0.124742 0.474859 0.484512
v 0.124810 0.512791 0.446073
v 0.124613 0.321699 -0.000982
v 0.124481 0.267149 -0.001477
v 0.124291 0.471020 -0.476625
v 0.124421 0.509260 -0.438209
v 0.001640 0.951990 -0.533857
v 0.001431 0.952450 -0.618921
v 0.001530 1.386169 -0.450274
v 0.001665 1.326469 -0.388282
v 0.001974 1.337330 0.377925
v 0.001874 1.398741 0.437027
v 0.001974 0.952520 0.626748
v 0.002078 0.952040 0.541757
v 0.001871 1.490690 -0.000314
v 0.001708 1.576361 -0.001005
v 0.001905 0.512791 0.446057
v 0.002014 0.572371 0.385745
v 0.001871 0.407370 -0.000314
v 0.001708 0.321699 -0.001005
v 0.001523 0.509260 -0.438133
v 0.001621 0.569321 -0.377738
v 0.124386 0.715434 -0.565536
v 0.001631 0.747321 -0.487686
v 0.124266 0.695136 -0.615070
v 0.085088 0.695136 -0.615095
v 0.001477 0.715434 -0.565507
v 0.085058 1.205076 -0.622124
v 0.124389 1.184581 -0.572031
v 0.001653 1.152395 -0.493327
v 0.124278 1.205076 -0.622160
v 0.001481 1.184581 -0.572002
v 0.124398 1.567893 -0.262857
v 0.001618 1.518373 -0.241417
v 0.124520 1.518373 -0.241446
v 0.001768 1.440600 -0.207882
v 0.085228 1.567893 -0.262768
v 0.085435 1.575206 0.253215
v 0.124696 1.525099 0.233313
v 0.001923 1.446410 0.202039
v 0.124609 1.575206 0.253179
v 0.001791 1.525099 0.233289
v 0.085587 1.212427 0.618260
v 0.124837 1.191344 0.569160
v 0.002026 1.158232 0.492047
v 0.124760 1.212427 0.618224
v 0.001924 1.191344 0.569137
v 0.124763 0.697228 0.623486
v 0.001940 0.717361 0.573968
v 0.085581 0.697228 0.623519
v 0.124852 0.717361 0.573987
v 0.002046 0.748979 0.496231
v 0.001806 0.378885 0.235811
v 0.085429 0.329321 0.255965
v 0.124711 0.378885 0.235832
v 0.001942 0.456729 0.204229
v 0.124610 0.329321 0.255931
v 0.124517 0.377983 -0.234950
v 0.001746 0.455949 -0.202241
v 0.085258 0.328340 -0.255739
v 0.124386 0.328340 -0.255767
v 0.001616 0.377983 -0.234922
v 0.085955 0.770778 1.623066
v 0.791991 0.762458 1.720382
v -0.844984 0.762458 1.720777
v 0.792076 0.770778 1.623054
v -0.846393 0.762462 -1.720372
v 0.790771 0.770782 -1.623461
v 0.084653 0.770782 -1.623399
v 0.790627 0.762462 -1.720770
v 0.229742 0.051414 1.099846
v 0.229742 2.446098 1.099846
v 0.268010 0.051414 1.107458
v 0.268010 2.446098 1.107458
v 0.300453 0.051414 1.129135
v 0.300453 2.446098 1.129135
v 0.322130 0.051414 1.161577
v 0.322130 2.446098 1.161577
v 0.329742 0.051414 1.199846
v 0.329742 2.446098 1.199846
v 0.322130 0.051414 1.238114
v 0.322130 2.446098 1.238114
v 0.300453 0.051414 1.270556
v 0.300453 2.446098 1.270556
v 0.268010 0.051414 1.292234
v 0.268010 2.446098 1.292234
v 0.229742 0.051414 1.299846
v 0.229742 2.446098 1.299846
v 0.191474 0.051414 1.292234
v 0.191474 2.446098 1.292234
v 0.159031 0.051414 1.270556
v 0.159031 2.446098 1.270556
v 0.137354 0.051414 1.238114
v 0.137354 2.446098 1.238114
v 0.129742 0.051414 1.199846
v 0.129742 2.446098 1.199846
v 0.137354 0.051414 1.161577
v 0.137354 2.446098 1.161577
v 0.159031 0.051414 1.129135
v 0.159031 2.446098 1.129135
v 0.191474 0.051414 1.107458
v 0.191474 2.446098 1.107458
v 0.229742 0.051414 -1.300154
v 0.229742 2.446098 -1.300154
v 0.268010 0.051414 -1.292542
v 0.268010 2.446098 -1.292542
v 0.300453 0.051414 -1.270864
v 0.300453 2.446098 -1.270864
v 0.322130 0.051414 -1.238422
v 0.322130 2.446098 -1.238422
v 0.329742 0.051414 -1.200154
v 0.329742 2.446098 -1.200154
v 0.322130 0.051414 -1.161885
v 0.322130 2.446098 -1.161885
v 0.300453 0.051414 -1.129443
v 0.300453 2.446098 -1.129443
v 0.268010 0.051414 -1.107766
v 0.268010 2.446098 -1.107766
v 0.229742 0.051414 -1.100154
v 0.229742 2.446098 -1.100154
v 0.191474 0.051414 -1.107766
v 0.191474 2.446098 -1.107766
v 0.159031 0.051414 -1.129443
v 0.159031 2.446098 -1.129443
v 0.137354 0.051414 -1.161885
v 0.137354 2.446098 -1.161885
v 0.129742 0.051414 -1.200154
v 0.129742 2.446098 -1.200154
v 0.137354 0.051414 -1.238422
v 0.137354 2.446098 -1.238422
v 0.159031 0.051414 -1.270864
v 0.159031 2.446098 -1.270864
v 0.191474 0.051414 -1.292542
v 0.191474 2.446098 -1.292542
vt 0.770864 0.424678
vt 0.776247 0.424722
vt 0.776247 0.733142
vt 0.770864 0.733098
vt 0.765482 0.424633
vt 0.765482 0.733053
vt 0.781629 0.424767
vt 0.781629 0.733187
vt 0.356863 0.091868
vt 0.393427 0.069936
vt 0.394149 0.447894
vt 0.360875 0.426625
vt 0.039695 0.451951
vt 0.011525 0.076608
vt 0.108501 0.132341
vt 0.113734 0.391650
vt 0.402626 0.461574
vt 0.402626 0.055227
vt 0.545268 0.280318
vt 0.545273 0.286407
vt 0.404641 0.286410
vt 0.404647 0.280322
vt 0.404627 0.719681
vt 0.404620 0.713591
vt 0.545252 0.713589
vt 0.545246 0.719678
vt 0.390851 0.027424
vt 0.377926 0.044825
vt 0.371505 0.038909
vt 0.384726 0.021212
vt 0.358641 0.503014
vt 0.347249 0.488783
vt 0.372921 0.475286
vt 0.384447 0.491949
vt 0.404622 0.740210
vt 0.545254 0.740207
vt 0.404652 0.306945
vt 0.545274 0.306940
vt 0.138369 0.548186
vt 0.133358 0.551751
vt 0.113930 0.533153
vt 0.117250 0.527973
vt 0.404630 0.906030
vt 0.590540 0.906028
vt 0.120713 0.654663
vt 0.117112 0.649713
vt 0.136263 0.630346
vt 0.141527 0.633612
vt 0.343568 0.023741
vt 0.356087 0.008148
vt 0.404622 0.693059
vt 0.545253 0.693066
vt 0.344535 0.072669
vt 0.327563 0.068447
vt 0.390232 0.486562
vt 0.379020 0.470181
vt 0.063728 0.667654
vt 0.064685 0.661665
vt 0.092611 0.661587
vt 0.094078 0.667573
vt 0.151358 0.604702
vt 0.145306 0.603748
vt 0.145310 0.575672
vt 0.151358 0.574188
vt 0.031986 0.530086
vt 0.035485 0.535099
vt 0.015872 0.554131
vt 0.010668 0.550770
vt 0.763421 0.727726
vt 0.749462 0.727729
vt 0.749464 0.700329
vt 0.763422 0.700326
vt 0.763481 0.507543
vt 0.749522 0.507542
vt 0.749525 0.480801
vt 0.763482 0.480800
vt 0.353521 0.440922
vt 0.124270 0.000997
vt 0.125323 0.014992
vt 0.000997 0.065035
vt 0.030232 0.463992
vt 0.763431 0.672018
vt 0.749473 0.672021
vt 0.749483 0.644354
vt 0.763441 0.644350
vt 0.348901 0.075983
vt 0.545273 0.259788
vt 0.404651 0.259793
vt 0.089007 0.517890
vt 0.087946 0.523876
vt 0.060428 0.523570
vt 0.059092 0.517561
vt 0.000997 0.579246
vt 0.006974 0.580328
vt 0.007052 0.608636
vt 0.001077 0.610020
vt 0.013972 0.636863
vt 0.018911 0.633336
vt 0.038270 0.652686
vt 0.035013 0.657893
vt 0.279732 0.545735
vt 0.271864 0.551329
vt 0.255096 0.535267
vt 0.260307 0.527133
vt 0.291682 0.597731
vt 0.282182 0.596225
vt 0.282188 0.571982
vt 0.291682 0.569660
vt 0.263493 0.643692
vt 0.257840 0.635913
vt 0.274380 0.619186
vt 0.282643 0.624323
vt 0.211067 0.655646
vt 0.212572 0.646238
vt 0.236690 0.646165
vt 0.238993 0.655567
vt 0.181858 0.529087
vt 0.187354 0.536958
vt 0.170428 0.553384
vt 0.162249 0.548114
vt 0.234319 0.517862
vt 0.232652 0.527266
vt 0.208893 0.527004
vt 0.206798 0.517561
vt 0.153352 0.574312
vt 0.162740 0.576010
vt 0.162811 0.600452
vt 0.153431 0.602620
vt 0.165291 0.627320
vt 0.173047 0.621781
vt 0.189767 0.638483
vt 0.184651 0.646668
vt 0.333160 0.447564
vt 0.349453 0.443943
vt 0.590546 0.093969
vt 0.404642 0.093973
vt 0.874462 0.210119
vt 0.878906 0.210118
vt 0.878906 0.239821
vt 0.874463 0.239828
vt 0.763482 0.534439
vt 0.749522 0.534436
vt 0.763470 0.562030
vt 0.749511 0.562026
vt 0.874458 0.330448
vt 0.878908 0.330448
vt 0.878906 0.360196
vt 0.874463 0.360198
vt 0.874542 0.000997
vt 0.878985 0.001004
vt 0.878989 0.031539
vt 0.874540 0.031531
vt 0.763468 0.838149
vt 0.749510 0.838151
vt 0.749490 0.810925
vt 0.763448 0.810922
vt 0.874478 0.390527
vt 0.878927 0.390524
vt 0.878957 0.420875
vt 0.874502 0.420880
vt 0.874530 0.062045
vt 0.878983 0.062052
vt 0.878962 0.091119
vt 0.874508 0.091114
vt 0.763434 0.782997
vt 0.749475 0.782999
vt 0.749462 0.755099
vt 0.763422 0.755096
vt 0.874460 0.269896
vt 0.878910 0.269894
vt 0.878917 0.300668
vt 0.874461 0.300665
vt 0.763484 0.452728
vt 0.749527 0.452725
vt 0.749530 0.424633
vt 0.763487 0.424643
vt 0.878932 0.120352
vt 0.874477 0.120348
vt 0.142361 0.502713
vt 0.180176 0.425967
vt 0.878914 0.150340
vt 0.874465 0.150337
vt 0.763460 0.589553
vt 0.749503 0.589546
vt 0.171468 0.097730
vt 0.874522 0.450474
vt 0.878971 0.450473
vt 0.878989 0.480077
vt 0.874545 0.480073
vt 0.763450 0.617027
vt 0.749492 0.617025
vt 0.878903 0.180257
vt 0.874459 0.180253
vt 0.141962 0.515567
vt 0.763488 0.865386
vt 0.749530 0.865389
vt 0.623815 0.209849
vt 0.598712 0.363590
vt 0.605034 0.054420
vt 0.843049 0.000997
vt 0.706247 0.134451
vt 0.685362 0.024185
vt 0.842150 0.422639
vt 0.679096 0.397045
vt 0.702087 0.287446
vt 0.783064 0.208369
vt 0.872464 0.024808
vt 0.872464 0.398342
vt 0.760204 0.153511
vt 0.733332 0.145361
vt 0.860527 0.005242
vt 0.864671 0.008603
vt 0.770391 0.181328
vt 0.860110 0.418363
vt 0.864382 0.414946
vt 0.759888 0.263168
vt 0.770389 0.234710
vt 0.730371 0.273884
vt 0.649086 0.156294
vt 0.637431 0.184314
vt 0.678268 0.146749
vt 0.636305 0.236045
vt 0.646776 0.264337
vt 0.674475 0.274345
vt 0.596718 0.000997
vt 0.404636 0.000999
vt 0.404636 0.999003
vt 0.596718 0.999002
vt 0.617058 0.424695
vt 0.617058 0.687449
vt 0.612471 0.687454
vt 0.612471 0.424700
vt 0.607885 0.687459
vt 0.607885 0.424706
vt 0.603299 0.687464
vt 0.603299 0.424711
vt 0.598712 0.687469
vt 0.598712 0.424716
vt 0.672093 0.424633
vt 0.672093 0.687387
vt 0.667507 0.687392
vt 0.667507 0.424639
vt 0.662920 0.687397
vt 0.662920 0.424644
vt 0.658334 0.687403
vt 0.658334 0.424649
vt 0.653748 0.687408
vt 0.653748 0.424654
vt 0.649162 0.687413
vt 0.649162 0.424659
vt 0.644575 0.687418
vt 0.644575 0.424664
vt 0.639989 0.687423
vt 0.639989 0.424670
vt 0.635403 0.687428
vt 0.635403 0.424675
vt 0.630816 0.687434
vt 0.630816 0.424680
vt 0.626230 0.687439
vt 0.626230 0.424685
vt 0.621644 0.687444
vt 0.621644 0.424690
vt 0.692432 0.424695
vt 0.692432 0.687449
vt 0.687846 0.687454
vt 0.687846 0.424700
vt 0.683260 0.687459
vt 0.683260 0.424706
vt 0.678674 0.687464
vt 0.678674 0.424711
vt 0.674087 0.687469
vt 0.674087 0.424716
vt 0.747468 0.424633
vt 0.747468 0.687387
vt 0.742882 0.687392
vt 0.742882 0.424639
vt 0.738295 0.687397
vt 0.738295 0.424644
vt 0.733709 0.687403
vt 0.733709 0.424649
vt 0.729123 0.687408
vt 0.729123 0.424654
vt 0.724536 0.687413
vt 0.724536 0.424659
vt 0.719950 0.687418
vt 0.719950 0.424664
vt 0.715364 0.687423
vt 0.715364 0.424670
vt 0.710778 0.687428
vt 0.710778 0.424675
vt 0.706191 0.687433
vt 0.706191 0.424680
vt 0.701605 0.687439
vt 0.701605 0.424685
vt 0.697019 0.687444
vt 0.697019 0.424690
vn -1.0000 0.0000 0.0000
vn 0.0000 1.0000 0.0000
vn 0.0000 -1.0000 0.0000
vn 1.0000 0.0015 -0.0004
vn 0.0002 0.6344 0.7730
vn -0.0002 0.6343 -0.7731
vn 1.0000 0.0004 -0.0016
vn 1.0000 0.0010 -0.0007
vn 1.0000 0.0004 0.0005
vn -0.0003 0.2420 -0.9703
vn 0.0001 0.9039 0.4277
vn 1.0000 0.0003 -0.0021
vn -0.0003 -0.1511 -0.9885
vn 1.0000 0.0021 0.0000
vn 1.0000 0.0003 -0.0013
vn 0.0002 -0.2421 0.9703
vn 1.0000 0.0007 0.0001
vn 1.0000 0.0007 0.0009
vn 1.0000 0.0017 -0.0015
vn 1.0000 -0.0023 -0.0009
vn 0.0001 0.5302 -0.8479
vn 0.0004 -0.5168 0.8561
vn -0.0001 -0.9039 -0.4278
vn 0.9976 0.0626 -0.0296
vn 1.0000 -0.0019 -0.0004
vn 0.0000 0.9721 -0.2347
vn -0.0002 0.9039 -0.4278
vn 0.0000 -0.9038 0.4279
vn 1.0000 0.0002 0.0005
vn 0.0003 0.2420 0.9703
vn 1.0000 -0.0011 -0.0021
vn 1.0000 -0.0016 0.0005
vn 1.0000 -0.0005 0.0018
vn 1.0000 0.0003 -0.0023
vn 1.0000 0.0012 -0.0013
vn 1.0000 0.0018 0.0001
vn 1.0000 0.0008 0.0009
vn 1.0000 -0.0016 -0.0009
vn 1.0000 -0.0007 -0.0013
vn 1.0000 -0.0015 0.0005
vn 1.0000 -0.0004 0.0012
vn -0.0000 -0.2424 -0.9702
vn 0.0003 -0.1510 0.9885
vn -0.0003 -0.9723 -0.2339
vn 0.0000 -0.1980 0.9802
vn 0.0000 0.2197 0.9756
vn -0.0001 -0.6339 -0.7734
vn 0.0014 -0.2191 0.9757
vn -0.0005 0.9721 -0.2344
vn 0.0001 -0.8498 -0.5271
vn 0.0003 0.5372 0.8435
vn -0.0013 0.5169 -0.8560
vn 0.0002 -0.2345 -0.9721
vn 0.0001 -0.8435 0.5371
vn 1.0000 -0.0004 -0.0021
vn 0.0000 -0.9721 0.2345
vn -0.0002 0.1979 -0.9802
vn 1.0000 0.0008 -0.0016
vn -0.0000 0.1490 -0.9888
vn 0.0006 -0.2196 -0.9756
vn 0.0004 0.5255 0.8508
vn 0.0000 0.3728 0.9279
vn 0.0003 0.9769 0.2137
vn 1.0000 0.0010 -0.0019
vn 0.0002 0.8400 0.5426
vn 0.0006 -0.5255 -0.8508
vn 1.0000 -0.0004 -0.0022
vn 0.9581 0.2797 -0.0611
vn 0.0000 -0.6346 0.7729
vn -0.0012 0.8449 -0.5349
vn 0.0002 -0.8450 0.5348
vn 1.0000 0.0017 -0.0008
vn 1.0000 0.0023 -0.0009
vn 0.0002 0.8498 0.5271
vn 0.0000 -0.9769 -0.2137
vn 1.0000 0.0013 0.0005
vn 1.0000 0.0013 0.0003
vn 0.0002 -0.5373 -0.8434
vn 0.0014 0.2346 0.9721
vn 1.0000 0.0005 0.0012
vn 1.0000 0.0006 0.0017
vn 0.0002 -0.5301 0.8480
vn 1.0000 -0.0008 0.0010
vn 1.0000 -0.0009 0.0012
vn 0.0002 0.2190 -0.9757
vn 0.0003 -0.9720 0.2348
vn 1.0000 -0.0018 0.0001
vn 1.0000 -0.0022 0.0001
vn 0.0001 0.8435 -0.5372
vn 0.0000 0.9723 0.2339
vn -0.0000 -0.8400 -0.5426
vn 1.0000 -0.0009 -0.0011
vn 1.0000 -0.0018 -0.0016
vn 1.0000 -0.0003 -0.0004
vn 1.0000 0.0000 -0.0004
vn 1.0000 -0.0000 -0.0003
vn 1.0000 -0.0002 -0.0005
vn 1.0000 -0.0000 -0.0006
vn 1.0000 -0.0001 -0.0005
vn 1.0000 -0.0006 -0.0010
vn 1.0000 -0.0001 -0.0004
vn 1.0000 0.0001 -0.0005
vn 1.0000 0.0001 -0.0004
vn 0.9976 0.0626 0.0289
vn -0.0000 0.3728 -0.9279
vn 0.0002 -0.3642 0.9313
vn 0.0002 0.1490 0.9888
vn 0.9581 0.2798 0.0607
vn -0.0002 -0.3642 -0.9313
vn 0.1951 0.0000 -0.9808
vn 0.5556 0.0000 -0.8315
vn 0.8315 0.0000 -0.5556
vn 0.9808 0.0000 -0.1951
vn 0.9808 0.0000 0.1951
vn 0.8315 0.0000 0.5556
vn 0.5556 0.0000 0.8315
vn 0.1951 0.0000 0.9808
vn -0.1951 0.0000 0.9808
vn -0.5556 0.0000 0.8315
vn -0.8315 0.0000 0.5556
vn -0.9808 0.0000 0.1951
vn -0.9808 0.0000 -0.1951
vn -0.8315 0.0000 -0.5556
vn -0.5556 0.0000 -0.8315
vn -0.1951 0.0000 -0.9808
usemtl Matériau
s off
f 7/1/1 8/2/1 6/3/1 5/4/1
f 3/5/2 7/1/2 5/4/2 1/6/2
f 8/2/3 4/7/3 2/8/3 6/3/3
f 9/9/3 10/10/3 11/11/3 12/12/3
f 14/13/2 15/14/2 16/15/2 13/16/2
f 37/17/4 11/11/4 10/10/4 38/18/4
f 43/19/5 44/20/5 41/21/5 42/22/5
f 47/23/6 48/24/6 45/25/6 46/26/6
f 45/27/7 50/28/7 49/29/7 46/30/7
f 38/18/8 10/10/8 50/28/8 45/27/8
f 36/31/9 52/32/9 54/33/9 43/34/9
f 32/35/10 47/23/10 46/26/10 29/36/10
f 40/37/11 41/21/11 44/20/11 37/38/11
f 97/39/12 95/40/12 57/41/12 58/42/12
f 133/43/13 32/35/13 29/36/13 136/44/13
f 107/45/14 105/46/14 65/47/14 66/48/14
f 46/30/15 49/29/15 51/49/15 29/50/15
f 39/51/2 40/37/2 37/38/2 38/52/2
f 49/29/16 18/53/16 20/54/16 51/49/16
f 44/55/17 53/56/17 11/11/17 37/17/17
f 112/57/18 110/58/18 61/59/18 62/60/18
f 99/61/19 101/62/19 60/63/19 59/64/19
f 127/65/20 124/66/20 69/67/20 70/68/20
f 115/69/21 117/70/21 68/71/21 83/72/21
f 98/73/22 95/74/22 60/75/22 75/76/22
f 53/56/23 27/77/23 12/12/23 11/11/23
f 136/78/24 134/79/24 15/14/24 30/80/24
f 30/80/25 15/14/25 14/13/25 35/81/25
f 119/82/26 121/83/26 69/84/26 86/85/26
f 38/52/27 45/25/27 48/24/27 39/51/27
f 10/10/28 9/9/28 19/86/28 50/28/28
f 43/34/29 54/33/29 53/56/29 44/55/29
f 36/87/30 43/19/30 42/22/30 33/88/30
f 91/89/31 89/90/31 72/91/31 71/92/31
f 123/93/32 121/94/32 68/95/32 67/96/32
f 114/97/33 117/98/33 64/99/33 63/100/33
f 98/101/34 96/102/34 73/103/34 74/104/34
f 100/105/35 102/106/35 76/107/35 75/108/35
f 108/109/36 106/110/36 81/111/36 82/112/36
f 113/113/37 111/114/37 77/115/37 78/116/37
f 128/117/38 125/118/38 85/119/38 86/120/38
f 93/121/39 90/122/39 88/123/39 87/124/39
f 119/125/40 122/126/40 84/127/40 83/128/40
f 115/129/41 118/130/41 80/131/41 79/132/41
f 52/32/42 26/133/42 28/134/42 54/33/42
f 130/135/43 36/87/43 33/88/43 131/136/43
f 126/137/44 127/138/44 70/139/44 56/140/44
f 74/141/45 57/142/45 95/74/45 98/73/45
f 93/143/46 89/144/46 57/142/46 74/141/46
f 54/33/47 28/134/47 27/77/47 53/56/47
f 116/145/48 114/146/48 63/147/48 25/148/48
f 55/149/49 66/150/49 99/151/49 103/152/49
f 108/153/50 105/154/50 61/155/50 78/156/50
f 109/157/51 112/158/51 62/159/51 23/160/51
f 17/161/52 59/162/52 97/163/52 94/164/52
f 113/165/53 110/166/53 64/167/53 79/168/53
f 120/169/54 123/170/54 67/171/54 24/172/54
f 74/104/55 73/103/55 90/122/55 93/121/55
f 100/173/56 101/174/56 65/175/56 82/176/56
f 94/164/57 97/163/57 58/177/57 21/178/57
f 75/108/58 76/107/58 96/102/58 98/101/58
f 132/179/59 129/180/59 26/133/59 52/32/59
f 21/178/60 58/177/60 91/181/60 92/182/60
f 87/183/61 72/184/61 89/144/61 93/143/61
f 134/79/62 135/185/62 16/15/62 15/14/62
f 104/186/63 107/187/63 66/188/63 55/189/63
f 59/64/64 60/63/64 95/40/64 97/39/64
f 128/190/65 124/191/65 72/184/65 87/183/65
f 92/182/66 91/181/66 71/192/66 22/193/66
f 58/42/67 57/41/67 89/90/67 91/89/67
f 130/194/68 132/179/68 52/32/68 36/31/68
f 50/28/69 19/86/69 18/53/69 49/29/69
f 103/152/70 99/151/70 59/162/70 17/161/70
f 75/76/71 60/75/71 101/174/71 100/173/71
f 82/112/72 81/111/72 102/106/72 100/105/72
f 66/48/73 65/47/73 101/62/73 99/61/73
f 23/160/74 62/159/74 107/187/74 104/186/74
f 82/195/75 65/196/75 105/154/75 108/153/75
f 78/116/76 77/115/76 106/110/76 108/109/76
f 62/60/77 61/59/77 105/46/77 107/45/77
f 78/156/78 61/155/78 110/166/78 113/165/78
f 25/148/79 63/147/79 112/158/79 109/157/79
f 79/132/80 80/131/80 111/114/80 113/113/80
f 63/100/81 64/99/81 110/58/81 112/57/81
f 24/172/82 67/171/82 114/146/82 116/145/82
f 83/128/83 84/127/83 118/130/83 115/129/83
f 67/96/84 68/95/84 117/98/84 114/97/84
f 79/168/85 64/167/85 117/70/85 115/69/85
f 56/140/86 70/139/86 123/170/86 120/169/86
f 86/120/87 85/119/87 122/126/87 119/125/87
f 70/68/88 69/67/88 121/94/88 123/93/88
f 83/72/89 68/71/89 121/83/89 119/82/89
f 86/85/90 69/84/90 124/191/90 128/190/90
f 22/193/91 71/192/91 127/138/91 126/137/91
f 87/124/92 88/123/92 125/118/92 128/117/92
f 71/92/93 72/91/93 124/66/93 127/65/93
f 56/197/94 13/198/94 16/199/94
f 20/200/95 21/201/95 16/199/95 135/202/95
f 26/203/96 129/204/96 13/198/96 25/205/96
f 55/206/95 9/207/95 12/208/95
f 21/201/95 20/200/95 17/209/95 94/210/95
f 17/209/97 20/200/97 9/207/97
f 9/207/98 20/200/98 18/211/98 19/212/98
f 9/207/99 55/206/99 103/213/99 17/209/99
f 28/214/100 26/203/100 12/208/100 27/215/100
f 26/203/95 23/216/95 12/208/95
f 104/217/101 55/206/101 12/208/101 23/216/101
f 25/205/102 109/218/102 23/216/102 26/203/102
f 56/197/99 16/199/99 22/219/99 126/220/99
f 16/199/102 21/201/102 92/221/102 22/219/102
f 120/222/103 24/223/103 13/198/103 56/197/103
f 25/205/99 13/198/99 24/223/99 116/224/99
f 35/81/104 14/13/104 132/179/104 130/194/104
f 14/13/105 13/16/105 129/180/105 132/179/105
f 35/225/106 130/135/106 131/136/106 34/226/106
f 51/49/107 20/54/107 135/185/107 134/79/107
f 29/50/108 51/49/108 134/79/108 136/78/108
f 31/227/109 133/43/109 136/44/109 30/228/109
f 137/229/110 138/230/110 140/231/110 139/232/110
f 139/232/111 140/231/111 142/233/111 141/234/111
f 141/234/112 142/233/112 144/235/112 143/236/112
f 143/236/113 144/235/113 146/237/113 145/238/113
f 145/239/114 146/240/114 148/241/114 147/242/114
f 147/242/115 148/241/115 150/243/115 149/244/115
f 149/244/116 150/243/116 152/245/116 151/246/116
f 151/246/117 152/245/117 154/247/117 153/248/117
f 153/248/118 154/247/118 156/249/118 155/250/118
f 155/250/119 156/249/119 158/251/119 157/252/119
f 157/252/120 158/251/120 160/253/120 159/254/120
f 159/254/121 160/253/121 162/255/121 161/256/121
f 161/256/122 162/255/122 164/257/122 163/258/122
f 163/258/123 164/257/123 166/259/123 165/260/123
f 165/260/124 166/259/124 168/261/124 167/262/124
f 167/262/125 168/261/125 138/230/125 137/229/125
f 169/263/110 170/264/110 172/265/110 171/266/110
f 171/266/111 172/265/111 174/267/111 173/268/111
f 173/268/112 174/267/112 176/269/112 175/270/112
f 175/270/113 176/269/113 178/271/113 177/272/113
f 177/273/114 178/274/114 180/275/114 179/276/114
f 179/276/115 180/275/115 182/277/115 181/278/115
f 181/278/116 182/277/116 184/279/116 183/280/116
f 183/280/117 184/279/117 186/281/117 185/282/117
f 185/282/118 186/281/118 188/283/118 187/284/118
f 187/284/119 188/283/119 190/285/119 189/286/119
f 189/286/120 190/285/120 192/287/120 191/288/120
f 191/288/121 192/287/121 194/289/121 193/290/121
f 193/290/122 194/289/122 196/291/122 195/292/122
f 195/292/123 196/291/123 198/293/123 197/294/123
f 197/294/124 198/293/124 200/295/124 199/296/124
f 199/296/125 200/295/125 170/264/125 169/263/125
