# Blender v3.0.0 OBJ File: 'Bush.blend'
# www.blender.org
mtllib Buisson_petit_LOD1.mtl
o Cube.016_Cube.017
v 3.579837 -1.000000 -50.631630
v 3.624723 0.574545 -50.655167
v 3.638309 -1.000000 -53.010597
v 3.624723 0.607158 -52.955601
v 5.395240 -1.000000 -50.613407
v 5.316819 0.574545 -50.655167
v 5.316494 -1.000000 -53.069275
v 5.316819 0.607158 -52.955601
v 4.147330 -1.000000 -51.270546
v 4.856349 -1.000000 -51.270546
v 4.147330 -1.000000 -52.280148
v 4.856349 -1.000000 -52.280148
v 3.438311 -1.000000 -52.280148
v 3.438311 -1.000000 -51.270546
v 3.299885 0.939455 -51.361675
v 3.299885 0.939455 -52.158638
v 5.565369 -1.000000 -51.270546
v 5.565369 -1.000000 -52.280148
v 5.641657 1.027833 -52.158638
v 5.641657 0.939455 -51.361675
v 4.147330 0.732220 -50.267658
v 4.856349 0.732220 -50.267658
v 4.856349 -1.000000 -50.351395
v 4.147330 -1.000000 -50.351395
v 3.438311 -0.548573 -50.351395
v 3.438311 -0.056782 -50.351395
v 3.438311 0.099804 -53.289749
v 3.438311 -0.505838 -53.289749
v 5.565369 0.099804 -53.289749
v 5.565369 -0.505838 -53.289749
v 5.565369 0.068869 -50.351395
v 5.565369 -0.384223 -50.351395
v 4.856349 0.764833 -53.373486
v 4.147330 0.764833 -53.373486
v 4.147330 -1.000000 -53.289749
v 4.856349 -1.000000 -53.289749
v 6.082207 0.300283 -52.280148
v 6.082207 -0.419422 -52.280148
v 6.082207 0.300283 -51.270546
v 6.082207 -0.419422 -51.270546
v 2.874285 0.300283 -51.270546
v 2.874285 -0.419422 -51.270546
v 2.874285 0.300283 -52.280148
v 2.874285 -0.419422 -52.280148
v 4.147330 1.450544 -52.280148
v 4.856349 1.450544 -52.280148
v 4.147330 1.450544 -51.270546
v 4.856349 1.450544 -51.270546
v 4.147330 -0.505838 -53.615696
v 4.856349 -0.505838 -53.615696
v 4.147330 0.099804 -53.615696
v 4.856349 0.099804 -53.615696
v 4.856349 -0.548573 -50.033955
v 4.147330 -0.548573 -50.033955
v 4.856349 0.002204 -50.033955
v 4.147330 0.002204 -50.033955
vt 0.000000 0.000000
vt 1.000000 0.000000
vt 1.000000 1.000000
vt 0.000000 1.000000
vt 0.000000 0.000000
vt 1.000000 0.000000
vt 1.000000 1.000000
vt 0.000000 1.000000
vt 0.000000 0.000000
vt 1.000000 0.000000
vt 1.000000 1.000000
vt 0.000000 1.000000
vt 0.000000 0.000000
vt 1.000000 0.000000
vt 1.000000 1.000000
vt 0.000000 1.000000
vt 0.000000 0.000000
vt 1.000000 0.000000
vt 1.000000 1.000000
vt 0.000000 1.000000
vt 0.000000 0.000000
vt 1.000000 0.000000
vt 1.000000 1.000000
vt 0.000000 1.000000
vt 0.000000 0.000000
vt 1.000000 0.000000
vt 1.000000 1.000000
vt 0.000000 1.000000
vt 0.000000 0.000000
vt 1.000000 0.000000
vt 1.000000 1.000000
vt 0.000000 1.000000
vt 0.000000 0.000000
vt 1.000000 0.000000
vt 1.000000 1.000000
vt 0.000000 1.000000
vt 0.000000 0.000000
vt 1.000000 0.000000
vt 0.000000 1.000000
vt 0.000000 0.000000
vt 1.000000 1.000000
vt 0.000000 1.000000
vt 1.000000 0.000000
vt 1.000000 1.000000
vt 0.000000 1.000000
vt 0.000000 0.000000
vt 1.000000 0.000000
vt 1.000000 1.000000
vt 0.000000 1.000000
vt 0.000000 0.000000
vt 1.000000 0.000000
vt 1.000000 1.000000
vt 0.000000 1.000000
vt 0.000000 0.000000
vt 1.000000 0.000000
vt 0.000000 1.000000
vt 0.000000 0.000000
vt 1.000000 0.000000
vt 0.000000 1.000000
vt 0.000000 0.000000
vt 1.000000 1.000000
vt 0.000000 1.000000
vt 0.000000 0.000000
vt 1.000000 0.000000
vt 1.000000 1.000000
vt 0.000000 0.000000
vt 1.000000 0.000000
vt 1.000000 1.000000
vt 0.000000 1.000000
vt 0.000000 0.000000
vt 1.000000 1.000000
vt 0.000000 1.000000
vt 0.000000 0.000000
vt 1.000000 0.000000
vt 1.000000 1.000000
vt 0.000000 1.000000
vt 1.000000 1.000000
vt 0.000000 0.000000
vt 1.000000 0.000000
vt 1.000000 1.000000
vt 0.000000 0.000000
vt 1.000000 0.000000
vt 1.000000 1.000000
vt 0.000000 1.000000
vt 0.000000 0.000000
vt 1.000000 0.000000
vt 1.000000 1.000000
vt 0.000000 1.000000
vt 0.000000 0.000000
vt 1.000000 0.000000
vt 1.000000 1.000000
vt 0.000000 1.000000
vt 0.000000 0.000000
vt 1.000000 0.000000
vt 1.000000 1.000000
vt 0.000000 1.000000
vt 0.000000 0.000000
vt 1.000000 0.000000
vt 1.000000 1.000000
vt 0.000000 1.000000
vt 1.000000 0.000000
vt 1.000000 1.000000
vt 0.000000 1.000000
vt 0.000000 0.000000
vt 1.000000 1.000000
vt 0.000000 1.000000
vt 0.000000 0.000000
vt 1.000000 0.000000
vt 1.000000 1.000000
vt 0.000000 0.000000
vt 1.000000 0.000000
vt 1.000000 1.000000
vt 0.000000 1.000000
vt 0.000000 0.000000
vt 1.000000 1.000000
vt 0.000000 1.000000
vt 0.000000 0.000000
vt 1.000000 0.000000
vt 1.000000 1.000000
vt 0.000000 0.000000
vt 1.000000 0.000000
vt 1.000000 1.000000
vt 0.000000 1.000000
vt 0.000000 0.000000
vt 1.000000 0.000000
vt 0.000000 1.000000
vt 1.000000 0.000000
vt 1.000000 1.000000
vt 0.000000 1.000000
vt 1.000000 0.000000
vt 1.000000 1.000000
vt 0.000000 1.000000
vt 0.000000 0.000000
vt 1.000000 0.000000
vt 1.000000 1.000000
vt 0.000000 1.000000
vt 0.000000 0.000000
vt 1.000000 0.000000
vt 0.000000 1.000000
vt 1.000000 0.000000
vt 1.000000 1.000000
vt 0.000000 0.000000
vt 1.000000 0.000000
vt 1.000000 1.000000
vt 1.000000 0.000000
vt 0.000000 1.000000
vt 0.000000 0.000000
vt 1.000000 0.000000
vt 1.000000 1.000000
vt 0.000000 1.000000
vt 0.000000 0.000000
vt 1.000000 0.000000
vt 0.000000 1.000000
vt 0.000000 0.000000
vt 0.000000 1.000000
vt 0.000000 0.000000
vt 1.000000 0.000000
vt 0.000000 1.000000
vt 0.000000 0.000000
vt 0.000000 1.000000
vt 1.000000 0.000000
vt 0.000000 1.000000
vt 0.000000 0.000000
vt 1.000000 0.000000
vt 0.000000 1.000000
vt 1.000000 0.000000
vt 0.000000 1.000000
vt 1.000000 0.000000
vt 0.000000 1.000000
vt 1.000000 0.000000
vt 1.000000 1.000000
vt 0.000000 1.000000
vt 1.000000 0.000000
vt 1.000000 1.000000
vt 0.000000 1.000000
vn -0.3529 -0.5543 0.7538
vn 0.0000 -1.0000 0.0000
vn -0.6706 0.5540 -0.4933
vn 0.5193 0.4632 -0.7182
vn 0.5505 0.6539 0.5190
vn 0.6308 0.5636 0.5333
vn -0.4086 0.0000 0.9127
vn 0.4177 0.0000 -0.9086
vn 0.5100 0.8592 0.0420
vn 0.0000 0.3049 0.9524
vn 0.4907 0.4287 0.7586
vn -0.5164 0.8563 0.0000
vn 0.5336 0.6867 -0.4936
vn 0.6642 0.5553 -0.5004
vn 0.8405 0.5412 0.0265
vn -0.5297 0.7054 -0.4709
vn 0.0000 -0.5506 -0.8348
vn -0.6523 0.4931 0.5756
vn -0.8324 0.5542 0.0000
vn -0.3750 -0.5381 -0.7549
vn 0.0000 0.3422 -0.9396
vn -0.7173 -0.6968 0.0000
vn -1.0000 0.0000 0.0000
vn -0.7511 -0.5925 0.2910
vn -0.8523 0.0000 0.5230
vn 0.7469 -0.6649 0.0000
vn 1.0000 0.0000 0.0000
vn 0.7501 -0.5940 -0.2908
vn 0.8901 0.0000 -0.4557
vn 0.0000 0.8472 -0.5313
vn -0.5093 0.3755 0.7744
vn 0.7771 -0.5229 0.3503
vn 0.8717 0.0000 0.4901
vn 0.3619 -0.5192 -0.7743
vn -0.5042 0.4442 -0.7406
vn -0.7408 -0.6033 -0.2953
vn -0.8730 0.0000 -0.4877
vn 0.0000 1.0000 0.0000
vn -0.4177 0.0000 -0.9086
vn 0.0000 0.0000 -1.0000
vn 0.4086 0.0000 0.9127
vn -0.0000 0.0000 1.0000
vn -0.5144 0.6768 0.5266
vn 0.0000 0.8130 0.5823
vn 0.4202 -0.4838 0.7677
vn 0.0000 -0.5752 0.8180
usemtl None
s off
f 24/1/1 54/2/1 25/3/1 1/4/1
f 7/5/2 18/6/2 12/7/2 36/8/2
f 43/9/3 16/10/3 4/11/3 27/12/3
f 8/13/4 29/14/4 52/15/4 33/16/4
f 22/17/5 6/18/5 20/19/5 48/20/5
f 39/21/6 20/22/6 6/23/6 31/24/6
f 11/25/2 9/26/2 14/27/2 13/28/2
f 54/29/7 56/30/7 26/31/7 25/32/7
f 50/33/8 52/34/8 29/35/8 30/36/8
f 46/37/9 48/38/9 20/19/9 19/39/9
f 21/40/10 56/30/10 55/41/10 22/42/10
f 22/17/11 55/43/11 31/44/11 6/45/11
f 16/46/12 15/47/12 47/48/12 45/49/12
f 33/50/13 46/51/13 19/52/13 8/53/13
f 29/54/14 8/55/14 19/52/14 37/56/14
f 37/57/15 19/58/15 20/19/15 39/59/15
f 4/60/16 16/10/16 45/61/16 34/62/16
f 35/63/17 49/64/17 50/65/17 36/8/17
f 26/66/18 2/67/18 15/68/18 41/69/18
f 41/70/19 15/47/19 16/71/19 43/72/19
f 3/73/20 28/74/20 49/75/20 35/76/20
f 33/50/21 52/34/21 51/77/21 34/62/21
f 14/78/22 42/79/22 44/80/22 13/28/22
f 42/81/23 41/82/23 43/83/23 44/84/23
f 1/85/24 25/86/24 42/87/24 14/88/24
f 25/89/25 26/90/25 41/91/25 42/92/25
f 18/93/26 38/94/26 40/95/26 17/96/26
f 38/97/27 37/98/27 39/99/27 40/100/27
f 7/5/28 30/101/28 38/102/28 18/103/28
f 30/104/29 29/14/29 37/105/29 38/106/29
f 34/107/30 45/108/30 46/109/30 33/16/30
f 23/110/2 24/111/2 9/112/2 10/113/2
f 2/114/31 26/90/31 56/115/31 21/116/31
f 36/117/2 12/118/2 11/119/2 35/76/2
f 17/120/32 40/121/32 32/122/32 5/123/32
f 40/124/33 39/125/33 31/44/33 32/126/33
f 36/117/34 50/127/34 30/128/34 7/129/34
f 34/107/35 51/130/35 27/131/35 4/132/35
f 13/133/36 44/134/36 28/135/36 3/136/36
f 44/137/37 43/138/37 27/131/37 28/139/37
f 35/63/2 11/140/2 13/141/2 3/136/2
f 5/142/2 23/143/2 10/144/2 17/96/2
f 24/1/2 1/145/2 14/27/2 9/146/2
f 45/147/38 47/148/38 48/149/38 46/150/38
f 28/151/39 27/152/39 51/77/39 49/153/39
f 49/154/40 51/130/40 52/15/40 50/155/40
f 32/156/41 31/157/41 55/41/41 53/158/41
f 53/159/42 55/43/42 56/115/42 54/160/42
f 18/93/2 17/161/2 10/144/2 12/162/2
f 12/163/2 10/164/2 9/112/2 11/165/2
f 2/114/43 21/166/43 47/48/43 15/167/43
f 21/40/44 22/168/44 48/149/44 47/169/44
f 5/142/45 32/170/45 53/171/45 23/172/45
f 23/110/46 53/173/46 54/174/46 24/175/46
