# Blender v3.0.0 OBJ File: 'Bush.blend'
# www.blender.org
mtllib Buisson_moyen_LOD1.mtl
o Cube.018_Cube.019
v 3.002069 -1.113603 -19.617252
v 3.978934 1.295716 -19.755161
v 3.736080 -0.908756 -22.561621
v 3.795384 1.206248 -22.326477
v 4.883774 -1.000000 -19.532814
v 4.883774 1.105565 -19.701296
v 6.924558 -1.000000 -23.604307
v 6.923271 1.073468 -22.585279
v 4.376605 -1.000000 -20.542416
v 5.085624 -1.000000 -20.542416
v 4.376605 -1.000000 -21.552019
v 5.085624 -1.000000 -21.552019
v 3.667585 -1.000000 -21.552019
v 3.664747 -1.001800 -20.544683
v 3.539510 1.232036 -20.911879
v 3.667585 1.159115 -21.552019
v 5.905204 -0.997962 -20.476402
v 7.122421 -1.000000 -21.360643
v 6.767192 1.131855 -21.697865
v 6.057772 0.700263 -21.233633
v 4.052711 0.866354 -19.480677
v 4.308858 1.054058 -19.573446
v 4.174754 -1.000000 -18.863369
v 3.605331 -0.912585 -18.790478
v 3.150807 -0.120522 -19.532814
v 3.443006 0.413560 -19.753428
v 3.667585 0.439410 -22.561621
v 3.667585 -0.280295 -22.561621
v 6.928572 0.460849 -23.606930
v 6.765116 -0.405014 -23.738787
v 4.883774 0.599183 -19.532814
v 4.883774 -0.120522 -19.532814
v 4.931577 0.900233 -22.469038
v 4.875740 0.915653 -22.448112
v 4.679568 -0.990888 -23.485409
v 5.677509 -1.002499 -23.821728
v 6.902452 0.439410 -21.246408
v 7.077475 -0.280295 -21.126490
v 5.977018 0.456039 -20.658129
v 6.040259 -0.145115 -20.696714
v 2.998562 0.397852 -20.644371
v 3.095483 -0.453076 -20.760176
v 3.546177 0.439410 -21.552019
v 3.546177 -0.280295 -21.552019
v 4.598520 1.219511 -21.394899
v 5.140481 1.112800 -21.501198
v 4.376605 1.450544 -20.542416
v 5.600789 0.909137 -20.693436
v 4.523919 -0.219957 -22.965273
v 5.553121 -0.317792 -23.936569
v 4.607257 0.224488 -23.303902
v 5.535731 0.339157 -23.499212
v 4.174754 -0.120522 -19.085907
v 3.465734 -0.120522 -19.085907
v 4.440428 0.641786 -19.498123
v 3.554040 0.503592 -19.153255
v 7.843087 -0.280295 -23.373461
v 7.843087 -1.000000 -23.245258
v 7.929365 -1.000000 -22.004013
v 7.274423 0.254981 -22.593529
v 7.058671 1.007511 -21.866611
v 8.128497 -0.280295 -22.122038
v 7.617144 0.317546 -23.481750
v 8.135387 0.181825 -21.965698
vt 0.000000 0.000000
vt 1.000000 0.000000
vt 1.000000 1.000000
vt 0.000000 1.000000
vt 0.000000 0.000000
vt 1.000000 0.000000
vt 1.000000 1.000000
vt 0.000000 1.000000
vt 0.000000 0.000000
vt 1.000000 0.000000
vt 1.000000 1.000000
vt 0.000000 1.000000
vt 0.000000 0.000000
vt 1.000000 0.000000
vt 1.000000 1.000000
vt 0.000000 1.000000
vt 0.000000 0.000000
vt 1.000000 0.000000
vt 1.000000 1.000000
vt 0.000000 1.000000
vt 0.000000 0.000000
vt 1.000000 0.000000
vt 1.000000 1.000000
vt 0.000000 1.000000
vt 0.000000 0.000000
vt 1.000000 0.000000
vt 1.000000 1.000000
vt 0.000000 1.000000
vt 0.000000 0.000000
vt 1.000000 0.000000
vt 1.000000 1.000000
vt 0.000000 1.000000
vt 0.000000 0.000000
vt 1.000000 0.000000
vt 1.000000 1.000000
vt 0.000000 1.000000
vt 0.000000 0.000000
vt 1.000000 0.000000
vt 0.000000 1.000000
vt 0.000000 0.000000
vt 1.000000 1.000000
vt 0.000000 1.000000
vt 1.000000 0.000000
vt 1.000000 1.000000
vt 0.000000 1.000000
vt 0.000000 0.000000
vt 1.000000 0.000000
vt 1.000000 1.000000
vt 0.000000 1.000000
vt 0.000000 0.000000
vt 1.000000 0.000000
vt 1.000000 1.000000
vt 0.000000 1.000000
vt 1.000000 0.000000
vt 1.000000 1.000000
vt 0.000000 1.000000
vt 0.000000 0.000000
vt 1.000000 0.000000
vt 0.000000 1.000000
vt 0.000000 0.000000
vt 1.000000 1.000000
vt 0.000000 1.000000
vt 0.000000 0.000000
vt 1.000000 0.000000
vt 1.000000 1.000000
vt 0.000000 0.000000
vt 1.000000 0.000000
vt 1.000000 1.000000
vt 0.000000 1.000000
vt 0.000000 0.000000
vt 1.000000 1.000000
vt 0.000000 1.000000
vt 0.000000 0.000000
vt 1.000000 0.000000
vt 1.000000 1.000000
vt 0.000000 1.000000
vt 1.000000 1.000000
vt 0.000000 0.000000
vt 1.000000 0.000000
vt 1.000000 1.000000
vt 0.000000 0.000000
vt 1.000000 0.000000
vt 1.000000 1.000000
vt 0.000000 1.000000
vt 0.000000 0.000000
vt 1.000000 0.000000
vt 1.000000 1.000000
vt 0.000000 1.000000
vt 0.000000 0.000000
vt 1.000000 0.000000
vt 1.000000 1.000000
vt 0.000000 1.000000
vt 0.000000 0.000000
vt 1.000000 0.000000
vt 1.000000 1.000000
vt 0.000000 1.000000
vt 0.000000 0.000000
vt 1.000000 0.000000
vt 1.000000 1.000000
vt 0.000000 1.000000
vt 0.000000 0.000000
vt 1.000000 0.000000
vt 1.000000 1.000000
vt 0.000000 1.000000
vt 1.000000 0.000000
vt 1.000000 1.000000
vt 0.000000 1.000000
vt 0.000000 0.000000
vt 1.000000 0.000000
vt 1.000000 1.000000
vt 0.000000 0.000000
vt 1.000000 0.000000
vt 1.000000 1.000000
vt 0.000000 1.000000
vt 0.000000 0.000000
vt 1.000000 1.000000
vt 0.000000 1.000000
vt 0.000000 0.000000
vt 1.000000 0.000000
vt 1.000000 1.000000
vt 0.000000 0.000000
vt 1.000000 0.000000
vt 1.000000 1.000000
vt 0.000000 1.000000
vt 0.000000 0.000000
vt 1.000000 0.000000
vt 0.000000 1.000000
vt 1.000000 0.000000
vt 1.000000 1.000000
vt 0.000000 1.000000
vt 1.000000 0.000000
vt 1.000000 1.000000
vt 0.000000 1.000000
vt 0.000000 0.000000
vt 1.000000 0.000000
vt 1.000000 1.000000
vt 0.000000 1.000000
vt 0.000000 0.000000
vt 1.000000 0.000000
vt 0.000000 1.000000
vt 1.000000 0.000000
vt 1.000000 1.000000
vt 0.000000 0.000000
vt 1.000000 0.000000
vt 1.000000 1.000000
vt 1.000000 0.000000
vt 0.000000 1.000000
vt 0.000000 0.000000
vt 1.000000 0.000000
vt 1.000000 1.000000
vt 0.000000 1.000000
vt 0.000000 0.000000
vt 1.000000 0.000000
vt 0.000000 1.000000
vt 0.000000 0.000000
vt 0.000000 1.000000
vt 0.000000 0.000000
vt 1.000000 0.000000
vt 0.000000 1.000000
vt 0.000000 0.000000
vt 0.000000 1.000000
vt 1.000000 0.000000
vt 0.000000 1.000000
vt 0.000000 0.000000
vt 1.000000 0.000000
vt 0.000000 1.000000
vt 1.000000 0.000000
vt 0.000000 1.000000
vt 1.000000 0.000000
vt 0.000000 1.000000
vt 1.000000 0.000000
vt 1.000000 1.000000
vt 0.000000 1.000000
vt 1.000000 0.000000
vt 1.000000 1.000000
vt 0.000000 1.000000
vt 0.000000 0.000000
vt 1.000000 0.000000
vt 1.000000 1.000000
vt 0.000000 1.000000
vt 0.000000 0.000000
vt 1.000000 0.000000
vt 1.000000 1.000000
vt 0.000000 0.000000
vt 1.000000 0.000000
vt 1.000000 1.000000
vt 0.000000 1.000000
vt 0.000000 1.000000
vt 0.000000 0.000000
vt 1.000000 1.000000
vt 0.000000 1.000000
vt 1.000000 1.000000
vt 0.000000 0.000000
vt 0.000000 1.000000
vn -0.8144 0.0722 0.5757
vn 0.0007 -1.0000 0.0006
vn -0.9741 0.1841 -0.1312
vn -0.1082 0.8487 -0.5176
vn 0.0451 0.9857 -0.1626
vn 0.7248 0.4441 0.5267
vn 0.0013 -1.0000 -0.0009
vn -0.8723 0.3669 0.3233
vn 0.0278 0.3477 -0.9372
vn 0.2438 0.8477 0.4711
vn 0.2451 0.3531 0.9029
vn 0.1493 0.2736 0.9502
vn -0.0882 0.9718 -0.2186
vn -0.0648 0.9877 -0.1424
vn 0.3454 -0.1434 -0.9274
vn 0.2336 0.7245 0.6484
vn 0.1150 0.9869 -0.1132
vn -0.5324 0.1304 -0.8364
vn -0.7806 0.5393 0.3160
vn -0.8706 0.3046 -0.3863
vn -0.5799 0.2006 -0.7896
vn -0.2049 0.7982 -0.5665
vn -0.8297 -0.4955 -0.2572
vn -0.8613 -0.0157 -0.5079
vn -0.9325 -0.2743 -0.2347
vn -0.9673 0.1518 0.2033
vn 0.5016 -0.0363 0.8643
vn 0.4644 0.1376 0.8748
vn 0.6817 0.7266 -0.0850
vn 0.0000 -1.0000 0.0000
vn 0.1449 0.9598 -0.2404
vn -0.0687 -0.9976 -0.0083
vn -0.6551 0.6474 0.3896
vn -0.0074 -1.0000 -0.0032
vn 0.6951 0.0371 0.7179
vn 0.7137 0.0137 0.7004
vn 0.1593 -0.1546 -0.9750
vn -0.1724 0.6197 -0.7657
vn -0.9854 -0.1388 -0.0989
vn -0.9928 0.0000 -0.1194
vn -0.0737 -0.9963 -0.0433
vn 0.0014 -1.0000 0.0003
vn 0.1186 -0.9915 0.0544
vn 0.3356 0.9398 -0.0637
vn -0.5392 -0.1994 -0.8182
vn -0.5097 0.1070 -0.8537
vn 0.3849 0.1827 0.9047
vn 0.1796 0.2803 0.9430
vn 0.0006 -1.0000 0.0015
vn 0.0662 0.9722 0.2247
vn 0.2737 0.8833 0.3806
vn 0.6155 0.0989 0.7819
vn 0.0748 0.3009 0.9507
vn 0.2889 0.9124 -0.2899
vn 0.9763 -0.1600 -0.1456
vn 0.9423 0.2067 -0.2635
vn 0.8132 0.5732 -0.1006
vn 0.6037 0.0614 0.7948
vn 0.2677 0.0269 -0.9631
vn 0.6559 -0.1302 0.7435
vn 0.5169 0.5624 0.6454
usemtl None
s off
f 24/1/1 54/2/1 25/3/1 1/4/1
f 7/5/2 18/6/2 12/7/2 36/8/2
f 43/9/3 16/10/3 4/11/3 27/12/3
f 8/13/4 29/14/4 52/15/4 33/16/4
f 22/17/5 6/18/5 20/19/5 48/20/5
f 39/21/6 20/22/6 6/23/6 31/24/6
f 11/25/7 9/26/7 14/27/7 13/28/7
f 54/29/8 56/30/8 26/31/8 25/32/8
f 50/33/9 52/34/9 29/35/9 30/36/9
f 46/37/10 48/38/10 20/19/10 19/39/10
f 21/40/11 56/30/11 55/41/11 22/42/11
f 22/17/12 55/43/12 31/44/12 6/45/12
f 16/46/13 15/47/13 47/48/13 45/49/13
f 33/50/14 46/51/14 19/52/14 8/53/14
f 7/5/15 30/54/15 57/55/15 58/56/15
f 37/57/16 19/58/16 20/19/16 39/59/16
f 4/60/17 16/10/17 45/61/17 34/62/17
f 35/63/18 49/64/18 50/65/18 36/8/18
f 26/66/19 2/67/19 15/68/19 41/69/19
f 41/70/20 15/47/20 16/71/20 43/72/20
f 3/73/21 28/74/21 49/75/21 35/76/21
f 33/50/22 52/34/22 51/77/22 34/62/22
f 14/78/23 42/79/23 44/80/23 13/28/23
f 42/81/24 41/82/24 43/83/24 44/84/24
f 1/85/25 25/86/25 42/87/25 14/88/25
f 25/89/26 26/90/26 41/91/26 42/92/26
f 18/93/27 38/94/27 40/95/27 17/96/27
f 38/97/28 37/98/28 39/99/28 40/100/28
f 29/101/29 8/102/29 60/103/29 63/104/29
f 18/93/30 7/105/30 58/106/30 59/107/30
f 34/108/31 45/109/31 46/110/31 33/16/31
f 23/111/32 24/112/32 9/113/32 10/114/32
f 2/115/33 26/90/33 56/116/33 21/117/33
f 36/118/34 12/119/34 11/120/34 35/76/34
f 17/121/35 40/122/35 32/123/35 5/124/35
f 40/125/36 39/126/36 31/44/36 32/127/36
f 36/118/37 50/128/37 30/129/37 7/130/37
f 34/108/38 51/131/38 27/132/38 4/133/38
f 13/134/39 44/135/39 28/136/39 3/137/39
f 44/138/40 43/139/40 27/132/40 28/140/40
f 35/63/41 11/141/41 13/142/41 3/137/41
f 5/143/42 23/144/42 10/145/42 17/96/42
f 24/1/43 1/146/43 14/27/43 9/147/43
f 45/148/44 47/149/44 48/150/44 46/151/44
f 28/152/45 27/153/45 51/77/45 49/154/45
f 49/155/46 51/131/46 52/15/46 50/156/46
f 32/157/47 31/158/47 55/41/47 53/159/47
f 53/160/48 55/43/48 56/116/48 54/161/48
f 18/93/49 17/162/49 10/145/49 12/163/49
f 12/164/30 10/165/30 9/113/30 11/166/30
f 2/115/50 21/167/50 47/48/50 15/168/50
f 21/40/51 22/169/51 48/150/51 47/170/51
f 5/143/52 32/171/52 53/172/52 23/173/52
f 23/111/53 53/174/53 54/175/53 24/176/53
f 63/177/54 60/178/54 61/179/54 64/180/54
f 58/181/55 57/182/55 62/183/55 59/107/55
f 57/184/56 63/185/56 64/186/56 62/187/56
f 8/13/57 19/58/57 61/179/57 60/188/57
f 37/57/58 38/94/58 62/183/58 64/180/58
f 30/189/59 29/14/59 63/190/59 57/191/59
f 38/97/60 18/6/60 59/192/60 62/187/60
f 19/193/61 37/98/61 64/186/61 61/194/61
