# Blender v3.0.0 OBJ File: 'Bush.blend'
# www.blender.org
mtllib Buisson_carre_LOD1.mtl
o Cube.002_Cube.003
v -0.861176 -0.460221 -3.089267
v -0.861176 0.619337 -3.089267
v -0.861176 -0.460221 -4.603671
v -0.861176 0.619337 -4.603671
v 0.734118 -0.460221 -3.089267
v 0.734118 0.619337 -3.089267
v 0.734118 -0.460221 -4.603671
v 0.734118 0.619337 -4.603671
v -0.063529 -0.640147 -4.856071
v -0.063529 0.799263 -4.856071
v -0.063529 -0.640147 -2.836866
v -0.063529 0.799263 -2.836866
v -0.919441 0.079558 -2.923337
v -0.919441 0.079558 -4.769601
v -0.561648 -0.609327 -4.812837
v 0.434590 0.768442 -4.812836
v 0.792382 0.079558 -4.769601
v 0.792382 0.079558 -2.923337
v 0.434590 -0.609327 -2.880102
v -0.561648 0.768442 -2.880102
v -0.919441 -0.578506 -3.846469
v -0.919441 0.737621 -3.846469
v 0.792382 -0.578506 -3.846469
v 0.792382 0.737621 -3.846469
v 0.434590 -0.609327 -4.812836
v -0.561648 0.768442 -4.812836
v -0.561648 -0.609327 -2.880102
v 0.434590 0.768442 -2.880102
v -0.063529 -0.910037 -3.846469
v -0.063529 1.069152 -3.846469
v -0.063529 0.079558 -2.458265
v -0.063529 0.079558 -5.234673
v -0.567393 1.027503 -3.846469
v 0.440334 0.079558 -5.176247
v -1.041714 0.079558 -3.846469
v -0.567393 0.079558 -2.516692
v 0.440334 -0.868387 -3.846469
v 0.914655 0.079558 -3.846469
v -0.567393 -0.868387 -3.846469
v 0.440334 0.079558 -2.516692
v -0.567393 0.079558 -5.176247
v 0.440334 1.027503 -3.846469
vt 0.000000 0.000000
vt 1.000000 0.000000
vt 1.000000 1.000000
vt 0.000000 1.000000
vt 0.000000 0.000000
vt 1.000000 0.000000
vt 1.000000 1.000000
vt 0.000000 1.000000
vt 0.000000 0.000000
vt 1.000000 0.000000
vt 1.000000 1.000000
vt 0.000000 1.000000
vt 0.000000 0.000000
vt 1.000000 0.000000
vt 1.000000 1.000000
vt 0.000000 1.000000
vt 0.000000 0.000000
vt 1.000000 0.000000
vt 1.000000 1.000000
vt 0.000000 1.000000
vt 0.000000 0.000000
vt 1.000000 0.000000
vt 1.000000 1.000000
vt 0.000000 1.000000
vt 0.000000 0.000000
vt 1.000000 0.000000
vt 1.000000 1.000000
vt 0.000000 1.000000
vt 0.000000 0.000000
vt 1.000000 0.000000
vt 1.000000 1.000000
vt 0.000000 1.000000
vt 0.000000 0.000000
vt 1.000000 0.000000
vt 1.000000 1.000000
vt 0.000000 1.000000
vt 0.000000 0.000000
vt 1.000000 1.000000
vt 0.000000 1.000000
vt 0.000000 0.000000
vt 1.000000 1.000000
vt 0.000000 1.000000
vt 0.000000 0.000000
vt 1.000000 0.000000
vt 1.000000 1.000000
vt 0.000000 1.000000
vt 0.000000 0.000000
vt 1.000000 0.000000
vt 1.000000 1.000000
vt 0.000000 1.000000
vt 0.000000 0.000000
vt 1.000000 0.000000
vt 0.000000 1.000000
vt 0.000000 0.000000
vt 1.000000 1.000000
vt 0.000000 1.000000
vt 0.000000 0.000000
vt 1.000000 0.000000
vt 1.000000 1.000000
vt 0.000000 1.000000
vt 0.000000 0.000000
vt 1.000000 0.000000
vt 1.000000 1.000000
vt 0.000000 0.000000
vt 1.000000 0.000000
vt 1.000000 1.000000
vt 0.000000 1.000000
vt 0.000000 0.000000
vt 1.000000 0.000000
vt 1.000000 1.000000
vt 0.000000 1.000000
vt 1.000000 0.000000
vt 1.000000 1.000000
vt 0.000000 1.000000
vt 1.000000 0.000000
vt 1.000000 1.000000
vt 0.000000 1.000000
vt 0.000000 0.000000
vt 1.000000 0.000000
vt 1.000000 1.000000
vt 0.000000 1.000000
vt 0.000000 0.000000
vt 1.000000 0.000000
vt 1.000000 1.000000
vt 0.000000 1.000000
vt 1.000000 0.000000
vt 1.000000 1.000000
vt 0.000000 1.000000
vt 1.000000 0.000000
vt 1.000000 1.000000
vt 1.000000 0.000000
vt 1.000000 1.000000
vt 0.000000 1.000000
vt 0.000000 0.000000
vt 1.000000 0.000000
vt 1.000000 1.000000
vt 0.000000 1.000000
vt 0.000000 0.000000
vt 1.000000 0.000000
vt 1.000000 1.000000
vt 0.000000 0.000000
vt 1.000000 0.000000
vt 1.000000 1.000000
vt 0.000000 1.000000
vt 0.000000 0.000000
vt 1.000000 0.000000
vt 1.000000 1.000000
vt 0.000000 1.000000
vt 0.000000 0.000000
vt 1.000000 0.000000
vt 0.000000 1.000000
vt 0.000000 0.000000
vt 1.000000 0.000000
vt 1.000000 1.000000
vt 0.000000 1.000000
vt 0.000000 0.000000
vt 1.000000 0.000000
vt 1.000000 1.000000
vt 0.000000 0.000000
vt 1.000000 0.000000
vt 1.000000 1.000000
vt 0.000000 1.000000
vt 0.000000 0.000000
vt 1.000000 0.000000
vt 1.000000 1.000000
vt 0.000000 1.000000
vt 0.000000 0.000000
vt 1.000000 0.000000
vt 1.000000 1.000000
vt 0.000000 0.000000
vt 1.000000 1.000000
vt 0.000000 0.000000
vt 0.000000 1.000000
vt 0.000000 0.000000
vt 0.000000 1.000000
vt 0.000000 0.000000
vt 1.000000 0.000000
vn -0.5902 0.7838 -0.1935
vn -0.5902 0.7838 0.1935
vn -0.0808 0.9628 0.2580
vn -0.0808 0.9628 -0.2580
vn 0.1035 -0.4639 -0.8798
vn 0.1035 0.4639 -0.8798
vn 0.6888 0.3168 -0.6521
vn 0.6888 -0.3168 -0.6521
vn -0.9796 -0.1638 0.1168
vn -0.9796 0.1638 0.1168
vn -0.9796 0.1638 -0.1168
vn -0.9796 -0.1638 -0.1168
vn -0.1035 -0.4639 0.8798
vn -0.1035 0.4639 0.8798
vn -0.6888 0.3168 0.6521
vn -0.6888 -0.3168 0.6521
vn 0.5902 -0.7838 -0.1935
vn 0.5902 -0.7838 0.1935
vn 0.0808 -0.9628 0.2580
vn 0.0808 -0.9628 -0.2580
vn 0.9796 -0.1638 -0.1168
vn 0.9796 0.1638 -0.1168
vn 0.9796 0.1638 0.1168
vn 0.9796 -0.1638 0.1168
vn -0.0808 -0.9628 0.2580
vn -0.5902 -0.7838 0.1935
vn -0.5902 -0.7838 -0.1935
vn -0.0808 -0.9628 -0.2580
vn 0.6888 -0.3168 0.6521
vn 0.6888 0.3168 0.6521
vn 0.1035 0.4639 0.8798
vn 0.1035 -0.4639 0.8798
vn -0.6888 -0.3168 -0.6521
vn -0.6888 0.3168 -0.6521
vn -0.1035 0.4639 -0.8798
vn -0.1035 -0.4639 -0.8798
vn 0.0808 0.9628 0.2580
vn 0.5902 0.7838 0.1935
vn 0.5902 0.7838 -0.1935
vn 0.0808 0.9628 -0.2580
usemtl None
s off
f 4/1/1 22/2/1 33/3/1 26/4/1
f 22/5/2 2/6/2 20/7/2 33/8/2
f 33/9/3 20/10/3 12/11/3 30/12/3
f 26/13/4 33/14/4 30/15/4 10/16/4
f 9/17/5 32/18/5 34/19/5 25/20/5
f 32/21/6 10/22/6 16/23/6 34/24/6
f 34/25/7 16/26/7 8/27/7 17/28/7
f 25/29/8 34/30/8 17/31/8 7/32/8
f 1/33/9 13/34/9 35/35/9 21/36/9
f 13/37/10 2/6/10 22/38/10 35/39/10
f 35/40/11 22/2/11 4/41/11 14/42/11
f 21/43/12 35/44/12 14/45/12 3/46/12
f 11/47/13 31/48/13 36/49/13 27/50/13
f 31/51/14 12/52/14 20/7/14 36/53/14
f 36/54/15 20/10/15 2/55/15 13/56/15
f 27/57/16 36/58/16 13/59/16 1/60/16
f 7/61/17 23/62/17 37/63/17 25/20/17
f 23/64/18 5/65/18 19/66/18 37/67/18
f 37/68/19 19/69/19 11/70/19 29/71/19
f 25/29/20 37/72/20 29/73/20 9/74/20
f 7/61/21 17/75/21 38/76/21 23/77/21
f 17/78/22 8/79/22 24/80/22 38/81/22
f 38/82/23 24/83/23 6/84/23 18/85/23
f 23/64/24 38/86/24 18/87/24 5/88/24
f 11/47/25 27/89/25 39/90/25 29/71/25
f 27/57/26 1/91/26 21/92/26 39/93/26
f 39/94/27 21/95/27 3/96/27 15/97/27
f 29/98/28 39/99/28 15/100/28 9/74/28
f 5/101/29 18/102/29 40/103/29 19/104/29
f 18/105/30 6/106/30 28/107/30 40/108/30
f 40/109/31 28/110/31 12/11/31 31/111/31
f 19/112/32 40/113/32 31/114/32 11/115/32
f 3/116/33 14/117/33 41/118/33 15/97/33
f 14/119/34 4/120/34 26/121/34 41/122/34
f 41/123/35 26/124/35 10/125/35 32/126/35
f 15/127/36 41/128/36 32/129/36 9/74/36
f 12/130/37 28/110/37 42/131/37 30/12/37
f 28/132/38 6/106/38 24/80/38 42/133/38
f 42/134/39 24/83/39 8/27/39 16/135/39
f 30/136/40 42/137/40 16/23/40 10/16/40
