# Blender v3.1.2 OBJ File: 'Rochers.blend'
# www.blender.org
mtllib Rock_3.mtl
o Rock_3_Cube.005
v 0.795289 2.289074 -1.118004
v 1.032933 1.681923 1.792117
v -0.162738 2.308185 -0.932659
v -1.098419 2.246629 -1.059952
v 3.463213 2.526422 -0.836624
v -6.061577 1.876963 0.074609
v -5.520498 2.446066 -0.009492
v -5.406768 2.168496 0.871188
v 1.230874 0.469316 2.277914
v 2.406887 2.320725 -1.603216
v 2.612839 1.535515 -2.052990
v -0.110912 2.232623 -1.110111
v -0.024704 2.080003 -1.046489
v -1.530738 2.262728 1.470974
v -0.077190 2.202674 1.305395
v 1.297375 2.324337 1.210923
v -0.224136 2.141140 1.424451
v -0.296096 2.242637 1.207366
v 1.376965 1.194189 2.525934
v 1.391301 0.475986 2.573302
v 3.807793 1.159146 2.047114
v 4.731431 -0.833325 2.146523
v -5.098114 2.157440 -0.893285
v -5.479442 2.150015 -0.772026
v -5.923217 1.725132 -0.681588
v -3.527969 1.401740 -1.488324
v -5.010387 2.159147 -0.921186
v 2.990132 1.100289 -2.082226
v 6.187165 -1.380691 -1.373717
v -5.777145 1.814460 0.928163
v -5.600387 1.981857 0.951712
v 1.320504 -1.108815 2.761948
v 1.197102 0.471737 2.589213
v 1.122510 1.200320 2.539125
v 1.449109 -1.645026 2.912488
v 1.355443 -0.589380 2.721831
v -1.945297 2.253699 1.509089
v -5.175888 2.175099 1.003453
v -1.270043 0.840150 2.707259
v -5.148830 0.968379 1.950539
v -5.830242 1.781992 0.342987
v -6.058071 1.228858 0.136921
v -5.424156 2.164077 0.477977
v -5.803051 1.798621 0.642676
v -6.038024 0.610726 0.208487
v -5.410728 2.167492 0.781631
v 4.848511 -0.604651 -0.479467
v 6.403316 -1.737556 0.181476
v 5.872454 -0.107944 -0.767804
v 4.269368 2.379491 0.001032
v 5.800858 -0.924639 1.192077
v 4.223408 2.071827 1.218488
v 6.234875 -1.023368 -1.050748
v 6.328766 -1.084021 -0.946961
v 6.594225 -1.404425 -0.128562
v 4.417181 2.295574 0.732643
v 6.035941 -2.097325 -0.189326
v -5.969123 -1.627350 0.454449
v -5.586436 -1.993137 0.463492
v 6.094920 -2.106020 -0.582868
v 6.522500 -1.755291 -0.386088
v 3.227765 -2.043588 2.192960
v 3.810895 -1.696479 2.412235
v 1.834635 -2.028517 2.441771
v -5.889730 -1.644838 -1.088889
v -5.252786 -1.652997 -1.293935
v 3.188196 -1.734786 -2.066834
v 3.189901 -2.094246 -1.696835
v 6.184966 -1.751142 -1.377074
v -5.381310 -1.986961 1.018403
v -5.674679 -1.617356 1.256300
v 1.380216 -2.024109 2.483386
v -5.509902 -2.011646 -1.034776
v -5.897351 -1.643706 -0.890982
v 6.248208 -1.749887 -1.152289
v 5.818095 -2.111113 -1.279640
v -5.874540 -1.640211 -0.572790
v -5.479327 -2.007513 -0.702940
v -2.835367 -1.992832 2.136616
v -3.044538 -1.629583 2.457293
vt 0.094977 0.680399
vt 0.105835 0.713127
vt 0.098840 0.711106
vt 0.532444 0.662628
vt 0.576220 0.897700
vt 0.542657 0.959476
vt 0.045199 0.714368
vt 0.071213 0.732491
vt 0.059354 0.739457
vt 0.083898 0.733675
vt 0.086129 0.797487
vt 0.089335 0.717423
vt 0.239249 0.661515
vt 0.196373 0.550445
vt 0.286448 0.657180
vt 0.007313 0.713337
vt 0.038354 0.703216
vt 0.038413 0.731356
vt 0.189394 0.493396
vt 0.183457 0.512184
vt 0.177267 0.511725
vt 0.365105 0.729467
vt 0.362795 0.768524
vt 0.342010 0.866955
vt 0.105835 0.756483
vt 0.514634 0.664633
vt 0.513286 0.612336
vt 0.518575 0.606346
vt 0.523025 0.550674
vt 0.523025 0.615043
vt 0.801863 0.510181
vt 0.735189 0.485340
vt 0.912965 0.487195
vt 0.491537 0.676502
vt 0.479292 0.697727
vt 0.453241 0.683430
vt 0.404669 0.052765
vt 0.345822 0.174480
vt 0.346003 0.041323
vt 0.853993 0.981575
vt 0.807154 0.513387
vt 0.853993 0.517203
vt 0.568325 0.652213
vt 0.700463 0.628258
vt 0.467990 0.726187
vt 0.413056 0.550674
vt 0.372853 0.910088
vt 0.370245 0.766679
vt 0.685480 0.503853
vt 0.700463 0.503891
vt 0.195714 0.741004
vt 0.195916 0.729489
vt 0.243504 0.709522
vt 0.086129 0.704390
vt 0.076664 0.779170
vt 0.186065 0.742785
vt 0.175039 0.740492
vt 0.174872 0.736899
vt 0.492251 0.702123
vt 0.488119 0.499361
vt 0.529237 0.406982
vt 0.521961 0.547467
vt 0.354524 0.023457
vt 0.344766 0.030165
vt 0.869045 0.702575
vt 0.868104 0.638572
vt 0.887150 0.513387
vt 0.697643 0.969118
vt 0.696477 0.996273
vt 0.558613 0.998397
vt 0.155995 0.001603
vt 0.091600 0.127950
vt 0.027232 0.121078
vt 0.935185 0.491591
vt 0.935185 0.946167
vt 0.916172 0.596643
vt 0.485076 0.304233
vt 0.414126 0.404698
vt 0.517513 0.120946
vt 0.421954 0.202337
vt 0.509713 0.702564
vt 0.498346 0.721550
vt 0.498313 0.698535
vt 0.333594 0.676909
vt 0.333446 0.718297
vt 0.041993 0.901034
vt 0.001603 0.730087
vt 0.496367 0.673227
vt 0.507749 0.650995
vt 0.498112 0.550674
vt 0.916172 0.012643
vt 0.938281 0.465943
vt 0.924965 0.467138
vt 0.361270 0.015742
vt 0.496631 0.001603
vt 0.411794 0.297848
vt 0.376087 0.297572
vt 0.348126 0.247690
vt 0.489372 0.441177
vt 0.715834 0.898829
vt 0.703669 0.897974
vt 0.715834 0.503853
vt 0.435517 0.949816
vt 0.406137 0.943234
vt 0.323767 0.586418
vt 0.741174 0.624439
vt 0.784977 0.521844
vt 0.506285 0.301678
vt 0.529237 0.307058
vt 0.587966 0.500646
vt 0.547603 0.475899
vt 0.725809 0.476305
vt 0.154926 0.630011
vt 0.120552 0.638367
vt 0.136039 0.620380
vt 0.016963 0.156733
vt 0.013217 0.131882
vt 0.035332 0.139144
vt 0.125059 0.242956
vt 0.156175 0.334695
vt 0.113086 0.268940
vt 0.334090 0.001603
vt 0.338804 0.008167
vt 0.320367 0.019530
vt 0.334286 0.035094
vt 0.222217 0.361731
vt 0.175435 0.459715
vt 0.183618 0.479428
vt 0.174872 0.483207
vt 0.242163 0.368452
vt 0.133928 0.341044
vt 0.129697 0.323232
vt 0.171666 0.515229
vt 0.151185 0.509859
vt 0.096994 0.677192
vt 0.132501 0.655927
vt 0.931390 0.488385
vt 0.944152 0.487420
vt 0.013725 0.690678
vt 0.060401 0.680399
vt 0.372387 0.575847
vt 0.375674 0.566346
vt 0.362134 0.803729
vt 0.751078 0.501002
vt 0.729016 0.091079
vt 0.880173 0.001603
vt 0.912965 0.022823
vt 0.897533 0.005036
vt 0.897414 0.503130
vt 0.485709 0.550674
vt 0.493160 0.553512
vt 0.585843 0.636813
vt 0.438723 0.706158
vt 0.380551 0.551227
vt 0.333594 0.752567
vt 0.887150 0.907695
vt 0.883556 0.907555
vt 0.878199 0.898318
vt 0.858637 0.752148
vt 0.857200 0.768791
vt 0.542131 0.979404
vt 0.542559 0.963203
vt 0.171666 0.018196
vt 0.493160 0.726014
vt 0.211565 0.673702
vt 0.412389 0.308037
vt 0.441203 0.307688
vt 0.510079 0.724872
vt 0.510079 0.555212
vt 0.944152 0.001603
vt 0.342010 0.313060
vt 0.368699 0.431051
vt 0.348488 0.442910
vt 0.344498 0.191970
vt 0.435517 0.555152
vt 0.338804 0.643322
vt 0.338004 0.605291
vt 0.838178 0.979371
vt 0.741436 0.867696
vt 0.730875 0.811911
vt 0.729016 0.793698
vt 0.441145 0.299804
vt 0.682329 0.001603
vt 0.710310 0.004596
vt 0.725809 0.021731
vt 0.532444 0.081213
vt 0.710235 0.492122
vt 0.564133 0.491913
vt 0.001603 0.152367
vt 0.080241 0.662525
vt 0.041993 0.680399
vn -0.0154 0.3773 0.9260
vn -0.0908 0.4769 -0.8742
vn -0.8788 0.0139 0.4770
vn 0.9903 0.0890 0.1067
vn -0.1707 0.3552 -0.9191
vn 0.6392 0.5711 -0.5150
vn 0.9414 -0.0100 -0.3371
vn 0.7872 0.3524 -0.5062
vn 0.0297 0.9466 0.3209
vn 0.0521 0.4092 0.9110
vn 0.0863 0.4861 -0.8697
vn 0.0968 0.8304 0.5487
vn -0.0528 0.9122 0.4063
vn -0.0464 0.8845 0.4642
vn 0.0677 0.9676 0.2433
vn 0.0307 0.3344 -0.9419
vn -0.9842 -0.0222 -0.1756
vn -0.1370 0.6097 0.7807
vn -0.0086 -0.9999 0.0115
vn -0.0913 -0.0118 -0.9958
vn -0.7186 0.6446 -0.2609
vn -0.0447 0.9170 -0.3964
vn 0.2243 0.0075 -0.9745
vn -0.9830 0.1652 0.0800
vn 0.9884 0.1085 0.1064
vn -0.8756 0.0955 0.4734
vn -0.6890 0.7244 0.0223
vn -0.7455 0.0598 0.6638
vn 0.5872 -0.4229 0.6902
vn -0.3829 0.6711 0.6348
vn -0.0469 0.9310 -0.3621
vn -0.3032 0.1114 -0.9464
vn 0.8395 0.4114 0.3549
vn -0.0085 -0.9999 0.0131
vn -0.5068 0.5766 0.6409
vn 0.7779 0.4451 -0.4436
vn 0.1794 0.1250 0.9758
vn -0.1902 0.0373 0.9810
vn -0.9950 -0.0406 -0.0911
vn 0.8520 0.5184 -0.0734
vn 0.9537 0.0249 -0.2996
vn -0.9019 0.0207 0.4314
vn -0.9980 -0.0381 -0.0496
vn -0.0085 -0.9999 0.0132
vn -0.8418 0.0264 0.5392
vn 0.1536 0.8388 0.5223
vn 0.6436 0.3327 0.6893
vn -0.0131 0.9999 -0.0107
vn 0.0792 0.9921 0.0978
vn 0.5216 0.4685 -0.7131
vn -0.0086 -0.9999 0.0143
vn -0.0968 0.2474 0.9641
vn 0.0034 0.3405 -0.9402
vn -0.6704 -0.6966 0.2556
vn 0.6088 -0.7786 0.1522
vn 0.3636 -0.8224 0.4377
vn 0.1370 -0.6833 0.7172
vn -0.6928 -0.7207 -0.0226
vn -0.2829 -0.4202 -0.8622
vn -0.0685 -0.5516 -0.8313
vn 0.6635 -0.7256 -0.1826
vn 0.1991 -0.4400 -0.8756
vn 0.0528 -0.7526 0.6564
vn -0.2801 -0.7209 0.6339
vn -0.6893 -0.7225 -0.0544
vn -0.0603 -0.7432 0.6663
vn -0.6697 -0.7405 0.0561
vn 0.6801 -0.6898 -0.2483
vn 0.9191 -0.3373 0.2035
vn -0.0908 0.4770 -0.8742
vn -0.8972 0.0301 0.4406
vn 0.9535 -0.0227 -0.3006
vn 0.9626 -0.0033 -0.2708
vn -0.0227 0.9997 -0.0103
vn -0.0628 0.9876 -0.1441
vn -0.0227 0.9997 -0.0102
vn 0.0122 0.3412 -0.9399
vn -0.0091 0.3352 -0.9421
vn 0.2822 0.3719 -0.8844
vn -0.1339 0.6040 -0.7856
vn 0.0124 0.2907 -0.9567
vn -0.0068 0.3275 -0.9448
vn -0.9875 0.0092 -0.1571
vn -0.9984 -0.0422 -0.0382
vn -0.1335 0.6029 0.7865
vn -0.0907 -0.0117 -0.9958
vn -0.6916 0.6599 -0.2935
vn -0.0698 0.9834 -0.1677
vn -0.0244 0.9584 -0.2845
vn -0.0346 0.9450 -0.3252
vn -0.0474 0.9385 -0.3419
vn -0.1340 0.9213 -0.3649
vn 0.2240 0.0104 -0.9745
vn -0.9387 0.0090 0.3446
vn -0.9422 0.0039 0.3350
vn 0.9880 0.1534 -0.0195
vn -0.8757 0.0955 0.4734
vn 0.5871 -0.4115 0.6972
vn -0.3512 0.5732 0.7404
vn -0.0131 0.9997 -0.0188
vn -0.0060 0.9946 -0.1038
vn -0.3031 0.1152 -0.9460
vn -0.3031 0.1153 -0.9460
vn -0.3037 0.1113 -0.9463
vn 0.7717 0.4019 0.4929
vn 0.8557 -0.0089 0.5173
vn -0.6844 0.5643 0.4617
vn 0.8216 0.5609 -0.1017
vn 0.8887 0.3644 0.2782
vn 0.1938 0.0684 0.9787
vn 0.1757 0.1301 0.9758
vn 0.2074 0.1917 0.9593
vn 0.1649 0.1253 0.9783
vn -0.9309 0.3594 0.0645
vn -0.9926 -0.0972 0.0722
vn -0.0086 -0.9999 0.0107
vn -0.4108 -0.1576 0.8980
vn -0.5321 0.4621 0.7094
vn 0.1371 0.7553 0.6408
vn 0.0548 0.6574 0.7516
vn -0.3359 0.7042 0.6255
vn 0.0760 0.8938 0.4419
vn 0.0881 0.6626 0.7438
vn 0.0545 0.6606 0.7487
vn 0.0247 0.6651 0.7464
vn -0.0610 0.7252 0.6858
vn 0.0378 0.8682 0.4948
vn -0.0172 0.9876 0.1558
vn 0.4275 0.5312 -0.7315
vn 0.5205 0.4572 -0.7211
vn 0.4912 0.4749 -0.7302
vn 0.6678 0.4481 -0.5944
vn -0.0084 -0.9999 0.0140
vn -0.0004 -0.9998 0.0220
vn -0.0083 -0.9999 0.0139
vn -0.0084 -0.9999 0.0137
vn -0.0085 -0.9999 0.0136
vn 0.0644 0.1134 0.9915
vn 0.0587 0.0745 0.9955
vn -0.0629 -0.0557 0.9965
vn -0.5496 0.1010 0.8293
vn 0.0395 0.2901 -0.9562
vn -0.0161 0.4111 -0.9115
vn -0.0311 0.3352 -0.9416
vn 0.0198 0.3402 -0.9402
vn -0.0276 0.3589 -0.9330
vn -0.1493 0.3711 -0.9165
vn -0.6712 -0.6959 0.2552
vn 0.6005 -0.7924 0.1075
vn 0.3415 -0.8400 0.4215
vn 0.1140 -0.7225 0.6819
vn -0.0706 -0.7156 -0.6949
vn 0.1055 -0.7130 -0.6932
vn -0.3087 -0.6758 0.6693
vn -0.6893 -0.7224 -0.0544
vn -0.0758 -0.6841 0.7254
vn -0.6729 -0.7363 0.0712
vn 0.6650 -0.7005 -0.2591
usemtl None
s off
f 1/1/1 12/2/1 13/3/1
f 10/4/2 26/5/2 27/6/2
f 19/7/3 9/8/3 20/9/3
f 33/10/4 32/11/4 9/8/4
f 3/12/5 1/1/5 13/3/5
f 50/13/6 49/14/6 5/15/6
f 61/16/7 75/17/7 54/18/7
f 29/19/8 53/20/8 54/21/8
f 4/22/9 12/23/9 10/24/9
f 13/3/10 12/2/10 4/25/10
f 13/3/11 4/25/11 3/12/11
f 14/26/12 17/27/12 15/28/12
f 15/28/13 17/27/13 16/29/13
f 16/29/14 18/30/14 15/28/14
f 15/28/15 18/30/15 14/26/15
f 45/31/16 46/32/16 78/33/16
f 42/34/17 6/35/17 25/36/17
f 40/37/18 37/38/18 38/39/18
f 60/40/19 59/41/19 78/42/19
f 11/43/20 67/44/20 26/5/20
f 7/45/21 25/36/21 6/35/21
f 7/46/22 5/47/22 3/48/22
f 67/44/23 29/49/23 69/50/23
f 30/51/24 44/52/24 45/53/24
f 9/8/25 34/54/25 33/10/25
f 9/8/26 36/55/26 20/9/26
f 31/56/27 8/57/27 46/58/27
f 42/34/28 41/59/28 6/35/28
f 51/60/29 63/61/29 48/62/29
f 31/63/30 38/39/30 8/64/30
f 18/65/31 16/66/31 56/67/31
f 66/68/32 65/69/32 25/70/32
f 56/71/33 51/72/33 55/73/33
f 76/74/34 73/75/34 68/76/34
f 41/59/35 7/45/35 6/35/35
f 54/21/36 53/20/36 49/14/36
f 36/77/37 63/61/37 21/78/37
f 80/79/38 39/80/38 40/37/38
f 44/81/27 43/82/27 41/83/27
f 77/84/39 58/85/39 45/53/39
f 56/86/40 55/87/40 54/18/40
f 55/87/41 61/16/41 54/18/41
f 44/81/42 42/88/42 45/89/42
f 74/90/43 45/89/43 42/88/43
f 76/91/44 78/92/44 73/93/44
f 40/37/45 30/94/45 71/95/45
f 34/96/46 2/97/46 17/98/46
f 51/60/47 21/78/47 22/99/47
f 43/100/48 46/101/48 56/102/48
f 56/103/49 50/104/49 5/47/49
f 29/19/50 28/105/50 49/14/50
f 79/106/51 70/107/51 59/41/51
f 32/108/52 80/79/52 35/109/52
f 42/110/53 43/111/53 73/112/53
f 71/113/54 59/114/54 70/115/54
f 57/116/55 61/117/55 48/118/55
f 63/119/56 57/116/56 48/118/56
f 35/120/57 62/121/57 63/119/57
f 74/122/58 65/123/58 73/124/58
f 65/123/59 66/125/59 73/124/59
f 66/125/60 68/126/60 73/124/60
f 76/127/61 69/128/61 75/129/61
f 76/127/62 67/130/62 69/128/62
f 35/120/63 72/131/63 64/132/63
f 80/133/64 70/115/64 79/134/64
f 77/135/65 59/114/65 58/136/65
f 35/120/66 79/134/66 72/131/66
f 74/137/67 78/92/67 77/138/67
f 60/139/68 75/17/68 61/16/68
f 48/118/69 61/117/69 55/73/69
f 10/4/70 11/43/70 26/5/70
f 19/7/71 2/140/71 9/8/71
f 54/21/72 75/129/72 29/19/72
f 75/129/73 69/128/73 29/19/73
f 27/141/74 23/142/74 4/22/74
f 12/23/75 1/143/75 10/24/75
f 27/141/76 4/22/76 10/24/76
f 45/31/77 44/144/77 46/32/77
f 46/32/78 56/145/78 78/33/78
f 56/145/79 55/146/79 60/147/79
f 55/146/80 61/148/80 60/147/80
f 60/147/81 78/33/81 56/145/81
f 78/33/82 77/149/82 45/31/82
f 25/36/83 65/150/83 42/34/83
f 65/150/84 74/151/84 42/34/84
f 40/37/85 39/80/85 37/38/85
f 28/152/86 67/44/86 11/43/86
f 67/44/20 66/68/20 26/5/20
f 7/45/87 24/153/87 25/36/87
f 5/47/88 10/24/88 1/143/88
f 3/48/89 4/22/89 7/46/89
f 4/22/90 23/142/90 7/46/90
f 5/47/91 1/143/91 3/48/91
f 24/154/92 7/46/92 23/142/92
f 67/44/93 28/152/93 29/49/93
f 45/53/94 58/85/94 71/155/94
f 71/155/95 30/51/95 45/53/95
f 9/8/96 2/140/96 34/54/96
f 9/8/97 32/11/97 36/55/97
f 46/58/27 44/52/27 31/56/27
f 44/52/27 30/51/27 31/56/27
f 51/60/98 22/99/98 63/61/98
f 31/63/99 40/37/99 38/39/99
f 56/67/100 46/156/100 18/65/100
f 46/156/76 8/157/76 38/158/76
f 18/65/101 46/156/101 14/159/101
f 38/158/76 37/160/76 46/156/76
f 37/160/74 14/159/74 46/156/74
f 24/161/102 23/162/102 25/70/102
f 23/162/103 27/6/103 25/70/103
f 27/6/102 26/5/102 25/70/102
f 26/5/104 66/68/104 25/70/104
f 52/163/105 51/72/105 56/71/105
f 51/72/106 48/118/106 55/73/106
f 41/59/107 43/164/107 7/45/107
f 49/14/108 50/13/108 56/165/108
f 56/165/109 54/21/109 49/14/109
f 21/78/110 19/166/110 20/167/110
f 20/167/111 36/77/111 21/78/111
f 36/77/112 35/109/112 63/61/112
f 21/78/113 63/61/113 22/99/113
f 44/81/27 46/168/27 43/82/27
f 44/81/114 41/83/114 42/88/114
f 74/90/115 77/169/115 45/89/115
f 76/91/116 60/170/116 78/92/116
f 71/95/117 80/79/117 40/37/117
f 40/37/118 31/63/118 30/94/118
f 19/166/119 21/78/119 16/171/119
f 21/78/120 52/172/120 16/171/120
f 19/166/121 16/171/121 2/97/121
f 52/172/122 56/173/122 16/171/122
f 17/98/123 14/174/123 39/80/123
f 14/174/124 37/38/124 39/80/124
f 16/171/125 17/98/125 2/97/125
f 39/80/126 34/96/126 17/98/126
f 51/60/47 52/172/47 21/78/47
f 5/47/127 7/46/127 43/175/127
f 43/175/128 56/103/128 5/47/128
f 10/176/129 5/15/129 11/177/129
f 5/15/130 49/14/130 28/105/130
f 11/177/131 5/15/131 28/105/131
f 49/14/132 53/20/132 29/19/132
f 59/41/133 60/40/133 79/106/133
f 60/40/134 57/178/134 62/179/134
f 64/180/135 60/40/135 62/179/135
f 64/180/136 72/181/136 60/40/136
f 72/181/137 79/106/137 60/40/137
f 32/108/138 33/182/138 39/80/138
f 33/182/139 34/96/139 39/80/139
f 39/80/140 80/79/140 32/108/140
f 35/109/141 36/77/141 32/108/141
f 54/183/142 75/184/142 76/185/142
f 76/185/143 73/112/143 56/186/143
f 73/112/144 74/187/144 42/110/144
f 56/186/145 73/112/145 43/111/145
f 42/110/146 41/188/146 43/111/146
f 56/186/147 54/183/147 76/185/147
f 71/113/148 58/136/148 59/114/148
f 57/116/149 60/189/149 61/117/149
f 63/119/150 62/121/150 57/116/150
f 35/120/151 64/132/151 62/121/151
f 66/125/152 67/130/152 68/126/152
f 76/127/153 68/126/153 67/130/153
f 80/133/154 71/113/154 70/115/154
f 77/135/155 78/190/155 59/114/155
f 35/120/156 80/133/156 79/134/156
f 74/137/157 73/93/157 78/92/157
f 60/139/158 76/191/158 75/17/158
l 54 47
