# Blender v3.1.2 OBJ File: 'Modules.blend'
# www.blender.org
mtllib Face_Droite.mtl
o Face_D_Box001_OK.010
v 0.000000 0.000000 2.999950
v 0.030000 2.790199 2.847675
v 0.030000 0.180100 2.847676
v 0.000000 3.000000 2.999950
v 0.000000 2.790199 2.847675
v 0.000000 0.180100 2.847676
v -0.000000 2.790198 -0.000050
v -0.000000 -0.000000 -0.000000
v -0.000000 0.180099 -0.000050
v -0.000000 3.000000 -0.000001
v 0.030000 2.790198 -0.000050
v 0.030000 0.180099 -0.000050
vt 0.536686 0.503983
vt 0.536686 0.008035
vt 0.991243 0.008035
vt 0.991243 0.503983
vt 0.000102 0.490906
vt 0.501041 0.490905
vt 0.527827 0.527810
vt 0.000110 0.527811
vt 0.528030 0.504032
vt 0.528030 0.008084
vt 0.000104 0.031782
vt 0.000112 0.000102
vt 0.527827 0.000103
vt 0.501041 0.031783
vt 0.536646 0.000102
vt 0.991203 0.000102
vt 0.999898 0.504044
vt 0.999898 0.008096
vn -1.0000 0.0000 0.0000
vn 0.0000 1.0000 -0.0000
vn 0.0000 -0.0000 -1.0000
vn 0.0000 -1.0000 0.0000
usemtl Default_OBJ
s off
f 12/1/1 3/2/1 2/3/1 11/4/1
f 7/5/1 5/6/1 4/7/1 10/8/1
f 9/9/2 6/10/2 3/2/2 12/1/2
f 9/11/1 8/12/1 1/13/1 6/14/1
f 6/15/3 5/16/3 2/3/3 3/2/3
f 6/14/1 1/13/1 4/7/1 5/6/1
f 7/17/4 11/4/4 2/3/4 5/18/4
