# Blender v3.1.2 OBJ File: 'Modules.blend'
# www.blender.org
mtllib Face_Front.mtl
o Face_F_Box001_OK.012
v -0.000000 0.000000 -0.000000
v 0.000000 0.000000 3.000000
v 0.030000 2.790198 2.850490
v 0.030000 2.790198 0.149509
v 0.030000 0.180099 0.149509
v 0.030000 0.180099 2.850490
v 0.000000 3.000000 -0.000000
v 0.000000 2.790198 2.850490
v 0.000000 0.180099 2.850490
v 0.000000 0.180099 0.149509
v 0.000000 2.790198 0.149509
v -0.000001 3.000000 3.000000
vt 0.991610 0.008032
vt 0.991610 0.482930
vt 0.537191 0.482930
vt 0.537191 0.008032
vt 0.496967 0.507331
vt 0.528700 0.533935
vt 0.000101 0.533934
vt 0.037068 0.507330
vt 0.037069 0.026706
vt 0.000102 0.000102
vt 0.528700 0.000101
vt 0.496966 0.026706
vt 0.528903 0.482974
vt 0.528903 0.008077
vt 0.537151 0.000101
vt 0.991570 0.000101
vt 0.991650 0.490861
vt 0.537231 0.490861
vt 0.999899 0.007988
vt 0.999899 0.482886
vn -1.0000 0.0000 0.0000
vn 0.0000 -1.0000 0.0000
vn 0.0000 0.0000 1.0000
vn 0.0000 0.0000 -1.0000
vn 0.0000 1.0000 -0.0000
usemtl Default_OBJ
s off
f 5/1/1 6/2/1 3/3/1 4/4/1
f 9/5/1 2/6/1 12/7/1 8/8/1
f 11/9/1 7/10/1 1/11/1 10/12/1
f 9/5/1 10/12/1 1/11/1 2/6/1
f 11/9/1 8/8/1 12/7/1 7/10/1
f 8/13/2 11/14/2 4/4/2 3/3/2
f 11/15/3 10/16/3 5/1/3 4/4/3
f 9/17/4 8/18/4 3/3/4 6/2/4
f 10/19/5 9/20/5 6/2/5 5/1/5
