# Blender v3.1.2 OBJ File: 'Modules.blend'
# www.blender.org
mtllib Mur_F_2c.mtl
o Mur_F_2c_Box001_OK.003
v 3.000000 -0.000001 2.999999
v 0.000000 -0.000001 2.999999
v 0.149510 2.970296 2.847822
v 2.850490 2.970296 2.847822
v 2.850490 2.790197 2.970296
v 0.149510 2.790197 2.970296
v 0.149510 0.180098 2.970296
v 2.850490 0.180098 2.970296
v 0.029412 2.790197 2.847822
v 0.029412 0.180098 2.847821
v 3.000000 2.999999 3.000000
v 2.850490 2.999999 2.847822
v 0.149510 2.999999 2.847822
v 0.000000 2.999999 3.000000
v 0.000000 2.790197 2.847822
v 0.000000 0.180098 2.847821
v 2.850490 2.790197 3.000000
v 2.850490 0.180098 2.999999
v 0.149510 0.180098 2.999999
v 0.149510 2.790197 3.000000
v 0.000000 2.999999 0.000000
v 0.149510 2.999999 0.000050
v 0.000000 -0.000000 0.000000
v 2.850490 2.999999 0.000050
v 3.000000 2.999999 0.000000
v 0.149510 2.970296 0.000050
v 0.029412 2.790197 0.000050
v 0.000000 2.790197 0.000050
v 0.000000 0.180099 0.000049
v 2.850490 2.970296 0.000050
v 0.029412 0.180099 0.000049
vt 0.985323 0.358575
vt 0.985323 0.672361
vt 0.685067 0.672361
vt 0.685067 0.358575
vt 0.353366 0.693219
vt 0.681610 0.693219
vt 0.681610 0.994069
vt 0.353366 0.994069
vt 0.331759 0.017781
vt 0.349476 0.000202
vt 0.349476 0.352930
vt 0.331758 0.335351
vt 0.335351 0.377761
vt 0.017781 0.377761
vt 0.000202 0.353335
vt 0.352929 0.353335
vt 0.374306 0.000208
vt 0.374307 0.331756
vt 0.349881 0.349474
vt 0.349880 0.000202
vt 0.678182 0.331756
vt 0.699149 0.349473
vt 0.000208 0.335351
vt 0.000202 0.352930
vt 0.685041 0.353335
vt 0.985296 0.353335
vt 0.352929 0.702604
vt 0.335350 0.681637
vt 0.679186 0.353335
vt 0.679186 0.681567
vt 0.673458 0.681599
vt 0.673458 0.353367
vt 0.686861 0.693193
vt 0.686861 0.994043
vt 0.673487 0.687086
vt 0.359092 0.687086
vt 0.359062 0.681599
vt 0.678182 0.000214
vt 0.699149 0.000208
vt 0.353334 0.687490
vt 0.681578 0.687490
vt 0.679591 0.672391
vt 0.679591 0.358604
vt 0.017781 0.681637
vt 0.000202 0.702605
vt 0.990799 0.358546
vt 0.990799 0.672332
vt 0.985349 0.677602
vt 0.685094 0.677602
vt 0.681643 0.999798
vt 0.353398 0.999798
vt 0.353334 0.681631
vt 0.353334 0.353399
vt 0.359062 0.353367
vt 0.000223 0.017781
vt 0.000217 0.000202
vn 0.0000 0.0000 1.0000
vn -1.0000 0.0000 0.0000
vn 0.0000 1.0000 0.0000
vn 1.0000 -0.0000 0.0000
vn 0.0000 0.0000 -1.0000
vn 0.0000 -1.0000 0.0000
usemtl Default_OBJ.001
s off
f 7/1/1 8/2/1 5/3/1 6/4/1
f 31/5/2 10/6/2 9/7/2 27/8/2
f 13/9/3 14/10/3 11/11/3 12/12/3
f 20/13/1 17/14/1 11/15/1 14/16/1
f 28/17/2 15/18/2 14/19/2 21/20/2
f 16/21/2 2/22/2 14/19/2 15/18/2
f 24/23/3 12/12/3 11/11/3 25/24/3
f 20/25/4 19/26/4 7/1/4 6/4/4
f 20/13/1 14/16/1 2/27/1 19/28/1
f 22/29/4 13/30/4 3/31/4 26/32/4
f 16/33/5 15/34/5 9/7/5 10/6/5
f 13/35/5 12/36/5 4/37/5 3/31/5
f 16/21/2 29/38/2 23/39/2 2/22/2
f 29/40/3 16/41/3 10/6/3 31/5/3
f 17/42/6 20/43/6 6/4/6 5/3/6
f 18/44/1 1/45/1 11/15/1 17/14/1
f 19/46/3 18/47/3 8/2/3 7/1/3
f 18/44/1 19/28/1 2/27/1 1/45/1
f 18/48/2 17/49/2 5/3/2 8/2/2
f 15/50/6 28/51/6 27/8/6 9/7/6
f 12/52/2 24/53/2 30/54/2 4/37/2
f 4/37/3 30/54/3 26/32/3 3/31/3
f 13/9/3 22/55/3 21/56/3 14/10/3
