# Blender v3.1.2 OBJ File: 'Modules.blend'
# www.blender.org
mtllib Mur_cont__ang_2c.mtl
o Mur_cont_ang_2c_Box001_OK.025
v 3.000000 -0.000001 2.999999
v 0.000000 -0.000001 2.999999
v 0.149510 2.970296 2.847822
v 2.850490 2.790197 2.970296
v 0.149510 2.790197 2.970296
v 0.149510 0.180098 2.970296
v 2.850490 0.180098 2.970296
v 0.029412 2.790197 2.847822
v 0.029412 0.180098 2.847821
v 3.000000 2.999999 3.000000
v 0.149510 2.999999 2.847822
v 0.000000 2.999999 3.000000
v 0.000000 2.790197 2.847822
v 0.000000 0.180098 2.847821
v 2.850490 2.790197 3.000000
v 2.850490 0.180098 2.999999
v 0.149510 0.180098 2.999999
v 0.149510 2.790197 3.000000
v 0.000000 2.999999 0.000000
v 0.149510 2.999999 0.000050
v 0.000000 -0.000000 0.000000
v 2.850490 2.999999 0.000050
v 3.000000 2.999999 0.000000
v 0.149510 2.970296 0.000050
v 0.029412 2.790197 0.000050
v 0.000000 2.790197 0.000050
v 0.000000 0.180099 0.000049
v 2.850490 2.970296 0.000050
v 0.029412 0.180099 0.000049
v 3.000000 2.999999 2.850492
v 3.000000 2.999999 0.149556
v 2.850490 2.999999 0.149557
v 2.850490 2.970296 0.149557
v 3.000000 2.970296 0.149556
v 3.000000 2.970296 2.850492
vt 0.686541 0.994618
vt 0.686541 0.684477
vt 0.983308 0.684477
vt 0.983308 0.994618
vt 0.984145 0.349271
vt 0.984145 0.673702
vt 0.686791 0.673702
vt 0.686791 0.349271
vt 0.676929 0.017577
vt 0.694440 0.000203
vt 0.694440 0.348834
vt 0.677235 0.348834
vt 0.017577 0.321273
vt 0.331458 0.321273
vt 0.348832 0.345415
vt 0.000203 0.345415
vt 0.024345 0.345826
vt 0.024345 0.673523
vt 0.000203 0.691035
vt 0.000203 0.345821
vt 0.324691 0.673523
vt 0.345415 0.691034
vt 0.349243 0.687751
vt 0.366447 0.687751
vt 0.366447 0.705125
vt 0.349237 0.705126
vt 0.983334 0.999798
vt 0.686567 0.999797
vt 0.000203 0.000203
vt 0.017577 0.020928
vt 0.680723 0.683928
vt 0.355283 0.683895
vt 0.355251 0.678215
vt 0.680692 0.678248
vt 0.984171 0.678892
vt 0.686817 0.678892
vt 0.349510 0.678252
vt 0.349237 0.349276
vt 0.354979 0.349239
vt 0.324691 0.345832
vt 0.345415 0.345827
vt 0.989807 0.349239
vt 0.989807 0.673670
vt 0.988721 0.684448
vt 0.988721 0.994589
vt 0.331457 0.020927
vt 0.348832 0.000203
vt 0.681128 0.994647
vt 0.681128 0.684506
vt 0.686515 0.679297
vt 0.983282 0.679297
vt 0.681128 0.673734
vt 0.681128 0.349303
vt 0.663639 0.349270
vt 0.663638 0.366525
vt 0.680723 0.366527
vt 0.349243 0.017577
vt 0.349237 0.000203
vt 0.369865 0.687751
vt 0.369865 0.705125
vt 0.366447 0.684333
vt 0.349243 0.684333
vn 0.0000 0.0000 1.0000
vn -1.0000 0.0000 0.0000
vn 0.0000 1.0000 0.0000
vn 1.0000 -0.0000 0.0000
vn 0.0000 0.0000 -1.0000
vn 0.0009 0.0000 -1.0000
vn 0.0000 -1.0000 0.0000
usemtl Default_OBJ.017
s off
f 6/1/1 7/2/1 4/3/1 5/4/1
f 29/5/2 9/6/2 8/7/2 25/8/2
f 11/9/3 12/10/3 10/11/3 30/12/3
f 18/13/1 15/14/1 10/15/1 12/16/1
f 26/17/2 13/18/2 12/19/2 19/20/2
f 14/21/2 2/22/2 12/19/2 13/18/2
f 22/23/3 32/24/3 31/25/3 23/26/3
f 18/27/4 17/28/4 6/1/4 5/4/4
f 18/13/1 12/16/1 2/29/1 17/30/1
f 20/31/4 11/32/4 3/33/4 24/34/4
f 14/35/5 13/36/5 8/7/5 9/6/5
f 11/37/6 30/38/6 35/39/6 3/33/6
f 14/21/2 27/40/2 21/41/2 2/22/2
f 27/42/3 14/43/3 9/6/3 29/5/3
f 15/44/7 18/45/7 5/4/7 4/3/7
f 16/46/1 1/47/1 10/15/1 15/14/1
f 17/48/3 16/49/3 7/2/3 6/1/3
f 16/46/1 17/30/1 2/29/1 1/47/1
f 16/50/2 15/51/2 4/3/2 7/2/2
f 13/52/7 26/53/7 25/8/7 8/7/7
f 34/54/3 33/55/3 35/39/3
f 33/55/3 28/56/3 24/34/3
f 11/9/3 20/57/3 19/58/3 12/10/3
f 35/39/3 33/55/3 24/34/3 3/33/3
f 31/25/1 32/24/1 33/59/1 34/60/1
f 33/61/2 32/24/2 22/23/2 28/62/2
