# Blender v3.1.2 OBJ File: 'Modules.blend'
# www.blender.org
mtllib LD_Porte_Fenêtre_2.mtl
o Porte_Fenêtre_Box001_OK.002
v -0.036600 -0.040600 0.462400
v -0.054900 -0.040600 0.462400
v -0.051300 -0.040600 0.449200
v -0.036600 -0.040600 0.449200
v -0.036600 -0.025800 0.464000
v -0.054900 -0.025800 0.464000
v -0.054900 -0.039000 0.464000
v -0.036600 -0.039000 0.464000
v -0.036600 -0.024100 0.462400
v -0.036600 -0.024100 0.449200
v -0.051300 -0.024100 0.449200
v -0.054900 -0.024100 0.462400
v -0.036600 -0.039000 0.447500
v -0.048000 -0.039000 0.447500
v -0.048000 -0.025800 0.447500
v -0.036600 -0.025800 0.447500
v -0.054900 -0.039000 0.383300
v -0.054900 -0.025800 0.383300
v -0.051300 -0.025800 0.383300
v -0.051300 -0.039000 0.383300
v -0.049600 -0.039000 0.445900
v -0.049600 -0.039000 0.385000
v -0.049600 -0.025800 0.385000
v -0.049600 -0.025800 0.445900
v -0.054900 -0.040600 0.385000
v -0.051300 -0.040600 0.385000
v -0.056600 -0.025800 0.462400
v -0.056600 -0.025800 0.385000
v -0.056600 -0.039000 0.385000
v -0.056600 -0.039000 0.462400
v -0.051300 -0.024100 0.385000
v -0.054900 -0.024100 0.385000
v -0.041300 -0.111500 0.439900
v -0.041300 -0.111500 0.470100
v -0.041300 0.035500 0.470100
v -0.041300 0.035500 0.439900
v -0.031300 -0.121500 0.470100
v -0.031300 -0.111500 0.480100
v -0.031300 0.045500 0.439900
v -0.031300 0.035500 0.429900
v -0.031300 -0.111500 0.429900
v -0.031300 -0.121500 0.439900
v -0.031300 0.035500 0.480100
v -0.031300 0.045500 0.470100
v 0.000000 1.074800 -0.520000
v 0.000000 1.074800 0.520000
v -0.048200 1.074800 0.520000
v -0.048200 1.074800 -0.520000
v -0.048200 1.502000 0.520000
v 0.000000 1.502000 0.520000
v 0.000000 1.502000 -0.520000
v -0.048200 1.502000 -0.520000
v -0.020000 1.114600 -0.480000
v -0.020000 1.462200 -0.480000
v -0.020000 1.442200 -0.500000
v -0.020000 1.134600 -0.500000
v 0.000000 1.094800 0.540000
v 0.000000 1.482000 0.540000
v -0.048200 1.482000 0.540000
v -0.048200 1.094800 0.540000
v -0.048200 1.094800 -0.540000
v -0.048200 1.482000 -0.540000
v 0.000000 1.482000 -0.540000
v 0.000000 1.094800 -0.540000
v -0.048200 1.114600 -0.480000
v -0.048200 1.114600 0.480000
v -0.020000 1.114600 0.480000
v -0.048200 1.442200 -0.500000
v -0.048200 1.134600 -0.500000
v -0.020000 1.462200 0.480000
v -0.048200 1.462200 0.480000
v -0.048200 1.462200 -0.480000
v -0.020000 1.134600 0.500000
v -0.048200 1.134600 0.500000
v -0.048200 1.442200 0.500000
v -0.020000 1.442200 0.500000
v 0.000000 -1.040000 -0.520000
v 0.000000 -1.040000 0.520000
v -0.048200 -1.040000 0.520000
v -0.048200 -1.040000 -0.520000
v -0.048200 1.040000 0.520000
v 0.000000 1.040000 0.520000
v 0.000000 1.040000 -0.520000
v -0.048200 1.040000 -0.520000
v -0.031600 -1.000000 -0.500000
v -0.031600 -1.000000 0.500000
v -0.031600 1.000000 0.500000
v -0.031600 1.000000 -0.500000
v 0.000000 -1.020000 0.540000
v 0.000000 1.020000 0.540000
v -0.048200 1.020000 0.540000
v -0.048200 -1.020000 0.540000
v -0.048200 -1.020000 -0.540000
v -0.048200 1.020000 -0.540000
v 0.000000 1.020000 -0.540000
v 0.000000 -1.020000 -0.540000
v -0.048200 -1.000000 -0.500000
v -0.048200 -1.000000 0.500000
v -0.048200 1.000000 -0.500000
v -0.048200 1.000000 0.500000
vt 0.788182 0.357143
vt 0.788182 0.668831
vt 0.675325 0.668831
vt 0.675325 0.357143
vt 0.536330 0.654263
vt 0.533090 0.655284
vt 0.533090 0.649351
vt 0.536330 0.649497
vt 0.546636 0.649351
vt 0.546636 0.653047
vt 0.543830 0.653216
vt 0.543830 0.649520
vt 0.522253 0.669110
vt 0.522500 0.671910
vt 0.521333 0.671943
vt 0.521086 0.669143
vt 0.463261 0.649903
vt 0.463261 0.669675
vt 0.458975 0.669675
vt 0.458975 0.649903
vt 0.453618 0.649351
vt 0.453618 0.674481
vt 0.453099 0.674481
vt 0.453099 0.649351
vt 0.522500 0.655292
vt 0.522500 0.649351
vt 0.523052 0.649351
vt 0.523052 0.655292
vt 0.457904 0.674481
vt 0.457904 0.675033
vt 0.453618 0.675033
vt 0.521062 0.668365
vt 0.522228 0.668332
vt 0.527338 0.649351
vt 0.527338 0.655292
vt 0.547188 0.649870
vt 0.546636 0.649870
vt 0.547188 0.649351
vt 0.547839 0.650489
vt 0.548492 0.649351
vt 0.548492 0.650624
vt 0.549122 0.650057
vt 0.548492 0.649600
vt 0.549122 0.649351
vt 0.547839 0.649351
vt 0.547839 0.650639
vt 0.547188 0.649484
vt 0.549774 0.649351
vt 0.549774 0.650013
vt 0.549122 0.649628
vt 0.550917 0.650108
vt 0.550385 0.649774
vt 0.550917 0.649351
vt 0.550385 0.650027
vt 0.549774 0.649833
vt 0.550385 0.649351
vt 0.463813 0.649903
vt 0.463813 0.670747
vt 0.527857 0.649351
vt 0.527857 0.655292
vt 0.458456 0.649351
vt 0.458456 0.674481
vt 0.457904 0.649351
vt 0.463261 0.670195
vt 0.458975 0.670195
vt 0.458456 0.670747
vt 0.458456 0.649903
vt 0.458975 0.649351
vt 0.463261 0.649351
vt 0.529024 0.650153
vt 0.529056 0.666105
vt 0.527896 0.669338
vt 0.527857 0.650107
vt 0.537108 0.649494
vt 0.537108 0.653190
vt 0.533090 0.651453
vt 0.533090 0.655150
vt 0.532333 0.655148
vt 0.532333 0.650381
vt 0.547188 0.654156
vt 0.546636 0.654156
vt 0.527889 0.649351
vt 0.529056 0.649397
vt 0.521389 0.649351
vt 0.522500 0.652561
vt 0.547188 0.654708
vt 0.394301 0.652597
vt 0.394301 0.700325
vt 0.391054 0.700325
vt 0.391054 0.652597
vt 0.404106 0.649351
vt 0.407353 0.652597
vt 0.404106 0.652597
vt 0.540236 0.652189
vt 0.543830 0.649351
vt 0.543830 0.653329
vt 0.537108 0.651846
vt 0.540236 0.649351
vt 0.540236 0.653926
vt 0.404106 0.700325
vt 0.407353 0.700325
vt 0.404106 0.703571
vt 0.808636 1.000000
vt 0.808637 0.350649
vt 0.814026 0.350649
vt 0.814026 1.000000
vt 0.394301 0.703571
vt 0.394301 0.649351
vt 0.781688 0.675325
vt 0.681818 0.675325
vt 0.350649 0.775065
vt 0.350649 0.649351
vt 0.366299 0.649351
vt 0.366299 0.775065
vt 0.443949 0.649389
vt 0.443949 0.665019
vt 0.434799 0.664981
vt 0.434799 0.649351
vt 0.814026 0.006494
vt 0.814026 0.344156
vt 0.801104 0.331169
vt 0.801104 0.019481
vt 0.807533 0.350649
vt 0.681818 0.350649
vt 0.694740 0.337662
vt 0.794611 0.337662
vt 0.489787 0.649351
vt 0.498930 0.649385
vt 0.498930 0.658545
vt 0.489787 0.658510
vt 0.498930 0.649389
vt 0.508075 0.649351
vt 0.508075 0.658501
vt 0.498930 0.658539
vt 0.681818 0.350649
vt 0.781688 0.350649
vt 0.489787 0.649351
vt 0.489787 0.665000
vt 0.483293 0.665000
vt 0.483293 0.649351
vt 0.794611 0.012987
vt 0.807533 0.000000
vt 0.675325 0.649351
vt 0.350649 0.649351
vt 0.350649 0.000000
vt 0.675325 0.000000
vt 0.476800 0.665000
vt 0.476800 0.649351
vt 0.483293 0.649351
vt 0.483293 0.665000
vt 0.476800 0.649351
vt 0.476800 0.665000
vt 0.470306 0.665000
vt 0.470306 0.649351
vt 0.859798 0.474780
vt 0.850664 0.475192
vt 0.850664 0.239325
vt 0.859798 0.238913
vt 0.416479 0.665013
vt 0.416479 0.649385
vt 0.425639 0.649351
vt 0.425639 0.664979
vt 0.829675 0.258408
vt 0.829675 0.000000
vt 0.845292 0.000653
vt 0.845292 0.259061
vt 0.006494 0.675325
vt 0.012987 0.662338
vt 0.337662 0.662338
vt 0.344156 0.675325
vt 0.350649 0.668831
vt 0.337662 0.012987
vt 0.350649 0.006493
vt 0.344156 0.000000
vt 0.012987 0.012987
vt 0.006494 0.000000
vt 0.850664 0.000324
vt 0.850664 0.426162
vt 0.845292 0.425839
vt 0.845292 0.000000
vt 0.865177 0.248694
vt 0.865177 0.494389
vt 0.859801 0.494632
vt 0.859801 0.248937
vt 0.859801 0.248469
vt 0.859801 0.000000
vt 0.865179 0.000225
vt 0.865179 0.248694
vt 0.829675 0.517469
vt 0.829675 0.259061
vt 0.845292 0.259714
vt 0.845292 0.518122
vt 0.463813 0.665000
vt 0.463813 0.649351
vt 0.470306 0.649351
vt 0.470306 0.665000
vt 0.845287 0.518827
vt 0.860900 0.518122
vt 0.860900 0.773645
vt 0.845288 0.774350
vt 0.000000 0.006493
vt 0.000000 0.668831
vt 0.366299 0.731793
vt 0.366299 0.649351
vt 0.381898 0.650290
vt 0.381898 0.732732
vt 0.675325 0.006494
vt 0.688247 0.019481
vt 0.688247 0.331169
vt 0.675325 0.344156
vt 0.694740 0.012987
vt 0.681818 0.000000
vt 0.514568 0.649351
vt 0.514568 0.658506
vt 0.508075 0.658506
vt 0.508075 0.649351
vt 0.788182 0.785005
vt 0.788182 0.350649
vt 0.803782 0.351589
vt 0.803782 0.785944
vt 0.443949 0.664981
vt 0.443949 0.649351
vt 0.453099 0.649389
vt 0.453099 0.665019
vt 0.814026 0.662338
vt 0.814026 0.000000
vt 0.829675 0.000000
vt 0.829675 0.662338
vt 0.829675 0.518827
vt 0.845287 0.518122
vt 0.845287 0.773645
vt 0.829675 0.774350
vt 0.425639 0.665013
vt 0.425639 0.649385
vt 0.434799 0.649351
vt 0.434799 0.664979
vt 0.416479 0.715394
vt 0.407353 0.714845
vt 0.407353 0.649351
vt 0.416479 0.649900
vt 0.381898 0.649351
vt 0.391054 0.649351
vt 0.391054 0.749221
vt 0.381898 0.749221
vt 0.850664 0.000000
vt 0.859801 0.000382
vt 0.859801 0.238913
vt 0.850664 0.238531
vt 0.521061 0.649351
vt 0.521061 0.658506
vt 0.514568 0.658506
vt 0.514568 0.649351
vt 0.529056 0.655285
vt 0.529056 0.649351
vn -1.0000 0.0000 0.0000
vn -0.0007 1.0000 0.0009
vn 0.0065 1.0000 0.0054
vn 0.0119 0.9999 -0.0093
vn 0.0000 1.0000 0.0000
vn 0.0009 0.0010 -1.0000
vn 0.0000 0.0000 -1.0000
vn -0.0036 -0.0094 -0.9999
vn -0.0150 0.0020 -0.9999
vn -0.0073 -0.0093 -0.9999
vn -0.0146 0.0029 -0.9999
vn 1.0000 0.0000 0.0000
vn 1.0000 -0.0014 0.0001
vn 1.0000 -0.0060 -0.0047
vn 0.9998 0.0050 -0.0172
vn -0.6982 -0.7157 0.0157
vn -0.6801 -0.7331 -0.0068
vn -0.6854 -0.7277 0.0240
vn -0.6903 -0.7235 0.0048
vn -0.0078 0.6947 0.7193
vn -0.0051 0.6805 0.7328
vn 0.0239 0.6863 0.7269
vn 0.0000 0.6927 0.7213
vn -0.7129 0.0055 -0.7012
vn -0.7072 0.0000 -0.7071
vn -0.7121 -0.0131 -0.7020
vn 0.0000 0.7071 -0.7071
vn 0.0145 0.0029 0.9999
vn 0.0000 0.0000 1.0000
vn -0.0101 0.0000 0.9999
vn 0.0169 -0.0170 0.9997
vn -0.5622 -0.5925 0.5769
vn -0.5690 -0.5923 0.5705
vn -0.5497 -0.5861 0.5953
vn 0.2984 -0.9130 -0.2782
vn 0.2828 -0.9098 -0.3038
vn 0.2988 -0.9089 -0.2909
vn 0.5773 0.5774 -0.5774
vn 0.3058 0.9018 -0.3053
vn 0.3074 0.9009 -0.3064
vn 0.3064 0.9009 -0.3074
vn 0.5703 -0.6096 -0.5506
vn 0.5723 -0.5847 -0.5749
vn 0.5739 -0.5926 -0.5651
vn -0.5754 -0.5813 -0.5753
vn -0.5638 -0.5947 -0.5730
vn -0.5538 -0.6100 -0.5667
vn -0.5774 0.5774 -0.5773
vn 0.7071 0.7071 -0.0015
vn 0.7070 0.7072 0.0000
vn 0.7077 0.7065 -0.0006
vn 0.0058 -0.7113 0.7029
vn 0.0000 -0.7071 0.7071
vn 0.0071 -0.7162 0.6979
vn 0.0073 -0.7099 0.7042
vn -0.7026 0.7116 -0.0055
vn -0.7071 0.7071 0.0000
vn -0.7020 0.7120 0.0131
vn 0.7079 -0.0008 -0.7063
vn 0.7056 -0.0150 -0.7084
vn 0.7029 0.0046 -0.7113
vn 0.7082 0.0001 -0.7060
vn 0.6749 -0.7379 -0.0055
vn 0.6967 -0.7173 0.0122
vn 0.6981 -0.7160 -0.0024
vn 0.6850 -0.7285 0.0076
vn 0.6993 0.0045 -0.7148
vn 0.7071 0.0000 -0.7072
vn 0.7034 -0.0172 -0.7106
vn 0.7012 0.0086 -0.7129
vn -0.0004 -0.9998 0.0200
vn 0.0057 -0.9999 0.0140
vn -0.0060 -1.0000 -0.0058
vn 0.0170 -0.9997 0.0169
vn -0.0013 0.7071 -0.7071
vn 0.0009 0.7074 -0.7068
vn -0.0042 -0.7181 -0.6959
vn 0.0087 -0.7316 -0.6817
vn -0.0200 -0.7262 -0.6872
vn -0.0020 -0.7178 -0.6962
vn -0.6859 0.0147 0.7275
vn -0.6976 -0.0169 0.7163
vn -0.6960 -0.0026 0.7180
vn -0.6879 -0.0235 0.7254
vn -1.0000 -0.0082 0.0055
vn -0.9997 -0.0037 0.0235
vn -0.9999 0.0147 -0.0026
vn -0.0194 -0.7248 -0.6887
vn 0.0169 -0.7164 -0.6975
vn 0.0040 -0.7183 -0.6957
vn 0.0093 -0.7332 -0.6800
vn 0.0075 1.0000 -0.0038
vn 0.0003 1.0000 -0.0011
vn -0.5722 0.5632 0.5962
vn -0.5667 0.5538 0.6100
vn -0.5753 0.5754 0.5813
vn -0.7071 0.0000 -0.7071
vn -0.5774 -0.5773 0.5773
vn -0.5774 0.5773 -0.5773
vn -0.5774 -0.5773 -0.5773
vn -0.5774 0.5773 0.5773
vn -0.7071 0.0000 0.7071
vn -0.7071 -0.7071 0.0000
vn 0.0000 -0.7071 -0.7071
vn 0.0000 0.7071 0.7071
vn 0.0000 -1.0000 0.0000
vn 0.0073 -0.9999 -0.0133
vn -0.0175 -0.9998 0.0101
vn -0.0031 -1.0000 -0.0078
usemtl Default_OBJ
s off
f 70/1/1 54/2/1 53/3/1 67/4/1
f 11/5/2 12/6/3 9/7/4 10/8/5
f 15/9/6 16/10/7 13/11/8 14/12/9
f 19/13/7 20/14/10 17/15/11 18/16/7
f 23/17/12 24/18/13 21/19/14 22/20/15
f 30/21/16 29/22/17 25/23/18 2/24/19
f 9/25/20 12/26/21 6/27/22 5/28/23
f 29/22/24 28/29/25 18/30/25 17/31/26
f 32/32/27 31/33/27 19/13/27 18/16/27
f 7/34/28 8/35/29 5/28/30 6/27/31
f 7/36/32 30/37/33 2/38/34
f 14/39/35 3/40/36 21/41/37
f 19/42/38 31/43/38 23/44/38
f 24/45/39 11/46/40 15/47/41
f 22/48/42 26/49/43 20/50/44
f 25/51/45 29/52/46 17/53/47
f 28/54/48 32/55/48 18/56/48
f 24/18/49 23/17/50 31/57/50 11/58/51
f 2/59/52 1/60/53 8/35/53
f 8/35/53 7/34/54 2/59/55
f 12/61/56 32/62/57 28/29/57 27/63/58
f 15/64/59 14/65/60 21/19/61 24/18/62
f 3/66/63 26/67/64 22/20/65 21/19/66
f 20/68/67 19/69/68 23/17/68
f 23/17/68 22/20/69 20/68/70
f 26/70/71 3/71/72 2/72/73 25/73/74
f 16/74/27 15/75/75 11/5/76 10/8/27
f 14/76/77 13/77/78 4/78/79 3/79/80
f 7/36/81 6/80/82 27/81/83 30/37/84
f 29/22/85 30/21/86 27/63/87 28/29/1
f 26/70/88 25/73/89 17/82/90 20/83/91
f 31/33/5 32/32/5 12/84/92 11/85/93
f 12/86/94 27/81/95 6/80/96
f 33/87/97 36/88/97 40/89/97 41/90/97
f 37/91/98 38/92/98 34/93/98
f 39/94/99 40/95/99 36/96/99
f 33/97/100 41/98/100 42/99/100
f 35/100/101 43/101/101 44/102/101
f 35/100/102 34/93/102 38/92/102 43/101/102
f 99/103/29 97/104/29 85/105/29 88/106/29
f 36/88/57 35/100/57 44/102/57 39/107/57
f 34/93/103 33/87/103 42/108/103 37/91/103
f 55/109/1 56/110/1 53/3/1 54/2/1
f 59/111/29 60/112/29 57/113/29 58/114/29
f 61/115/104 64/116/104 45/117/104 48/118/104
f 49/119/1 52/120/1 72/121/1 71/122/1
f 62/123/1 61/124/1 69/125/1 68/126/1
f 67/127/27 66/128/27 74/129/27 73/130/27
f 76/131/104 75/132/104 71/133/104 70/134/104
f 70/1/1 67/4/1 73/135/1 76/136/1
f 59/137/105 58/138/105 50/139/105 49/140/105
f 49/119/1 71/122/1 75/141/1 59/142/1
f 87/143/1 88/144/1 85/145/1 86/146/1
f 89/147/53 92/148/53 79/149/53 78/150/53
f 91/151/105 90/152/105 82/153/105 81/154/105
f 66/155/5 67/156/5 53/157/5 65/158/5
f 95/159/27 94/160/27 84/161/27 83/162/27
f 79/163/106 80/164/106 77/165/106 78/166/106
f 79/167/1 98/168/1 97/169/1 80/170/1
f 93/171/1 97/169/1 99/172/1 94/173/1
f 84/174/1 99/172/1 100/175/1 81/176/1
f 98/177/7 100/178/7 87/179/7 86/180/7
f 97/181/5 98/182/5 86/183/5 85/184/5
f 100/185/106 99/186/106 88/187/106 87/188/106
f 47/189/106 48/190/106 45/191/106 46/192/106
f 57/193/53 60/194/53 47/195/53 46/196/53
f 51/197/5 52/198/5 49/199/5 50/200/5
f 80/170/1 97/169/1 93/171/1
f 94/173/1 99/172/1 84/174/1
f 81/176/1 100/175/1 91/201/1
f 92/202/1 98/168/1 79/167/1
f 63/203/7 64/204/7 61/205/7 62/206/7
f 47/207/1 66/208/1 65/209/1 48/210/1
f 59/142/1 75/141/1 74/211/1 60/212/1
f 60/212/1 74/211/1 66/208/1 47/207/1
f 62/123/1 68/126/1 72/121/1 52/120/1
f 48/210/1 65/209/1 69/125/1 61/124/1
f 56/213/105 69/214/105 65/215/105 53/216/105
f 95/217/7 96/218/7 93/219/7 94/220/7
f 93/221/104 96/222/104 77/223/104 80/224/104
f 91/225/29 92/226/29 89/227/29 90/228/29
f 83/229/5 84/230/5 81/231/5 82/232/5
f 63/233/27 62/234/27 52/235/27 51/236/27
f 75/237/7 76/238/7 73/239/7 74/240/7
f 69/241/29 56/242/29 55/243/29 68/244/29
f 72/245/106 54/246/106 70/247/106 71/248/106
f 54/249/53 72/250/53 68/251/53 55/252/53
f 91/201/1 100/175/1 98/168/1 92/202/1
f 35/100/1 36/88/1 33/87/1 34/93/1
f 3/79/107 4/78/108 1/253/106 2/254/109
