# Blender v3.1.2 OBJ File: 'Modules.blend'
# www.blender.org
mtllib LD_Ventilation.mtl
o Ventilation_Box001_OK.007
v -0.010000 -0.184900 -0.207350
v -0.000000 -0.188600 -0.211450
v -0.000000 -0.188600 0.211450
v -0.010000 -0.184900 0.207350
v 0.000000 0.188600 0.211450
v 0.000000 0.188600 -0.211450
v -0.010000 0.185000 -0.207350
v -0.010000 0.185000 0.207350
v 0.000000 0.172600 0.223850
v -0.010000 0.169300 0.219450
v -0.010000 -0.169200 0.219450
v -0.000000 -0.172600 0.223850
v -0.010000 0.169300 -0.219450
v 0.000000 0.172600 -0.223850
v -0.000000 -0.172600 -0.223850
v -0.010000 -0.169200 -0.219450
v -0.032000 -0.143400 -0.131750
v -0.032000 -0.143400 0.131750
v -0.010000 -0.160600 0.168250
v -0.010000 -0.160600 -0.168250
v -0.010000 0.136400 0.188950
v -0.010000 -0.136400 0.188950
v -0.010000 0.160600 -0.168250
v -0.010000 0.160600 0.168250
v -0.010000 -0.136400 -0.188950
v -0.010000 0.136400 -0.188950
v -0.032000 0.108900 0.168850
v -0.032000 -0.108800 0.168850
v -0.032000 0.143500 -0.131750
v -0.032000 0.143500 0.131750
v -0.032000 -0.108800 -0.168750
v -0.032000 0.108900 -0.168750
v -0.010000 -0.183200 -0.214050
v -0.000000 -0.186800 -0.218350
v -0.000000 -0.186800 0.218350
v -0.010000 -0.183200 0.214150
v -0.010000 0.183200 0.214150
v 0.000000 0.186900 0.218350
v 0.000000 0.186900 -0.218350
v -0.010000 0.183200 -0.214050
v 0.000000 0.181500 0.222450
v -0.010000 0.178000 0.218150
v -0.010000 -0.177900 0.218150
v -0.000000 -0.181500 0.222450
v -0.010000 0.178000 -0.218150
v 0.000000 0.181500 -0.222450
v -0.000000 -0.181500 -0.222450
v -0.010000 -0.177900 -0.218150
v -0.010000 -0.157900 0.179750
v -0.010000 -0.157900 -0.179750
v -0.010000 0.149900 0.186650
v -0.010000 -0.149800 0.186650
v -0.010000 0.157900 -0.179750
v -0.010000 0.157900 0.179750
v -0.010000 -0.149800 -0.186650
v -0.010000 0.149900 -0.186650
v -0.032000 -0.139600 0.152350
v -0.032000 -0.139600 -0.152350
v -0.032000 0.128100 0.164650
v -0.032000 -0.128000 0.164650
v -0.032000 0.139600 -0.152350
v -0.032000 0.139600 0.152350
v -0.032000 -0.128000 -0.164650
v -0.032000 0.128100 -0.164650
vt 0.516821 0.022675
vt 0.516821 0.443957
vt 0.511429 0.415476
vt 0.511429 0.051156
vt 0.949565 0.019633
vt 0.964310 0.024334
vt 0.964310 0.492350
vt 0.949565 0.496912
vt 1.000000 0.594248
vt 0.985682 0.588581
vt 0.985682 0.015210
vt 1.000000 0.009540
vt 0.860263 0.000000
vt 0.860263 0.466770
vt 0.559268 0.466770
vt 0.559268 0.000000
vt 0.549867 0.897455
vt 0.511429 0.947921
vt 0.511429 0.482671
vt 0.549867 0.533136
vt 0.908101 0.415476
vt 0.902847 0.443957
vt 0.902847 0.022675
vt 0.908101 0.051156
vt 0.970119 0.588577
vt 0.970119 0.015207
vt 0.984365 0.009539
vt 0.984365 0.594247
vt 0.474099 0.054890
vt 0.509079 0.007466
vt 0.511429 0.016730
vt 0.477832 0.070790
vt 0.600716 0.523458
vt 0.641679 0.485297
vt 0.641679 0.862475
vt 0.600716 0.824453
vt 0.886809 0.460963
vt 0.886809 0.005669
vt 0.556235 0.523458
vt 0.597282 0.485436
vt 0.597282 0.862613
vt 0.556235 0.824453
vt 0.067195 0.042170
vt 0.021707 0.000000
vt 0.489722 0.000000
vt 0.444372 0.042170
vt 0.444372 0.564660
vt 0.489722 0.606830
vt 0.021707 0.606830
vt 0.067195 0.564660
vt 0.511429 0.590100
vt 0.477832 0.536040
vt 0.501751 0.001797
vt 0.462899 0.045350
vt 0.595400 0.881140
vt 0.552881 0.850999
vt 0.659615 0.474099
vt 0.644950 0.479076
vt 0.641679 0.471748
vt 0.656262 0.466770
vt 0.639798 0.881140
vt 0.597282 0.850999
vt 0.659615 0.975988
vt 0.644950 0.971149
vt 0.646013 0.959120
vt 0.660760 0.963682
vt 0.009678 0.605032
vt 0.048530 0.561480
vt 0.660760 0.486404
vt 0.646013 0.491105
vt 0.968728 0.511568
vt 0.954064 0.516683
vt 0.950710 0.509217
vt 0.965374 0.504378
vt 0.998605 0.603788
vt 0.984365 0.597982
vt 0.002489 0.007466
vt 0.037469 0.054890
vt 0.033736 0.070790
vt 0.000000 0.016730
vt 0.501751 0.605032
vt 0.462899 0.561480
vt 0.474099 0.551940
vt 0.509079 0.599502
vt 0.950710 0.007328
vt 0.965374 0.012306
vt 0.910193 0.000000
vt 0.949565 0.037885
vt 0.946620 0.066365
vt 0.908101 0.015899
vt 0.954064 0.000000
vt 0.968728 0.004978
vt 0.046725 0.651549
vt 0.055418 0.606830
vt 0.069990 0.607839
vt 0.069990 0.650660
vt 0.552881 0.925936
vt 0.513516 0.963820
vt 0.023363 0.607621
vt 0.023363 0.650442
vt 0.008693 0.651549
vt 0.000000 0.606830
vt 0.046725 0.607936
vt 0.046725 0.650758
vt 0.023363 0.651549
vt 0.032055 0.606830
vt 0.656262 0.983454
vt 0.641679 0.978338
vt 0.048530 0.045350
vt 0.009678 0.001797
vt 0.597282 0.496911
vt 0.639798 0.466770
vt 0.984365 0.005946
vt 0.998605 0.000000
vt 0.002489 0.599502
vt 0.037469 0.551940
vt 0.552881 0.496912
vt 0.595400 0.466770
vt 0.983051 0.603788
vt 0.968728 0.597841
vt 0.000000 0.590100
vt 0.033736 0.536040
vt 0.968728 0.005806
vt 0.983051 0.000000
vt 0.078682 0.651549
vt 0.069990 0.606830
vt 0.093254 0.607718
vt 0.093254 0.650540
vt 0.949565 0.459167
vt 0.910193 0.497050
vt 0.908101 0.481149
vt 0.946620 0.430685
vt 0.513516 0.466770
vt 0.552881 0.504653
vt 0.532721 0.005669
vt 0.532721 0.460963
vn -0.9999 -0.0084 -0.0056
vn -1.0000 -0.0078 -0.0049
vn -1.0000 -0.0055 -0.0022
vn -1.0000 -0.0038 -0.0056
vn -0.4220 -0.0817 -0.9029
vn -0.4173 -0.0561 -0.9070
vn -0.4159 0.0579 -0.9076
vn -0.4206 0.0795 -0.9037
vn -0.3910 -0.9101 0.1371
vn -0.3767 -0.9219 0.0904
vn -0.3776 -0.9214 -0.0916
vn -0.3913 -0.9100 -0.1370
vn -1.0000 -0.0011 -0.0022
vn -1.0000 0.0016 0.0003
vn -1.0000 0.0000 0.0000
vn -1.0000 -0.0008 0.0001
vn -0.6425 0.7655 0.0334
vn -0.7151 0.6911 0.1053
vn -0.7136 0.6910 -0.1152
vn -0.6437 0.7647 -0.0295
vn -1.0000 0.0016 0.0009
vn -1.0000 0.0061 0.0049
vn -1.0000 0.0050 0.0040
vn -1.0000 0.0018 0.0006
vn -0.3727 0.9235 -0.0906
vn -0.3729 0.9233 0.0926
vn -0.3856 0.9127 0.1353
vn -0.3893 0.9103 -0.1408
vn -0.9999 -0.0097 -0.0079
vn -1.0000 -0.0011 0.0014
vn -1.0000 -0.0040 -0.0018
vn -0.7017 -0.0396 0.7114
vn -0.7361 -0.0870 0.6712
vn -0.7333 0.0955 0.6732
vn -0.7013 0.0381 0.7119
vn -0.9999 0.0103 0.0012
vn -0.9999 -0.0067 0.0077
vn -0.7024 0.0383 -0.7108
vn -0.7363 0.0888 -0.6708
vn -0.7320 -0.0956 -0.6746
vn -0.7042 -0.0364 -0.7091
vn -1.0000 0.0026 0.0013
vn -1.0000 -0.0007 0.0009
vn -1.0000 -0.0008 -0.0001
vn -1.0000 0.0036 0.0070
vn -1.0000 -0.0058 -0.0024
vn -1.0000 0.0017 -0.0009
vn -1.0000 0.0006 -0.0019
vn -1.0000 -0.0024 -0.0044
vn -1.0000 0.0005 0.0005
vn -1.0000 -0.0030 -0.0060
vn -1.0000 -0.0010 -0.0000
vn -0.9999 0.0085 0.0122
vn -0.7992 -0.3027 -0.5193
vn -0.7990 -0.2397 -0.5514
vn -0.4775 -0.3594 0.8018
vn -0.4692 -0.3266 0.8205
vn -0.4708 -0.7518 0.4618
vn -0.4785 -0.7189 0.5043
vn -0.8006 0.3049 0.5158
vn -0.8025 0.2483 0.5425
vn -0.4725 0.3577 0.8055
vn -0.4688 0.3248 0.8215
vn -0.4151 0.0566 0.9080
vn -0.4197 0.0844 0.9037
vn -1.0000 0.0009 -0.0017
vn -0.9999 -0.0084 -0.0099
vn -0.4191 -0.0818 0.9043
vn -0.4163 -0.0587 0.9073
vn -0.4700 0.7534 -0.4599
vn -0.4743 0.7228 -0.5026
vn -0.4781 0.3619 -0.8003
vn -0.4719 0.3289 -0.8180
vn -1.0000 -0.0009 -0.0003
vn -0.9999 0.0058 0.0159
vn -1.0000 0.0041 0.0082
vn -1.0000 -0.0004 -0.0010
vn -1.0000 0.0014 -0.0005
vn -0.9999 -0.0104 -0.0093
vn -0.9999 -0.0083 -0.0128
vn -1.0000 -0.0010 0.0018
vn -0.4749 -0.3640 -0.8012
vn -0.4722 -0.3262 -0.8189
vn -0.8082 -0.4926 0.3228
vn -0.7802 -0.5784 0.2380
vn -0.6455 -0.7631 0.0312
vn -0.7128 -0.6925 0.1116
vn -0.4788 -0.7190 -0.5037
vn -0.4710 -0.7519 -0.4612
vn -0.7805 0.5790 -0.2357
vn -0.8069 0.4930 -0.3254
vn -0.8093 0.2854 -0.5135
vn -0.7999 0.2564 -0.5427
vn -0.7755 0.5799 0.2496
vn -0.8064 0.5112 0.2973
vn -0.8116 -0.4970 -0.3070
vn -0.7777 -0.5773 -0.2488
vn -0.8106 -0.2809 0.5139
vn -0.7994 -0.2605 0.5413
vn -0.4740 0.7254 0.4991
vn -0.4696 0.7503 0.4653
vn -0.9999 0.0069 0.0076
vn -1.0000 -0.0005 -0.0008
vn -1.0000 0.0009 -0.0016
vn -0.9999 -0.0111 0.0110
vn -1.0000 0.0008 -0.0015
vn -1.0000 0.0059 0.0024
vn -0.7137 -0.6927 -0.1042
vn -0.6452 -0.7633 -0.0329
vn -1.0000 -0.0064 -0.0016
vn -1.0000 0.0046 0.0046
usemtl Default_OBJ
s 1
f 61/1/1 62/2/2 30/3/3 29/4/4
f 15/5/5 16/6/6 13/7/7 14/8/8
f 3/9/9 4/10/10 1/11/11 2/12/12
f 31/13/13 28/14/14 27/15/15 32/16/16
f 30/17/17 24/18/18 23/19/19 29/20/20
f 18/21/21 57/22/22 58/23/23 17/24/24
f 7/25/25 8/26/26 5/27/27 6/28/28
f 50/29/29 33/30/30 1/31/15 20/32/31
f 28/33/32 22/34/33 21/35/34 27/36/35
f 58/23/23 57/22/22 60/37/36 63/38/37
f 32/39/38 26/40/39 25/41/40 31/42/41
f 26/43/42 13/44/43 16/45/44 25/46/45
f 22/47/46 11/48/47 10/49/48 21/50/49
f 20/32/31 1/31/15 4/51/50 19/52/51
f 48/53/52 55/54/53 25/46/45 16/45/44
f 55/55/54 63/56/55 31/42/41 25/41/40
f 44/57/56 43/58/57 36/59/58 35/60/59
f 51/61/60 59/62/61 27/36/35 21/35/34
f 41/63/62 42/64/63 10/65/64 9/66/65
f 42/67/66 51/68/67 21/50/49 10/49/48
f 43/58/57 44/57/56 12/69/68 11/70/69
f 40/71/70 39/72/71 46/73/72 45/74/73
f 35/75/59 36/76/58 4/10/10 3/9/9
f 40/77/74 53/78/75 23/79/76 7/80/77
f 45/74/73 46/73/72 14/8/8 13/7/7
f 43/81/78 52/82/79 49/83/80 36/84/81
f 47/85/82 48/86/83 16/6/6 15/5/5
f 49/87/84 57/88/85 18/89/86 19/90/87
f 48/86/83 47/85/82 34/91/88 33/92/89
f 52/82/79 43/81/78 11/48/47 22/47/46
f 61/93/90 53/94/91 56/95/92 64/96/93
f 62/97/94 54/98/95 24/18/18 30/17/17
f 63/99/55 55/100/54 50/101/96 58/102/97
f 52/103/98 60/104/99 57/105/85 49/106/84
f 38/107/100 37/108/101 42/64/63 41/63/62
f 56/109/102 45/110/103 13/44/43 26/43/42
f 60/111/99 52/112/98 22/34/33 28/33/32
f 33/113/89 34/114/88 2/12/12 1/11/11
f 53/78/75 40/77/74 45/110/103 56/109/102
f 37/115/104 54/116/105 51/68/67 42/67/66
f 64/117/93 56/118/92 26/40/39 32/39/38
f 39/119/71 40/120/70 7/25/25 6/28/28
f 54/116/105 37/115/104 8/121/106 24/122/107
f 37/123/101 38/124/100 5/27/27 8/26/26
f 54/125/95 62/126/94 59/127/61 51/128/60
f 58/129/97 50/130/96 20/131/108 17/132/109
f 55/54/53 48/53/52 33/30/30 50/29/29
f 36/84/81 49/83/80 19/52/51 4/51/50
f 53/133/91 61/134/90 29/20/20 23/19/19
f 64/135/110 59/136/111 62/2/2 61/1/1
f 32/16/16 27/15/15 59/136/111 64/135/110
f 63/38/37 60/37/36 28/14/14 31/13/13
f 24/122/107 8/121/106 7/80/77 23/79/76
f 17/132/109 20/131/108 19/90/87 18/89/86
f 11/70/69 12/69/68 9/66/65 10/65/64
