# Blender v3.1.2 OBJ File: 'Rochers.blend'
# www.blender.org
mtllib Rock_4.mtl
o Rock_4_Cube.014
v -0.319203 -0.490184 1.812344
v 5.320891 -0.597915 -1.963128
v -1.901403 -0.506093 -2.042027
v -4.762181 -1.519642 -0.977297
v -0.227498 0.522583 0.167347
v 0.487375 -0.453959 1.780443
v 1.246193 -0.585900 1.854427
v -4.890464 -1.200380 -0.010688
v -3.646986 -0.351923 1.544279
v 3.876158 0.433341 0.695228
v 4.876218 -0.786472 1.929716
v 5.277814 -0.579167 1.271959
v 4.935219 -0.354859 1.477698
v 4.981248 -0.018286 1.125215
v -3.749900 0.524191 -0.919222
v -0.330987 0.228282 -0.637111
v -0.343563 -0.307734 -1.777326
v 4.874972 -0.786622 1.929919
v 0.428339 -0.559932 1.824710
v 0.365080 -0.592576 1.719434
v 1.846508 0.491321 0.709587
v 0.634216 0.473144 0.689815
v -0.508032 0.558582 0.726240
v 0.767361 0.490489 0.612621
v 0.804591 0.435868 0.764302
v -3.401049 0.641225 0.746700
v -4.815850 -0.232178 -0.567091
v -4.662522 0.036951 -0.570270
v -4.841580 -0.220341 0.043438
v -4.715005 -0.045715 0.192499
v -4.230663 0.520081 0.364177
v -4.238146 0.443398 0.489578
v -4.711377 -0.006924 0.178572
v -4.696791 0.082162 0.044110
v -4.737489 0.011325 0.118587
v -0.453924 0.193068 -1.211563
v -0.400070 0.495736 -0.463827
v -0.331010 0.228313 -0.637142
v -0.227030 0.490793 -0.465054
v -0.269050 0.187787 -1.212873
v -0.330973 0.228315 -0.637146
v 4.734120 0.044865 -1.248259
v 4.312425 0.361117 -0.497159
v 4.571306 0.264642 -0.516171
v -3.749900 0.524191 -0.919222
v -4.002124 0.639149 0.367937
v -4.123710 0.596045 0.341934
v -3.762570 0.536148 -0.836515
v -3.749982 0.591431 -0.440134
v -3.475883 -0.228900 1.646358
v -3.186866 -0.142116 1.717111
v -3.479296 -0.126373 1.626017
v -3.252740 -0.772286 2.018568
v -3.514926 -0.602600 1.823503
v -3.510756 -0.814282 1.900534
v -3.255247 -0.788072 2.028172
v -3.496904 -0.122010 1.578405
v -3.584584 -0.118079 1.529898
v -3.568943 -0.141428 1.548487
v -3.561383 -0.161388 1.572858
v -3.507003 -0.123925 1.605587
v -3.784463 0.475770 0.898217
v -3.702956 0.497585 0.914067
vt 0.604147 0.389211
vt 0.592842 0.394245
vt 0.574115 0.381444
vt 0.624814 0.100391
vt 0.616541 0.103854
vt 0.618544 0.100380
vt 0.655775 0.245161
vt 0.673270 0.308796
vt 0.662447 0.304388
vt 0.338023 0.559055
vt 0.392740 0.537616
vt 0.419196 0.680646
vt 0.518474 0.631098
vt 0.648574 0.607124
vt 0.648574 0.726443
vt 0.798840 0.765162
vt 0.812276 0.794202
vt 0.807764 0.792589
vt 0.447342 0.116374
vt 0.451929 0.136809
vt 0.445078 0.118376
vt 0.445078 0.469340
vt 0.485678 0.313892
vt 0.540439 0.310118
vt 0.517497 0.278604
vt 0.648943 0.316130
vt 0.286147 0.524948
vt 0.255781 0.494370
vt 0.286507 0.524017
vt 0.286228 0.525925
vt 0.343518 0.507032
vt 0.647225 0.780959
vt 0.667822 0.728495
vt 0.667743 0.749681
vt 0.673270 0.392752
vt 0.677950 0.466658
vt 0.675322 0.365415
vt 0.683475 0.353322
vt 0.690349 0.245161
vt 0.690349 0.369801
vt 0.572063 0.245161
vt 0.248670 0.545682
vt 0.258432 0.859245
vt 0.263792 0.860594
vt 0.443026 0.998974
vt 0.593840 0.559701
vt 0.590230 0.570077
vt 0.583960 0.567123
vt 0.760090 0.347061
vt 0.736569 0.771530
vt 0.731434 0.007802
vt 0.774982 0.419043
vt 0.770845 0.341472
vt 0.796788 0.001026
vt 0.667822 0.788743
vt 0.572063 0.605072
vt 0.613353 0.107516
vt 0.631511 0.123853
vt 0.637962 0.215185
vt 0.688916 0.095100
vt 0.688453 0.123955
vt 0.729382 0.243109
vt 0.631487 0.092608
vt 0.586425 0.041073
vt 0.719873 0.001026
vt 0.727747 0.001084
vt 0.445078 0.627391
vt 0.528986 0.607274
vt 0.299476 0.077422
vt 0.641456 0.459669
vt 0.646891 0.496927
vt 0.204813 0.510241
vt 0.161362 0.403355
vt 0.622130 0.566713
vt 0.593428 0.569526
vt 0.622108 0.500733
vt 0.595164 0.499499
vt 0.622130 0.498979
vt 0.593776 0.520639
vt 0.583177 0.039830
vt 0.453350 0.056707
vt 0.581852 0.569323
vt 0.588764 0.572384
vt 0.612677 0.329771
vt 0.583866 0.252317
vt 0.590007 0.245161
vt 0.080369 0.827523
vt 0.001026 0.796581
vt 0.104389 0.803202
vt 0.580338 0.393806
vt 0.605357 0.333176
vt 0.646891 0.337866
vt 0.380576 0.045100
vt 0.443026 0.010925
vt 0.812276 0.001026
vt 0.809723 0.795177
vt 0.475825 0.540669
vt 0.206819 0.510606
vt 0.390476 0.537412
vt 0.445078 0.757396
vt 0.250345 0.859499
vt 0.212452 0.853749
vt 0.309349 0.986980
vt 0.286350 0.966580
vt 0.574115 0.549916
vt 0.791963 0.001722
vt 0.764306 0.271621
vt 0.792260 0.766247
vt 0.796788 0.744119
vt 0.450183 0.113650
vt 0.598546 0.034645
vt 0.729382 0.001776
vt 0.603817 0.031994
vt 0.606464 0.019884
vt 0.131676 0.865989
vt 0.142420 0.520281
vt 0.162574 0.301218
vt 0.180455 0.110157
vt 0.529123 0.015541
vt 0.579394 0.571322
vt 0.087236 0.001026
vt 0.146360 0.398318
vt 0.133018 0.001380
vn -0.3823 0.7743 0.5042
vn -0.8608 0.2414 0.4481
vn 0.0928 0.9339 -0.3454
vn 0.0168 0.7503 -0.6609
vn 0.3530 0.9328 0.0726
vn 0.0285 0.9963 0.0808
vn -0.8183 0.2935 0.4942
vn 0.8898 0.4318 -0.1478
vn 0.6622 0.4969 0.5609
vn 0.0553 -0.4427 0.8950
vn -0.9248 0.3799 -0.0200
vn 0.8752 0.4340 -0.2137
vn -0.9507 0.2851 -0.1221
vn -0.8142 0.1843 0.5505
vn 0.0416 0.9470 -0.3187
vn -0.1428 -0.2905 0.9462
vn -0.0178 0.9817 0.1898
vn 0.0810 0.9335 0.3494
vn 0.0806 0.9529 0.2925
vn -0.0210 0.8740 0.4855
vn 0.0593 0.9238 -0.3782
vn -0.4095 0.2279 -0.8834
vn -0.5796 0.1400 0.8028
vn 0.0393 0.6223 0.7818
vn 0.8821 0.3948 -0.2570
vn -0.0038 0.6990 0.7151
vn -0.6593 0.3772 0.6504
vn 0.4734 -0.8808 0.0114
vn -0.7637 0.0024 0.6456
vn -0.8682 0.4941 -0.0462
vn -0.9913 0.0007 -0.1318
vn -0.4934 0.7488 0.4426
vn -0.7540 0.5823 0.3040
vn -0.5198 0.8306 -0.1997
vn 0.9023 0.3730 -0.2160
vn -0.8911 0.4358 -0.1265
vn 0.3287 0.9222 -0.2037
vn 0.0238 0.9261 -0.3766
vn -0.2515 0.9596 -0.1259
vn 0.0546 0.9973 -0.0501
vn -0.2840 0.1775 0.9423
vn -0.4240 0.5189 0.7423
vn -0.3347 0.4320 0.8375
vn -0.7151 0.3196 0.6217
vn -0.4371 0.6246 0.6472
vn -0.3559 0.6258 0.6940
vn 0.0259 0.7351 0.6775
vn -0.4554 0.7714 0.4445
vn -0.4386 0.7923 0.4241
vn -0.3083 0.8661 0.3934
vn -0.2302 0.9039 0.3604
vn 0.0000 0.0000 1.0000
vn 0.7418 0.6705 0.0060
vn 0.7809 0.6245 -0.0138
vn -0.9251 0.3793 -0.0198
vn 0.8749 0.4344 -0.2139
vn -0.9515 0.2823 -0.1222
vn 0.0273 0.9899 -0.1389
vn -0.4601 0.2521 -0.8513
vn 0.0222 0.4295 0.9028
vn 0.0376 0.6445 0.7636
vn 0.0255 0.7213 0.6921
vn 0.0182 0.4008 0.9160
vn 0.8818 0.3949 -0.2579
vn 0.0257 0.7231 0.6903
vn 0.0241 0.4196 0.9074
vn 0.0102 0.5185 0.8550
vn 0.0103 0.5098 0.8602
vn -0.8989 0.4304 -0.0818
vn -0.9977 0.0521 -0.0431
vn -0.7552 0.5783 0.3086
vn -0.6476 0.7564 -0.0918
vn -0.5924 0.7940 -0.1367
vn -0.5200 0.8300 -0.2016
vn -0.3018 0.9415 -0.1498
vn 0.0282 0.9983 -0.0502
vn -0.0009 1.0000 0.0011
vn 0.0498 0.9980 -0.0393
vn -0.4368 0.3000 0.8481
vn -0.3394 0.4346 0.8342
vn -0.6079 0.4734 0.6374
vn -0.7055 0.2970 0.6435
vn -0.5087 0.8512 -0.1290
vn -0.4390 0.3610 0.8228
vn -0.3084 0.6424 0.7015
vn 0.0286 0.7477 0.6634
vn 0.0026 0.6773 0.7357
vn 0.0446 0.6985 0.7142
vn 0.0258 0.7351 0.6775
usemtl None
s off
f 46/1/1 47/2/1 32/3/1
f 35/4/2 30/5/2 33/6/2
f 1/7/3 19/8/3 20/9/3
f 36/10/4 17/11/4 3/12/4
f 44/13/5 10/14/5 14/15/5
f 51/16/6 57/17/6 52/18/6
f 59/19/7 9/20/7 60/21/7
f 44/22/8 14/23/8 12/24/8
f 12/24/9 14/23/9 13/25/9
f 6/26/10 1/7/10 20/9/10
f 16/27/11 39/28/11 41/29/11
f 16/27/12 36/10/12 38/30/12
f 40/31/13 16/27/13 41/29/13
f 9/32/14 55/33/14 54/34/14
f 20/9/15 19/8/15 7/35/15
f 20/9/16 7/35/16 6/26/16
f 21/36/17 24/37/17 22/38/17
f 22/38/18 24/37/18 23/39/18
f 23/39/19 25/40/19 22/38/19
f 22/38/20 25/40/20 21/36/20
f 11/41/9 12/24/9 13/25/9
f 37/42/21 36/10/21 45/43/21
f 15/44/22 3/12/22 4/45/22
f 50/46/23 61/47/23 60/48/23
f 6/49/24 13/50/24 51/51/24
f 37/42/25 16/27/25 38/30/25
f 7/52/26 19/53/26 56/54/26
f 50/55/27 9/32/27 54/34/27
f 12/24/28 11/41/28 2/56/28
f 30/57/29 29/58/29 8/59/29
f 28/60/30 27/61/30 29/58/30
f 8/59/31 27/61/31 4/62/31
f 33/6/32 34/63/32 35/4/32
f 32/64/33 34/63/33 33/6/33
f 48/65/34 45/66/34 28/60/34
f 36/10/35 37/42/35 38/30/35
f 39/28/36 40/31/36 41/29/36
f 42/67/37 43/68/37 44/13/37
f 43/69/38 40/31/38 39/28/38
f 47/2/39 49/70/39 48/71/39
f 39/28/40 5/72/40 24/73/40
f 50/46/41 51/74/41 52/75/41
f 53/76/42 55/77/42 56/78/42
f 54/79/43 51/74/43 50/46/43
f 32/80/44 30/5/44 58/81/44
f 59/82/45 60/48/45 57/83/45
f 63/84/46 58/85/46 57/86/46
f 63/87/47 57/88/47 26/89/47
f 47/2/48 31/90/48 32/3/48
f 32/3/49 62/91/49 46/1/49
f 62/91/50 63/84/50 46/1/50
f 63/84/51 26/92/51 46/1/51
f 35/4/2 29/58/2 30/5/2
f 42/93/4 2/94/4 17/11/4
f 2/94/4 3/12/4 17/11/4
f 15/44/52 45/43/52 36/10/52
f 17/11/4 40/31/4 42/93/4
f 15/44/4 36/10/4 3/12/4
f 44/13/5 43/68/5 10/14/5
f 13/95/6 57/17/6 51/16/6
f 57/17/6 61/96/6 52/18/6
f 59/19/7 8/59/7 9/20/7
f 12/24/53 2/56/53 42/97/53
f 42/97/54 44/22/54 12/24/54
f 16/27/55 5/98/55 39/28/55
f 16/27/56 17/99/56 36/10/56
f 40/31/57 17/99/57 16/27/57
f 9/32/14 8/100/14 55/33/14
f 45/43/58 48/101/58 49/102/58
f 49/102/58 37/42/58 45/43/58
f 4/45/59 27/103/59 15/44/59
f 27/103/59 28/104/59 15/44/59
f 60/48/23 9/105/23 50/46/23
f 50/46/23 52/75/23 61/47/23
f 51/51/60 53/106/60 1/107/60
f 6/49/61 7/52/61 13/50/61
f 7/52/62 11/108/62 13/50/62
f 51/51/63 1/107/63 6/49/63
f 37/42/64 5/98/64 16/27/64
f 18/109/65 11/108/65 7/52/65
f 19/53/66 1/107/66 56/54/66
f 1/107/67 53/106/67 56/54/67
f 18/109/68 7/52/68 56/54/68
f 8/59/29 59/19/29 58/110/29
f 58/110/29 30/57/29 8/59/29
f 29/58/69 35/4/69 34/63/69
f 34/63/69 28/60/69 29/58/69
f 8/59/70 29/58/70 27/61/70
f 32/64/71 31/111/71 34/63/71
f 45/66/52 15/112/52 28/60/52
f 28/60/72 34/63/72 31/113/72
f 31/113/73 47/114/73 28/60/73
f 47/114/74 48/65/74 28/60/74
f 43/69/38 42/93/38 40/31/38
f 47/2/75 46/1/75 49/70/75
f 37/42/76 49/102/76 26/89/76
f 49/102/76 46/115/76 26/89/76
f 26/89/76 23/116/76 37/42/76
f 24/73/77 21/117/77 39/28/77
f 21/117/76 10/118/76 43/69/76
f 23/116/78 24/73/78 5/72/78
f 5/72/76 37/42/76 23/116/76
f 43/69/76 39/28/76 21/117/76
f 53/76/79 54/79/79 55/77/79
f 54/79/80 53/76/80 51/74/80
f 58/81/81 62/119/81 32/80/81
f 32/80/82 33/6/82 30/5/82
f 61/47/83 57/83/83 60/48/83
f 57/83/84 58/120/84 59/82/84
f 63/84/85 62/91/85 58/85/85
f 57/88/86 13/121/86 25/122/86
f 13/121/62 14/123/62 10/118/62
f 25/122/87 13/121/87 21/117/87
f 10/118/62 21/117/62 13/121/62
f 25/122/88 23/116/88 57/88/88
f 23/116/89 26/89/89 57/88/89
