# Blender v3.1.2 OBJ File: 'Arbre.blend'
# www.blender.org
mtllib Arbre_LOD_2.mtl
v -0.328200 20.000000 0.263009
v 0.338094 0.000000 -1.917823
v -0.973691 0.000000 -1.686469
v -0.500000 4.279253 -0.866000
v -1.829973 0.000000 -0.666019
v -0.939700 4.279253 -0.342000
v -1.829973 -0.000000 0.666019
v -0.939700 4.279253 0.342000
v -0.973691 -0.000000 1.686469
v 0.338094 -0.000000 1.917823
v 0.173600 4.279253 0.984800
v 1.491748 -0.000000 1.251804
v 0.766000 4.279253 0.642800
v 1.000000 4.279253 0.000000
v -0.500000 4.279253 0.866000
v 1.491748 0.000000 -1.251804
v 0.173600 4.279253 -0.984800
v 1.947445 0.000000 0.000000
v 0.766000 4.279253 -0.587997
v -2.832149 12.304913 -1.684651
v -0.412371 14.459837 -1.810448
v 1.549503 12.656842 -2.214628
v -0.393580 11.025055 -3.185298
v -0.981288 4.410814 -0.904167
v -1.396747 4.286532 0.112440
v -3.503518 3.952162 0.108129
v 3.447231 3.529028 -0.052392
v 4.277297 5.832688 -0.359440
v 0.189349 3.498491 3.628469
v -0.117103 4.401218 -3.789875
v 1.274095 4.244456 0.099881
v 0.919813 4.401238 -0.893292
v -0.532619 9.452149 -2.522324
v -4.672433 6.547535 -0.098652
v -0.523115 9.318757 2.906924
v -1.005700 4.281168 1.061903
v 0.093649 17.428270 -1.514407
v -1.041518 16.684378 -1.014938
v -1.631089 17.742262 0.063744
v 0.888034 4.257598 1.056787
v -0.051859 4.263437 1.451706
v -0.003156 4.526387 -1.356093
v 0.591877 20.630617 -0.476744
v 0.924564 19.840393 -0.075679
v 0.301198 19.578775 -0.847149
v -0.674756 4.037162 -0.152095
v 2.342366 14.659253 -0.258803
v 2.817959 12.921484 1.314630
v 3.461261 11.184875 -0.240897
v -0.299385 4.092638 -0.544790
v 0.197100 4.017500 0.734503
v 1.059798 16.157141 -0.373690
v -0.613520 9.489288 -3.309420
v 2.334414 9.603344 -2.417393
v 1.617539 15.941651 0.427179
v 1.022611 15.945245 1.377982
v -0.315700 4.017500 0.734503
v 0.566578 4.042212 -0.153660
v -0.218134 20.642643 0.339956
v -0.579637 19.644367 -0.038059
v 0.202636 19.646044 0.667480
v -0.196796 17.551174 1.576818
v 0.783897 16.407185 1.203432
v 1.332673 17.634079 0.316917
v -0.678300 4.017500 0.371903
v -3.490017 10.408122 0.241355
v -3.509144 11.340924 0.429967
v -2.909878 10.222099 -1.928303
v 3.300034 9.667991 -0.477548
v 0.559703 4.017511 0.371897
v 0.215667 4.091994 -0.543143
v -2.068871 14.614892 0.155686
v -2.237364 13.545425 1.464765
v -0.213393 15.911738 1.674955
v -1.190166 16.061886 1.049556
v 0.474775 14.756193 2.070414
v -2.521694 10.018797 2.445215
v 0.031077 10.911886 3.416920
v 0.622074 20.629234 0.314611
v -1.649142 16.297356 -0.094498
v -1.392878 16.855398 -0.606688
v -1.184860 16.219690 -1.160736
v -0.520456 9.502936 3.609922
v 2.808541 9.628322 2.127959
v -0.090233 16.091312 -1.104629
v -1.128314 16.538750 0.857656
v -0.242616 20.642780 -0.456451
v -1.421937 16.744375 0.395559
v 1.213772 16.590090 0.101917
v 0.509034 16.676760 -0.618648
v 0.934668 16.583878 -0.221742
v -0.523812 16.607346 -1.186430
v 0.226221 16.448795 1.405225
v -0.770069 16.503643 1.209772
v 1.130829 16.484255 0.845669
v 3.157966 8.161961 0.423597
v 2.882719 8.161736 -1.735811
v -3.049459 9.219278 1.266593
v 1.478319 8.217923 3.028486
v -3.404949 9.233934 -0.909510
v -1.809509 8.412976 3.107931
v -1.931566 8.622232 -2.677246
v 0.640624 7.603036 -3.258808
v -0.500000 1.337542 -0.866000
v -0.939700 1.337542 0.342000
v 0.766000 1.337542 -0.615399
v 0.766000 1.337542 0.642800
v -0.939700 1.337542 -0.342000
v -0.500000 1.337542 0.866000
v 0.173600 1.337542 0.984800
v 1.000000 1.337542 0.000000
v 0.173600 1.337542 -0.984800
vt 0.198001 0.462640
vt 0.199802 0.555657
vt 0.007984 0.584756
vt 0.000000 0.471570
vt 0.208270 0.647225
vt 0.234957 0.732102
vt 0.060268 0.802078
vt 0.026112 0.691279
vt 0.282077 0.122254
vt 0.249981 0.197518
vt 0.079636 0.105654
vt 0.156812 0.000000
vt 0.223131 0.283065
vt 0.028401 0.229982
vt 0.599133 0.183299
vt 0.584939 0.257020
vt 0.206200 0.369573
vt 0.573217 0.330944
vt 0.566244 0.397493
vt 0.005156 0.353428
vt 0.258776 0.812757
vt 0.111736 0.906620
vt 0.561813 0.540950
vt 0.565357 0.611349
vt 0.562568 0.469487
vt 0.573207 0.680550
vt 0.585285 0.749179
vt 0.599133 0.817240
vt 0.292979 0.884224
vt 0.186678 1.000000
vt 0.252049 0.159275
vt 0.276973 0.221687
vt 0.258487 0.267625
vt 0.185711 0.232067
vt 0.260207 0.670577
vt 0.315349 0.695939
vt 0.274644 0.733968
vt 0.249300 0.755859
vt 0.256778 0.746669
vt 0.273118 0.760914
vt 0.251979 0.735506
vt 0.202568 0.802305
vt 0.184134 0.739730
vt 0.259140 0.743258
vt 0.262340 0.741838
vt 0.260669 0.744981
vt 0.344171 0.749208
vt 0.548664 0.607623
vt 0.507448 0.528217
vt 0.599910 0.561538
vt 0.255390 0.837212
vt 0.317370 0.800479
vt 0.216716 0.703566
vt 0.592564 0.613963
vt 0.592965 0.617078
vt 0.586522 0.613948
vt 0.372731 0.503318
vt 0.306879 0.250282
vt 0.339508 0.271570
vt 0.314574 0.327466
vt 0.157267 0.499647
vt 0.364357 0.999171
vt 0.302930 0.230344
vt 0.108845 0.232732
vt 0.194470 0.375310
vt 0.309387 0.233371
vt 0.315913 0.228896
vt 0.507448 0.853705
vt 0.000000 0.837258
vt 0.594006 0.612738
vt 0.594216 0.604124
vt 0.599872 0.614519
vt 0.646199 0.612270
vt 0.704176 0.730048
vt 0.594359 0.656799
vt 0.507448 0.649804
vt 0.292306 0.065905
vt 0.303047 0.108062
vt 0.183293 0.100728
vt 0.308434 0.395659
vt 0.143570 1.000000
vt 0.021037 0.624543
vt 0.301893 0.194803
vt 0.325686 0.176374
vt 0.317404 0.220460
vt 0.312808 0.213038
vt 0.331935 0.225220
vt 0.417466 0.084946
vt 0.422564 0.208816
vt 0.593781 0.614029
vt 0.304189 0.212491
vt 0.302533 0.215966
vt 0.298233 0.215811
vt 0.485413 0.183254
vt 0.428920 0.341769
vt 0.297666 0.222730
vt 0.704176 0.499647
vt 0.592716 0.612668
vt 0.306811 0.215545
vt 0.307015 0.228847
vt 0.303035 0.225126
vt 0.524184 0.718759
vt 0.300275 0.219750
vt 0.313634 0.223252
vt 0.312112 0.217767
vt 0.310945 0.228346
vt 0.397363 0.485249
vt 0.201029 0.499647
vt 0.374376 0.000000
vt 0.545496 0.310220
vt 0.200443 0.003902
vt 0.545496 0.077844
vt 0.052798 0.127216
vt 0.000000 0.357771
vn 0.6259 0.3365 0.7036
vn 0.1704 0.1901 0.9668
vn 0.2746 0.5849 0.7632
vn 0.6998 0.5865 0.4078
vn -0.5857 0.3366 0.7373
vn -0.9229 0.1883 0.3359
vn -0.7069 0.5799 0.4050
vn -0.2806 0.5823 0.7630
vn -0.5029 0.2853 -0.8159
vn 0.1853 0.1714 -0.9676
vn -0.0366 0.5779 -0.8153
vn -0.4682 0.5695 -0.6756
vn 0.7565 0.1925 -0.6251
vn 0.5230 0.5870 -0.6179
vn -0.5306 -0.0226 -0.8473
vn 0.3757 -0.0019 -0.9267
vn 0.9299 0.3390 -0.1430
vn 0.8714 -0.0008 -0.4906
vn 0.9869 0.0081 0.1608
vn 0.7971 0.5876 -0.1390
vn -0.8821 0.3225 -0.3434
vn -0.7581 0.5829 -0.2924
vn 0.0010 0.0154 0.9999
vn -0.6439 0.0083 0.7650
vn 0.6449 0.0153 0.7641
vn -0.9854 -0.0032 0.1702
vn -0.9422 -0.0299 -0.3338
vn -0.5679 0.5091 -0.6468
vn 0.0628 0.3039 -0.9506
vn 0.3241 0.2156 -0.9211
vn -0.2652 0.3336 -0.9046
vn -0.0188 -0.9982 -0.0563
vn -0.1420 -0.9879 -0.0616
vn -0.3195 -0.9323 -0.1694
vn 0.8712 -0.4868 -0.0633
vn 0.9047 0.3622 0.2244
vn 0.3227 -0.8246 0.4647
vn -0.2698 -0.7843 -0.5586
vn -0.0928 -0.9834 -0.1559
vn -0.0295 -0.9964 -0.0797
vn 0.3353 0.7317 -0.5934
vn -0.5960 0.7893 -0.1472
vn -0.2222 0.7427 0.6317
vn -0.0481 -0.9902 -0.1312
vn -0.0814 -0.2589 -0.9625
vn -0.5101 -0.6298 -0.5858
vn -0.9396 0.1978 -0.2792
vn -0.0801 -0.9823 -0.1695
vn 0.0050 -0.9999 0.0125
vn -0.0870 -0.9896 -0.1142
vn 0.5713 0.5455 -0.6133
vn 0.9727 0.0855 -0.2157
vn 0.2017 0.4064 -0.8912
vn -0.3348 -0.9158 -0.2220
vn 0.9369 0.3416 -0.0741
vn 0.9116 0.1833 0.3680
vn 0.9050 0.2910 -0.3103
vn -0.1263 -0.8868 -0.4445
vn 0.1255 -0.9426 0.3094
vn 0.7441 0.2239 -0.6295
vn -0.0911 0.3699 -0.9246
vn 0.3160 0.0696 -0.9462
vn 0.8177 0.4559 0.3516
vn 0.7353 0.3339 0.5898
vn -0.1404 -0.9375 0.3186
vn 0.2982 -0.9303 -0.2136
vn -0.5843 0.5156 0.6267
vn -0.9100 0.3646 0.1976
vn -0.0424 0.4649 0.8844
vn 0.0822 -0.0717 0.9940
vn 0.4931 -0.5770 0.6511
vn 0.9250 0.0633 0.3748
vn -0.3311 -0.9354 0.1239
vn -0.9489 0.2863 0.1328
vn -0.9934 0.0959 -0.0633
vn -0.9481 0.0768 -0.3085
vn 0.8840 -0.0662 -0.4627
vn 0.2932 -0.9488 0.1175
vn 0.1243 -0.8927 -0.4333
vn -0.9611 0.2624 -0.0857
vn -0.6541 0.5784 0.4874
vn -0.4393 0.2957 0.8483
vn -0.5611 0.1583 0.8125
vn 0.0163 0.5813 0.8135
vn -0.8687 0.2743 0.4125
vn -0.0840 0.4065 0.9098
vn 0.6169 0.5128 0.5971
vn -0.9015 0.3990 -0.1677
vn -0.7554 0.5212 -0.3972
vn -0.6859 0.3898 -0.6146
vn 0.0568 0.3272 0.9432
vn 0.9588 -0.0450 0.2805
vn 0.5399 0.2490 -0.8041
vn -0.6315 -0.6297 0.4524
vn -0.6276 0.4975 -0.5988
vn -0.8194 0.4485 0.3570
vn 0.7239 0.6340 -0.2721
vn 0.5101 0.4415 -0.7382
vn 0.6298 -0.6968 -0.3432
vn 0.0791 0.3903 -0.9173
vn 0.1353 0.6367 0.7591
vn -0.4139 0.5353 0.7363
vn 0.5928 0.6882 0.4183
vn 0.9141 -0.3739 0.1568
vn 0.8258 -0.2930 -0.4818
vn -0.8958 -0.3068 0.3216
vn 0.4337 -0.3054 0.8477
vn -0.9365 -0.2610 -0.2343
vn -0.4995 -0.3266 0.8024
vn -0.5575 -0.2676 -0.7859
vn 0.1951 -0.2478 -0.9490
g Arbre_LOD_2_Arbre_LOD_2_wire_028089177.003
usemtl wire_028089177.003
s 1
f 107/1/1 110/2/2 10/3/3 12/4/4
f 109/5/5 105/6/6 7/7/7 9/8/8
f 110/2/2 109/5/5 9/8/8 10/3/3
f 104/9/9 112/10/10 2/11/11 3/12/12
f 112/10/10 106/13/13 16/14/14 2/11/11
f 4/15/15 17/16/16 112/10/10 104/9/9
f 111/17/17 106/13/13 19/18/18 14/19/19
f 18/20/20 16/14/14 106/13/13 111/17/17
f 107/1/1 12/4/4 18/20/20 111/17/17
f 108/21/21 5/22/22 7/7/7 105/6/6
f 11/23/23 15/24/24 109/5/5 110/2/2
f 13/25/25 11/23/23 110/2/2 107/1/1
f 15/24/24 8/26/26 105/6/6 109/5/5
f 13/25/25 107/1/1 111/17/17 14/19/19
f 6/27/27 4/28/15 104/29/9 108/21/21
f 6/27/27 108/21/21 105/6/6 8/26/26
f 17/16/16 19/18/18 106/13/13 112/10/10
f 108/21/21 104/29/9 3/30/12 5/22/22
g Arbre_LOD_2_Arbre_LOD_2_wire_087225143.003
usemtl wire_087225143.003
f 20/31/28 21/32/29 22/33/30 23/34/31
f 24/35/32 25/36/33 26/37/34
f 27/38/35 28/39/36 29/40/37
f 30/41/38 24/35/32 26/37/34
f 31/42/39 32/43/40 27/38/35
f 33/44/41 28/39/36 30/41/38 34/45/42
f 35/46/43 34/45/42 29/40/37 28/39/36
f 25/36/33 36/47/44 26/37/34
f 37/48/45 38/49/46 39/50/47
f 31/42/39 27/38/35 40/51/48
f 36/47/44 41/52/49 29/40/37
f 42/53/50 24/35/32 30/41/38
f 41/52/49 40/51/48 29/40/37
f 43/54/51 44/55/52 45/56/53
f 24/35/32 46/57/54 25/36/33
f 47/58/55 48/59/56 49/60/57 22/33/30
f 24/35/32 50/61/58 46/57/54
f 41/52/49 51/62/59 40/51/48
f 47/58/55 22/33/30 21/32/29 52/63/60
f 53/64/61 23/34/31 54/65/62
f 47/58/55 55/66/63 56/67/64
f 41/52/49 57/68/65 51/62/59
f 27/38/35 32/43/40 30/41/38
f 31/42/39 58/69/66 32/43/40
f 59/70/67 60/71/68 61/72/69
f 62/73/70 63/74/71 64/75/72
f 26/37/34 34/45/42 30/41/38
f 65/76/73 36/47/44 25/36/33
f 66/77/74 67/78/75 68/79/76
f 49/60/57 69/80/77 54/65/62
f 57/68/65 41/52/49 36/47/44
f 40/51/48 70/81/78 31/42/39
f 42/53/50 50/61/58 24/35/32
f 32/43/40 71/82/79 42/53/50
f 72/83/80 20/31/28 67/78/75 73/84/81
f 36/47/44 65/76/73 57/68/65
f 23/34/31 53/64/61 68/79/76
f 25/36/33 46/57/54 65/76/73
f 42/53/50 71/82/79 50/61/58
f 32/43/40 58/69/66 71/82/79
f 74/85/82 75/86/83 76/87/84
f 31/42/39 70/81/78 58/69/66
f 66/77/74 77/88/85 67/78/75
f 40/51/48 51/62/59 70/81/78
f 54/65/62 23/34/31 22/33/30 49/60/57
f 73/84/81 67/78/75 77/88/85 78/89/86
f 52/63/60 55/66/63 47/58/55
f 79/90/87 61/72/69 44/55/52
f 80/91/88 81/92/89 82/93/90
f 83/94/91 78/89/86 77/88/85
f 56/67/64 76/87/84 48/59/56 47/58/55
f 72/83/80 73/84/81 76/87/84 75/86/83
f 48/59/56 76/87/84 73/84/81 78/89/86
f 69/80/77 49/60/57 84/95/92
f 48/59/56 78/89/86 84/95/92 49/60/57
f 85/96/93 52/63/60 21/32/29
f 75/86/83 80/91/88 72/83/80
f 86/97/94 63/74/71 62/73/70
f 60/71/68 59/70/67 87/98/95
f 20/31/28 23/34/31 68/79/76 67/78/75
f 82/93/90 85/96/93 21/32/29
f 88/99/96 80/91/88 75/86/83
f 89/100/97 55/66/63 52/63/60
f 90/101/98 52/63/60 85/96/93
f 91/102/99 38/49/46 37/48/45
f 81/92/89 92/103/100 82/93/90
f 93/104/101 94/105/102 74/85/82
f 95/106/103 93/104/101 56/67/64
f 96/107/104 97/108/105 69/80/77
f 95/106/103 56/67/64 55/66/63
f 89/100/97 95/106/103 55/66/63
f 88/99/96 81/92/89 80/91/88
f 74/85/82 94/105/102 75/86/83
f 94/105/102 88/99/96 75/86/83
f 93/104/101 74/85/82 56/67/64
f 90/101/98 89/100/97 52/63/60
f 69/80/77 97/108/105 54/65/62
f 92/103/100 90/101/98 85/96/93
f 66/77/74 98/109/106 77/88/85
f 99/110/107 96/107/104 84/95/92
f 68/79/76 100/111/108 66/77/74
f 40/51/48 27/38/35 29/40/37
f 77/88/85 101/112/109 83/94/91
f 53/64/61 102/113/110 68/79/76
f 101/112/109 99/110/107 83/94/91
f 60/71/68 87/98/95 45/56/53
f 54/65/62 103/114/111 53/64/61
f 26/37/34 36/47/44 29/40/37
f 78/89/86 83/94/91 84/95/92
f 97/108/105 103/114/111 54/65/62
f 82/93/90 92/103/100 85/96/93
f 103/114/111 102/113/110 53/64/61
f 39/50/47 86/97/94 62/73/70
f 60/71/68 45/56/53 37/48/45 39/50/47
f 102/113/110 100/111/108 68/79/76
f 80/91/88 82/93/90 72/83/80
f 83/94/91 99/110/107 84/95/92
f 100/111/108 98/109/106 66/77/74
f 72/83/80 82/93/90 21/32/29 20/31/28
f 96/107/104 69/80/77 84/95/92
f 98/109/106 101/112/109 77/88/85
f 74/85/82 76/87/84 56/67/64
f 45/56/53 44/55/52 64/75/72 37/48/45
f 38/49/46 86/97/94 39/50/47
f 35/46/43 28/39/36 33/44/41 34/45/42
f 79/90/87 59/70/67 61/72/69
f 63/74/71 91/102/99 64/75/72
f 61/72/69 60/71/68 39/50/47 62/73/70
f 28/39/36 27/38/35 30/41/38
f 45/56/53 87/98/95 43/54/51
f 64/75/72 91/102/99 37/48/45
f 42/53/50 30/41/38 32/43/40
f 34/45/42 26/37/34 29/40/37
f 44/55/52 61/72/69 62/73/70 64/75/72
f 79/90/87 44/55/52 43/54/51
