# Blender v3.1.2 OBJ File: 'Modules.blend'
# www.blender.org
mtllib Mur_cont_1c.mtl
o Mur_cont_1c_Box001_OK.015
v 0.000000 -0.000000 3.030000
v 0.152500 3.000000 3.030002
v 2.907500 3.000000 3.030002
v 0.030000 2.818099 3.030002
v 0.030000 0.181900 3.030000
v 3.059999 3.030000 3.030002
v 2.907500 3.030000 3.030002
v 0.152500 3.030000 3.030002
v 0.000000 3.030000 3.030002
v 0.000000 2.818099 3.030002
v 0.000000 0.181900 3.030000
v 0.152500 3.030000 0.000051
v 0.000000 3.030000 0.000001
v 0.000000 0.000000 0.000000
v 2.907500 3.030000 0.000051
v 3.059999 3.030000 0.000001
v 0.152500 3.000000 0.000051
v 0.030000 2.818100 0.000051
v 0.000000 2.818100 0.000051
v 0.000000 0.181900 0.000051
v 2.907500 3.000000 0.000051
v 0.030000 0.181900 0.000051
vt 0.480849 0.478215
vt 0.000118 0.478154
vt 0.000069 0.469763
vt 0.480800 0.469824
vt 0.480886 0.971070
vt 0.000155 0.971010
vt 0.000107 0.962619
vt 0.480837 0.962680
vt 0.000111 0.535971
vt 0.480841 0.536031
vt 0.480890 0.544422
vt 0.000159 0.544361
vt 0.000076 0.024266
vt 0.480807 0.024327
vt 0.480856 0.032717
vt 0.000125 0.032656
vt 0.000115 0.502350
vt 0.480854 0.502410
vt 0.000079 0.000069
vt 0.480818 0.000130
vt 0.480890 0.999931
vt 0.000151 0.999870
vn 1.0000 0.0000 0.0000
vn 0.0000 1.0000 0.0000
vn 0.0000 -1.0000 -0.0000
vn -1.0000 0.0000 0.0000
usemtl Default_OBJ.006
s off
f 12/1/1 8/2/1 2/3/1 17/4/1
f 20/5/2 11/6/2 5/7/2 22/8/2
f 10/9/3 19/10/3 18/11/3 4/12/3
f 7/13/4 15/14/4 21/15/4 3/16/4
s 1
f 22/8/4 5/7/4 4/12/4 18/11/4
f 19/10/4 10/9/4 9/17/4 13/18/4
f 15/14/2 7/13/2 6/19/2 16/20/2
f 20/5/4 14/21/4 1/22/4 11/6/4
f 3/16/2 21/15/2 17/4/2 2/3/2
f 8/2/2 12/1/2 13/18/2 9/17/2
