# Blender v3.1.2 OBJ File: 'Modules.blend'
# www.blender.org
mtllib Mur_F_3c.mtl
o Mur_F_3c_Box001_OK.023
v 2.999999 -0.000001 3.000000
v -0.000001 -0.000001 3.000000
v 0.149509 2.970296 2.847822
v 2.850489 2.970296 2.847822
v 2.850489 2.790197 2.970297
v 0.149509 2.790197 2.970297
v 0.149509 0.180098 2.970297
v 2.850489 0.180098 2.970297
v 2.970587 2.790197 2.847822
v 2.970587 0.180098 2.847822
v 0.029411 2.790197 2.847822
v 0.029411 0.180098 2.847822
v 2.999999 2.999999 3.000000
v 2.850489 2.999999 2.847822
v 0.149509 2.999999 2.847822
v -0.000001 2.999999 3.000000
v 2.999999 0.180098 2.847822
v 2.999999 2.790197 2.847822
v -0.000001 2.790197 2.847822
v -0.000001 0.180098 2.847822
v 2.850489 2.790197 3.000000
v 2.850489 0.180098 3.000000
v 0.149509 0.180098 3.000000
v 0.149509 2.790197 3.000000
v 2.999999 -0.000000 0.000000
v -0.000001 3.000000 0.000000
v 2.999999 2.790198 0.000050
v 0.149509 3.000000 0.000051
v 2.999999 0.180099 0.000050
v -0.000001 -0.000000 0.000000
v 2.850489 3.000000 0.000051
v 2.999999 3.000000 0.000001
v 0.149509 2.970297 0.000051
v 2.970587 2.790198 0.000050
v 0.029411 2.790198 0.000050
v -0.000001 2.790198 0.000050
v -0.000001 0.180099 0.000050
v 2.850489 2.970297 0.000051
v 2.970587 0.180099 0.000050
v 0.029411 0.180099 0.000050
vt 0.688532 0.959385
vt 0.688532 0.654580
vt 0.980193 0.654580
vt 0.980193 0.959385
vt 0.000293 0.685432
vt 0.319143 0.685432
vt 0.319143 0.977671
vt 0.000293 0.977671
vt 0.017338 0.017472
vt 0.000262 0.000262
vt 0.342892 0.000262
vt 0.325817 0.017472
vt 0.367142 0.017337
vt 0.367142 0.325819
vt 0.343415 0.342894
vt 0.343416 0.000262
vt 0.682683 0.367145
vt 0.360626 0.367145
vt 0.343415 0.343419
vt 0.682688 0.343418
vt 0.360626 0.662322
vt 0.343416 0.682690
vt 0.325817 0.339526
vt 0.342892 0.339532
vt 0.980219 0.964476
vt 0.688557 0.964476
vt 0.682688 0.000262
vt 0.662321 0.017337
vt 0.315805 0.662134
vt 0.339531 0.679343
vt 0.000262 0.679344
vt 0.020630 0.662133
vt 0.999738 0.000262
vt 0.999738 0.319099
vt 0.994174 0.319131
vt 0.994174 0.000293
vt 0.324243 0.685406
vt 0.324243 0.977645
vt 0.994202 0.324461
vt 0.688805 0.324461
vt 0.688776 0.319131
vt 0.682683 0.662322
vt 0.682688 0.682690
vt 0.981041 0.648966
vt 0.688802 0.648966
vt 0.688777 0.643865
vt 0.981016 0.643865
vt 0.000262 0.679867
vt 0.319112 0.679867
vt 0.985513 0.654551
vt 0.985513 0.959357
vt 0.662321 0.325819
vt 0.682688 0.342895
vt 0.683212 0.959414
vt 0.683212 0.654608
vt 0.020630 0.340072
vt 0.000262 0.340067
vt 0.688506 0.649489
vt 0.980168 0.649489
vt 0.986581 0.324984
vt 0.986581 0.643834
vt 0.981016 0.325015
vt 0.319174 0.983236
vt 0.000324 0.983236
vt 0.683212 0.643897
vt 0.683212 0.325047
vt 0.688777 0.325015
vt 0.683212 0.319162
vt 0.683212 0.000324
vt 0.688776 0.000293
vt 0.315804 0.340080
vt 0.339531 0.340074
vt 0.017338 0.339538
vt 0.000262 0.339543
vn 0.0000 -0.0000 1.0000
vn -1.0000 0.0000 0.0000
vn 0.0000 1.0000 -0.0000
vn 1.0000 -0.0000 0.0000
vn 0.0000 0.0000 -1.0000
vn 0.0000 -1.0000 0.0000
usemtl Default_OBJ.015
s off
f 7/1/1 8/2/1 5/3/1 6/4/1
f 40/5/2 12/6/2 11/7/2 35/8/2
f 15/9/3 16/10/3 13/11/3 14/12/3
f 24/13/1 21/14/1 13/15/1 16/16/1
f 36/17/2 19/18/2 16/19/2 26/20/2
f 20/21/2 2/22/2 16/19/2 19/18/2
f 31/23/3 14/12/3 13/11/3 32/24/3
f 24/25/4 23/26/4 7/1/4 6/4/4
f 24/13/1 16/16/1 2/27/1 23/28/1
f 18/29/4 13/30/4 1/31/4 17/32/4
f 28/33/4 15/34/4 3/35/4 33/36/4
f 20/37/5 19/38/5 11/7/5 12/6/5
f 15/39/5 14/40/5 4/41/5 3/35/5
f 20/21/2 37/42/2 30/43/2 2/22/2
f 18/44/5 17/45/5 10/46/5 9/47/5
f 37/48/3 20/49/3 12/6/3 40/5/3
f 21/50/6 24/51/6 6/4/6 5/3/6
f 22/52/1 1/53/1 13/15/1 21/14/1
f 23/54/3 22/55/3 8/2/3 7/1/3
f 22/52/1 23/28/1 2/27/1 1/53/1
f 29/56/4 17/32/4 1/31/4 25/57/4
f 22/58/2 21/59/2 5/3/2 8/2/2
f 27/60/6 18/61/6 9/47/6 34/62/6
f 19/63/6 36/64/6 35/8/6 11/7/6
f 17/65/3 29/66/3 39/67/3 10/46/3
f 14/68/2 31/69/2 38/70/2 4/41/2
f 4/41/3 38/70/3 33/36/3 3/35/3
f 18/29/4 27/71/4 32/72/4 13/30/4
f 15/9/3 28/73/3 26/74/3 16/10/3
f 10/46/4 39/67/4 34/62/4 9/47/4
