# Blender v3.1.2 OBJ File: 'Pont.blend'
# www.blender.org
mtllib LD_Pont.mtl
o Renfort_Cube.011
v 5.000000 2.000099 22.499969
v 5.000000 3.000099 22.499969
v 5.000000 2.000099 21.499969
v 5.000000 3.000099 21.499969
v 6.000000 2.000099 22.499969
v 6.000000 3.000099 22.499969
v 6.000000 2.000099 21.499969
v 6.000000 3.000099 21.499969
v 5.000000 2.000099 1.500000
v 5.000000 3.000099 1.500000
v 5.000000 2.000099 -1.500000
v 6.000000 2.000099 1.500000
v 6.000000 3.000099 1.500000
v 6.000000 2.000099 -1.500000
v 6.000000 3.000099 -1.500000
v 5.000000 3.707206 -0.792892
v 6.000000 3.707206 -0.792892
v 5.000000 2.000099 -21.500000
v 5.000000 3.000099 -21.500000
v 5.000000 2.000099 -22.500000
v 5.000000 3.000099 -22.500000
v 6.000000 2.000099 -21.500000
v 6.000000 3.000099 -21.500000
v 6.000000 2.000099 -22.500000
v 6.000000 3.000099 -22.500000
v 5.000000 12.896649 9.985280
v 6.000000 12.896649 9.985280
v 5.000000 3.707206 0.792892
v 6.000000 3.707206 0.792892
v 5.000000 13.892486 9.985280
v 5.000000 12.192486 10.707076
v 5.000000 12.192486 12.292863
v 6.000000 13.892486 9.985280
v 6.000000 12.192486 12.292863
v 6.000000 12.192486 10.707076
v 5.999996 12.899594 13.014689
v 5.999999 3.707206 22.207077
v 4.999996 12.899594 13.014689
v 4.999999 3.707206 22.207077
v 5.000000 3.707206 -22.207108
v 6.000000 3.707206 -22.207108
v 4.999999 3.000099 -1.500031
v 5.000000 12.896649 -13.000031
v 5.000000 13.892486 -10.000031
v 5.000000 12.896649 -10.000031
v 6.000000 12.896649 -13.000031
v 6.000000 13.892486 -10.000031
v 6.000000 12.896649 -10.000031
v 5.000000 12.192486 -12.292923
v 5.000000 12.192486 -10.707138
v 6.000000 12.192486 -10.707138
v 6.000000 12.192486 -12.292923
v -6.000000 2.000099 22.499969
v -6.000000 3.000099 22.499969
v -6.000000 2.000099 21.499969
v -6.000000 3.000099 21.499969
v -5.000000 2.000099 22.499969
v -5.000000 3.000099 22.499969
v -5.000000 2.000099 21.499969
v -5.000000 3.000099 21.499969
v -6.000000 2.000099 1.500000
v -6.000000 3.000099 1.500000
v -6.000000 2.000099 -1.500000
v -5.000000 2.000099 1.500000
v -5.000000 3.000099 1.500000
v -5.000000 2.000099 -1.500000
v -5.000000 3.000099 -1.500000
v -6.000000 3.707206 -0.792892
v -5.000000 3.707206 -0.792892
v -6.000000 2.000099 -21.500000
v -6.000000 3.000099 -21.500000
v -6.000000 2.000099 -22.500000
v -6.000000 3.000099 -22.500000
v -5.000000 2.000099 -21.500000
v -5.000000 3.000099 -21.500000
v -5.000000 2.000099 -22.500000
v -5.000000 3.000099 -22.500000
v -6.000000 12.896649 9.985280
v -5.000000 12.896649 9.985280
v -6.000000 3.707206 0.792892
v -5.000000 3.707206 0.792892
v -6.000000 13.892486 9.985280
v -6.000000 12.192486 10.707076
v -6.000000 12.192486 12.292863
v -5.000000 13.892486 9.985280
v -5.000000 12.192486 12.292863
v -5.000000 12.192486 10.707076
v -5.000004 12.899594 13.014689
v -5.000001 3.707206 22.207077
v -6.000004 12.899594 13.014689
v -6.000001 3.707206 22.207077
v -6.000000 3.707206 -22.207108
v -5.000000 3.707206 -22.207108
v -6.000001 3.000099 -1.500031
v -6.000000 12.896649 -13.000031
v -6.000000 13.892486 -10.000031
v -6.000000 12.896649 -10.000031
v -5.000000 12.896649 -13.000031
v -5.000000 13.892486 -10.000031
v -5.000000 12.896649 -10.000031
v -6.000000 12.192486 -12.292923
v -6.000000 12.192486 -10.707138
v -5.000000 12.192486 -10.707138
v -5.000000 12.192486 -12.292923
v 4.999998 1.000000 22.500000
v 4.999998 2.000000 22.500000
v 4.999998 1.000000 -22.500000
v 4.999998 2.000000 -22.500000
v 5.999998 1.000000 22.500000
v 5.999998 2.000000 22.500000
v 5.999998 1.000000 -22.500000
v 5.999998 2.000000 -22.500000
v -6.000000 0.000000 22.500000
v -6.000000 1.000000 22.500000
v -6.000000 0.000000 -22.500000
v -6.000000 1.000000 -22.500000
v 6.000000 0.000000 22.500000
v 6.000000 1.000000 22.500000
v 6.000000 0.000000 -22.500000
v 6.000000 1.000000 -22.500000
v -6.000002 1.000000 22.500000
v -6.000002 2.000000 22.500000
v -6.000002 1.000000 -22.500000
v -6.000002 2.000000 -22.500000
v -5.000002 1.000000 22.500000
v -5.000002 2.000000 22.500000
v -5.000002 1.000000 -22.500000
v -5.000002 2.000000 -22.500000
vt 0.750000 0.000000
vt 0.762568 0.000000
vt 0.762568 0.014081
vt 0.750000 0.014081
vt 0.339232 0.647752
vt 0.326696 0.647752
vt 0.326696 0.633671
vt 0.339232 0.633671
vt 0.301623 0.619589
vt 0.314190 0.619589
vt 0.314190 0.633670
vt 0.301623 0.633670
vt 0.138182 0.633671
vt 0.138182 0.647718
vt 0.125614 0.647718
vt 0.125614 0.633671
vt 0.314190 0.295713
vt 0.314190 0.337957
vt 0.301623 0.337957
vt 0.301623 0.295713
vt 0.263889 0.633671
vt 0.276425 0.633671
vt 0.276425 0.647752
vt 0.263889 0.647752
vt 0.762567 0.295713
vt 0.762567 0.337957
vt 0.750000 0.337957
vt 0.750000 0.295713
vt 0.401915 0.647752
vt 0.389378 0.647752
vt 0.389378 0.633670
vt 0.401915 0.633670
vt 0.238785 0.633671
vt 0.251352 0.633671
vt 0.251352 0.656001
vt 0.238785 0.656001
vt 0.771454 0.305670
vt 0.771454 0.328001
vt 0.323077 0.305670
vt 0.323077 0.328001
vt 0.750000 0.619589
vt 0.762567 0.619589
vt 0.762567 0.633670
vt 0.750000 0.633670
vt 0.150812 0.796145
vt 0.150812 0.782098
vt 0.163379 0.782098
vt 0.163379 0.796145
vt 0.301623 0.000000
vt 0.314191 0.000000
vt 0.314191 0.014081
vt 0.301623 0.014081
vt 0.301498 0.647752
vt 0.288962 0.647752
vt 0.288962 0.633671
vt 0.301498 0.633671
vt 0.886944 0.176227
vt 0.899459 0.176227
vt 0.899459 0.457651
vt 0.886944 0.457651
vt 0.438567 0.176019
vt 0.451082 0.176019
vt 0.451082 0.457444
vt 0.438567 0.457444
vt 0.075406 0.633671
vt 0.087974 0.633671
vt 0.087974 0.915096
vt 0.075406 0.915096
vt 0.012568 0.675925
vt 0.025135 0.675925
vt 0.025135 0.957350
vt 0.012568 0.957350
vt 0.878094 0.166063
vt 0.429717 0.467608
vt 0.062838 0.633671
vt 0.075406 0.633671
vt 0.075406 0.763321
vt 0.062838 0.763321
vt 0.201082 0.633671
vt 0.213650 0.633671
vt 0.213650 0.771862
vt 0.201082 0.771862
vt 0.025135 1.000000
vt 0.012568 1.000000
vt 0.075406 0.785652
vt 0.062838 0.785652
vt 0.438604 0.500103
vt 0.429717 0.489938
vt 0.323077 0.629546
vt 0.771454 0.004125
vt 0.886981 0.133568
vt 0.878094 0.143732
vt 0.075406 0.915302
vt 0.062838 0.915302
vt 0.125614 0.657940
vt 0.138182 0.657940
vt 0.138182 0.796173
vt 0.125614 0.796173
vt 0.878094 0.489938
vt 0.886943 0.499895
vt 0.771454 0.629546
vt 0.323077 0.004125
vt 0.438567 0.133775
vt 0.429717 0.143732
vt 0.025136 0.633670
vt 0.037703 0.633670
vt 0.037703 0.763321
vt 0.025136 0.763321
vt 0.163379 0.771876
vt 0.150812 0.771876
vt 0.150812 0.633670
vt 0.163379 0.633670
vt 0.429717 0.166063
vt 0.878094 0.467608
vt 0.037703 0.915302
vt 0.025136 0.915302
vt 0.025136 0.785651
vt 0.037703 0.785651
vt 0.188514 0.633671
vt 0.201082 0.633671
vt 0.201082 0.771877
vt 0.188514 0.771877
vt 0.012568 0.633671
vt 0.025135 0.633671
vt 0.451082 0.000000
vt 0.463650 0.000000
vt 0.463650 0.014081
vt 0.451082 0.014081
vt 0.288962 0.647752
vt 0.276425 0.647752
vt 0.276425 0.633671
vt 0.288962 0.633671
vt 0.600541 0.619589
vt 0.613108 0.619589
vt 0.613108 0.633670
vt 0.600541 0.633670
vt 0.138182 0.796174
vt 0.138182 0.782126
vt 0.150749 0.782126
vt 0.150749 0.796174
vt 0.613108 0.295713
vt 0.613108 0.337957
vt 0.600541 0.337957
vt 0.600541 0.295713
vt 0.251353 0.633671
vt 0.263889 0.633671
vt 0.263889 0.647752
vt 0.251353 0.647752
vt 0.463649 0.295713
vt 0.463649 0.337957
vt 0.451082 0.337957
vt 0.451082 0.295713
vt 0.364305 0.647752
vt 0.351769 0.647752
vt 0.351769 0.633670
vt 0.364305 0.633670
vt 0.226217 0.633671
vt 0.238785 0.633671
vt 0.238785 0.656001
vt 0.226217 0.656001
vt 0.472536 0.305670
vt 0.472536 0.328001
vt 0.621995 0.305670
vt 0.621995 0.328001
vt 0.451082 0.619589
vt 0.463649 0.619589
vt 0.463649 0.633670
vt 0.451082 0.633670
vt 0.163379 0.796145
vt 0.163379 0.782098
vt 0.175947 0.782098
vt 0.175947 0.796145
vt 0.600541 0.000000
vt 0.613109 0.000000
vt 0.613109 0.014081
vt 0.600541 0.014081
vt 0.351769 0.647752
vt 0.339232 0.647752
vt 0.339232 0.633670
vt 0.351769 0.633670
vt 0.588026 0.176227
vt 0.600541 0.176227
vt 0.600541 0.457651
vt 0.588026 0.457651
vt 0.737484 0.176019
vt 0.750000 0.176019
vt 0.750000 0.457444
vt 0.737484 0.457444
vt 0.087974 0.633671
vt 0.100541 0.633671
vt 0.100541 0.915097
vt 0.087974 0.915096
vt 0.000000 0.675925
vt 0.012568 0.675925
vt 0.012568 0.957350
vt 0.000000 0.957350
vt 0.579176 0.166063
vt 0.728635 0.467608
vt 0.050271 0.633671
vt 0.062838 0.633671
vt 0.062838 0.763321
vt 0.050271 0.763321
vt 0.213650 0.633671
vt 0.226217 0.633671
vt 0.226217 0.771862
vt 0.213650 0.771862
vt 0.012568 1.000000
vt 0.000000 1.000000
vt 0.062838 0.785652
vt 0.050271 0.785652
vt 0.737522 0.500103
vt 0.728635 0.489938
vt 0.621995 0.629546
vt 0.472536 0.004125
vt 0.588063 0.133568
vt 0.579176 0.143732
vt 0.062838 0.915302
vt 0.050271 0.915302
vt 0.150749 0.771904
vt 0.138182 0.771904
vt 0.138182 0.633671
vt 0.150749 0.633671
vt 0.579176 0.489938
vt 0.588026 0.499895
vt 0.472536 0.629546
vt 0.621995 0.004125
vt 0.737485 0.133775
vt 0.728635 0.143732
vt 0.037703 0.633670
vt 0.050271 0.633670
vt 0.050271 0.763321
vt 0.037703 0.763321
vt 0.175947 0.771876
vt 0.163379 0.771876
vt 0.163379 0.633670
vt 0.175947 0.633670
vt 0.728635 0.166063
vt 0.579176 0.467608
vt 0.050271 0.915302
vt 0.037703 0.915302
vt 0.037703 0.785651
vt 0.050271 0.785651
vt 0.175947 0.633671
vt 0.188514 0.633671
vt 0.188514 0.771877
vt 0.175947 0.771877
vt 0.000000 0.633671
vt 0.012568 0.633671
vt 0.987432 0.633670
vt 0.974864 0.633670
vt 0.974864 0.000000
vt 0.987432 0.000000
vt 0.314159 0.633671
vt 0.326696 0.633671
vt 0.326696 0.647752
vt 0.314159 0.647752
vt 0.937162 0.633670
vt 0.924594 0.633670
vt 0.924594 0.000000
vt 0.937162 0.000000
vt 0.389378 0.647752
vt 0.376842 0.647752
vt 0.376842 0.633670
vt 0.389378 0.633670
vt 0.912026 0.000000
vt 0.924594 0.000000
vt 0.924594 0.633670
vt 0.912026 0.633670
vt 0.949729 0.633670
vt 0.937162 0.633670
vt 0.937162 0.000000
vt 0.949729 0.000000
vt 0.962297 0.633670
vt 0.949729 0.633670
vt 0.949729 0.000000
vt 0.962297 0.000000
vt 0.000000 0.000000
vt 0.150812 0.000000
vt 0.150811 0.633670
vt 0.000000 0.633670
vt 1.000000 0.633670
vt 0.987432 0.633670
vt 0.987432 0.000000
vt 1.000000 0.000000
vt 0.301623 0.633671
vt 0.314159 0.633671
vt 0.314159 0.647752
vt 0.301623 0.647752
vt 0.974865 0.633670
vt 0.962297 0.633670
vt 0.962297 0.000000
vt 0.974865 0.000000
vt 0.376842 0.647752
vt 0.364305 0.647752
vt 0.364305 0.633670
vt 0.376842 0.633670
vt 0.899459 0.000000
vt 0.912026 0.000000
vt 0.912026 0.633670
vt 0.899459 0.633670
vt 0.100541 0.633671
vt 0.113078 0.633671
vt 0.113078 0.802650
vt 0.100541 0.802650
vt 0.125614 0.802649
vt 0.113078 0.802649
vt 0.113078 0.633671
vt 0.125614 0.633671
vt 0.150812 0.000000
vt 0.301623 0.000000
vt 0.301623 0.633670
vt 0.150812 0.633670
vn -1.0000 0.0000 0.0000
vn 0.0000 0.0000 -1.0000
vn 1.0000 0.0000 0.0000
vn 0.0000 0.0000 1.0000
vn 0.0000 1.0000 -0.0000
vn 0.0000 -1.0000 0.0000
vn 0.0000 -0.7077 0.7065
vn 0.0000 0.7072 -0.7070
vn 0.0000 0.9503 0.3114
vn 0.0000 -0.7077 -0.7065
vn 0.0000 0.7071 0.7071
vn 0.0000 0.7078 -0.7064
vn 0.0000 0.7078 0.7064
vn 0.0000 0.9491 -0.3150
vn 0.0000 0.3827 -0.9239
vn 0.0000 0.3827 0.9239
usemtl Matériau.003
s off
f 1/1/1 2/2/1 4/3/1 3/4/1
f 3/5/2 4/6/2 8/7/2 7/8/2
f 7/9/3 8/10/3 6/11/3 5/12/3
f 5/13/4 6/14/4 2/15/4 1/16/4
f 15/17/3 13/18/3 12/19/3 14/20/3
f 11/21/2 42/22/2 15/23/2 14/24/2
f 10/25/1 42/26/1 11/27/1 9/28/1
f 12/29/4 13/30/4 10/31/4 9/32/4
f 17/33/5 16/34/5 28/35/5 29/36/5
f 28/37/1 16/38/1 42/26/1 10/25/1
f 17/39/3 29/40/3 13/18/3 15/17/3
f 18/41/1 19/42/1 21/43/1 20/44/1
f 20/45/2 21/46/2 25/47/2 24/48/2
f 24/49/3 25/50/3 23/51/3 22/52/3
f 22/53/4 23/54/4 19/55/4 18/56/4
f 26/57/1 30/58/1 44/59/1 45/60/1
f 48/61/3 47/62/3 33/63/3 27/64/3
f 45/65/6 48/66/6 27/67/6 26/68/6
f 47/69/5 44/70/5 30/71/5 33/72/5
f 31/73/1 26/57/1 28/37/1 10/25/1
f 13/18/3 29/40/3 27/64/3 35/74/3
f 10/75/7 13/76/7 35/77/7 31/78/7
f 29/79/8 28/80/8 26/81/8 27/82/8
f 30/71/9 38/83/9 36/84/9 33/72/9
f 34/85/6 32/86/6 31/78/6 35/77/6
f 27/64/3 36/87/3 34/88/3 35/74/3
f 34/88/3 36/87/3 37/89/3 8/10/3
f 4/3/1 39/90/1 38/91/1 32/92/1
f 8/93/10 4/94/10 32/86/10 34/85/10
f 39/95/11 37/96/11 36/97/11 38/98/11
f 49/99/1 43/100/1 40/101/1 19/42/1
f 23/51/3 41/102/3 46/103/3 52/104/3
f 19/105/7 23/106/7 52/107/7 49/108/7
f 41/109/12 40/110/12 43/111/12 46/112/12
f 51/113/3 48/61/3 17/39/3 15/17/3
f 42/26/1 16/38/1 45/60/1 50/114/1
f 15/115/10 42/116/10 50/117/10 51/118/10
f 16/119/13 17/120/13 48/121/13 45/122/13
f 49/99/1 50/114/1 45/60/1 43/100/1
f 51/113/3 52/104/3 46/103/3 48/61/3
f 47/69/14 46/123/14 43/124/14 44/70/14
f 51/118/6 50/117/6 49/108/6 52/107/6
f 48/61/3 46/103/3 47/62/3
f 19/42/1 40/101/1 21/43/1
f 43/100/1 45/60/1 44/59/1
f 25/47/15 21/46/15 40/110/15 41/109/15
f 31/73/1 32/92/1 38/91/1 26/57/1
f 30/58/1 26/57/1 38/91/1
f 36/87/3 27/64/3 33/63/3
f 23/51/3 25/50/3 41/102/3
f 4/3/1 2/2/1 39/90/1
f 2/15/16 6/14/16 37/96/16 39/95/16
f 8/10/3 37/89/3 6/11/3
f 53/125/1 54/126/1 56/127/1 55/128/1
f 55/129/2 56/130/2 60/131/2 59/132/2
f 59/133/3 60/134/3 58/135/3 57/136/3
f 57/137/4 58/138/4 54/139/4 53/140/4
f 67/141/3 65/142/3 64/143/3 66/144/3
f 63/145/2 94/146/2 67/147/2 66/148/2
f 62/149/1 94/150/1 63/151/1 61/152/1
f 64/153/4 65/154/4 62/155/4 61/156/4
f 69/157/5 68/158/5 80/159/5 81/160/5
f 80/161/1 68/162/1 94/150/1 62/149/1
f 69/163/3 81/164/3 65/142/3 67/141/3
f 70/165/1 71/166/1 73/167/1 72/168/1
f 72/169/2 73/170/2 77/171/2 76/172/2
f 76/173/3 77/174/3 75/175/3 74/176/3
f 74/177/4 75/178/4 71/179/4 70/180/4
f 78/181/1 82/182/1 96/183/1 97/184/1
f 100/185/3 99/186/3 85/187/3 79/188/3
f 97/189/6 100/190/6 79/191/6 78/192/6
f 99/193/5 96/194/5 82/195/5 85/196/5
f 83/197/1 78/181/1 80/161/1 62/149/1
f 65/142/3 81/164/3 79/188/3 87/198/3
f 62/199/7 65/200/7 87/201/7 83/202/7
f 81/203/8 80/204/8 78/205/8 79/206/8
f 82/195/9 90/207/9 88/208/9 85/196/9
f 86/209/6 84/210/6 83/202/6 87/201/6
f 79/188/3 88/211/3 86/212/3 87/198/3
f 86/212/3 88/211/3 89/213/3 60/134/3
f 56/127/1 91/214/1 90/215/1 84/216/1
f 60/217/10 56/218/10 84/210/10 86/209/10
f 91/219/11 89/220/11 88/221/11 90/222/11
f 101/223/1 95/224/1 92/225/1 71/166/1
f 75/175/3 93/226/3 98/227/3 104/228/3
f 71/229/7 75/230/7 104/231/7 101/232/7
f 93/233/12 92/234/12 95/235/12 98/236/12
f 103/237/3 100/185/3 69/163/3 67/141/3
f 94/150/1 68/162/1 97/184/1 102/238/1
f 67/239/10 94/240/10 102/241/10 103/242/10
f 68/243/13 69/244/13 100/245/13 97/246/13
f 101/223/1 102/238/1 97/184/1 95/224/1
f 103/237/3 104/228/3 98/227/3 100/185/3
f 99/193/14 98/247/14 95/248/14 96/194/14
f 103/242/6 102/241/6 101/232/6 104/231/6
f 100/185/3 98/227/3 99/186/3
f 71/166/1 92/225/1 73/167/1
f 95/224/1 97/184/1 96/183/1
f 77/171/15 73/170/15 92/234/15 93/233/15
f 83/197/1 84/216/1 90/215/1 78/181/1
f 82/182/1 78/181/1 90/215/1
f 88/211/3 79/188/3 85/187/3
f 75/175/3 77/174/3 93/226/3
f 56/127/1 54/126/1 91/214/1
f 54/139/16 58/138/16 89/220/16 91/219/16
f 60/134/3 89/213/3 58/135/3
usemtl Matériau.004
f 105/249/1 106/250/1 108/251/1 107/252/1
f 107/253/2 108/254/2 112/255/2 111/256/2
f 111/257/3 112/258/3 110/259/3 109/260/3
f 109/261/4 110/262/4 106/263/4 105/264/4
f 112/265/5 108/266/5 106/267/5 110/268/5
f 113/269/1 114/270/1 116/271/1 115/272/1
f 119/273/3 120/274/3 118/275/3 117/276/3
f 115/277/6 119/278/6 117/279/6 113/280/6
f 121/281/1 122/282/1 124/283/1 123/284/1
f 123/285/2 124/286/2 128/287/2 127/288/2
f 127/289/3 128/290/3 126/291/3 125/292/3
f 125/293/4 126/294/4 122/295/4 121/296/4
f 128/297/5 124/298/5 122/299/5 126/300/5
usemtl Matériau.002
f 115/301/2 116/302/2 120/303/2 119/304/2
f 117/305/4 118/306/4 114/307/4 113/308/4
f 120/309/5 116/310/5 114/311/5 118/312/5
